<?xml version="1.0" standalone="no"?>
<!DOCTYPE svg PUBLIC "-//W3C//DTD SVG 1.1//EN" "http://www.w3.org/Graphics/SVG/1.1/DTD/svg11.dtd" >
<svg xmlns="http://www.w3.org/2000/svg" xmlns:xlink="http://www.w3.org/1999/xlink" version="1.1">
<metadata>
Created by FontForge 20201107 at Fri Dec 14 07:57:41 2018
 By Jimmy Wärting
Typeface (c) (Darrell Flood). 2016. All Rights Reserved
</metadata>
<defs>
<font id="RoundyRainbows" horiz-adv-x="1152" >
  <font-face 
    font-family="Roundy Rainbows"
    font-weight="400"
    font-stretch="normal"
    units-per-em="2048"
    panose-1="2 0 5 0 0 0 0 0 0 0"
    ascent="1638"
    descent="-410"
    x-height="1408"
    cap-height="1536"
    bbox="-3 -387 2262 1792"
    underline-thickness="150"
    underline-position="-292"
    unicode-range="U+001D-20AC"
  />
<missing-glyph horiz-adv-x="1024" 
 />
    <glyph glyph-name=".notdef" horiz-adv-x="1024" 
 />
    <glyph glyph-name=".null" horiz-adv-x="0" 
 />
    <glyph glyph-name=".null" horiz-adv-x="0" 
 />
    <glyph glyph-name="nonmarkingreturn" horiz-adv-x="508" 
 />
    <glyph glyph-name="space" unicode=" " horiz-adv-x="508" 
 />
    <glyph glyph-name="space" unicode="&#xa0;" horiz-adv-x="508" 
 />
    <glyph glyph-name="exclam" unicode="!" horiz-adv-x="512" 
d="M384 640q0 -128 -192 -128q-190 0 -192 125v902q2 125 192 125q192 0 192 -128v-896zM0 256q0 128 128 128h128q128 0 128 -128v-128q0 -128 -128 -128h-128q-128 0 -128 128v128z" />
    <glyph glyph-name="quotedbl" unicode="&#x22;" horiz-adv-x="1024" 
d="M0 1536q0 128 128 128h128q128 0 128 -128v-384q0 -128 -128 -128h-128q-128 0 -128 128v384zM512 1536q0 128 128 128h128q128 0 128 -128v-384q0 -128 -128 -128h-128q-128 0 -128 128v384z" />
    <glyph glyph-name="numbersign" unicode="#" horiz-adv-x="1536" 
d="M640 1152h128v121q0 128 192 128q190 0 192 -125v-124h125q128 0 128 -192q0 -190 -125 -192h-128v-128h125q128 0 128 -192q0 -190 -125 -192h-128v-131q-2 -125 -192 -125q-192 0 -192 128v128h-128v-131q-2 -125 -192 -125q-192 0 -192 128v128h-128q-125 2 -125 192
q0 192 128 192h125v128h-131q-125 2 -125 192q0 192 128 192h128v121q0 128 192 128q190 0 192 -125v-124zM768 768h-128v-128h128v128z" />
    <glyph glyph-name="dollar" unicode="$" horiz-adv-x="1280" 
d="M384 1387v152q2 125 192 125q192 0 192 -128v-143q136 -26 240 -96q144 -97 144 -208q0 -170 -221 -170q-81 0 -169 66t-250 66q-128 -3 -128 -79q0 -40 191 -70q27 -8 119 -31q85 -21 137 -36q94 -29 138 -53.5t68 -42.5t48 -44q70 -99 70 -230q0 -206 -151 -331
q-95 -79 -236 -112v-148q0 -128 -192 -128q-190 0 -192 125v145q-136 28 -240 103q-144 104 -144 224q0 182 221 182q81 0 169 -71q88 -70 250 -70q128 0 128 81q0 43 -191 79q-27 8 -119 33q-85 22 -137 39q-176 57 -255 152q-69 88 -69 207q0 192 151 308q95 74 236 104z
" />
    <glyph glyph-name="percent" unicode="%" horiz-adv-x="1459" 
d="M351 -196q-34 -60 -98 -60q-56 0 -133 45q-120 69 -120 146q0 28 17 58l963 1668q34 57 96 57q55 0 132 -45q121 -69 121 -146q0 -30 -18 -60z" />
    <glyph glyph-name="ampersand" unicode="&#x26;" horiz-adv-x="1150" 
d="M704 768h128q128 0 128 -192q0 -190 -125 -192h-131v-131q-2 -125 -192 -125q-192 0 -192 128v128h-131q-125 2 -125 192q0 192 128 192h128v128q0 128 192 128q190 0 192 -125v-131z" />
    <glyph glyph-name="quotesingle" unicode="'" horiz-adv-x="512" 
d="M0 1536q0 128 128 128h128q128 0 128 -128v-384q0 -128 -128 -128h-128q-128 0 -128 128v384z" />
    <glyph glyph-name="parenleft" unicode="(" 
d="M512 0q127 0 127 123v2q0 128 192 128q190 0 192 -125v-5q0 -507 -511 -507v-3h-1q-512 0 -512 640l1 896q0 643 512 643h1v-3q511 0 511 -507v-5q-2 -125 -192 -125q-192 0 -192 128v2q0 123 -127 123h-1v6q-128 0 -128 -259l-1 -896q0 -256 128 -256h1z" />
    <glyph glyph-name="parenright" unicode=")" 
d="M512 0q128 0 128 256l-1 896q0 259 -128 259v-6h-1q-127 0 -127 -123v-2q0 -128 -192 -128q-190 0 -192 125v5q0 507 511 507v3h1q512 0 512 -643l1 -896q0 -640 -512 -640h-1v3q-511 0 -511 507v5q2 125 192 125q192 0 192 -128v-2q0 -123 127 -123h1z" />
    <glyph glyph-name="asterisk" unicode="*" horiz-adv-x="1024" 
d="M640 1408h128q128 0 128 -192q0 -190 -125 -192h-131v-131q-2 -125 -192 -125q-192 0 -192 128v128h-131q-125 2 -125 192q0 192 128 192h128v128q0 128 192 128q190 0 192 -125v-131z" />
    <glyph glyph-name="plus" unicode="+" 
d="M704 768h128q128 0 128 -192q0 -190 -125 -192h-131v-131q-2 -125 -192 -125q-192 0 -192 128v128h-131q-125 2 -125 192q0 192 128 192h128v128q0 128 192 128q190 0 192 -125v-131z" />
    <glyph glyph-name="comma" unicode="," horiz-adv-x="512" 
d="M0 384q0 128 128 128h128q128 0 128 -128v-384q0 -128 -128 -128h-128q-128 0 -128 128v384z" />
    <glyph glyph-name="hyphen" unicode="-" horiz-adv-x="768" 
d="M128 256q-128 0 -128 128v128q0 128 128 128h384q128 0 128 -128v-128q0 -128 -128 -128h-384z" />
    <glyph glyph-name="hyphen" unicode="&#xad;" horiz-adv-x="768" 
d="M128 256q-128 0 -128 128v128q0 128 128 128h384q128 0 128 -128v-128q0 -128 -128 -128h-384z" />
    <glyph glyph-name="period" unicode="." horiz-adv-x="512" 
d="M0 256q0 128 128 128h128q128 0 128 -128v-128q0 -128 -128 -128h-128q-128 0 -128 128v128z" />
    <glyph glyph-name="slash" unicode="/" horiz-adv-x="1459" 
d="M351 -196q-34 -60 -98 -60q-56 0 -133 45q-120 69 -120 146q0 28 17 58l963 1668q34 57 96 57q55 0 132 -45q121 -69 121 -146q0 -30 -18 -60z" />
    <glyph glyph-name="zero" unicode="0" 
d="M384 768v-128q0 -256 128 -256t128 256v128q0 259 -128 259t-128 -259zM1024 765v-128q0 -640 -512 -640t-512 640v128q0 643 512 643t512 -643z" />
    <glyph glyph-name="one" unicode="1" horiz-adv-x="512" 
d="M384 128q0 -128 -192 -128q-190 0 -192 125v1158q2 125 192 125q192 0 192 -128v-1152z" />
    <glyph glyph-name="two" unicode="2" horiz-adv-x="1280" 
d="M0 384q15 191 66 256q79 95 255 152q52 17 137 39q92 25 119 33q191 36 191 79q0 81 -128 81q-162 0 -250 -70q-88 -71 -169 -71q-221 0 -221 182q0 120 144 224q164 119 408 119q291 0 452 -134q151 -125 151 -331q0 -131 -70 -230q-24 -26 -48 -44t-68 -42.5
t-138 -53.5q-52 -15 -137 -36q-92 -23 -119 -31q-114 -18 -191 -122h643q125 -2 125 -192q0 -192 -128 -192h-768q-17 0 -33 1q-15 -1 -31 -1q-192 0 -192 192v192z" />
    <glyph glyph-name="three" unicode="3" horiz-adv-x="1280" 
d="M640 1408q512 0 512 -643v-128q0 -637 -507 -637h-517q-128 0 -128 192t128 192h512q91 0 117 128h-501q-128 0 -128 192t128 192h501q-25 128 -113 128h-516q-128 0 -128 192t128 192h512z" />
    <glyph glyph-name="four" unicode="4" 
d="M640 896v387q2 125 192 125q192 0 192 -128v-1152q0 -128 -192 -128q-190 0 -192 125v387h-448q-190 0 -192 125v646q2 125 192 125q192 0 192 -128v-384h256z" />
    <glyph glyph-name="five" unicode="5" horiz-adv-x="1280" 
d="M0 1216q0 192 192 192q16 0 31 -1q16 1 33 1h768q128 0 128 -192q0 -190 -125 -192h-643q77 -104 191 -122q27 -8 119 -31q85 -21 137 -36q94 -29 138 -53.5t68 -42.5t48 -44q70 -99 70 -230q0 -206 -151 -331q-161 -134 -452 -134q-244 0 -408 119q-144 104 -144 224
q0 182 221 182q81 0 169 -71q88 -70 250 -70q128 0 128 81q0 43 -191 79q-27 8 -119 33q-85 22 -137 39q-176 57 -255 152q-51 65 -66 256v192z" />
    <glyph glyph-name="six" unicode="6" horiz-adv-x="1280" 
d="M431 434q0 -77 144 -84q144 7 144 84v9q0 77 -144 84q-144 -7 -144 -84v-9zM0 975q4 196 151 308q161 125 452 125q244 0 408 -111q144 -97 144 -208q0 -170 -170 -193q-147 0 -182 81q-33 77 -213 77h-18q-188 -30 -188 -94v-98q86 15 191 15q575 0 575 -434v-9
q0 -434 -575 -434q-560 0 -575 412v563z" />
    <glyph glyph-name="seven" unicode="7" horiz-adv-x="1280" 
d="M1020 1408q53 0 83 -32q48 -32 48 -96l-333 -1185q-49 -92 -169 -92h-8q-190 0 -192 125l245 896h-569q-125 2 -125 192q0 192 128 192h892z" />
    <glyph glyph-name="eight" unicode="8" horiz-adv-x="1280" 
d="M578 896q141 2 141 79q0 75 -144 76q-144 -1 -144 -76q0 -77 147 -79zM575 1408q575 0 575 -433q0 -168 -108 -271q108 -103 108 -270q0 -434 -575 -434t-575 434q0 167 108 270q-108 103 -108 271q0 433 575 433zM575 350q144 7 144 84q0 76 -144 78q-144 -2 -144 -78
q0 -77 144 -84z" />
    <glyph glyph-name="nine" unicode="9" horiz-adv-x="1280" 
d="M724 974q0 77 -144 84q-144 -7 -144 -84v-9q0 -77 144 -84q144 7 144 84v9zM1155 433q-4 -196 -151 -308q-161 -125 -452 -125q-244 0 -408 111q-144 97 -144 208q0 170 170 193q147 0 182 -81q33 -77 213 -77h18q188 30 188 94v98q-86 -15 -191 -15q-575 0 -575 434v9
q0 434 575 434q560 0 575 -412v-563z" />
    <glyph glyph-name="colon" unicode=":" horiz-adv-x="512" 
d="M0 896q0 128 128 128h128q128 0 128 -128v-128q0 -128 -128 -128h-128q-128 0 -128 128v128zM0 384q0 128 128 128h128q128 0 128 -128v-128q0 -128 -128 -128h-128q-128 0 -128 128v128z" />
    <glyph glyph-name="semicolon" unicode=";" horiz-adv-x="512" 
d="M0 896q0 128 128 128h128q128 0 128 -128v-128q0 -128 -128 -128h-128q-128 0 -128 128v128zM0 384q0 128 128 128h128q128 0 128 -128v-384q0 -128 -128 -128h-128q-128 0 -128 128v384z" />
    <glyph glyph-name="semicolon" unicode="&#x37e;" horiz-adv-x="512" 
d="M0 896q0 128 128 128h128q128 0 128 -128v-128q0 -128 -128 -128h-128q-128 0 -128 128v128zM0 384q0 128 128 128h128q128 0 128 -128v-384q0 -128 -128 -128h-128q-128 0 -128 128v384z" />
    <glyph glyph-name="less" unicode="&#x3c;" 
d="M967 368q57 -28 57 -113q0 -46 -16 -108q-39 -148 -105 -148q-15 0 -31 8q-779 377 -825.5 408t-46.5 161q0 118 46.5 155t825.5 414q16 8 31 8q66 0 105 -148q16 -62 16 -108q0 -85 -57 -113l-415 -208z" />
    <glyph glyph-name="equal" unicode="=" 
d="M829 1024q128 0 128 -192q0 -190 -125 -192h-646q-125 2 -125 192q0 192 128 192h640zM829 512q128 0 128 -192q0 -190 -125 -192h-646q-125 2 -125 192q0 192 128 192h640z" />
    <glyph glyph-name="greater" unicode="&#x3e;" 
d="M472 576l-415 208q-57 28 -57 113q0 46 16 108q39 148 105 148q15 0 31 -8q778 -377 824.5 -414t47.5 -155q-1 -130 -47.5 -161t-824.5 -408q-16 -8 -31 -8q-66 0 -105 148q-16 62 -16 108q0 85 57 113z" />
    <glyph glyph-name="question" unicode="?" horiz-adv-x="1280" 
d="M384 256q0 128 128 128h128q128 0 128 -128v-128q0 -128 -128 -128h-128q-128 0 -128 128v128zM640 512h-128q-128 0 -128 128v128q0 128 128 128q197 0 238 17q34 14 34 38q0 4 -1 9q-15 64 -143 64q-162 0 -250 -70q-88 -71 -169 -71q-221 0 -221 182q0 120 144 224
q164 119 408 119q291 0 452 -134q151 -125 151 -331q0 -131 -70 -230q-24 -26 -48 -44t-68 -42q-40 -23 -201 -43q-43 -72 -128 -72z" />
    <glyph glyph-name="at" unicode="@" horiz-adv-x="2379" 
d="M1183 -381h-23q-313 0 -518 79q-214 81 -435 328q-204 249 -204 587q0 345 252 586q255 245 630 245q372 0 632 -238q251 -228 251 -533q0 -183 -127 -307q-128 -124 -323 -124q-179 0 -254 94h-10q-75 -94 -224 -94q-190 1 -266 92q-109 134 -109 287q0 150 109 269
q75 85 262 85h4q111 0 168 -57h9q29 57 113 57q63 0 103 -38q38 -37 38 -94v-375q19 -10 38 -10q131 0 131 214q0 203 -152 345q-158 146 -393 146q-225 0 -385 -160q-159 -160 -159 -385q0 -226 159 -386q160 -160 465 -180q52 -1 99 -1q212 0 331 26q144 31 264 91
q150 75 213 254q38 121 170 121h22q150 -11 195 -161q3 -31 3 -61q0 -224 -152 -379q-150 -151 -376 -226q-223 -94 -551 -97zM997 490v256q-256 0 -256 -128t256 -128z" />
    <glyph glyph-name="A" unicode="A" 
d="M384 768h256q0 256 -128 256t-128 -256zM1024 128q0 -128 -192 -128t-192 128v256h-256v-128q0 -128 -192 -128q-190 0 -192 125v515q0 640 512 640t512 -640v-640z" />
    <glyph glyph-name="B" unicode="B" 
d="M384 1211v-216h37q219 7 219 108q0 108 -256 108zM384 669v-216q256 0 256 109q0 100 -219 107h-37zM0 1411q2 124 190 125h194q640 0 640 -433q0 -168 -96 -271q96 -103 96 -270q0 -434 -640 -434h-192q-190 0 -192 125v1158z" />
    <glyph glyph-name="C" unicode="C" 
d="M513 384q127 0 127 123v2q0 128 192 128q190 0 192 -125v-5q0 -507 -511 -507v-3h-1q-512 0 -512 640v128q0 643 512 643h1v-3q511 0 511 -507v-5q-2 -125 -192 -125q-192 0 -192 128v2q0 123 -127 123h-1v6q-128 0 -128 -259v-128q0 -256 128 -256h1z" />
    <glyph glyph-name="D" unicode="D" 
d="M640 1024v381q0 128 192 128q190 0 192 -125v-1283q-2 -124 -190 -125h-194q-640 0 -640 512t640 512zM640 384v256q-256 0 -256 -128t256 -128z" />
    <glyph glyph-name="E" unicode="E" horiz-adv-x="1280" 
d="M1024 1536q128 0 128 -192t-128 -192h-516q-88 0 -113 -128h501q128 0 128 -192t-128 -192h-501q26 -128 117 -128h512q128 0 128 -192t-128 -192h-517q-507 0 -507 637v128q0 643 512 643h512z" />
    <glyph glyph-name="F" unicode="F" horiz-adv-x="1280" 
d="M384 512v-384q0 -128 -192 -128q-190 0 -192 125v646q1 637 512 637h512q128 0 128 -192t-128 -192h-511v-3h-1q-89 0 -116 -125h628q128 0 128 -192t-128 -192h-640z" />
    <glyph glyph-name="G" unicode="G" 
d="M640 381q-640 0 -640 512t640 512h194q188 -1 190 -125v-1024q0 -639 -511 -640h-1q-512 0 -512 512q11 128 201 128q192 0 192 -128q-1 -8 -1 -16q0 -112 120 -112h1q127 1 127 256v125zM640 1024q-256 0 -256 -128t256 -128v256z" />
    <glyph glyph-name="H" unicode="H" 
d="M384 1013q59 11 128 11q512 0 512 -640v-256q0 -128 -192 -128t-192 128v256q0 256 -128 256t-128 -256v-128q0 -128 -192 -128q-190 0 -192 125v1030q2 125 192 125q192 0 192 -128v-267z" />
    <glyph glyph-name="I" unicode="I" horiz-adv-x="512" 
d="M384 256q0 -128 -192 -128q-190 0 -192 125v646q2 125 192 125q192 0 192 -128v-640zM0 1408q0 128 128 128h128q128 0 128 -128v-128q0 -128 -128 -128h-128q-128 0 -128 128v128z" />
    <glyph glyph-name="J" unicode="J" 
d="M513 0h-1q-512 0 -512 512q11 128 201 128q192 0 192 -128q-1 -8 -1 -16q0 -112 120 -112h1q127 1 127 256v640q0 128 192 128t192 -128v-640q0 -639 -511 -640z" />
    <glyph glyph-name="K" unicode="K" horiz-adv-x="1280" 
d="M384 418v-290q0 -128 -192 -128q-190 0 -192 125v1158q2 125 192 125q192 0 192 -128v-418q99 200 244 378q146 168 343 168q21 0 43 -2q128 -38 137 -166q1 -10 1 -18q0 -113 -104 -145q-112 -35 -408 -437q296 -402 408 -437q104 -32 104 -145q0 -8 -1 -18
q-9 -128 -137 -166q-22 -2 -43 -2q-197 0 -343 168q-145 178 -244 378z" />
    <glyph glyph-name="L" unicode="L" horiz-adv-x="512" 
d="M384 128q0 -128 -192 -128q-190 0 -192 125v1414q2 125 192 125q192 0 192 -128v-1408z" />
    <glyph glyph-name="M" unicode="M" horiz-adv-x="1792" 
d="M1280 768q0 256 -128 256t-128 -256v-640q0 -128 -192 -128t-192 128v640q0 256 -128 256t-128 -256v-512q0 -128 -192 -128q-190 0 -192 125v515q0 640 512 640q198 0 320 -96q122 96 320 96q512 0 512 -640q0 -512 64 -640t216 -181q104 -32 104 -145q0 -8 -1 -18
q-9 -128 -137 -166q-27 -2 -53 -2q-189 0 -321 128q-128 128 -192 320t-64 704z" />
    <glyph glyph-name="N" unicode="N" 
d="M512 1024q-128 0 -128 -256v-512q0 -128 -192 -128q-190 0 -192 125v515q0 640 512 640t512 -640v-640q0 -128 -192 -128t-192 128v640q0 256 -128 256z" />
    <glyph glyph-name="O" unicode="O" 
d="M384 768v-128q0 -256 128 -256t128 256v128q0 259 -128 259t-128 -259zM1024 765v-128q0 -640 -512 -640t-512 640v128q0 643 512 643t512 -643z" />
    <glyph glyph-name="P" unicode="P" horiz-adv-x="1120" 
d="M384 384v-128q0 -128 -192 -128q-190 0 -192 125v1030q2 124 190 125h194q640 0 640 -512t-640 -512zM384 1024v-256q256 0 256 128t-256 128z" />
    <glyph glyph-name="Q" unicode="Q" 
d="M384 768v-128q0 -256 128 -256t128 256v128q0 259 -128 259t-128 -259zM475 -2q-475 23 -475 639v128q0 643 512 643t512 -643v-128q0 -368 -169 -524q128 -146 193 -166q104 -32 104 -145q0 -8 -1 -18q-9 -128 -137 -166q-22 -2 -43 -2q-197 0 -343 168
q-84 103 -153 214z" />
    <glyph glyph-name="R" unicode="R" 
d="M384 1083v-217q256 0 256 109q0 108 -256 108zM384 418v-290q0 -128 -192 -128q-190 0 -192 125v1158q2 124 190 125h194q640 0 640 -433q0 -314 -335 -401q257 -339 359 -371q104 -32 104 -145q0 -8 -1 -18q-9 -128 -137 -166q-22 -2 -43 -2q-197 0 -343 168
q-145 178 -244 378z" />
    <glyph glyph-name="S" unicode="S" horiz-adv-x="1253" 
d="M1037 739q24 -18 48 -44q70 -99 70 -230q0 -206 -151 -331q-161 -134 -452 -134q-244 0 -408 119q-144 104 -144 224q0 182 221 182q81 0 169 -71q88 -70 250 -70q128 0 128 81q0 43 -191 79q-27 8 -119 33q-85 22 -137 39q-176 57 -255 152q-69 88 -69 207
q0 192 151 308q161 125 452 125q244 0 408 -111q144 -97 144 -208q0 -170 -221 -170q-81 0 -169 66t-250 66q-128 -3 -128 -79q0 -40 191 -70q27 -8 119 -31q85 -21 137 -36q94 -29 138 -53.5t68 -42.5z" />
    <glyph glyph-name="T" unicode="T" horiz-adv-x="1280" 
d="M768 1024v-1024q0 -128 -192 -128q-190 0 -192 125v1027h-256q-128 0 -128 192q0 190 125 192h902q125 -2 125 -192q0 -192 -128 -192h-256z" />
    <glyph glyph-name="U" unicode="U" 
d="M640 640v512q0 128 192 128t192 -128v-512q0 -640 -512 -640t-512 640v643q2 125 192 125q192 0 192 -128v-640q0 -256 128 -256t128 256z" />
    <glyph glyph-name="V" unicode="V" horiz-adv-x="1280" 
d="M576 758l208 571q28 79 113 79q46 0 108 -23q148 -54 148 -144q0 -21 -8 -43q-377 -1070 -414 -1134t-155 -65q-130 1 -161 65t-408 1134q-8 22 -8 43q0 90 148 144q62 23 108 23q85 0 113 -79z" />
    <glyph glyph-name="W" unicode="W" horiz-adv-x="1792" 
d="M1536 1664q132 128 321 128q26 0 53 -2q128 -38 137 -166q1 -10 1 -18q0 -113 -104 -145q-152 -53 -216 -181t-64 -640q0 -640 -512 -640q-198 0 -320 96q-122 -96 -320 -96q-512 0 -512 640v515q2 125 192 125q192 0 192 -128v-512q0 -256 128 -256t128 256v640
q0 128 192 128t192 -128v-640q0 -256 128 -256t128 256q0 512 64 704t192 320z" />
    <glyph glyph-name="X" unicode="X" horiz-adv-x="1280" 
d="M575 385l-242 -336q-35 -50 -91 -50q-57 0 -136 54q-105 72 -105 142q0 31 21 62l323 447l-321 445q-23 32 -23 65q0 70 105 141q79 54 137 54q54 0 89 -47l244 -338l243 338q35 47 89 47q58 0 137 -54q105 -72 105 -141q0 -33 -23 -65l-321 -444l323 -448q21 -31 21 -62
q0 -70 -105 -142q-79 -54 -136 -54q-56 0 -91 50z" />
    <glyph glyph-name="Y" unicode="Y" 
d="M704 412v-540q0 -128 -192 -128q-190 0 -192 125v543q-320 106 -320 612v131q2 125 192 125q192 0 192 -128v-128q0 -256 128 -256t128 256v256q0 128 192 128t192 -128v-256q0 -506 -320 -612z" />
    <glyph glyph-name="Z" unicode="Z" horiz-adv-x="1280" 
d="M545 384h479q128 0 128 -192q0 -190 -125 -192h-902q-125 2 -125 192q0 111 89 216l508 616h-472q-125 2 -125 192q0 192 128 192h896q128 0 128 -192q0 -18 -1 -35v-6q0 -42 -65 -136z" />
    <glyph glyph-name="bracketleft" unicode="[" horiz-adv-x="896" 
d="M640 1792q128 0 128 -128v-128q0 -128 -128 -128h-256v-1408h256q128 0 128 -128v-128q0 -128 -128 -128h-512q-125 0 -128 122v1932q3 122 128 122h512z" />
    <glyph glyph-name="backslash" unicode="\" horiz-adv-x="1459" 
d="M18 1467q-18 30 -18 60q0 77 121 146q77 45 132 45q62 0 96 -57l963 -1668q17 -30 17 -58q0 -77 -120 -146q-77 -45 -133 -45q-64 0 -98 60z" />
    <glyph glyph-name="bracketright" unicode="]" horiz-adv-x="896" 
d="M640 1792q125 0 128 -122v-1932q-3 -122 -128 -122h-512q-128 0 -128 128v128q0 128 128 128h256v1408h-256q-128 0 -128 128v128q0 128 128 128h512z" />
    <glyph glyph-name="asciicircum" unicode="^" horiz-adv-x="1280" 
d="M577 1112l-208 -415q-28 -57 -113 -57q-46 0 -108 16q-148 39 -148 105q0 15 8 31q377 778 414 824.5t155 47.5q130 -1 161 -47.5t408 -824.5q8 -16 8 -31q0 -66 -148 -105q-62 -16 -108 -16q-85 0 -113 57z" />
    <glyph glyph-name="underscore" unicode="_" 
d="M128 -384q-128 0 -128 128v128q0 128 128 128h768q128 0 128 -128v-128q0 -128 -128 -128h-768z" />
    <glyph glyph-name="grave" unicode="`" horiz-adv-x="705" 
d="M565 1225q30 -43 30 -80q0 -54 -62 -98l-105 -73q-43 -31 -81 -31q-54 0 -97 62l-220 315q-31 43 -31 81q0 54 62 97l105 73q43 31 81 31q54 0 97 -62z" />
    <glyph glyph-name="a" unicode="a" 
d="M384 768h256q0 256 -128 256t-128 -256zM1024 128q0 -128 -192 -128t-192 128v256h-256v-128q0 -128 -192 -128q-190 0 -192 125v515q0 640 512 640t512 -640v-640z" />
    <glyph glyph-name="b" unicode="b" 
d="M384 1083v-216h37q219 7 219 108q0 108 -256 108zM384 541v-216q256 0 256 109q0 100 -219 107h-37zM192 0q-190 0 -192 125v1158q2 124 190 125h194q640 0 640 -433q0 -168 -96 -271q96 -103 96 -270q0 -434 -640 -434h-192z" />
    <glyph glyph-name="c" unicode="c" 
d="M513 384q127 0 127 123v2q0 128 192 128q190 0 192 -125v-5q0 -507 -511 -507v-3h-1q-512 0 -512 640v128q0 643 512 643h1v-3q511 0 511 -507v-5q-2 -125 -192 -125q-192 0 -192 128v2q0 123 -127 123h-1v6q-128 0 -128 -259v-128q0 -256 128 -256h1z" />
    <glyph glyph-name="d" unicode="d" 
d="M640 1024v381q0 128 192 128q190 0 192 -125v-1283q-2 -124 -190 -125h-194q-640 0 -640 512t640 512zM640 384v256q-256 0 -256 -128t256 -128z" />
    <glyph glyph-name="e" unicode="e" horiz-adv-x="1280" 
d="M1024 1408q128 0 128 -192t-128 -192h-516q-88 0 -113 -128h501q128 0 128 -192t-128 -192h-501q26 -128 117 -128h512q128 0 128 -192t-128 -192h-517q-507 0 -507 637v128q0 643 512 643h512z" />
    <glyph glyph-name="f" unicode="f" horiz-adv-x="1280" 
d="M384 512v-384q0 -128 -192 -128q-190 0 -192 125v646q1 637 512 637h512q128 0 128 -192t-128 -192h-511v-3h-1q-89 0 -116 -125h628q128 0 128 -192t-128 -192h-640z" />
    <glyph glyph-name="g" unicode="g" 
d="M640 381q-640 0 -640 512t640 512h194q188 -1 190 -125v-1024q0 -639 -511 -640h-1q-512 0 -512 512q11 128 201 128q192 0 192 -128q-1 -8 -1 -16q0 -112 120 -112h1q127 1 127 256v125zM640 1024q-256 0 -256 -128t256 -128v256z" />
    <glyph glyph-name="h" unicode="h" 
d="M384 1013q59 11 128 11q512 0 512 -640v-256q0 -128 -192 -128t-192 128v256q0 256 -128 256t-128 -256v-128q0 -128 -192 -128q-190 0 -192 125v1030q2 125 192 125q192 0 192 -128v-267z" />
    <glyph glyph-name="i" unicode="i" horiz-adv-x="514" 
d="M384 256q0 -128 -192 -128q-190 0 -192 125v646q2 125 192 125q192 0 192 -128v-640zM0 1408q0 128 128 128h128q128 0 128 -128v-128q0 -128 -128 -128h-128q-128 0 -128 128v128z" />
    <glyph glyph-name="j" unicode="j" 
d="M513 0h-1q-512 0 -512 512q11 128 201 128q192 0 192 -128q-1 -8 -1 -16q0 -112 120 -112h1q127 1 127 256v640q0 128 192 128t192 -128v-640q0 -639 -511 -640z" />
    <glyph glyph-name="k" unicode="k" horiz-adv-x="1280" 
d="M384 418v-290q0 -128 -192 -128q-190 0 -192 125v1158q2 125 192 125q192 0 192 -128v-418q99 200 244 378q146 168 343 168q21 0 43 -2q128 -38 137 -166q1 -10 1 -18q0 -113 -104 -145q-112 -35 -408 -437q296 -402 408 -437q104 -32 104 -145q0 -8 -1 -18
q-9 -128 -137 -166q-22 -2 -43 -2q-197 0 -343 168q-145 178 -244 378z" />
    <glyph glyph-name="l" unicode="l" horiz-adv-x="512" 
d="M384 128q0 -128 -192 -128q-190 0 -192 125v1414q2 125 192 125q192 0 192 -128v-1408z" />
    <glyph glyph-name="m" unicode="m" horiz-adv-x="1792" 
d="M1280 768q0 256 -128 256t-128 -256v-640q0 -128 -192 -128t-192 128v640q0 256 -128 256t-128 -256v-512q0 -128 -192 -128q-190 0 -192 125v515q0 640 512 640q198 0 320 -96q122 96 320 96q512 0 512 -640q0 -512 64 -640t216 -181q104 -32 104 -145q0 -8 -1 -18
q-9 -128 -137 -166q-27 -2 -53 -2q-189 0 -321 128q-128 128 -192 320t-64 704z" />
    <glyph glyph-name="n" unicode="n" 
d="M512 1024q-128 0 -128 -256v-512q0 -128 -192 -128q-190 0 -192 125v515q0 640 512 640t512 -640v-640q0 -128 -192 -128t-192 128v640q0 256 -128 256z" />
    <glyph glyph-name="o" unicode="o" 
d="M384 768v-128q0 -256 128 -256t128 256v128q0 259 -128 259t-128 -259zM1024 765v-128q0 -640 -512 -640t-512 640v128q0 643 512 643t512 -643z" />
    <glyph glyph-name="p" unicode="p" 
d="M384 384v-128q0 -128 -192 -128q-190 0 -192 125v1030q2 124 190 125h194q640 0 640 -512t-640 -512zM384 1024v-256q256 0 256 128t-256 128z" />
    <glyph glyph-name="q" unicode="q" 
d="M384 768v-128q0 -256 128 -256t128 256v128q0 259 -128 259t-128 -259zM475 -2q-475 23 -475 639v128q0 643 512 643t512 -643v-128q0 -368 -169 -524q128 -146 193 -166q104 -32 104 -145q0 -8 -1 -18q-9 -128 -137 -166q-22 -2 -43 -2q-197 0 -343 168
q-84 103 -153 214z" />
    <glyph glyph-name="r" unicode="r" 
d="M384 1083v-217q256 0 256 109q0 108 -256 108zM384 418v-290q0 -128 -192 -128q-190 0 -192 125v1158q2 124 190 125h194q640 0 640 -433q0 -314 -335 -401q257 -339 359 -371q104 -32 104 -145q0 -8 -1 -18q-9 -128 -137 -166q-22 -2 -43 -2q-197 0 -343 168
q-145 178 -244 378z" />
    <glyph glyph-name="s" unicode="s" horiz-adv-x="1280" 
d="M1037 739q24 -18 48 -44q70 -99 70 -230q0 -206 -151 -331q-161 -134 -452 -134q-244 0 -408 119q-144 104 -144 224q0 182 221 182q81 0 169 -71q88 -70 250 -70q128 0 128 81q0 43 -191 79q-27 8 -119 33q-85 22 -137 39q-176 57 -255 152q-69 88 -69 207
q0 192 151 308q161 125 452 125q244 0 408 -111q144 -97 144 -208q0 -170 -221 -170q-81 0 -169 66t-250 66q-128 -3 -128 -79q0 -40 191 -70q27 -8 119 -31q85 -21 137 -36q94 -29 138 -53.5t68 -42.5z" />
    <glyph glyph-name="t" unicode="t" horiz-adv-x="1280" 
d="M768 1024v-1024q0 -128 -192 -128q-190 0 -192 125v1027h-256q-128 0 -128 192q0 190 125 192h902q125 -2 125 -192q0 -192 -128 -192h-256z" />
    <glyph glyph-name="u" unicode="u" 
d="M640 640v512q0 128 192 128t192 -128v-512q0 -640 -512 -640t-512 640v643q2 125 192 125q192 0 192 -128v-640q0 -256 128 -256t128 256z" />
    <glyph glyph-name="v" unicode="v" horiz-adv-x="1280" 
d="M576 758l208 571q28 79 113 79q46 0 108 -23q148 -54 148 -144q0 -21 -8 -43q-377 -1070 -414 -1134t-155 -65q-130 1 -161 65t-408 1134q-8 22 -8 43q0 90 148 144q62 23 108 23q85 0 113 -79z" />
    <glyph glyph-name="w" unicode="w" horiz-adv-x="1792" 
d="M1536 1664q132 128 321 128q26 0 53 -2q128 -38 137 -166q1 -10 1 -18q0 -113 -104 -145q-152 -53 -216 -181t-64 -640q0 -640 -512 -640q-198 0 -320 96q-122 -96 -320 -96q-512 0 -512 640v515q2 125 192 125q192 0 192 -128v-512q0 -256 128 -256t128 256v640
q0 128 192 128t192 -128v-640q0 -256 128 -256t128 256q0 512 64 704t192 320z" />
    <glyph glyph-name="x" unicode="x" horiz-adv-x="1280" 
d="M575 385l-242 -336q-35 -50 -91 -50q-57 0 -136 54q-105 72 -105 142q0 31 21 62l323 447l-321 445q-23 32 -23 65q0 70 105 141q79 54 137 54q54 0 89 -47l244 -338l243 338q35 47 89 47q58 0 137 -54q105 -72 105 -141q0 -33 -23 -65l-321 -444l323 -448q21 -31 21 -62
q0 -70 -105 -142q-79 -54 -136 -54q-56 0 -91 50z" />
    <glyph glyph-name="y" unicode="y" 
d="M704 412v-284q0 -128 -192 -128q-190 0 -192 125v287q-320 106 -320 612v131q2 125 192 125q192 0 192 -128v-128q0 -256 128 -256t128 256v256q0 128 192 128t192 -128v-256q0 -506 -320 -612z" />
    <glyph glyph-name="z" unicode="z" horiz-adv-x="1280" 
d="M545 384h479q128 0 128 -192q0 -190 -125 -192h-902q-125 2 -125 192q0 111 89 216l508 616h-472q-125 2 -125 192q0 192 128 192h896q128 0 128 -192q0 -18 -1 -35v-6q0 -42 -65 -136z" />
    <glyph glyph-name="braceleft" unicode="{" 
d="M256 896v774q3 122 128 122h512q128 0 128 -128v-128q0 -128 -128 -128h-256v-1408h256q128 0 128 -128v-128q0 -128 -128 -128h-512q-125 0 -128 122v774h-128q-128 0 -128 128v128q0 128 128 128h128z" />
    <glyph glyph-name="bar" unicode="|" horiz-adv-x="512" 
d="M384 -256q0 -128 -192 -128q-190 0 -192 125v1926q2 125 192 125q192 0 192 -128v-1920z" />
    <glyph glyph-name="braceright" unicode="}" 
d="M896 896q128 0 128 -128v-128q0 -128 -128 -128h-128v-774q-3 -122 -128 -122h-512q-128 0 -128 128v128q0 128 128 128h256v1408h-256q-128 0 -128 128v128q0 128 128 128h512q125 0 128 -122v-774h128z" />
    <glyph glyph-name="asciitilde" unicode="~" horiz-adv-x="768" 
d="M128 256q-128 0 -128 128v128q0 128 128 128h384q128 0 128 -128v-128q0 -128 -128 -128h-384z" />
    <glyph glyph-name="cent" unicode="&#xa2;" horiz-adv-x="1139" 
d="M708 1385q316 -86 316 -483v-6q-2 -125 -192 -125q-192 0 -192 128v2q0 123 -127 123h-37q-92 -33 -92 -253v-128q0 -256 128 -256h1q127 0 127 123v2q0 128 192 128q190 0 192 -125v-6q0 -399 -319 -484v-153q0 -128 -128 -128h-128q-128 0 -128 128v156
q-321 105 -321 612v128q0 511 324 616v152q0 128 128 128h128q128 0 128 -128v-151z" />
    <glyph glyph-name="sterling" unicode="&#xa3;" horiz-adv-x="1536" 
d="M256 512h-131q-125 2 -125 192q0 192 128 192h134q49 512 506 512h512q128 0 128 -192t-128 -192h-516q-88 0 -113 -128h501q128 0 128 -192t-128 -192h-501q-2 -19 -2 -35q0 -93 55 -93h576q128 0 128 -192t-128 -192h-853q-169 7 -171 125v387z" />
    <glyph glyph-name="yen" unicode="&#xa5;" horiz-adv-x="1408" 
d="M448 640v28q-320 106 -320 612v259q2 125 192 125q192 0 192 -128v-256q0 -256 128 -256t128 256v256q0 128 192 128t192 -128v-256q0 -506 -320 -612v-28h320q128 0 128 -192q0 -190 -125 -192h-323v-384q0 -128 -192 -128q-190 0 -192 125v387h-320q-125 2 -125 192
q0 192 128 192h317z" />
    <glyph glyph-name="Euro" unicode="&#x20ac;" horiz-adv-x="1536" 
d="M262 896q49 512 506 512h512q128 0 128 -192t-128 -192h-516q-88 0 -113 -128h501q128 0 128 -192t-128 -192h-501q26 -128 117 -128h512q128 0 128 -192t-128 -192h-517q-454 0 -502 512h-136q-125 2 -125 192q0 192 128 192h134z" />
  </font>
</defs>
</svg>
