<?xml version="1.0" standalone="no"?>
<!DOCTYPE svg PUBLIC "-//W3C//DTD SVG 1.1//EN" "http://www.w3.org/Graphics/SVG/1.1/DTD/svg11.dtd" >
<svg xmlns="http://www.w3.org/2000/svg" xmlns:xlink="http://www.w3.org/1999/xlink" version="1.1">
<metadata>
Created by FontForge 20201107 at Mon Nov  2 08:46:57 2020
 By Jimmy Wärting
(c)2020. Putracetol Studio.
</metadata>
<defs>
<font id="VintageKingRegular" horiz-adv-x="802" >
  <font-face 
    font-family="Vintage King"
    font-weight="400"
    font-stretch="normal"
    units-per-em="1000"
    panose-1="0 0 0 0 0 0 0 0 0 0"
    ascent="800"
    descent="-200"
    x-height="399"
    cap-height="648"
    bbox="-1141.06 -995.667 6832 1245.96"
    underline-thickness="0"
    underline-position="0"
    unicode-range="U+000A-F097"
  />
<missing-glyph horiz-adv-x="527" 
d="M50 700h427v-700h-427v700zM78 680l185 -309l186 309h-371zM251 350l-180 300v-601zM264 329l-185 -308h370zM276 350l181 -303v605z" />
    <glyph glyph-name="th.liga" unicode="th" horiz-adv-x="621" 
d="M242 3h-142l26 61q-53 -58 -94 -61q-62 -8 -87 27t-7 101q34 117 115 304l-24 -2q-44 2 -72.5 13t-40 27.5t-15.5 38t1 45.5q77 -40 189 -35q5 9 20.5 41.5t27 54.5t16.5 29q58 -2 103 -24q-3 -6 -20.5 -44t-20.5 -45q42 6 118 18l28 66q13 0 28 -0.5t29 -1.5t28 -1.5
t29 -1t28 -0.5q-4 -8 -11 -23.5t-8 -18.5q222 19 235 -33q4 -23 -13.5 -46t-51.5 -39q-27 -4 -46 6q14 20 -36 24q-41 3 -127 -3q-49 -119 -60 -148q40 38 81.5 57t71 16.5t37.5 -26.5q9 -24 -18.5 -84t-54.5 -109t-19 -53q16 -6 39 15t61 77q7 8 17 8t17.5 -7.5t3.5 -16.5
q-15 -26 -35.5 -56.5t-47.5 -64.5t-58 -57.5t-57 -25.5q-60 -8 -77 44q-9 27 -3.5 57.5t17.5 61t25.5 55t20 39t1.5 13.5q-36 -5 -92 -110q-64 -151 -70 -162h-1h-4zM197 228l100 235q-37 -5 -118 -16q-49 -118 -80 -215.5t-18 -102.5q17 -6 46 18t66 78q1 0 2 2z" />
    <glyph glyph-name="tt.liga" unicode="tt" horiz-adv-x="444" 
d="M32 3q-62 -8 -86.5 27t-6.5 101q29 110 114 304l-23 -2q-44 2 -73 13t-40.5 27.5t-15.5 38t1 45.5q77 -40 191 -35q50 109 62 125q58 -2 104 -24q-2 -3 -42 -89q12 2 48 7.5t59 9.5q50 105 58 117q58 -2 103 -25q-8 -14 -36 -76q259 28 272 -29q5 -22 -12.5 -45.5
t-52.5 -39.5q-27 -4 -44 6q14 22 -50.5 24.5t-151.5 -7.5l-13 -29q-49 -118 -80 -215.5t-18 -102.5q37 -13 111 96q7 8 16.5 8t17 -7.5t4.5 -16.5q-15 -26 -35.5 -56.5t-48.5 -65.5t-59 -58.5t-56 -25.5q-50 -7 -76.5 16.5t-24.5 69.5q-67 -81 -116 -86zM82 129
q32 -12 98 77q34 98 90 229l12 26q-86 -12 -102 -14q-49 -118 -80 -215.5t-18 -102.5z" />
    <glyph glyph-name="VintagespaceKing.liga" unicode="Vintage&#x20;King" horiz-adv-x="6832" 
d="M447 283q30 13 71 72t73 138t48.5 156.5t-6 134.5t-87.5 65q46 102 129 136q76 32 132 -12q70 -54 52 -186q-11 -84 -59 -186q-18 -40 -42 -86t-60.5 -113t-78 -127.5t-87.5 -117t-96 -95t-96 -49.5q-44 -14 -81.5 4t-58 58t-27.5 95t11 115q8 31 22.5 61.5t31 56.5
t32.5 50t34.5 53t31.5 55q56 114 28 194q-11 28 -35 43t-48 16t-44 -12t-24 -36q-2 -26 19 -35t50 18q27 -40 30 -86t-15.5 -82.5t-56.5 -60.5t-88 -24q-73 1 -113 48.5t-39 113.5q1 47 20 92.5t52.5 84t88 61.5t120.5 22q84 -2 141 -34t80.5 -83t22.5 -113.5t-26 -128.5
q-3 -9 -48 -105q-66 -142 -30 -165q8 -6 23 -6h3zM6579 -170q38 22 98 20q69 -5 111.5 -53.5t43.5 -120.5q0 -35 -11.5 -70.5t-35 -68.5t-64 -60t-93.5 -40q-40 -12 -85.5 -8t-84.5 14.5t-82.5 31.5t-81 44t-79.5 50.5t-77 51.5t-74 47.5t-71 37.5q-113 -110 -262 -105
q-95 1 -137 64q-38 55 -8 114q38 75 157 93q71 11 163 -3q7 -3 35 -6q14 9 39.5 70.5t27.5 96.5q-23 -11 -48 -14t-53.5 5.5t-51.5 30.5q-46 41 -51 112q-110 -148 -185 -154h-9q-39 -4 -65 9.5t-36.5 37t-12.5 55.5t3 62.5t15 59.5l90 206q-46 -19 -87 -77
q-9 -24 -35 -90.5t-49.5 -122.5t-62.5 -143q-53 0 -98 21.5t-62 61.5q-70 -69 -121 -74q-81 -10 -114.5 37.5t-9.5 133.5t71 180.5t103 175.5l174 -1q-125 -229 -150 -296q-22 -57 -7 -62q22 -8 58.5 19.5t83.5 93.5l105 248q32 -1 95.5 -3.5t95.5 -2.5q-4 -10 -12.5 -27
t-12.5 -27q17 10 33.5 18.5t35 16.5t35.5 13t33.5 8.5t30.5 3t26 -4t20 -12.5t12 -22.5t2.5 -33.5t-8.5 -46q-27 -61 -56 -136.5t-43 -108.5q50 -8 136 114q34 88 97.5 155t139.5 88t148 -37q8 16 14 38h174q-38 -84 -94.5 -226.5t-109 -260.5t-111.5 -221q88 -23 281 -108
q152 -67 201 -70q56 -5 56 48q0 11 -9 18.5t-19 4.5t-13 -20q-28 5 -39 28t-1 51t38 47zM5869 -252q-118 28 -174 -14q-32 -23 -20 -50q13 -25 59 -25q62 0 135 89zM6011 324q-20 -59 -16.5 -99.5t29.5 -40.5q25 0 57.5 41t52.5 99q22 57 19 98t-30 41q-25 0 -57.5 -41
t-54.5 -98zM2978 -268q79 63 175.5 101.5t195.5 44.5q173 10 267 -80q70 -67 62 -154q-8 -89 -95 -138q-95 -54 -248 -36q-133 20 -328 96q-65 -105 -69.5 -199t58.5 -102q37 -4 52 19.5t8 52t-27 39.5q34 31 82 40t91.5 -4.5t75.5 -57t35 -108.5q1 -52 -19.5 -101
t-60.5 -82q-50 -42 -122.5 -54.5t-152 12.5t-136.5 87q-96 107 -66 287q22 124 112 229q-41 16 -91 30q-24 7 -58.5 17.5t-58.5 17.5t-32 10q-35 -50 -78 -85.5t-84 -51t-82.5 -19.5t-76 7.5t-61.5 31.5t-42 51.5t-14 69.5q-1 53 21 90.5t56 54.5t79.5 23t88.5 1.5t86 -16.5
q2 0 11 -2.5t16 -3.5q70 104 117 210q-13 -12 -27 -21.5t-34 -17t-39 -8t-42.5 9t-45.5 29.5q-45 41 -50 112q-26 -33 -51 -59.5t-54 -50.5t-56 -33t-53 -5.5t-49 30t-40 74.5q-24 -36 -50 -61t-57 -39t-65.5 -7t-67.5 38q-48 45 -50 119q-111 -152 -192 -158
q-68 -9 -103 23.5t-30 95.5q-94 -115 -160 -121h-9q-39 -4 -65 9.5t-36.5 37t-12.5 55.5t3 62.5t15 59.5l89 206q-45 -19 -86 -77q-11 -27 -29.5 -74t-29.5 -75.5t-35 -83.5t-55 -123q-52 0 -97 21.5t-61 61.5q-70 -69 -121 -74q-81 -10 -114.5 37.5t-9.5 133.5
q24 87 71 181t103 175l173 -1q-8 -14 -23.5 -42.5t-26.5 -49t-26.5 -50.5t-26.5 -52t-23 -48t-19.5 -44t-12.5 -34.5t-4 -26t6 -11.5q22 -7 58.5 20t83.5 93l105 248q32 -1 95.5 -3.5t95.5 -2.5q-4 -9 -12.5 -26.5t-12.5 -27.5q29 17 57 29.5t58.5 22t52.5 8.5t40 -11.5
t20 -37.5t-8 -70q-27 -61 -56.5 -136.5t-42.5 -108.5q49 -8 138 116q84 226 161 410l10 15q-165 -7 -207 -81q-10 33 -7 60.5t11.5 48t28.5 36.5t42.5 26.5t54 17.5t63.5 11t70 5q24 47 46 82q83 -3 138 -30q-1 -1 -27 -53q22 -1 65 -3q81 -5 154.5 -4t128.5 9t84.5 34.5
t21.5 72.5q-3 8 -11 12.5t-15 4t-11 -7.5t-1 -20q-29 -5 -48.5 12.5t-19 45t18.5 57.5q27 38 83 55q33 11 65 8t59 -16.5t49 -37.5t34 -56q12 -26 16 -55t0 -61.5t-16.5 -63.5t-37.5 -62t-60 -56q-41 -29 -91.5 -43.5t-98.5 -16t-107.5 6t-106.5 17.5t-108.5 22.5
t-101.5 18.5q-71 -173 -133.5 -352.5t-45.5 -186.5q51 -16 148 120q0 2 5 4q21 54 55.5 103t78.5 83t90.5 48t96 -2.5t90.5 -66.5q27 54 42 72h130q-86 -90 -123 -219q-29 -97 -5 -127q28 -34 104 62q14 18 29 40q24 64 66.5 120t96 91t110.5 36.5t110 -42.5q9 17 15 39h189
q-23 -49 -80 -178t-88.5 -198t-82.5 -171.5t-98 -183.5q18 -5 46 -12.5t68 -18t62 -16.5q27 -7 66 -17t49 -13zM2468 -247q-163 57 -162 -27q2 -59 70 -35q51 18 88 58zM2634 324q-21 -59 -17.5 -99.5t28.5 -40.5q17 0 38 18.5t40.5 50.5t32.5 71q22 57 18.5 99t-29.5 42
q-25 0 -57 -41.5t-54 -99.5zM3117 -307q163 -39 235 -39q82 -1 112 39.5t-5.5 77.5t-110.5 29q-126 -18 -231 -107zM5166 678q0 39 27.5 66t66.5 27q38 0 65.5 -27.5t27.5 -65.5t-27.5 -66t-65.5 -28q-39 0 -66.5 27.5t-27.5 66.5zM4543 526l-20 -56q38 16 77.5 38t83 50.5
t79.5 61t63 66.5t38 71.5t1 71.5q70 37 125 5q33 -33 36 -71.5t-17.5 -74.5t-59 -74.5t-84 -71t-96.5 -63t-92.5 -51.5t-76.5 -37q20 -53 53 -103.5t73 -92t89 -66.5t97 -25q32 -76 -14 -136q-42 -55 -116 -53q-100 2 -179 113q-84 117 -116 332h-3q-25 -66 -52 -118
t-66.5 -100.5t-85.5 -78.5t-109.5 -44t-137.5 -6q-109 12 -180.5 103t-71.5 209q0 88 43 162t117 117t161 43q115 0 179 -67q52 -54 34 -113q-20 -64 -117 -88q15 27 3 44t-36 15q-37 0 -50 -41q-14 -45 15 -79q24 -29 70 -27q31 0 61 12.5t51.5 30t44 46t36 49.5t31.5 52
q23 46 52 94q75 153 135 232v1h1q-20 6 -42 8.5t-48.5 1t-47 -8.5t-35.5 -25t-17 -45q0 -32 22 -47.5t52 2.5q-21 -40 -61.5 -62.5t-85.5 -19.5q-58 8 -102.5 51t-43.5 98q0 48 24.5 87.5t61.5 61t80 26.5q53 5 112 -3t106 -23t88 -34l2 -2q58 31 102 -9q32 -30 27 -66
q-6 -39 -57 -35q-30 2 -71 21h-1q0 -2 -4 -5q-33 -47 -62.5 -102.5t-42.5 -88.5q-4 -11 -12.5 -31.5t-12.5 -31.5zM3418 302q5 8 14.5 10t18.5 -2t14 -12t2 -17q-36 -65 -89.5 -134.5t-108.5 -105.5q-47 -36 -126.5 -33t-124.5 43q-30 27 -42 68.5t-6 86.5t23.5 93.5
t47 90.5t64.5 77.5t76.5 54t83 21t83.5 -22.5q26 -13 38 -34t10.5 -44t-13 -46t-31.5 -41q-26 -28 -63.5 -55.5t-60 -40t-69.5 -37.5q4 -36 25 -52t49 -12t58 18.5t55 35.5q49 55 72 90zM3288 465q-26 0 -59 -41t-54 -99q0 -4 -1.5 -9t-2.5 -10t-2 -9q49 22 105 81
q62 66 34 83q-8 4 -20 4zM2054 183q24 0 57 41.5t54 100.5q21 58 17.5 99t-30.5 41q-24 0 -56 -40.5t-55 -99.5q-20 -59 -16.5 -100.5t29.5 -41.5zM896 678q0 39 27.5 66t66.5 27q38 0 65 -27.5t27 -65.5t-27 -66t-65 -28q-39 0 -66.5 27.5t-27.5 66.5z" />
    <glyph glyph-name="VintageKing.liga" unicode="VintageKing" horiz-adv-x="6832" 
d="M447 283q30 13 71 72t73 138t48.5 156.5t-6 134.5t-87.5 65q46 102 129 136q76 32 132 -12q70 -54 52 -186q-11 -84 -59 -186q-18 -40 -42 -86t-60.5 -113t-78 -127.5t-87.5 -117t-96 -95t-96 -49.5q-44 -14 -81.5 4t-58 58t-27.5 95t11 115q8 31 22.5 61.5t31 56.5
t32.5 50t34.5 53t31.5 55q56 114 28 194q-11 28 -35 43t-48 16t-44 -12t-24 -36q-2 -26 19 -35t50 18q27 -40 30 -86t-15.5 -82.5t-56.5 -60.5t-88 -24q-73 1 -113 48.5t-39 113.5q1 47 20 92.5t52.5 84t88 61.5t120.5 22q84 -2 141 -34t80.5 -83t22.5 -113.5t-26 -128.5
q-3 -9 -48 -105q-66 -142 -30 -165q8 -6 23 -6h3zM6579 -170q38 22 98 20q69 -5 111.5 -53.5t43.5 -120.5q0 -35 -11.5 -70.5t-35 -68.5t-64 -60t-93.5 -40q-40 -12 -85.5 -8t-84.5 14.5t-82.5 31.5t-81 44t-79.5 50.5t-77 51.5t-74 47.5t-71 37.5q-113 -110 -262 -105
q-95 1 -137 64q-38 55 -8 114q38 75 157 93q71 11 163 -3q7 -3 35 -6q14 9 39.5 70.5t27.5 96.5q-23 -11 -48 -14t-53.5 5.5t-51.5 30.5q-46 41 -51 112q-110 -148 -185 -154h-9q-39 -4 -65 9.5t-36.5 37t-12.5 55.5t3 62.5t15 59.5l90 206q-46 -19 -87 -77
q-9 -24 -35 -90.5t-49.5 -122.5t-62.5 -143q-53 0 -98 21.5t-62 61.5q-70 -69 -121 -74q-81 -10 -114.5 37.5t-9.5 133.5t71 180.5t103 175.5l174 -1q-125 -229 -150 -296q-22 -57 -7 -62q22 -8 58.5 19.5t83.5 93.5l105 248q32 -1 95.5 -3.5t95.5 -2.5q-4 -10 -12.5 -27
t-12.5 -27q17 10 33.5 18.5t35 16.5t35.5 13t33.5 8.5t30.5 3t26 -4t20 -12.5t12 -22.5t2.5 -33.5t-8.5 -46q-27 -61 -56 -136.5t-43 -108.5q50 -8 136 114q34 88 97.5 155t139.5 88t148 -37q8 16 14 38h174q-38 -84 -94.5 -226.5t-109 -260.5t-111.5 -221q88 -23 281 -108
q152 -67 201 -70q56 -5 56 48q0 11 -9 18.5t-19 4.5t-13 -20q-28 5 -39 28t-1 51t38 47zM5869 -252q-118 28 -174 -14q-32 -23 -20 -50q13 -25 59 -25q62 0 135 89zM6011 324q-20 -59 -16.5 -99.5t29.5 -40.5q25 0 57.5 41t52.5 99q22 57 19 98t-30 41q-25 0 -57.5 -41
t-54.5 -98zM2978 -268q79 63 175.5 101.5t195.5 44.5q173 10 267 -80q70 -67 62 -154q-8 -89 -95 -138q-95 -54 -248 -36q-133 20 -328 96q-65 -105 -69.5 -199t58.5 -102q37 -4 52 19.5t8 52t-27 39.5q34 31 82 40t91.5 -4.5t75.5 -57t35 -108.5q1 -52 -19.5 -101
t-60.5 -82q-50 -42 -122.5 -54.5t-152 12.5t-136.5 87q-96 107 -66 287q22 124 112 229q-41 16 -91 30q-24 7 -58.5 17.5t-58.5 17.5t-32 10q-35 -50 -78 -85.5t-84 -51t-82.5 -19.5t-76 7.5t-61.5 31.5t-42 51.5t-14 69.5q-1 53 21 90.5t56 54.5t79.5 23t88.5 1.5t86 -16.5
q2 0 11 -2.5t16 -3.5q70 104 117 210q-13 -12 -27 -21.5t-34 -17t-39 -8t-42.5 9t-45.5 29.5q-45 41 -50 112q-26 -33 -51 -59.5t-54 -50.5t-56 -33t-53 -5.5t-49 30t-40 74.5q-24 -36 -50 -61t-57 -39t-65.5 -7t-67.5 38q-48 45 -50 119q-111 -152 -192 -158
q-68 -9 -103 23.5t-30 95.5q-94 -115 -160 -121h-9q-39 -4 -65 9.5t-36.5 37t-12.5 55.5t3 62.5t15 59.5l89 206q-45 -19 -86 -77q-11 -27 -29.5 -74t-29.5 -75.5t-35 -83.5t-55 -123q-52 0 -97 21.5t-61 61.5q-70 -69 -121 -74q-81 -10 -114.5 37.5t-9.5 133.5
q24 87 71 181t103 175l173 -1q-8 -14 -23.5 -42.5t-26.5 -49t-26.5 -50.5t-26.5 -52t-23 -48t-19.5 -44t-12.5 -34.5t-4 -26t6 -11.5q22 -7 58.5 20t83.5 93l105 248q32 -1 95.5 -3.5t95.5 -2.5q-4 -9 -12.5 -26.5t-12.5 -27.5q29 17 57 29.5t58.5 22t52.5 8.5t40 -11.5
t20 -37.5t-8 -70q-27 -61 -56.5 -136.5t-42.5 -108.5q49 -8 138 116q84 226 161 410l10 15q-165 -7 -207 -81q-10 33 -7 60.5t11.5 48t28.5 36.5t42.5 26.5t54 17.5t63.5 11t70 5q24 47 46 82q83 -3 138 -30q-1 -1 -27 -53q22 -1 65 -3q81 -5 154.5 -4t128.5 9t84.5 34.5
t21.5 72.5q-3 8 -11 12.5t-15 4t-11 -7.5t-1 -20q-29 -5 -48.5 12.5t-19 45t18.5 57.5q27 38 83 55q33 11 65 8t59 -16.5t49 -37.5t34 -56q12 -26 16 -55t0 -61.5t-16.5 -63.5t-37.5 -62t-60 -56q-41 -29 -91.5 -43.5t-98.5 -16t-107.5 6t-106.5 17.5t-108.5 22.5
t-101.5 18.5q-71 -173 -133.5 -352.5t-45.5 -186.5q51 -16 148 120q0 2 5 4q21 54 55.5 103t78.5 83t90.5 48t96 -2.5t90.5 -66.5q27 54 42 72h130q-86 -90 -123 -219q-29 -97 -5 -127q28 -34 104 62q14 18 29 40q24 64 66.5 120t96 91t110.5 36.5t110 -42.5q9 17 15 39h189
q-23 -49 -80 -178t-88.5 -198t-82.5 -171.5t-98 -183.5q18 -5 46 -12.5t68 -18t62 -16.5q27 -7 66 -17t49 -13zM2468 -247q-163 57 -162 -27q2 -59 70 -35q51 18 88 58zM2634 324q-21 -59 -17.5 -99.5t28.5 -40.5q17 0 38 18.5t40.5 50.5t32.5 71q22 57 18.5 99t-29.5 42
q-25 0 -57 -41.5t-54 -99.5zM3117 -307q163 -39 235 -39q82 -1 112 39.5t-5.5 77.5t-110.5 29q-126 -18 -231 -107zM5166 678q0 39 27.5 66t66.5 27q38 0 65.5 -27.5t27.5 -65.5t-27.5 -66t-65.5 -28q-39 0 -66.5 27.5t-27.5 66.5zM4543 526l-20 -56q38 16 77.5 38t83 50.5
t79.5 61t63 66.5t38 71.5t1 71.5q70 37 125 5q33 -33 36 -71.5t-17.5 -74.5t-59 -74.5t-84 -71t-96.5 -63t-92.5 -51.5t-76.5 -37q20 -53 53 -103.5t73 -92t89 -66.5t97 -25q32 -76 -14 -136q-42 -55 -116 -53q-100 2 -179 113q-84 117 -116 332h-3q-25 -66 -52 -118
t-66.5 -100.5t-85.5 -78.5t-109.5 -44t-137.5 -6q-109 12 -180.5 103t-71.5 209q0 88 43 162t117 117t161 43q115 0 179 -67q52 -54 34 -113q-20 -64 -117 -88q15 27 3 44t-36 15q-37 0 -50 -41q-14 -45 15 -79q24 -29 70 -27q31 0 61 12.5t51.5 30t44 46t36 49.5t31.5 52
q23 46 52 94q75 153 135 232v1h1q-20 6 -42 8.5t-48.5 1t-47 -8.5t-35.5 -25t-17 -45q0 -32 22 -47.5t52 2.5q-21 -40 -61.5 -62.5t-85.5 -19.5q-58 8 -102.5 51t-43.5 98q0 48 24.5 87.5t61.5 61t80 26.5q53 5 112 -3t106 -23t88 -34l2 -2q58 31 102 -9q32 -30 27 -66
q-6 -39 -57 -35q-30 2 -71 21h-1q0 -2 -4 -5q-33 -47 -62.5 -102.5t-42.5 -88.5q-4 -11 -12.5 -31.5t-12.5 -31.5zM3418 302q5 8 14.5 10t18.5 -2t14 -12t2 -17q-36 -65 -89.5 -134.5t-108.5 -105.5q-47 -36 -126.5 -33t-124.5 43q-30 27 -42 68.5t-6 86.5t23.5 93.5
t47 90.5t64.5 77.5t76.5 54t83 21t83.5 -22.5q26 -13 38 -34t10.5 -44t-13 -46t-31.5 -41q-26 -28 -63.5 -55.5t-60 -40t-69.5 -37.5q4 -36 25 -52t49 -12t58 18.5t55 35.5q49 55 72 90zM3288 465q-26 0 -59 -41t-54 -99q0 -4 -1.5 -9t-2.5 -10t-2 -9q49 22 105 81
q62 66 34 83q-8 4 -20 4zM2054 183q24 0 57 41.5t54 100.5q21 58 17.5 99t-30.5 41q-24 0 -56 -40.5t-55 -99.5q-20 -59 -16.5 -100.5t29.5 -41.5zM896 678q0 39 27.5 66t66.5 27q38 0 65 -27.5t27 -65.5t-27 -66t-65 -28q-39 0 -66.5 27.5t-27.5 66.5z" />
    <glyph glyph-name=".notdef" horiz-adv-x="527" 
d="M50 700h427v-700h-427v700zM78 680l185 -309l186 309h-371zM251 350l-180 300v-601zM264 329l-185 -308h370zM276 350l181 -303v605z" />
    <glyph glyph-name=".null" horiz-adv-x="0" 
 />
    <glyph glyph-name=".null" horiz-adv-x="0" 
 />
    <glyph glyph-name="nonmarkingreturn" horiz-adv-x="333" 
 />
    <glyph glyph-name="controlLF" unicode="&#xa;" horiz-adv-x="0" 
 />
    <glyph glyph-name="controlCR" unicode="&#xd;" horiz-adv-x="0" 
 />
    <glyph glyph-name="space" unicode=" " horiz-adv-x="275" 
 />
    <glyph glyph-name="exclam" unicode="!" horiz-adv-x="564" 
d="M196 387v-67.5v-68.5q-42 44 -52 104.5t16 116.5h179q27 0 48 -15.5t30 -37t5 -47t-23.5 -44.5t-45 -23t-47 5t-36.5 29.5t-15 47.5h-59zM0 666q0 16 11.5 27t26.5 11h557q16 0 27.5 -11t11.5 -27v-557q0 -16 -11.5 -27t-27.5 -11h-557q-15 0 -26.5 11t-11.5 27v557z
M126 531q-51 -74 -42.5 -166.5t73.5 -158.5q75 -74 180 -75.5t184 75.5q-5 4 -13.5 13t-15.5 15.5t-13 13.5q-44 -44 -105.5 -55t-118.5 15v63q38 -27 84 -27q39 0 72 19.5t52 52.5t19 71q0 24 -7 45.5t-20.5 39.5t-31 31t-39.5 20.5t-45 7.5h-136q58 55 138.5 54t137.5 -58
l42 42q-76 75 -182 75q-65 0 -121.5 -30.5t-91.5 -82.5zM165 -71h-16v99h-18v13h53v-13h-19v-99zM180 -87q2 0 3 -1.5t1 -3.5v-2h-4v2v1h-18l-0.5 -0.5l-0.5 -0.5v-6l1 -1h18q2 0 3.5 -1.5t1.5 -3.5v-6q0 -2 -1.5 -3.5t-3.5 -1.5h-18q-2 0 -3.5 1.5t-1.5 3.5v2h4v-2h1h18v0
v6v1h-18q-2 0 -3.5 1.5t-1.5 3.5v6q0 2 1.5 3.5t3.5 1.5h18zM37 41q16 0 16 -15v-38q0 -15 -16 -15h-21v-44h-16v112h37zM37 -9v32q0 3 -1 4t-4 1h-16v-43h16q3 0 4 1.5t1 4.5zM105 -53v94h16v-96q0 -16 -17 -16h-20q-17 0 -17 16v96h17v-94q0 -3 1 -4t4 -1h10q4 0 5 1t1 4z
M455 28v13h54v-13h-19v-99h-16v99h-19zM451 -58v-13h-49v112h48v-13h-32v-34h26v-13h-26v-39h33zM369 41q17 0 17 -15v-20h-16v17q0 4 -1 5t-5 1h-9q-3 0 -4 -1t-1 -5v-76q0 -3 1 -4t4 -1h9q4 0 5 1t1 4v17h16v-19q0 -16 -17 -16h-19q-16 0 -16 16v81q0 15 16 15h19z
M471 -87q2 0 3.5 -1.5t1.5 -3.5v-18q0 -2 -1.5 -3.5t-3.5 -1.5h-17q-2 0 -3.5 1.5t-1.5 3.5v18q0 2 1.5 3.5t3.5 1.5h17zM472 -110v18q0 1 -1 1h-17l-1 -1v-18h1h17h1zM555 41q17 0 17 -15v-81q0 -16 -17 -16h-20q-17 0 -17 16v81q0 15 17 15h20zM556 -53v76q0 3 -1.5 4
t-4.5 1h-10q-3 0 -4 -1t-1 -4v-76q0 -3 1 -4t4 -1h10q3 0 4.5 1t1.5 4zM413 -115h-4v28h4v-28zM606 41v-99h28v-13h-44v112h16zM367 -87q2 0 3.5 -1.5t1.5 -3.5v-18q0 -2 -1.5 -3.5t-3.5 -1.5h-22v28h22zM368 -110v18q0 1 -1 1h-17l-1 -1v-18h1h17h1zM305 -110v23h4v-23
q0 -2 -1.5 -3.5t-3.5 -1.5h-18q-2 0 -3.5 1.5t-1.5 3.5v23h5v-23v0h18h1zM248 -10q0 -13 -12 -15l18 -46h-18l-17 45h-8v-45h-17v112h37q17 0 17 -15v-36zM232 -7v30q0 3 -1 4t-5 1h-15v-41h15q4 0 5 1t1 5zM278 41h24l21 -112h-16l-5 26h-23l-5 -26h-16zM281 -32h19l-10 59
zM219 -91v4h28v-4h-12v-24h-4v24h-12zM490 723q-14 0 -15 14v82h14v-80q0 -3 1 -3.5t4 -0.5h9q3 0 3.5 0.5t0.5 3.5v80h14v-82q0 -14 -14 -14h-17zM445 735v-12h-37v96h14v-84h23zM549 767q-14 0 -14 13v26q0 13 14 13h15q14 0 14 -13v-14h-14v12q0 2 -1 3t-3 1h-7
q-3 0 -3.5 -1t-0.5 -3v-22q0 -2 0.5 -3t3.5 -1h11q14 0 14 -14v-27q0 -14 -14 -14h-15q-14 0 -14 14v14h14v-12q0 -3 1 -3.5t3 -0.5h7q3 0 3.5 0.5t0.5 3.5v23q0 3 -0.5 4t-3.5 1h-11zM606 735h28v-12h-42v96h41v-11h-27v-30h22v-11h-22v-32zM14 760v-37h-14v96h31
q15 0 15 -13v-32q0 -14 -15 -14h-17zM14 808v-37h13q3 0 4 1t1 4v28q0 2 -1 3t-4 1h-13zM183 767q-14 0 -14 13v26q0 13 14 13h15q14 0 14 -13v-14h-14v12q0 2 -1 3t-3 1h-7q-2 0 -3 -1t-1 -3v-22q0 -2 0.5 -3t3.5 -1h11q14 0 14 -14v-27q0 -14 -14 -14h-15q-14 0 -14 14v14
h14v-12q0 -3 1 -3.5t4 -0.5h6q3 0 3.5 0.5t0.5 3.5v23q0 3 -0.5 4t-3.5 1h-11zM132 762h-8v-39h-14v96h32q14 0 14 -13v-30q0 -12 -10 -14l15 -39h-15zM124 808v-35h14q2 0 3 1t1 4v26q0 2 -1 3t-3 1h-14zM99 735v-12h-41v96h40v-11h-26v-30h22v-11h-22v-32h27zM360 746
l-3 -23h-14l17 96h20l18 -96h-14l-4 23h-20zM370 807l-8 -50h16zM299 793v-70h-13v96h15l19 -67v67h13v-96h-14zM240 723q-15 0 -15 14v69q0 13 15 13h17q14 0 14 -13v-69q0 -14 -14 -14h-17zM239 804v-65q0 -3 1 -3.5t4 -0.5h9q2 0 3 0.5t1 3.5v65q0 2 -1 3t-3 1h-9
q-3 0 -4 -1t-1 -3z" />
    <glyph glyph-name="quotedbl" unicode="&#x22;" horiz-adv-x="357" 
d="M177 722q26 -8 33.5 -36t-4 -58t-34.5 -46q-35 -25 -63 -14q-24 11 -11 39q18 -22 47 -7q16 9 8 15q-2 1 -7 2q-6 -2 -12 0q-6 0 -14 2q-37 12 -29 49q8 34 41 51q22 11 45 3zM320 722q27 -8 34 -36t-4.5 -58t-34.5 -46q-36 -25 -65 -14q-24 11 -10 39q19 -22 47 -7
q17 9 10 15q-2 1 -7 2q-7 -2 -14 0q-4 0 -14 2q-37 12 -28 49q8 35 41 51q22 10 45 3z" />
    <glyph glyph-name="quotedbl" unicode="&#x201d;" horiz-adv-x="357" 
d="M177 722q26 -8 33.5 -36t-4 -58t-34.5 -46q-35 -25 -63 -14q-24 11 -11 39q18 -22 47 -7q16 9 8 15q-2 1 -7 2q-6 -2 -12 0q-6 0 -14 2q-37 12 -29 49q8 34 41 51q22 11 45 3zM320 722q27 -8 34 -36t-4.5 -58t-34.5 -46q-36 -25 -65 -14q-24 11 -10 39q19 -22 47 -7
q17 9 10 15q-2 1 -7 2q-7 -2 -14 0q-4 0 -14 2q-37 12 -28 49q8 35 41 51q22 10 45 3z" />
    <glyph glyph-name="numbersign" unicode="#" horiz-adv-x="715" 
d="M247 387v-136q-42 44 -52 104.5t16 116.5h179q27 0 48 -15.5t30 -37t5 -47t-23.5 -44.5t-45 -23t-47 5t-36.5 29.5t-15 47.5h-59zM51 666q0 16 11.5 27t26.5 11h557q16 0 27 -11t11 -27v-557q0 -16 -11 -27t-27 -11h-557q-15 0 -26.5 11t-11.5 27v557zM177 531
q-51 -74 -42.5 -166.5t73.5 -158.5q75 -74 180 -75.5t184 75.5l-42 42q-44 -44 -105.5 -55t-118.5 15v63q38 -27 84 -27q59 0 101 42t42 101.5t-42 101.5t-101 42h-136q58 55 138.5 54t137.5 -58l42 42q-76 75 -182 75q-65 0 -121.5 -30.5t-91.5 -82.5zM88 41q16 0 16 -15
v-38q0 -15 -16 -15h-21v-44h-16v112h37zM88 -9v32q0 3 -1 4t-4 1h-16v-43h16q3 0 4 1.5t1 4.5zM231 -87q2 0 3 -1.5t1 -3.5v-2h-4v2v1h-18l-0.5 -0.5l-0.5 -0.5v-6l1 -1h18q2 0 3 -1.5t1 -3.5v-6q0 -2 -1 -3.5t-3 -1.5h-18q-2 0 -3.5 1.5t-1.5 3.5v2h4v-2h1h18v0v6v1h-18
q-2 0 -3.5 1.5t-1.5 3.5v6q0 2 1.5 3.5t3.5 1.5h18zM155 -53v94h17v-96q0 -16 -17 -16h-20q-17 0 -17 16v96h17v-94q0 -3 1 -4t4 -1h10q4 0 4.5 1t0.5 4zM216 -71h-16v99h-19v13h54v-13h-19v-99zM270 -91v4h28v-4h-12v-24h-4v24h-12zM464 -115h-4v28h4v-28zM506 28v13h54
v-13h-19v-99h-16v99h-19zM502 -58v-13h-49v112h48v-13h-32v-34h26v-13h-26v-39h33zM657 41v-99h28v-13h-44v112h16zM299 -10q0 -13 -12 -15l18 -46h-18l-17 45h-8v-45h-16v112h36q17 0 17 -15v-36zM283 -7v30q0 3 -1 4t-5 1h-15v-41h15q4 0 5 1t1 5zM522 -87q2 0 3.5 -1.5
t1.5 -3.5v-18q0 -2 -1.5 -3.5t-3.5 -1.5h-17q-2 0 -3.5 1.5t-1.5 3.5v18q0 2 1.5 3.5t3.5 1.5h17zM523 -110v18q0 1 -1 1h-17l-1 -1v-18h1h17h1zM606 41q17 0 17 -15v-81q0 -16 -17 -16h-20q-17 0 -17 16v81q0 15 17 15h20zM607 -53v76q0 3 -1.5 4t-4.5 1h-10q-3 0 -4 -1
t-1 -4v-76q0 -3 1 -4t4 -1h10q3 0 4.5 1t1.5 4zM329 41h24l21 -112h-16l-5 26h-23l-5 -26h-16zM332 -32h19l-10 59zM418 -87q2 0 3.5 -1.5t1.5 -3.5v-18q0 -2 -1.5 -3.5t-3.5 -1.5h-22v28h22zM419 -110v18q0 1 -1 1h-17l-1 -1v-18h1h17h1zM356 -110v23h4v-23q0 -2 -1.5 -3.5
t-3.5 -1.5h-18q-2 0 -3 1.5t-1 3.5v23h4v-23v0h18h1zM420 41q17 0 17 -15v-20h-16v17q0 4 -1 5t-5 1h-9q-3 0 -4 -1t-1 -5v-76q0 -3 1 -4t4 -1h9q4 0 5 1t1 4v17h16v-19q0 -16 -17 -16h-19q-16 0 -16 16v81q0 15 16 15h19zM657 735h28v-12h-42v96h40v-11h-26v-30h22v-11h-22
v-32zM496 735v-12h-37v96h14v-84h23zM599 767q-13 0 -13 13v26q0 13 14 13h15q14 0 14 -13v-14h-14v12q0 2 -1 3t-3 1h-7q-3 0 -4 -1t-1 -3v-22q0 -2 1 -3t4 -1h11q14 0 14 -14v-27q0 -14 -14 -14h-15q-14 0 -14 14v14h14v-12q0 -3 1 -3.5t3 -0.5h7q3 0 3.5 0.5t0.5 3.5v23
q0 3 -0.5 4t-3.5 1h-12zM541 723q-14 0 -15 14v82h14v-80q0 -3 1 -3.5t4 -0.5h9q3 0 3.5 0.5t0.5 3.5v80h14v-82q0 -14 -14 -14h-17zM150 735v-12h-41v96h40v-11h-26v-30h22v-11h-22v-32h27zM65 760v-37h-14v96h31q15 0 15 -13v-32q0 -14 -15 -14h-17zM65 808v-37h13
q3 0 4 1t1 4v28q0 2 -1 3t-4 1h-13zM183 762h-8v-39h-14v96h32q14 0 14 -13v-30q0 -12 -10 -14l15 -39h-15zM175 808v-35h14q2 0 3 1t1 4v26q0 2 -1 3t-3 1h-14zM291 723q-15 0 -15 14v69q0 13 15 13h17q14 0 14 -13v-69q0 -14 -14 -14h-17zM290 804v-65q0 -3 1 -3.5t4 -0.5
h8q3 0 4 0.5t1 3.5v65q0 2 -1 3t-4 1h-8q-3 0 -4 -1t-1 -3zM234 767q-14 0 -14 13v26q0 13 14 13h15q14 0 14 -13v-14h-14v12q0 2 -1 3t-3 1h-7q-3 0 -3.5 -1t-0.5 -3v-22q0 -2 0.5 -3t3.5 -1h11q14 0 14 -14v-27q0 -14 -14 -14h-15q-14 0 -14 14v14h14v-12q0 -3 1 -3.5
t3 -0.5h7q3 0 3.5 0.5t0.5 3.5v23q0 3 -0.5 4t-3.5 1h-11zM350 793v-70h-13v96h15l19 -67v67h13v-96h-14zM411 746l-4 -23h-13l17 96h20l18 -96h-14l-4 23h-20zM421 807l-8 -50h16z" />
    <glyph glyph-name="dollar" unicode="$" horiz-adv-x="614" 
d="M-20 666q0 16 11.5 27t26.5 11h557q16 0 27.5 -11t11.5 -27v-557q0 -16 -11.5 -27t-27.5 -11h-557q-15 0 -26.5 11t-11.5 27v557zM106 531q-51 -74 -42.5 -166.5t74.5 -158.5q74 -74 179 -75.5t184 75.5l-42 42q-44 -44 -105.5 -55t-118.5 15v63q38 -27 84 -27
q59 0 101 42t42 101q0 24 -7 45.5t-20.5 39.5t-31 31t-39.5 20.5t-45 7.5h-136q58 55 138.5 54t137.5 -58l42 42q-75 75 -182 75q-65 0 -121.5 -30.5t-91.5 -82.5zM176 387v-136q-42 44 -52 104.5t16 116.5h179q27 0 48 -15.5t30 -37t5 -47t-23 -44.5q-16 -15 -35.5 -21
t-38 -2t-34.5 14t-26 28.5t-10 39.5h-59zM393 -115h-4v28h4v-28zM431 -58v-13h-49v112h48v-13h-32v-34h26v-13h-26v-39h33zM586 41v-99h28v-13h-44v112h16zM17 41q16 0 16 -15v-38q0 -15 -16 -15h-21v-44h-16v112h37zM17 -9v32q0 3 -1 4t-4 1h-16v-43h16q3 0 4 1.5t1 4.5z
M435 28v13h54v-13h-19v-99h-16v99h-19zM535 41q17 0 17 -15v-81q0 -16 -17 -16h-20q-17 0 -17 16v81q0 15 17 15h20zM536 -53v76q0 3 -1.5 4t-4.5 1h-10q-3 0 -4 -1t-1 -4v-76q0 -3 1 -4t4 -1h10q3 0 4.5 1t1.5 4zM451 -87q2 0 3.5 -1.5t1.5 -3.5v-18q0 -2 -1.5 -3.5
t-3.5 -1.5h-17q-2 0 -3.5 1.5t-1.5 3.5v18q0 2 1.5 3.5t3.5 1.5h17zM452 -110v18q0 1 -1 1h-17l-1 -1v-18h1h17h1zM258 41h24l21 -112h-16l-5 26h-23l-5 -26h-16zM261 -32h19l-10 59zM349 41q17 0 17 -15v-20h-16v17q0 4 -1 5t-4 1h-10q-3 0 -4 -1t-1 -5v-76q0 -3 1 -4t4 -1
h10q3 0 4 1t1 4v17h16v-19q0 -16 -17 -16h-19q-16 0 -16 16v81q0 15 16 15h19zM347 -87q2 0 3.5 -1.5t1.5 -3.5v-18q0 -2 -1.5 -3.5t-3.5 -1.5h-22v28h22zM348 -110v18q0 1 -1 1h-17l-1 -1v-18h1h17h1zM199 -91v4h28v-4h-12v-24h-4v24h-12zM160 -87q2 0 3.5 -1.5t1.5 -3.5
v-2h-5v2v1h-18l-0.5 -0.5l-0.5 -0.5v-6l1 -1h18q2 0 3.5 -1.5t1.5 -3.5v-6q0 -2 -1.5 -3.5t-3.5 -1.5h-18q-2 0 -3.5 1.5t-1.5 3.5v2h4v-2h1h18v0v6v1h-18q-2 0 -3.5 1.5t-1.5 3.5v6q0 2 1.5 3.5t3.5 1.5h18zM228 -10q0 -13 -12 -15l18 -46h-18l-17 45h-8v-45h-16v112h36
q17 0 17 -15v-36zM212 -7v30q0 3 -1 4t-5 1h-15v-41h15q4 0 5 1t1 5zM285 -110v23h4v-23q0 -2 -1.5 -3.5t-3.5 -1.5h-18q-2 0 -3 1.5t-1 3.5v23h4v-23v0h18h1zM146 -71h-17v99h-18v13h53v-13h-18v-99zM85 -53v94h16v-96q0 -16 -17 -16h-20q-17 0 -17 16v96h17v-94q0 -3 1 -4
t4 -1h10q4 0 5 1t1 4zM425 735v-12h-37v96h14v-84h23zM529 767q-14 0 -14 13v26q0 13 14 13h15q14 0 14 -13v-14h-14v12q0 2 -1 3t-3 1h-7q-3 0 -4 -1t-1 -3v-22q0 -2 1 -3t4 -1h11q14 0 14 -14v-27q0 -14 -14 -14h-15q-14 0 -14 14v14h14v-12q0 -3 1 -3.5t3 -0.5h7
q3 0 3.5 0.5t0.5 3.5v23q0 3 -0.5 4t-3.5 1h-11zM586 735h28v-12h-42v96h41v-11h-27v-30h22v-11h-22v-32zM470 723q-14 0 -14 14v82h13v-80q0 -3 1 -3.5t4 -0.5h9q3 0 3.5 0.5t0.5 3.5v80h14v-82q0 -14 -14 -14h-17zM112 762h-8v-39h-14v96h32q14 0 14 -13v-30
q0 -12 -10 -14l15 -39h-15zM104 808v-35h14q2 0 3 1t1 4v26q0 2 -1 3t-3 1h-14zM79 735v-12h-41v96h40v-11h-26v-30h22v-11h-22v-32h27zM340 746l-3 -23h-14l17 96h20l18 -96h-14l-4 23h-20zM350 807l-8 -50h16zM-6 760v-37h-14v96h31q15 0 15 -13v-32q0 -14 -15 -14h-17z
M-6 808v-37h13q3 0 4 1t1 4v28q0 2 -1 3t-4 1h-13zM163 767q-14 0 -14 13v26q0 13 14 13h15q14 0 14 -13v-14h-14v12q0 2 -1 3t-3 1h-7q-3 0 -3.5 -1t-0.5 -3v-22q0 -2 0.5 -3t3.5 -1h11q14 0 14 -14v-27q0 -14 -14 -14h-15q-14 0 -14 14v14h14v-12q0 -3 1 -3.5t4 -0.5h6
q3 0 3.5 0.5t0.5 3.5v23q0 3 -0.5 4t-3.5 1h-11zM279 793v-70h-13v96h15l19 -67v67h13v-96h-14zM220 723q-15 0 -15 14v69q0 13 15 13h17q14 0 14 -13v-69q0 -14 -14 -14h-17zM219 804v-65q0 -3 1 -3.5t4 -0.5h9q2 0 3 0.5t1 3.5v65q0 2 -1 3t-3 1h-9q-3 0 -4 -1t-1 -3z" />
    <glyph glyph-name="percent" unicode="%" horiz-adv-x="583" 
d="M146 387v-67.5v-68.5q-42 44 -52 104.5t16 116.5h179q27 0 48 -15.5t30 -37t5 -47t-23.5 -44.5t-45 -23t-47 5t-36.5 29.5t-15 47.5h-59zM-50 666q0 16 11.5 27t26.5 11h557q16 0 27.5 -11t11.5 -27v-557q0 -16 -11.5 -27t-27.5 -11h-557q-15 0 -26.5 11t-11.5 27v557z
M76 531q-51 -74 -42.5 -166.5t73.5 -158.5q75 -74 180 -75.5t184 75.5l-42 42q-44 -44 -105.5 -55t-118.5 15v63q38 -27 84 -27q39 0 72 19.5t52 52.5t19 71q0 60 -42 102t-101 42h-136q58 55 138.5 54t137.5 -58l42 42q-75 75 -182 75q-65 0 -121.5 -30.5t-91.5 -82.5z
M55 -53v94h16v-96q0 -16 -17 -16h-20q-17 0 -17 16v96h17v-94q0 -3 1 -4t4 -1h10q4 0 5 1t1 4zM116 -71h-17v99h-18v13h53v-13h-18v-99zM-13 41q16 0 16 -15v-38q0 -15 -16 -15h-21v-44h-16v112h37zM-13 -9v32q0 3 -1 4t-4 1h-16v-43h16q3 0 4 1.5t1 4.5zM405 28v13h54v-13
h-19v-99h-16v99h-19zM505 41q17 0 17 -15v-81q0 -16 -17 -16h-20q-17 0 -17 16v81q0 15 17 15h20zM506 -53v76q0 3 -1.5 4t-4.5 1h-10q-3 0 -4 -1t-1 -4v-76q0 -3 1 -4t4 -1h10q3 0 4.5 1t1.5 4zM556 41v-99h28v-13h-44v112h16zM255 -110v23h4v-23q0 -2 -1.5 -3.5t-3.5 -1.5
h-18q-2 0 -3.5 1.5t-1.5 3.5v23h5v-23v0h18h1zM228 41h24l21 -112h-16l-5 26h-23l-5 -26h-16zM231 -32h19l-10 59zM363 -115h-4v28h4v-28zM401 -58v-13h-49v112h48v-13h-32v-34h26v-13h-26v-39h33zM317 -87q2 0 3.5 -1.5t1.5 -3.5v-18q0 -2 -1.5 -3.5t-3.5 -1.5h-22v28h22z
M318 -110v18q0 1 -1 1h-17l-1 -1v-18h1h17h1zM130 -87q2 0 3.5 -1.5t1.5 -3.5v-2h-5v2v1h-18l-0.5 -0.5l-0.5 -0.5v-6l1 -1h18q2 0 3.5 -1.5t1.5 -3.5v-6q0 -2 -1.5 -3.5t-3.5 -1.5h-18q-2 0 -3.5 1.5t-1.5 3.5v2h4v-2h1h18v0v6v1h-18q-2 0 -3.5 1.5t-1.5 3.5v6q0 2 1.5 3.5
t3.5 1.5h18zM319 41q17 0 17 -15v-20h-16v17q0 4 -1 5t-4 1h-10q-3 0 -4 -1t-1 -5v-76q0 -3 1 -4t4 -1h9q4 0 5 1t1 4v17h16v-19q0 -16 -17 -16h-19q-16 0 -16 16v81q0 15 16 15h19zM198 -10q0 -13 -12 -15l18 -46h-18l-17 45h-8v-45h-16v112h36q17 0 17 -15v-36zM182 -7v30
q0 3 -1 4t-5 1h-15v-41h15q4 0 5 1t1 5zM421 -87q3 0 4 -1.5t1 -3.5v-18q0 -2 -1.5 -3.5t-3.5 -1.5h-17q-2 0 -3.5 1.5t-1.5 3.5v18q0 2 1.5 3.5t3.5 1.5h17zM422 -110v18q0 1 -1 1h-17l-1 -1v-18h1h17h1zM169 -87h28v-4h-12v-24h-4v24h-12v4zM-36 760v-37h-14v96h31
q15 0 15 -13v-32q0 -14 -15 -14h-17zM-36 808v-37h13q3 0 4 1t1 4v28q0 2 -1 3t-4 1h-13zM49 735v-12h-41v96h40v-11h-26v-30h22v-11h-22v-32h27zM74 762v-39h-14v96h32q14 0 14 -13v-30q0 -12 -10 -14l15 -39h-15l-14 39h-8zM74 808v-35h14q2 0 3 1t1 4v26q0 2 -1 3t-3 1
h-14zM499 767q-14 0 -14 13v26q0 13 14 13h15q14 0 14 -13v-14h-14v12q0 2 -1 3t-3 1h-7q-3 0 -4 -1t-1 -3v-22q0 -2 1 -3t4 -1h11q14 0 14 -14v-27q0 -14 -14 -14h-15q-14 0 -14 14v14h14v-12q0 -3 1 -3.5t3 -0.5h7q3 0 3.5 0.5t0.5 3.5v23q0 3 -0.5 4t-3.5 1h-11zM440 723
q-14 0 -15 14v82h14v-80q0 -3 1 -3.5t4 -0.5h9q3 0 3.5 0.5t0.5 3.5v80h14v-82q0 -14 -14 -14h-17zM249 793v-70h-13v96h15l19 -67v67h13v-96h-14zM133 767q-14 0 -14 13v26q0 13 14 13h15q14 0 14 -13v-14h-14v12q0 2 -1 3t-3 1h-7q-2 0 -3 -1t-1 -3v-22q0 -2 1 -3t3 -1h11
q14 0 14 -14v-27q0 -14 -14 -14h-15q-14 0 -14 14v14h14v-12q0 -3 1 -3.5t4 -0.5h6q3 0 3.5 0.5t0.5 3.5v23q0 3 -0.5 4t-3.5 1h-11zM190 723q-15 0 -15 14v69q0 13 15 13h17q14 0 14 -13v-69q0 -14 -14 -14h-17zM189 804v-65q0 -3 1 -3.5t4 -0.5h9q2 0 3 0.5t1 3.5v65
q0 2 -1 3t-3 1h-9q-3 0 -4 -1t-1 -3zM556 735h28v-12h-42v96h40v-11h-26v-30h22v-11h-22v-32zM310 746l-3 -23h-14l17 96h20l18 -96h-14l-4 23h-20zM320 807l-8 -50h16zM395 735v-12h-37v96h14v-84h23z" />
    <glyph glyph-name="ampersand" unicode="&#x26;" horiz-adv-x="693" 
d="M226 387v-136q-42 44 -52 104.5t16 116.5h179q27 0 48 -15.5t30 -37t5 -47t-23.5 -44.5t-45 -23t-47 5t-36.5 29.5t-15 47.5h-59zM30 666q0 16 11.5 27t26.5 11h557q16 0 27.5 -11t11.5 -27v-557q0 -16 -11.5 -27t-27.5 -11h-557q-15 0 -26.5 11t-11.5 27v557zM156 531
q-51 -74 -42.5 -166.5t73.5 -158.5q75 -74 180 -75.5t184 75.5q-5 4 -13.5 13t-15.5 15.5t-13 13.5q-44 -44 -105.5 -55t-118.5 15v63q38 -27 84 -27q59 0 101 42t42 101q0 24 -7 45.5t-20.5 39.5t-31 31t-39.5 20.5t-45 7.5h-136q58 55 138.5 54t137.5 -58l42 42
q-76 75 -182 75q-65 0 -121.5 -30.5t-91.5 -82.5zM67 41q16 0 16 -15v-38q0 -15 -16 -15h-21v-44h-16v112h37zM67 -9v32q0 3 -1 4t-4 1h-16v-43h16q3 0 4 1.5t1 4.5zM485 28v13h54v-13h-19v-99h-16v99h-19zM135 -53v94h16v-96q0 -16 -17 -16h-20q-17 0 -17 16v96h17v-94
q0 -3 1 -4t4 -1h10q4 0 5 1t1 4zM585 41q17 0 17 -15v-81q0 -16 -17 -16h-20q-17 0 -17 16v81q0 15 17 15h20zM586 -53v76q0 3 -1.5 4t-4.5 1h-10q-3 0 -4 -1t-1 -4v-76q0 -3 1 -4t4 -1h10q3 0 4.5 1t1.5 4zM481 -58v-13h-49v112h48v-13h-32v-34h26v-13h-26v-39h33zM636 41
v-99h28v-13h-44v112h16zM195 -71h-16v99h-18v13h53v-13h-19v-99zM443 -115h-4v28h4v-28zM397 -87q2 0 3.5 -1.5t1.5 -3.5v-18q0 -2 -1.5 -3.5t-3.5 -1.5h-22v28h22zM398 -110v18q0 1 -1 1h-17l-1 -1v-18h1h17h1zM210 -87q2 0 3 -1.5t1 -3.5v-2h-4v2v1h-18l-0.5 -0.5
l-0.5 -0.5v-6l1 -1h18q2 0 3 -1.5t1 -3.5v-6q0 -2 -1 -3.5t-3 -1.5h-18q-2 0 -3.5 1.5t-1.5 3.5v2h4v-2h1h18v0v6v1h-18q-2 0 -3.5 1.5t-1.5 3.5v6q0 2 1.5 3.5t3.5 1.5h18zM399 41q17 0 17 -15v-20h-16v17q0 4 -1 5t-5 1h-9q-3 0 -4 -1t-1 -5v-76q0 -3 1 -4t4 -1h9q4 0 5 1
t1 4v17h16v-19q0 -16 -17 -16h-19q-16 0 -16 16v81q0 15 16 15h19zM308 41h24l21 -112h-16l-5 26h-23l-5 -26h-16zM311 -32h19l-10 59zM335 -110v23h4v-23q0 -2 -1.5 -3.5t-3.5 -1.5h-18q-2 0 -3.5 1.5t-1.5 3.5v23h5v-23v0h18h1zM249 -91v4h28v-4h-12v-24h-4v24h-12z
M501 -87q3 0 4 -1.5t1 -3.5v-18q0 -2 -1.5 -3.5t-3.5 -1.5h-17q-2 0 -3.5 1.5t-1.5 3.5v18q0 2 1.5 3.5t3.5 1.5h17zM502 -110v18q0 1 -1 1h-17l-1 -1v-18h1h17h1zM278 -10q0 -13 -12 -15l18 -46h-18l-17 45h-8v-45h-16v112h36q17 0 17 -15v-36zM262 -7v30q0 3 -1 4t-5 1
h-15v-41h15q4 0 5 1t1 5zM475 735v-12h-37v96h14v-84h23zM579 767q-14 0 -14 13v26q0 13 14 13h15q14 0 14 -13v-14h-14v12q0 2 -1 3t-4 1h-6q-3 0 -4 -1t-1 -3v-22q0 -2 1 -3t4 -1h11q14 0 14 -14v-27q0 -14 -14 -14h-15q-14 0 -14 14v14h14v-12q0 -3 1 -3.5t3 -0.5h7
q3 0 3.5 0.5t0.5 3.5v23q0 3 -0.5 4t-3.5 1h-11zM520 723q-14 0 -15 14v82h14v-80q0 -3 1 -3.5t4 -0.5h9q3 0 3.5 0.5t0.5 3.5v80h14v-82q0 -14 -14 -14h-17zM129 735v-12h-41v96h40v-11h-26v-30h22v-11h-22v-32h27zM44 760v-37h-14v96h31q15 0 15 -13v-32q0 -14 -15 -14
h-17zM44 808v-37h13q3 0 4 1t1 4v28q0 2 -1 3t-4 1h-13zM390 746l-3 -23h-14l17 96h20l18 -96h-14l-4 23h-20zM400 807l-8 -50h16zM636 735h28v-12h-42v96h40v-11h-26v-30h22v-11h-22v-32zM162 762h-8v-39h-14v96h32q14 0 14 -13v-30q0 -12 -10 -14l15 -39h-15zM154 808v-35
h14q2 0 3 1t1 4v26q0 2 -1 3t-3 1h-14zM329 793v-70h-13v96h15l19 -67v67h13v-96h-14zM213 767q-14 0 -14 13v26q0 13 14 13h15q14 0 14 -13v-14h-14v12q0 2 -1 3t-3 1h-7q-3 0 -3.5 -1t-0.5 -3v-22q0 -2 0.5 -3t3.5 -1h11q14 0 14 -14v-27q0 -14 -14 -14h-15q-14 0 -14 14
v14h14v-12q0 -3 1 -3.5t4 -0.5h6q3 0 3.5 0.5t0.5 3.5v23q0 3 -0.5 4t-3.5 1h-11zM270 723q-15 0 -15 14v69q0 13 15 13h17q14 0 14 -13v-69q0 -14 -14 -14h-17zM269 804v-65q0 -3 1 -3.5t4 -0.5h9q2 0 3 0.5t1 3.5v65q0 2 -1 3t-3 1h-9q-3 0 -4 -1t-1 -3z" />
    <glyph glyph-name="quotesingle" unicode="'" horiz-adv-x="214" 
d="M178 722q26 -8 33 -36t-4.5 -58t-33.5 -46q-37 -25 -66 -14q-23 12 -9 39q18 -22 46 -7q17 9 10 15q-2 1 -7 2q-7 -2 -14 0q-3 0 -14 2q-36 12 -28 49q8 35 41 51q23 10 46 3z" />
    <glyph glyph-name="quotesingle" unicode="&#x2019;" horiz-adv-x="214" 
d="M178 722q26 -8 33 -36t-4.5 -58t-33.5 -46q-37 -25 -66 -14q-23 12 -9 39q18 -22 46 -7q17 9 10 15q-2 1 -7 2q-7 -2 -14 0q-3 0 -14 2q-36 12 -28 49q8 35 41 51q23 10 46 3z" />
    <glyph glyph-name="parenleft" unicode="(" horiz-adv-x="524" 
d="M226 387v-67.5v-68.5q-42 44 -52 104.5t16 116.5h179q27 0 48 -15.5t30 -37t5 -47t-23.5 -44.5t-45 -23t-47 5t-36.5 29.5t-15 47.5h-59zM30 666q0 16 11.5 27t26.5 11h557q16 0 27.5 -11t11.5 -27v-557q0 -16 -11.5 -27t-27.5 -11h-557q-15 0 -26.5 11t-11.5 27v557z
M156 531q-51 -74 -42.5 -166.5t73.5 -158.5q75 -74 180 -75.5t184 75.5l-42 42q-44 -44 -105.5 -55t-118.5 15v63q38 -27 84 -27q59 0 101 42t42 101q0 24 -7 45.5t-20.5 39.5t-31 31t-39.5 20.5t-45 7.5h-136q58 55 138.5 54t137.5 -58l13.5 13.5t15 15.5t13.5 13
q-76 75 -182 75q-65 0 -121.5 -30.5t-91.5 -82.5zM210 -87q2 0 3.5 -1.5t1.5 -3.5v-2h-5v2v1h-18l-0.5 -0.5l-0.5 -0.5v-6l1 -1h18q2 0 3.5 -1.5t1.5 -3.5v-6q0 -2 -1.5 -3.5t-3.5 -1.5h-18q-2 0 -3.5 1.5t-1.5 3.5v2h4v-2h1h18v0v6v1h-18q-2 0 -3.5 1.5t-1.5 3.5v6
q0 2 1.5 3.5t3.5 1.5h18zM195 -71h-16v99h-18v13h53v-13h-19v-99zM67 41q16 0 16 -15v-38q0 -15 -16 -15h-21v-44h-16v112h37zM67 -9v32q0 3 -1 4t-4 1h-16v-43h16q3 0 4 1.5t1 4.5zM135 -53v94h16v-96q0 -16 -17 -16h-20q-17 0 -17 16v96h17v-94q0 -3 1 -4t4 -1h10q4 0 5 1
t1 4zM308 41h24l21 -112h-16l-5 26h-23l-5 -26h-16zM311 -32h19l-10 59zM481 -58v-13h-49v112h48v-13h-32v-34h26v-13h-26v-39h33zM501 -87q3 0 4 -1.5t1 -3.5v-18q0 -2 -1.5 -3.5t-3.5 -1.5h-17q-2 0 -3.5 1.5t-1.5 3.5v18q0 2 1.5 3.5t3.5 1.5h17zM502 -110v18q0 1 -1 1
h-17l-1 -1v-18h1h17h1zM249 -91v4h28v-4h-12v-24h-4v24h-12zM636 41v-99h28v-13h-44v112h16zM443 -115h-4v28h4v-28zM278 -10q0 -13 -12 -15l18 -46h-18l-17 45h-8v-45h-16v112h36q17 0 17 -15v-36zM262 -7v30q0 3 -1 4t-5 1h-15v-41h15q4 0 5 1t1 5zM485 28v13h54v-13h-19
v-99h-16v99h-19zM335 -110v23h4v-23q0 -2 -1.5 -3.5t-3.5 -1.5h-18q-2 0 -3.5 1.5t-1.5 3.5v23h5v-23v0h18h1zM585 41q17 0 17 -15v-81q0 -16 -17 -16h-20q-17 0 -17 16v81q0 15 17 15h20zM586 -53v76q0 3 -1.5 4t-4.5 1h-10q-3 0 -4 -1t-1 -4v-76q0 -3 1 -4t4 -1h10
q3 0 4.5 1t1.5 4zM399 41q17 0 17 -15v-20h-16v17q0 4 -1 5t-5 1h-9q-3 0 -4 -1t-1 -5v-76q0 -3 1 -4t4 -1h9q4 0 5 1t1 4v17h16v-19q0 -16 -17 -16h-19q-16 0 -16 16v81q0 15 16 15h19zM397 -87q2 0 3.5 -1.5t1.5 -3.5v-18q0 -2 -1.5 -3.5t-3.5 -1.5h-22v28h22zM398 -110
v18q0 1 -1 1h-17l-1 -1v-18h1h17h1zM520 723q-14 0 -15 14v82h14v-80q0 -3 1 -3.5t4 -0.5h9q3 0 3.5 0.5t0.5 3.5v80h14v-82q0 -14 -14 -14h-17zM475 735v-12h-37v96h14v-84h23zM579 767q-14 0 -14 13v26q0 13 14 13h15q14 0 14 -13v-14h-14v12q0 2 -1 3t-3 1h-7q-3 0 -4 -1
t-1 -3v-22q0 -2 1 -3t4 -1h11q14 0 14 -14v-27q0 -14 -14 -14h-15q-14 0 -14 14v14h14v-12q0 -3 1 -3.5t3 -0.5h7q3 0 3.5 0.5t0.5 3.5v23q0 3 -0.5 4t-3.5 1h-11zM636 735h28v-12h-42v96h41v-11h-27v-30h22v-11h-22v-32zM154 762v-39h-14v96h32q14 0 14 -13v-30
q0 -12 -10 -14l15 -39h-15l-14 39h-8zM154 808v-35h14q2 0 3 1t1 4v26q0 2 -1 3t-3 1h-14zM129 735v-12h-41v96h40v-11h-26v-30h22v-11h-22v-32h27zM44 760v-37h-14v96h31q15 0 15 -13v-32q0 -14 -15 -14h-17zM44 808v-37h13q3 0 4 1t1 4v28q0 2 -1 3t-4 1h-13zM213 767
q-14 0 -14 13v26q0 13 14 13h15q14 0 14 -13v-14h-14v12q0 2 -1 3t-3 1h-7q-2 0 -3 -1t-1 -3v-22q0 -2 0.5 -3t3.5 -1h11q14 0 14 -14v-27q0 -14 -14 -14h-15q-14 0 -14 14v14h14v-12q0 -3 1 -3.5t4 -0.5h6q3 0 3.5 0.5t0.5 3.5v23q0 3 -0.5 4t-3.5 1h-11zM270 723
q-15 0 -15 14v69q0 13 15 13h17q14 0 14 -13v-69q0 -14 -14 -14h-17zM269 804v-65q0 -3 1 -3.5t4 -0.5h9q2 0 3 0.5t1 3.5v65q0 2 -1 3t-3 1h-9q-3 0 -4 -1t-1 -3zM390 746l-3 -23h-14l17 96h20l18 -96h-14l-4 23h-20zM400 807l-8 -50h16zM329 793v-70h-13v96h15l19 -67v67
h13v-96h-14z" />
    <glyph glyph-name="parenright" unicode=")" horiz-adv-x="589" 
d="M-27 704h557q16 0 27.5 -11t11.5 -27v-557q0 -16 -11.5 -27t-27.5 -11h-557q-15 0 -26.5 11t-11.5 27v557q0 16 11.5 27t26.5 11zM274 531h-136q58 55 138.5 54t137.5 -58l42 42q-76 75 -182 75q-65 0 -121.5 -30.5t-91.5 -82.5q-51 -74 -42.5 -166.5t73.5 -158.5
q75 -74 180 -75.5t184 75.5q-4 4 -10.5 10t-11 10.5t-10 10.5t-10.5 11q-44 -44 -105.5 -55t-118.5 15v63q38 -27 84 -27q59 0 101 42t42 101q0 24 -7 45.5t-20.5 39.5t-31 31t-39.5 20.5t-45 7.5zM131 251q-42 44 -52 104.5t16 116.5h179q22 0 40 -10t28.5 -26t14.5 -34.5
t-2 -38.5t-21 -35q-20 -19 -45.5 -23t-47 5t-36.5 29.5t-15 47.5h-59v-136zM115 -87q2 0 3 -1.5t1 -3.5v-2h-4v2v1h-18l-0.5 -0.5l-0.5 -0.5v-6l1 -1h18q2 0 3.5 -1.5t1.5 -3.5v-6q0 -2 -1.5 -3.5t-3.5 -1.5h-18q-2 0 -3.5 1.5t-1.5 3.5v2h4v-2h1h18v0v6v1h-18
q-2 0 -3.5 1.5t-1.5 3.5v6q0 2 1.5 3.5t3.5 1.5h18zM100 -71h-16v99h-18v13h53v-13h-19v-99zM-28 41q16 0 16 -15v-38q0 -15 -16 -15h-21v-44h-16v112h37zM-28 -9v32q0 3 -1 4t-4 1h-16v-43h16q3 0 4 1.5t1 4.5zM40 -53v94h16v-96q0 -16 -17 -16h-20q-17 0 -17 16v96h17v-94
q0 -3 1 -4t4 -1h10q4 0 5 1t1 4zM154 -91v4h28v-4h-12v-24h-4v24h-12zM406 -87q2 0 3.5 -1.5t1.5 -3.5v-18q0 -2 -1.5 -3.5t-3.5 -1.5h-17q-2 0 -3.5 1.5t-1.5 3.5v18q0 2 1.5 3.5t3.5 1.5h17zM407 -110v18q0 1 -1 1h-17l-1 -1v-18h1h17h1zM348 -115h-4v28h4v-28zM386 -58
v-13h-49v112h48v-13h-32v-34h26v-13h-26v-39h33zM390 28v13h54v-13h-19v-99h-16v99h-19zM541 -58h28v-13h-44v112h16v-99zM490 41q17 0 17 -15v-81q0 -16 -17 -16h-20q-17 0 -17 16v81q0 15 17 15h20zM491 -53v76q0 3 -1.5 4t-4.5 1h-10q-3 0 -4 -1t-1 -4v-76q0 -3 1 -4
t4 -1h10q3 0 4.5 1t1.5 4zM183 -10q0 -13 -12 -15l18 -46h-18l-17 45h-8v-45h-16v112h36q17 0 17 -15v-36zM167 -7v30q0 3 -1 4t-5 1h-15v-41h15q4 0 5 1t1 5zM302 -87q2 0 3.5 -1.5t1.5 -3.5v-18q0 -2 -1.5 -3.5t-3.5 -1.5h-22v28h22zM303 -110v18q0 1 -1 1h-17l-1 -1v-18
h1h17h1zM213 41h24l21 -112h-16l-5 26h-23l-5 -26h-16zM216 -32h19l-10 59zM304 41q17 0 17 -15v-20h-16v17q0 4 -1 5t-5 1h-9q-3 0 -4 -1t-1 -5v-76q0 -3 1 -4t4 -1h9q4 0 5 1t1 4v17h16v-19q0 -16 -17 -16h-19q-16 0 -16 16v81q0 15 16 15h19zM240 -110v23h4v-23
q0 -2 -1.5 -3.5t-3.5 -1.5h-18q-2 0 -3.5 1.5t-1.5 3.5v23h5v-23v0h18h1zM175 723q-15 0 -15 14v69q0 13 15 13h17q14 0 14 -13v-69q0 -14 -14 -14h-17zM174 804v-65q0 -3 1 -3.5t4 -0.5h9q2 0 3 0.5t1 3.5v65q0 2 -1 3t-3 1h-9q-3 0 -4 -1t-1 -3zM484 767q-14 0 -14 13v26
q0 13 14 13h15q14 0 14 -13v-14h-14v12q0 2 -1 3t-3 1h-7q-3 0 -3.5 -1t-0.5 -3v-22q0 -2 0.5 -3t3.5 -1h11q14 0 14 -14v-27q0 -14 -14 -14h-15q-14 0 -14 14v14h14v-12q0 -3 1 -3.5t3 -0.5h7q3 0 3.5 0.5t0.5 3.5v23q0 3 -0.5 4t-3.5 1h-11zM118 767q-14 0 -14 13v26
q0 13 14 13h15q14 0 14 -13v-14h-14v12q0 2 -1 3t-3 1h-7q-2 0 -3 -1t-1 -3v-22q0 -2 0.5 -3t3.5 -1h11q14 0 14 -14v-27q0 -14 -14 -14h-15q-14 0 -14 14v14h14v-12q0 -3 1 -3.5t4 -0.5h6q3 0 3.5 0.5t0.5 3.5v23q0 3 -0.5 4t-3.5 1h-11zM59 762v-39h-14v96h32q14 0 14 -13
v-30q0 -12 -10 -14l15 -39h-15l-14 39h-8zM59 808v-35h14q2 0 3 1t1 4v26q0 2 -1 3t-3 1h-14zM569 735v-12h-42v96h40v-11h-26v-30h22v-11h-22v-32h28zM34 735v-12h-41v96h40v-11h-26v-30h22v-11h-22v-32h27zM295 746l-3 -23h-14l17 96h20l18 -96h-14l-4 23h-20zM305 807
l-8 -50h16zM234 793v-70h-13v96h15l19 -67v67h13v-96h-14zM-34 760h-17v-37h-14v96h31q15 0 15 -13v-32q0 -14 -15 -14zM-51 808v-37h13q3 0 4 1t1 4v28q0 2 -1 3t-4 1h-13zM380 735v-12h-37v96h14v-84h23zM425 723q-14 0 -15 14v82h14v-80q0 -3 1 -3.5t4 -0.5h9
q3 0 3.5 0.5t0.5 3.5v80h14v-82q0 -14 -14 -14h-17z" />
    <glyph glyph-name="asterisk" unicode="*" horiz-adv-x="235" 
d="M250 612q7 -7 11.5 -22t2.5 -29q-19 14 -70 5q27 -40 19 -69q-3 -10 -13.5 -21t-23.5 -17q2 26 -32 64q-11 -24 -25.5 -37.5t-34 -14.5t-41.5 16q22 7 39 57q-41 -4 -63.5 13t-17.5 57q15 -15 70 -6q-24 30 -20.5 60.5t39.5 45.5q-5 -21 30 -63q20 44 49 51q26 5 52 -14
q-21 -8 -40 -59q50 3 69 -17z" />
    <glyph glyph-name="plus" unicode="+" horiz-adv-x="375" 
d="M353 311q19 -29 6 -68q-4 3 -15.5 5t-31 2.5t-33 0.5h-36h-26.5q0 -2 -5.5 -17t-7 -18.5t-7 -16.5t-8.5 -17t-10 -13.5t-13 -13.5t-15 -9t-19 -8q-34 -7 -65 15q11 9 44 99q-72 0 -99 41q-19 27 -8 66q13 -8 143 -8q2 5 5.5 15.5t5.5 16t6 15.5t7.5 15.5t8 13.5t9.5 13
t11.5 10t14.5 8.5t17 5.5q34 9 65 -15q-3 -2 -7.5 -9.5t-9.5 -19.5t-8.5 -21t-9.5 -25.5t-8 -22.5q72 0 99 -40z" />
    <glyph glyph-name="comma" unicode="," horiz-adv-x="164" 
d="M-10 4q-36 11 -28 49q8 34 41 50q23 11 46 4q26 -8 33 -36t-4.5 -58t-33.5 -46q-37 -25 -66 -14q-24 10 -9 38q18 -21 46 -6q16 9 9 14q-2 2 -7 2h-13q-4 0 -14 3z" />
    <glyph glyph-name="hyphen" unicode="-" horiz-adv-x="288" 
d="M96 235q-45 0 -75.5 30t-16.5 77q14 -8 169 -8q28 0 51.5 -12.5t36 -37.5t2.5 -56q-13 7 -167 7z" />
    <glyph glyph-name="period" unicode="." horiz-adv-x="167" 
d="M-10 4q-37 11 -29 49q8 34 41 50q22 11 45 4q37 -12 28 -49q-7 -35 -40 -51q-22 -11 -45 -3z" />
    <glyph glyph-name="slash" unicode="/" horiz-adv-x="324" 
d="M319 703q32 8 64 -16q-22 -17 -51.5 -93t-60.5 -172.5t-64 -192.5t-70.5 -165.5t-71.5 -77.5q-35 -7 -65 17q22 16 52 92t60.5 173t63.5 192.5t70.5 165t72.5 77.5z" />
    <glyph glyph-name="zero" unicode="0" horiz-adv-x="719" 
d="M226 387v-136q-42 44 -52 104.5t16 116.5h179q27 0 48 -15.5t30 -37t5 -47t-23.5 -44.5t-45 -23t-47 5t-36.5 29.5t-15 47.5h-59zM30 666q0 16 11.5 27t26.5 11h557q16 0 27 -11t11 -27v-557q0 -16 -11 -27t-27 -11h-557q-15 0 -26.5 11t-11.5 27v557zM156 531
q-51 -74 -42.5 -166.5t73.5 -158.5q75 -74 180 -75.5t184 75.5l-42 42q-44 -44 -105.5 -55t-118.5 15v63q38 -27 84 -27q59 0 101 42t42 101q0 24 -7 45.5t-20.5 39.5t-31 31t-39.5 20.5t-45 7.5h-136q58 55 138.5 54t137.5 -58l13.5 13.5l15.5 15.5l13 13q-75 75 -182 75
q-65 0 -121.5 -30.5t-91.5 -82.5zM67 41q16 0 16 -15v-38q0 -15 -16 -15h-21v-44h-16v112h37zM67 -9v32q0 3 -1 4t-4 1h-16v-43h16q3 0 4 1.5t1 4.5zM195 -71h-16v99h-19v13h54v-13h-19v-99zM135 -53v94h16v-96q0 -16 -17 -16h-20q-17 0 -17 16v96h17v-94q0 -3 1 -4t4 -1h10
q4 0 5 1t1 4zM485 28v13h54v-13h-19v-99h-16v99h-19zM585 41q17 0 17 -15v-81q0 -16 -17 -16h-20q-17 0 -17 16v81q0 15 17 15h20zM586 -53v76q0 3 -1.5 4t-4.5 1h-10q-3 0 -4 -1t-1 -4v-76q0 -3 1 -4t4 -1h10q3 0 4.5 1t1.5 4zM636 41v-99h28v-13h-44v112h16zM308 41h24
l21 -112h-16l-5 26h-23l-5 -26h-16zM311 -32h19l-10 59zM481 -58v-13h-49v112h48v-13h-32v-34h26v-13h-26v-39h33zM397 -87q2 0 3.5 -1.5t1.5 -3.5v-18q0 -2 -1.5 -3.5t-3.5 -1.5h-22v28h22zM398 -110v18q0 1 -1 1h-17l-1 -1v-18h1h17h1zM443 -115h-4v28h4v-28zM399 41
q17 0 17 -15v-20h-16v17q0 4 -1 5t-5 1h-9q-3 0 -4 -1t-1 -5v-76q0 -3 1 -4t4 -1h9q4 0 5 1t1 4v17h16v-19q0 -16 -17 -16h-19q-16 0 -16 16v81q0 15 16 15h19zM249 -91v4h28v-4h-12v-24h-4v24h-12zM501 -87q2 0 3.5 -1.5t1.5 -3.5v-18q0 -2 -1.5 -3.5t-3.5 -1.5h-17
q-2 0 -3.5 1.5t-1.5 3.5v18q0 2 1.5 3.5t3.5 1.5h17zM502 -110v18q0 1 -1 1h-17l-1 -1v-18h1h17h1zM335 -110v23h4v-23q0 -2 -1.5 -3.5t-3.5 -1.5h-18q-2 0 -3 1.5t-1 3.5v23h4v-23v0h18h1zM210 -87q2 0 3 -1.5t1 -3.5v-2h-4v2v1h-18l-0.5 -0.5l-0.5 -0.5v-6l1 -1h18
q2 0 3 -1.5t1 -3.5v-6q0 -2 -1 -3.5t-3 -1.5h-18q-2 0 -3.5 1.5t-1.5 3.5v2h4v-2h1h18v0v6v1h-18q-2 0 -3.5 1.5t-1.5 3.5v6q0 2 1.5 3.5t3.5 1.5h18zM278 -10q0 -13 -12 -15l18 -46h-18l-17 45h-8v-45h-16v112h36q17 0 17 -15v-36zM262 -7v30q0 3 -1 4t-5 1h-15v-41h15
q4 0 5 1t1 5zM475 735v-12h-37v96h14v-84h23zM520 723q-14 0 -15 14v82h14v-80q0 -3 1 -3.5t4 -0.5h9q3 0 3.5 0.5t0.5 3.5v80h14v-82q0 -14 -14 -14h-17zM579 767q-14 0 -14 13v26q0 13 14 13h15q14 0 14 -13v-14h-14v12q0 2 -1 3t-4 1h-6q-3 0 -4 -1t-1 -3v-22q0 -2 1 -3
t4 -1h11q14 0 14 -14v-27q0 -14 -14 -14h-15q-14 0 -14 14v14h14v-12q0 -3 1 -3.5t3 -0.5h7q3 0 3.5 0.5t0.5 3.5v23q0 3 -0.5 4t-3.5 1h-11zM390 746l-3 -23h-14l17 96h20l18 -96h-14l-4 23h-20zM400 807l-8 -50h16zM44 760v-37h-14v96h31q15 0 15 -13v-32q0 -14 -15 -14
h-17zM44 808v-37h13q3 0 4 1t1 4v28q0 2 -1 3t-4 1h-13zM129 735v-12h-41v96h40v-11h-26v-30h22v-11h-22v-32h27zM636 735h28v-12h-42v96h40v-11h-26v-30h22v-11h-22v-32zM270 723q-15 0 -15 14v69q0 13 15 13h17q14 0 14 -13v-69q0 -14 -14 -14h-17zM269 804v-65
q0 -3 1 -3.5t4 -0.5h9q2 0 3 0.5t1 3.5v65q0 2 -1 3t-3 1h-9q-3 0 -4 -1t-1 -3zM329 793v-70h-13v96h15l19 -67v67h13v-96h-14zM162 762h-8v-39h-14v96h32q14 0 14 -13v-30q0 -12 -10 -14l15 -39h-15zM154 808v-35h14q2 0 3 1t1 4v26q0 2 -1 3t-3 1h-14zM213 767
q-14 0 -14 13v26q0 13 14 13h15q14 0 14 -13v-14h-14v12q0 2 -1 3t-3 1h-7q-3 0 -3.5 -1t-0.5 -3v-22q0 -2 0.5 -3t3.5 -1h11q14 0 14 -14v-27q0 -14 -14 -14h-15q-14 0 -14 14v14h14v-12q0 -3 1 -3.5t4 -0.5h6q3 0 3.5 0.5t0.5 3.5v23q0 3 -0.5 4t-3.5 1h-11z" />
    <glyph glyph-name="one" unicode="1" horiz-adv-x="664" 
d="M196 387v-136q-42 44 -52 104.5t16 116.5h179q27 0 48 -15.5t30 -37t5 -47t-23.5 -44.5t-45 -23t-47 5t-36.5 29.5t-15 47.5h-59zM0 666q0 16 11.5 27t26.5 11h557q16 0 27.5 -11t11.5 -27v-557q0 -16 -11.5 -27t-27.5 -11h-557q-15 0 -26.5 11t-11.5 27v557zM126 531
q-51 -74 -42.5 -166.5t73.5 -158.5q75 -74 180 -75.5t184 75.5l-42 42q-44 -44 -105.5 -55t-118.5 15v63q38 -27 84 -27q39 0 72 19.5t52 52.5t19 71q0 24 -7 45.5t-20.5 39.5t-31 31t-39.5 20.5t-45 7.5h-136q58 55 138.5 54t137.5 -58l42 42q-75 75 -182 75
q-32 0 -63.5 -8t-58.5 -22.5t-50.5 -35.5t-40.5 -47zM451 -58v-13h-49v112h48v-13h-32v-34h26v-13h-26v-39h33zM413 -115h-4v28h4v-28zM471 -87q2 0 3.5 -1.5t1.5 -3.5v-18q0 -2 -1.5 -3.5t-3.5 -1.5h-17q-2 0 -3.5 1.5t-1.5 3.5v18q0 2 1.5 3.5t3.5 1.5h17zM472 -110v18
q0 1 -1 1h-17l-1 -1v-18h1h17h1zM369 41q17 0 17 -15v-20h-16v17q0 4 -1 5t-5 1h-9q-3 0 -4 -1t-1 -5v-76q0 -3 1 -4t4 -1h9q4 0 5 1t1 4v17h16v-19q0 -16 -17 -16h-19q-16 0 -16 16v81q0 15 16 15h19zM455 28v13h54v-13h-19v-99h-16v99h-19zM606 41v-99h28v-13h-44v112h16z
M278 41h24l21 -112h-16l-5 26h-23l-5 -26h-16zM281 -32h19l-10 59zM555 41q17 0 17 -15v-81q0 -16 -17 -16h-20q-17 0 -17 16v81q0 15 17 15h20zM556 -53v76q0 3 -1.5 4t-4.5 1h-10q-3 0 -4 -1t-1 -4v-76q0 -3 1 -4t4 -1h10q3 0 4.5 1t1.5 4zM37 41q16 0 16 -15v-38
q0 -15 -16 -15h-21v-44h-16v112h37zM37 -9v32q0 3 -1 4t-4 1h-16v-43h16q3 0 4 1.5t1 4.5zM248 -10q0 -13 -12 -15l18 -46h-18l-17 45h-8v-45h-16v112h36q17 0 17 -15v-36zM232 -7v30q0 3 -1 4t-5 1h-15v-41h15q4 0 5 1t1 5zM367 -87q2 0 3.5 -1.5t1.5 -3.5v-18
q0 -2 -1.5 -3.5t-3.5 -1.5h-22v28h22zM368 -110v18q0 1 -1 1h-17l-1 -1v-18h1h17h1zM105 -53v94h16v-96q0 -16 -17 -16h-20q-17 0 -17 16v96h17v-94q0 -3 1 -4t4 -1h10q4 0 5 1t1 4zM305 -110v23h4v-23q0 -2 -1.5 -3.5t-3.5 -1.5h-18q-2 0 -3.5 1.5t-1.5 3.5v23h5v-23v0h18
h1zM180 -87q2 0 3 -1.5t1 -3.5v-2h-4v2v1h-18l-0.5 -0.5l-0.5 -0.5v-6l1 -1h18q2 0 3 -1.5t1 -3.5v-6q0 -2 -1 -3.5t-3 -1.5h-18q-2 0 -3.5 1.5t-1.5 3.5v2h4v-2h1h18v0v6v1h-18q-2 0 -3.5 1.5t-1.5 3.5v6q0 2 1.5 3.5t3.5 1.5h18zM165 -71h-16v99h-19v13h54v-13h-19v-99z
M219 -87h28v-4h-12v-24h-4v24h-12v4zM549 767q-14 0 -14 13v26q0 13 14 13h15q14 0 14 -13v-14h-14v12q0 2 -1 3t-3 1h-7q-3 0 -3.5 -1t-0.5 -3v-22q0 -2 0.5 -3t3.5 -1h11q14 0 14 -14v-27q0 -14 -14 -14h-15q-14 0 -14 14v14h14v-12q0 -3 1 -3.5t3 -0.5h7q3 0 3.5 0.5
t0.5 3.5v23q0 3 -0.5 4t-3.5 1h-11zM360 746l-3 -23h-14l17 96h20l18 -96h-14l-4 23h-20zM370 807l-8 -50h16zM445 735v-12h-37v96h14v-84h23zM490 723q-14 0 -15 14v82h14v-80q0 -3 1 -3.5t4 -0.5h9q3 0 3.5 0.5t0.5 3.5v80h14v-82q0 -14 -14 -14h-17zM14 760v-37h-14v96
h31q15 0 15 -13v-32q0 -14 -15 -14h-17zM14 808v-37h13q3 0 4 1t1 4v28q0 2 -1 3t-4 1h-13zM99 735v-12h-41v96h40v-11h-26v-30h22v-11h-22v-32h27zM606 735h28v-12h-42v96h40v-11h-26v-30h22v-11h-22v-32zM299 793v-70h-13v96h15l19 -67v67h13v-96h-14zM240 723
q-15 0 -15 14v69q0 13 15 13h17q14 0 14 -13v-69q0 -14 -14 -14h-17zM239 804v-65q0 -3 1 -3.5t4 -0.5h9q2 0 3 0.5t1 3.5v65q0 2 -1 3t-3 1h-9q-3 0 -4 -1t-1 -3zM183 767q-14 0 -14 13v26q0 13 14 13h15q14 0 14 -13v-14h-14v12q0 2 -1 3t-3 1h-7q-3 0 -3.5 -1t-0.5 -3
v-22q0 -2 0.5 -3t3.5 -1h11q14 0 14 -14v-27q0 -14 -14 -14h-15q-14 0 -14 14v14h14v-12q0 -3 1 -3.5t4 -0.5h6q3 0 3.5 0.5t0.5 3.5v23q0 3 -0.5 4t-3.5 1h-11zM124 762v-39h-14v96h32q14 0 14 -13v-30q0 -12 -10 -14l15 -39h-15l-14 39h-8zM124 808v-35h14q2 0 3 1t1 4v26
q0 2 -1 3t-3 1h-14z" />
    <glyph glyph-name="two" unicode="2" horiz-adv-x="714" 
d="M196 387v-136q-42 44 -52 104.5t16 116.5h179q27 0 48 -15.5t30 -37t5 -47t-23.5 -44.5t-45 -23t-47 5t-36.5 29.5t-15 47.5h-59zM0 666q0 16 11.5 27t26.5 11h557q16 0 27.5 -11t11.5 -27v-557q0 -16 -11.5 -27t-27.5 -11h-557q-15 0 -26.5 11t-11.5 27v557zM126 531
q-51 -74 -42.5 -166.5t74.5 -158.5q74 -74 179 -75.5t184 75.5l-42 42q-44 -44 -105.5 -55t-118.5 15v63q38 -27 84 -27q39 0 72 19.5t52 52.5t19 71q0 60 -42 102t-101 42h-136q58 55 138.5 54t137.5 -58l42 42q-76 75 -182 75q-65 0 -121.5 -30.5t-91.5 -82.5zM165 -71
h-16v99h-19v13h54v-13h-19v-99zM180 -87q2 0 3 -1.5t1 -3.5v-2h-4v2v1h-18l-0.5 -0.5l-0.5 -0.5v-6l1 -1h18q2 0 3 -1.5t1 -3.5v-6q0 -2 -1 -3.5t-3 -1.5h-18q-2 0 -3.5 1.5t-1.5 3.5v2h4v-2h1h18v0v6v1h-18q-2 0 -3.5 1.5t-1.5 3.5v6q0 2 1.5 3.5t3.5 1.5h18zM37 41
q16 0 16 -15v-38q0 -15 -16 -15h-21v-44h-16v112h37zM37 -9v32q0 3 -1 4t-4 1h-16v-43h16q3 0 4 1.5t1 4.5zM105 -53v94h16v-96q0 -16 -17 -16h-20q-17 0 -17 16v96h17v-94q0 -3 1 -4t4 -1h10q4 0 5 1t1 4zM451 -58v-13h-49v112h48v-13h-32v-34h26v-13h-26v-39h33zM455 28
v13h54v-13h-19v-99h-16v99h-19zM471 -87q2 0 3.5 -1.5t1.5 -3.5v-18q0 -2 -1.5 -3.5t-3.5 -1.5h-17q-2 0 -3.5 1.5t-1.5 3.5v18q0 2 1.5 3.5t3.5 1.5h17zM472 -110v18q0 1 -1 1h-17l-1 -1v-18h1h17h1zM606 41v-99h28v-13h-44v112h16zM219 -87h28v-4h-12v-24h-4v24h-12v4z
M555 41q17 0 17 -15v-81q0 -16 -17 -16h-20q-17 0 -17 16v81q0 15 17 15h20zM556 -53v76q0 3 -1.5 4t-4.5 1h-10q-3 0 -4 -1t-1 -4v-76q0 -3 1 -4t4 -1h10q3 0 4.5 1t1.5 4zM413 -115h-4v28h4v-28zM248 -10q0 -13 -12 -15l18 -46h-18l-17 45h-8v-45h-16v112h36q17 0 17 -15
v-36zM232 -7v30q0 3 -1 4t-5 1h-15v-41h15q4 0 5 1t1 5zM305 -110v23h4v-23q0 -2 -1.5 -3.5t-3.5 -1.5h-18q-2 0 -3.5 1.5t-1.5 3.5v23h5v-23v0h18h1zM367 -87q2 0 3.5 -1.5t1.5 -3.5v-18q0 -2 -1.5 -3.5t-3.5 -1.5h-22v28h22zM368 -110v18q0 1 -1 1h-17l-1 -1v-18h1h17h1z
M278 41h24l21 -112h-16l-5 26h-23l-5 -26h-16zM281 -32h19l-10 59zM369 41q17 0 17 -15v-20h-16v17q0 4 -1 5t-5 1h-9q-3 0 -4 -1t-1 -5v-76q0 -3 1 -4t4 -1h9q4 0 5 1t1 4v17h16v-19q0 -16 -17 -16h-19q-16 0 -16 16v81q0 15 16 15h19zM549 767q-14 0 -14 13v26q0 13 14 13
h15q14 0 14 -13v-14h-14v12q0 2 -1 3t-3 1h-7q-3 0 -3.5 -1t-0.5 -3v-22q0 -2 0.5 -3t3.5 -1h11q14 0 14 -14v-27q0 -14 -14 -14h-15q-14 0 -14 14v14h14v-12q0 -3 1 -3.5t3 -0.5h7q3 0 3.5 0.5t0.5 3.5v23q0 3 -0.5 4t-3.5 1h-11zM445 735v-12h-37v96h14v-84h23zM490 723
q-14 0 -15 14v82h14v-80q0 -3 1 -3.5t4 -0.5h9q3 0 3.5 0.5t0.5 3.5v80h14v-82q0 -14 -14 -14h-17zM360 746l-3 -23h-14l17 96h20l18 -96h-14l-4 23h-20zM370 807l-8 -50h16zM99 735v-12h-41v96h40v-11h-26v-30h22v-11h-22v-32h27zM14 760v-37h-14v96h31q15 0 15 -13v-32
q0 -14 -15 -14h-17zM14 808v-37h13q3 0 4 1t1 4v28q0 2 -1 3t-4 1h-13zM606 735h28v-12h-42v96h40v-11h-26v-30h22v-11h-22v-32zM240 723q-15 0 -15 14v69q0 13 15 13h17q14 0 14 -13v-69q0 -14 -14 -14h-17zM239 804v-65q0 -3 1 -3.5t4 -0.5h9q2 0 3 0.5t1 3.5v65q0 2 -1 3
t-3 1h-9q-3 0 -4 -1t-1 -3zM124 762v-39h-14v96h32q14 0 14 -13v-30q0 -12 -10 -14l15 -39h-15l-14 39h-8zM124 808v-35h14q2 0 3 1t1 4v26q0 2 -1 3t-3 1h-14zM299 793v-70h-13v96h15l19 -67v67h13v-96h-14zM183 767q-14 0 -14 13v26q0 13 14 13h15q14 0 14 -13v-14h-14v12
q0 2 -1 3t-3 1h-7q-2 0 -3 -1t-1 -3v-22q0 -2 1 -3t3 -1h11q14 0 14 -14v-27q0 -14 -14 -14h-15q-14 0 -14 14v14h14v-12q0 -3 1 -3.5t4 -0.5h6q3 0 3.5 0.5t0.5 3.5v23q0 3 -0.5 4t-3.5 1h-11z" />
    <glyph glyph-name="three" unicode="3" horiz-adv-x="683" 
d="M206 387v-136q-42 44 -52 104.5t16 116.5h179q27 0 48 -15.5t30 -37t5 -47t-23.5 -44.5t-45 -23t-47 5t-36.5 29.5t-15 47.5h-59zM10 666q0 16 11.5 27t26.5 11h557q16 0 27.5 -11t11.5 -27v-557q0 -16 -11.5 -27t-27.5 -11h-557q-15 0 -26.5 11t-11.5 27v557zM136 531
q-51 -74 -42.5 -166.5t73.5 -158.5q75 -74 180 -75.5t184 75.5l-42 42q-44 -44 -105.5 -55t-118.5 15v63q38 -27 84 -27q39 0 72 19.5t52 52.5t19 71q0 24 -7 45.5t-20.5 39.5t-31 31t-39.5 20.5t-45 7.5h-136q58 55 138.5 54t137.5 -58l42 42q-76 75 -182 75
q-65 0 -121.5 -30.5t-91.5 -82.5zM175 -71h-16v99h-19v13h54v-13h-19v-99zM190 -87q2 0 3 -1.5t1 -3.5v-2h-4v2v1h-18l-0.5 -0.5l-0.5 -0.5v-6l1 -1h18q2 0 3 -1.5t1 -3.5v-6q0 -2 -1 -3.5t-3 -1.5h-18q-2 0 -3.5 1.5t-1.5 3.5v2h4v-2h1h18v0v6v1h-18q-2 0 -3.5 1.5
t-1.5 3.5v6q0 2 1.5 3.5t3.5 1.5h18zM47 41q16 0 16 -15v-38q0 -15 -16 -15h-21v-44h-16v112h37zM47 -9v32q0 3 -1 4t-4 1h-16v-43h16q3 0 4 1.5t1 4.5zM115 -53v94h16v-96q0 -16 -17 -16h-20q-17 0 -17 16v96h17v-94q0 -3 1 -4t4 -1h10q4 0 5 1t1 4zM379 41q17 0 17 -15
v-20h-16v17q0 4 -1 5t-5 1h-9q-3 0 -4 -1t-1 -5v-76q0 -3 1 -4t4 -1h9q4 0 5 1t1 4v17h16v-19q0 -16 -17 -16h-19q-16 0 -16 16v81q0 15 16 15h19zM481 -87q2 0 3.5 -1.5t1.5 -3.5v-18q0 -2 -1.5 -3.5t-3.5 -1.5h-17q-2 0 -3.5 1.5t-1.5 3.5v18q0 2 1.5 3.5t3.5 1.5h17z
M482 -110v18q0 1 -1 1h-17l-1 -1v-18h1h17h1zM461 -58v-13h-49v112h48v-13h-32v-34h26v-13h-26v-39h33zM229 -87h28v-4h-12v-24h-4v24h-12v4zM423 -115h-4v28h4v-28zM565 41q17 0 17 -15v-81q0 -16 -17 -16h-20q-17 0 -17 16v81q0 15 17 15h20zM566 -53v76q0 3 -1.5 4
t-4.5 1h-10q-3 0 -4 -1t-1 -4v-76q0 -3 1 -4t4 -1h10q3 0 4.5 1t1.5 4zM616 41v-99h28v-13h-44v112h16zM465 28v13h54v-13h-19v-99h-16v99h-19zM315 -110v23h4v-23q0 -2 -1.5 -3.5t-3.5 -1.5h-18q-2 0 -3 1.5t-1 3.5v23h4v-23v0h18h1zM377 -87q2 0 3.5 -1.5t1.5 -3.5v-18
q0 -2 -1.5 -3.5t-3.5 -1.5h-22v28h22zM378 -110v18q0 1 -1 1h-17l-1 -1v-18h1h17h1zM288 41h24l21 -112h-16l-5 26h-23l-5 -26h-16zM291 -32h19l-10 59zM258 -10q0 -13 -12 -15l18 -46h-18l-17 45h-8v-45h-16v112h36q17 0 17 -15v-36zM242 -7v30q0 3 -1 4t-5 1h-15v-41h15
q4 0 5 1t1 5zM500 723q-14 0 -15 14v82h14v-80q0 -3 1 -3.5t4 -0.5h9q3 0 3.5 0.5t0.5 3.5v80h14v-82q0 -14 -14 -14h-17zM616 735h28v-12h-42v96h40v-11h-26v-30h22v-11h-22v-32zM455 735v-12h-37v96h14v-84h23zM559 767q-14 0 -14 13v26q0 13 14 13h15q14 0 14 -13v-14
h-14v12q0 2 -1 3t-3 1h-7q-3 0 -3.5 -1t-0.5 -3v-22q0 -2 0.5 -3t3.5 -1h11q14 0 14 -14v-27q0 -14 -14 -14h-15q-14 0 -14 14v14h14v-12q0 -3 1 -3.5t3 -0.5h7q3 0 3.5 0.5t0.5 3.5v23q0 3 -0.5 4t-3.5 1h-11zM309 793v-70h-13v96h15l19 -67v67h13v-96h-14zM193 767
q-14 0 -14 13v26q0 13 14 13h15q14 0 14 -13v-14h-14v12q0 2 -1 3t-3 1h-7q-3 0 -3.5 -1t-0.5 -3v-22q0 -2 0.5 -3t3.5 -1h11q14 0 14 -14v-27q0 -14 -14 -14h-15q-14 0 -14 14v14h14v-12q0 -3 1 -3.5t4 -0.5h6q3 0 3.5 0.5t0.5 3.5v23q0 3 -0.5 4t-3.5 1h-11zM24 760v-37
h-14v96h31q15 0 15 -13v-32q0 -14 -15 -14h-17zM24 808v-37h13q3 0 4 1t1 4v28q0 2 -1 3t-4 1h-13zM370 746l-3 -23h-14l17 96h20l18 -96h-14l-4 23h-20zM380 807l-8 -50h16zM134 762v-39h-14v96h32q14 0 14 -13v-30q0 -12 -10 -14l15 -39h-15l-14 39h-8zM134 808v-35h14
q2 0 3 1t1 4v26q0 2 -1 3t-3 1h-14zM250 723q-15 0 -15 14v69q0 13 15 13h17q14 0 14 -13v-69q0 -14 -14 -14h-17zM249 804v-65q0 -3 1 -3.5t4 -0.5h9q2 0 3 0.5t1 3.5v65q0 2 -1 3t-3 1h-9q-3 0 -4 -1t-1 -3zM109 735v-12h-41v96h40v-11h-26v-30h22v-11h-22v-32h27z" />
    <glyph glyph-name="four" unicode="4" horiz-adv-x="613" 
d="M0 666q0 16 11.5 27t26.5 11h557q16 0 27.5 -11t11.5 -27v-557q0 -16 -11.5 -27t-27.5 -11h-557q-15 0 -26.5 11t-11.5 27v557zM126 531q-51 -74 -42.5 -166.5t73.5 -158.5q75 -74 180 -75.5t184 75.5l-42 42q-44 -44 -105.5 -55t-118.5 15v63q38 -27 84 -27
q39 0 72 19.5t52 52.5t19 71q0 60 -42 102t-101 42h-136q58 55 138.5 54t137.5 -58l42 42q-75 75 -182 75q-65 0 -121.5 -30.5t-91.5 -82.5zM196 387v-136q-42 44 -52 104.5t16 116.5h179q27 0 48 -15.5t30 -37t5 -47t-23.5 -44.5t-45 -23t-47 5t-36.5 29.5t-15 47.5h-59z
M180 -87q2 0 3.5 -1.5t1.5 -3.5v-2h-5v2v1h-18l-0.5 -0.5l-0.5 -0.5v-6l1 -1h18q2 0 3.5 -1.5t1.5 -3.5v-6q0 -2 -1.5 -3.5t-3.5 -1.5h-18q-2 0 -3.5 1.5t-1.5 3.5v2h4v-2h1h18v0v6v1h-18q-2 0 -3.5 1.5t-1.5 3.5v6q0 2 1.5 3.5t3.5 1.5h18zM219 -91v4h28v-4h-12v-24h-4v24
h-12zM37 41q16 0 16 -15v-38q0 -15 -16 -15h-21v-44h-16v112h37zM37 -9v32q0 3 -1 4t-4 1h-16v-43h16q3 0 4 1.5t1 4.5zM165 -71h-16v99h-18v13h53v-13h-19v-99zM105 -53v94h16v-96q0 -16 -17 -16h-20q-17 0 -17 16v96h17v-94q0 -3 1 -4t4 -1h10q4 0 5 1t1 4zM248 -10
q0 -13 -12 -15l18 -46h-18l-17 45h-8v-45h-16v112h36q17 0 17 -15v-36zM232 -7v30q0 3 -1 4t-5 1h-15v-41h15q4 0 5 1t1 5zM455 28v13h54v-13h-19v-99h-16v99h-19zM555 41q17 0 17 -15v-81q0 -16 -17 -16h-20q-17 0 -17 16v81q0 15 17 15h20zM556 -53v76q0 3 -1.5 4t-4.5 1
h-10q-3 0 -4 -1t-1 -4v-76q0 -3 1 -4t4 -1h10q3 0 4.5 1t1.5 4zM413 -115h-4v28h4v-28zM606 41v-99h28v-13h-44v112h16zM471 -87q2 0 3.5 -1.5t1.5 -3.5v-18q0 -2 -1.5 -3.5t-3.5 -1.5h-17q-2 0 -3.5 1.5t-1.5 3.5v18q0 2 1.5 3.5t3.5 1.5h17zM472 -110v18q0 1 -1 1h-17
l-1 -1v-18h1h17h1zM305 -110v23h4v-23q0 -2 -1.5 -3.5t-3.5 -1.5h-18q-2 0 -3 1.5t-1 3.5v23h4v-23v0h18h1zM278 41h24l21 -112h-16l-5 26h-23l-5 -26h-16zM281 -32h19l-10 59zM451 -58v-13h-49v112h48v-13h-32v-34h26v-13h-26v-39h33zM369 41q17 0 17 -15v-20h-16v17
q0 4 -1 5t-4 1h-10q-3 0 -4 -1t-1 -5v-76q0 -3 1 -4t4 -1h9q4 0 5 1t1 4v17h16v-19q0 -16 -17 -16h-19q-16 0 -16 16v81q0 15 16 15h19zM367 -87q2 0 3.5 -1.5t1.5 -3.5v-18q0 -2 -1.5 -3.5t-3.5 -1.5h-22v28h22zM368 -110v18q0 1 -1 1h-17l-1 -1v-18h1h17h1zM549 767
q-14 0 -14 13v26q0 13 14 13h15q14 0 14 -13v-14h-14v12q0 2 -1 3t-3 1h-7q-3 0 -3.5 -1t-0.5 -3v-22q0 -2 0.5 -3t3.5 -1h11q14 0 14 -14v-27q0 -14 -14 -14h-15q-14 0 -14 14v14h14v-12q0 -3 1 -3.5t3 -0.5h7q3 0 3.5 0.5t0.5 3.5v23q0 3 -0.5 4t-3.5 1h-11zM445 735v-12
h-37v96h14v-84h23zM490 723q-14 0 -14 14v82h13v-80q0 -3 1 -3.5t4 -0.5h9q3 0 3.5 0.5t0.5 3.5v80h14v-82q0 -14 -14 -14h-17zM183 767q-14 0 -14 13v26q0 13 14 13h15q14 0 14 -13v-14h-14v12q0 2 -1 3t-3 1h-7q-2 0 -3 -1t-1 -3v-22q0 -2 1 -3t3 -1h11q14 0 14 -14v-27
q0 -14 -14 -14h-15q-14 0 -14 14v14h14v-12q0 -3 1 -3.5t4 -0.5h6q3 0 3.5 0.5t0.5 3.5v23q0 3 -0.5 4t-3.5 1h-11zM99 735v-12h-41v96h40v-11h-26v-30h22v-11h-22v-32h27zM14 760v-37h-14v96h31q15 0 15 -13v-32q0 -14 -15 -14h-17zM14 808v-37h13q3 0 4 1t1 4v28q0 2 -1 3
t-4 1h-13zM360 746l-3 -23h-14l17 96h20l18 -96h-14l-4 23h-20zM370 807l-8 -50h16zM606 735h28v-12h-42v96h40v-11h-26v-30h22v-11h-22v-32zM124 762v-39h-14v96h32q14 0 14 -13v-30q0 -12 -10 -14l15 -39h-15l-14 39h-8zM124 808v-35h14q2 0 3 1t1 4v26q0 2 -1 3t-3 1h-14
zM299 793v-70h-13v96h15l19 -67v67h13v-96h-14zM240 723q-15 0 -15 14v69q0 13 15 13h17q14 0 14 -13v-69q0 -14 -14 -14h-17zM239 804v-65q0 -3 1 -3.5t4 -0.5h9q2 0 3 0.5t1 3.5v65q0 2 -1 3t-3 1h-9q-3 0 -4 -1t-1 -3z" />
    <glyph glyph-name="five" unicode="5" horiz-adv-x="574" 
d="M216 251q-42 44 -52 104.5t16 116.5h179q27 0 48 -15.5t30 -37t5 -47t-23 -44.5t-44.5 -23t-47.5 5t-37 29.5t-15 47.5h-59v-136zM58 704h557q16 0 27.5 -11t11.5 -27v-557q0 -16 -11.5 -27t-27.5 -11h-557q-15 0 -26.5 11t-11.5 27v557q0 16 11.5 27t26.5 11zM359 531
h-136q58 55 138.5 54t137.5 -58l42 42q-76 75 -182 75q-65 0 -121.5 -30.5t-91.5 -82.5q-51 -74 -42.5 -166.5t73.5 -158.5q75 -74 180 -75.5t184 75.5l-42 42q-44 -44 -105.5 -55t-118.5 15v63q38 -27 84 -27q39 0 72 19.5t52 52t19 71.5q0 24 -7 45.5t-20.5 39.5t-31 31
t-39.5 20.5t-45 7.5zM185 -71h-16v99h-18v13h53v-13h-19v-99zM57 41q16 0 16 -15v-38q0 -15 -16 -15h-21v-44h-16v112h37zM57 -9v32q0 3 -1 4t-4 1h-16v-43h16q3 0 4 1.5t1 4.5zM125 -53v94h16v-96q0 -16 -17 -16h-20q-17 0 -17 16v96h17v-94q0 -3 1 -4t4 -1h10q4 0 5 1t1 4
zM200 -87q2 0 3.5 -1.5t1.5 -3.5v-2h-5v2v1h-18l-0.5 -0.5l-0.5 -0.5v-6l1 -1h18q2 0 3.5 -1.5t1.5 -3.5v-6q0 -2 -1.5 -3.5t-3.5 -1.5h-18q-2 0 -3.5 1.5t-1.5 3.5v2h4v-2h1h18v0v6v1h-18q-2 0 -3.5 1.5t-1.5 3.5v6q0 2 1.5 3.5t3.5 1.5h18zM491 -87q2 0 3.5 -1.5t1.5 -3.5
v-18q0 -2 -1.5 -3.5t-3.5 -1.5h-17q-2 0 -3.5 1.5t-1.5 3.5v18q0 2 1.5 3.5t3.5 1.5h17zM492 -110v18q0 1 -1 1h-17l-1 -1v-18h1h17h1zM433 -115h-4v28h4v-28zM239 -91v4h28v-4h-12v-24h-4v24h-12zM471 -58v-13h-49v112h48v-13h-32v-34h26v-13h-26v-39h33zM626 -58h28v-13
h-44v112h16v-99zM575 41q17 0 17 -15v-81q0 -16 -17 -16h-20q-17 0 -17 16v81q0 15 17 15h20zM576 -53v76q0 3 -1.5 4t-4.5 1h-10q-3 0 -4 -1t-1 -4v-76q0 -3 1 -4t4 -1h10q3 0 4.5 1t1.5 4zM475 28v13h54v-13h-19v-99h-16v99h-19zM325 -110v23h4v-23q0 -2 -1.5 -3.5
t-3.5 -1.5h-18q-2 0 -3.5 1.5t-1.5 3.5v23h5v-23v0h18h1zM298 41h24l21 -112h-16l-5 26h-23l-5 -26h-16zM301 -32h19l-10 59zM268 -10q0 -13 -12 -15l18 -46h-18l-17 45h-8v-45h-16v112h36q17 0 17 -15v-36zM252 -7v30q0 3 -1 4t-5 1h-15v-41h15q4 0 5 1t1 5zM389 41
q17 0 17 -15v-20h-16v17q0 4 -1 5t-5 1h-9q-3 0 -4 -1t-1 -5v-76q0 -3 1 -4t4 -1h9q4 0 5 1t1 4v17h16v-19q0 -16 -17 -16h-19q-16 0 -16 16v81q0 15 16 15h19zM387 -87q2 0 3.5 -1.5t1.5 -3.5v-18q0 -2 -1.5 -3.5t-3.5 -1.5h-22v28h22zM388 -110v18q0 1 -1 1h-17l-1 -1v-18
h1h17h1zM510 723q-14 0 -14 14v82h13v-80q0 -3 1 -3.5t4 -0.5h9q3 0 3.5 0.5t0.5 3.5v80h14v-82q0 -14 -14 -14h-17zM569 767q-14 0 -14 13v26q0 13 14 13h15q14 0 14 -13v-14h-14v12q0 2 -1 3t-3 1h-7q-3 0 -3.5 -1t-0.5 -3v-22q0 -2 0.5 -3t3.5 -1h11q14 0 14 -14v-27
q0 -14 -14 -14h-15q-14 0 -14 14v14h14v-12q0 -3 1 -3.5t3 -0.5h7q3 0 3.5 0.5t0.5 3.5v23q0 3 -0.5 4t-3.5 1h-11zM654 735v-12h-42v96h41v-11h-27v-30h22v-11h-22v-32h28zM465 735v-12h-37v96h14v-84h23zM144 762v-39h-14v96h32q14 0 14 -13v-30q0 -12 -10 -14l15 -39h-15
l-14 39h-8zM144 808v-35h14q2 0 3 1t1 4v26q0 2 -1 3t-3 1h-14zM380 746l-3 -23h-14l17 96h20l18 -96h-14l-4 23h-20zM390 807l-8 -50h16zM203 767q-14 0 -14 13v26q0 13 14 13h15q14 0 14 -13v-14h-14v12q0 2 -1 3t-3 1h-7q-2 0 -3 -1t-1 -3v-22q0 -2 0.5 -3t3.5 -1h11
q14 0 14 -14v-27q0 -14 -14 -14h-15q-14 0 -14 14v14h14v-12q0 -3 1 -3.5t4 -0.5h6q3 0 3.5 0.5t0.5 3.5v23q0 3 -0.5 4t-3.5 1h-11zM119 735v-12h-41v96h40v-11h-26v-30h22v-11h-22v-32h27zM260 723q-15 0 -15 14v69q0 13 15 13h17q14 0 14 -13v-69q0 -14 -14 -14h-17z
M259 804v-65q0 -3 1 -3.5t4 -0.5h9q2 0 3 0.5t1 3.5v65q0 2 -1 3t-3 1h-9q-3 0 -4 -1t-1 -3zM34 760v-37h-14v96h31q15 0 15 -13v-32q0 -14 -15 -14h-17zM34 808v-37h13q3 0 4 1t1 4v28q0 2 -1 3t-4 1h-13zM319 793v-70h-13v96h15l19 -67v67h13v-96h-14z" />
    <glyph glyph-name="six" unicode="6" horiz-adv-x="644" 
d="M58 704h557q16 0 27.5 -11t11.5 -27v-557q0 -16 -11.5 -27t-27.5 -11h-557q-15 0 -26.5 11t-11.5 27v557q0 16 11.5 27t26.5 11zM359 531h-136q58 55 138.5 54t137.5 -58l42 42q-76 75 -182 75q-65 0 -121.5 -30.5t-91.5 -82.5q-51 -74 -42.5 -166.5t73.5 -158.5
q75 -74 180 -75.5t184 75.5l-42 42q-44 -44 -105.5 -55t-118.5 15v63q38 -27 84 -27q39 0 72 19.5t52 52t19 71.5q0 24 -7 45.5t-20.5 39.5t-31 31t-39.5 20.5t-45 7.5zM216 251q-42 44 -52 104.5t16 116.5h179q22 0 40 -10t28.5 -26t14.5 -34.5t-2 -38.5t-21 -35
q-19 -19 -44.5 -23t-47.5 5t-37 29.5t-15 47.5h-59v-136zM200 -87q2 0 3.5 -1.5t1.5 -3.5v-2h-5v2v1h-18l-0.5 -0.5l-0.5 -0.5v-6l1 -1h18q2 0 3.5 -1.5t1.5 -3.5v-6q0 -2 -1.5 -3.5t-3.5 -1.5h-18q-2 0 -3.5 1.5t-1.5 3.5v2h4v-2h1h18v0v6v1h-18q-2 0 -3.5 1.5t-1.5 3.5v6
q0 2 1.5 3.5t3.5 1.5h18zM57 41q16 0 16 -15v-38q0 -15 -16 -15h-21v-44h-16v112h37zM57 -9v32q0 3 -1 4t-4 1h-16v-43h16q3 0 4 1.5t1 4.5zM185 -71h-16v99h-18v13h53v-13h-19v-99zM125 -53v94h16v-96q0 -16 -17 -16h-20q-17 0 -17 16v96h17v-94q0 -3 1 -4t4 -1h10q4 0 5 1
t1 4zM471 -58v-13h-49v112h48v-13h-32v-34h26v-13h-26v-39h33zM475 28v13h54v-13h-19v-99h-16v99h-19zM239 -91v4h28v-4h-12v-24h-4v24h-12zM491 -87q3 0 4 -1.5t1 -3.5v-18q0 -2 -1.5 -3.5t-3.5 -1.5h-17q-2 0 -3.5 1.5t-1.5 3.5v18q0 2 1.5 3.5t3.5 1.5h17zM492 -110v18
q0 1 -1 1h-17l-1 -1v-18h1h17h1zM575 41q17 0 17 -15v-81q0 -16 -17 -16h-20q-17 0 -17 16v81q0 15 17 15h20zM576 -53v76q0 3 -1.5 4t-4.5 1h-10q-3 0 -4 -1t-1 -4v-76q0 -3 1 -4t4 -1h10q3 0 4.5 1t1.5 4zM626 -58h28v-13h-44v112h16v-99zM433 -115h-4v28h4v-28zM325 -110
v23h4v-23q0 -2 -1.5 -3.5t-3.5 -1.5h-18q-2 0 -3.5 1.5t-1.5 3.5v23h5v-23v0h18h1zM387 -87q3 0 4 -1.5t1 -3.5v-18q0 -2 -1.5 -3.5t-3.5 -1.5h-22v28h22zM388 -110v18q0 1 -1 1h-17l-1 -1v-18h1h17h1zM268 -10q0 -13 -12 -15l18 -46h-18l-17 45h-8v-45h-16v112h36
q17 0 17 -15v-36zM252 -7v30q0 3 -1 4t-5 1h-15v-41h15q4 0 5 1t1 5zM298 41h24l21 -112h-16l-5 26h-23l-5 -26h-16zM301 -32h19l-10 59zM389 41q17 0 17 -15v-20h-16v17q0 4 -1 5t-5 1h-9q-3 0 -4 -1t-1 -5v-76q0 -3 1 -4t4 -1h9q4 0 5 1t1 4v17h16v-19q0 -16 -17 -16h-19
q-16 0 -16 16v81q0 15 16 15h19zM510 723q-14 0 -14 14v82h13v-80q0 -3 1 -3.5t4 -0.5h9q3 0 3.5 0.5t0.5 3.5v80h14v-82q0 -14 -14 -14h-17zM654 735v-12h-42v96h41v-11h-27v-30h22v-11h-22v-32h28zM465 735v-12h-37v96h14v-84h23zM569 767q-14 0 -14 13v26q0 13 14 13h15
q14 0 14 -13v-14h-14v12q0 2 -1 3t-3 1h-7q-3 0 -3.5 -1t-0.5 -3v-22q0 -2 0.5 -3t3.5 -1h11q14 0 14 -14v-27q0 -14 -14 -14h-15q-14 0 -14 14v14h14v-12q0 -3 1 -3.5t3 -0.5h7q3 0 3.5 0.5t0.5 3.5v23q0 3 -0.5 4t-3.5 1h-11zM380 746l-3 -23h-14l17 96h20l18 -96h-14
l-4 23h-20zM390 807l-8 -50h16zM203 767q-14 0 -14 13v26q0 13 14 13h15q14 0 14 -13v-14h-14v12q0 2 -1 3t-3 1h-7q-2 0 -3 -1t-1 -3v-22q0 -2 0.5 -3t3.5 -1h11q14 0 14 -14v-27q0 -14 -14 -14h-15q-14 0 -14 14v14h14v-12q0 -3 1 -3.5t4 -0.5h6q3 0 3.5 0.5t0.5 3.5v23
q0 3 -0.5 4t-3.5 1h-11zM119 735v-12h-41v96h40v-11h-26v-30h22v-11h-22v-32h27zM260 723q-15 0 -15 14v69q0 13 15 13h17q14 0 14 -13v-69q0 -14 -14 -14h-17zM259 804v-65q0 -3 1 -3.5t4 -0.5h9q2 0 3 0.5t1 3.5v65q0 2 -1 3t-3 1h-9q-3 0 -4 -1t-1 -3zM144 762v-39h-14
v96h32q14 0 14 -13v-30q0 -12 -10 -14l15 -39h-15l-14 39h-8zM144 808v-35h14q2 0 3 1t1 4v26q0 2 -1 3t-3 1h-14zM319 793v-70h-13v96h15l19 -67v67h13v-96h-14zM51 760h-17v-37h-14v96h31q15 0 15 -13v-32q0 -14 -15 -14zM34 808v-37h13q3 0 4 1t1 4v28q0 2 -1 3t-4 1h-13
z" />
    <glyph glyph-name="seven" unicode="7" horiz-adv-x="594" 
d="M38 704h557q16 0 27.5 -11t11.5 -27v-557q0 -16 -11.5 -27t-27.5 -11h-557q-15 0 -26.5 11t-11.5 27v557q0 16 11.5 27t26.5 11zM339 531h-136q58 55 138.5 54t137.5 -58l42 42q-76 75 -182 75q-65 0 -121.5 -30.5t-91.5 -82.5q-51 -74 -42.5 -166.5t73.5 -158.5
q75 -74 180 -75.5t184 75.5q-5 4 -13.5 12.5l-15.5 15.5t-13 14q-44 -44 -105.5 -55t-118.5 15v63q38 -27 84 -27q59 0 101 42t42 101q0 24 -7 45.5t-20.5 39.5t-31 31t-39.5 20.5t-45 7.5zM196 251q-42 44 -52 104.5t16 116.5h179q22 0 40 -10t28.5 -26t14.5 -34.5
t-2 -38.5t-21 -35q-20 -19 -45 -23t-47 5t-37 29.5t-15 47.5h-59v-136zM471 -87q2 0 3.5 -1.5t1.5 -3.5v-18q0 -2 -1.5 -3.5t-3.5 -1.5h-17q-2 0 -3.5 1.5t-1.5 3.5v18q0 2 1.5 3.5t3.5 1.5h17zM472 -110v18q0 1 -1 1h-17l-1 -1v-18h1h17h1zM37 41q16 0 16 -15v-38
q0 -15 -16 -15h-21v-44h-16v112h37zM37 -9v32q0 3 -1 4t-4 1h-16v-43h16q3 0 4 1.5t1 4.5zM455 28v13h54v-13h-19v-99h-16v99h-19zM606 -58h28v-13h-44v112h16v-99zM105 -53v94h16v-96q0 -16 -17 -16h-20q-17 0 -17 16v96h17v-94q0 -3 1 -4t4 -1h10q4 0 5 1t1 4zM555 41
q17 0 17 -15v-81q0 -16 -17 -16h-20q-17 0 -17 16v81q0 15 17 15h20zM556 -53v76q0 3 -1.5 4t-4.5 1h-10q-3 0 -4 -1t-1 -4v-76q0 -3 1 -4t4 -1h10q3 0 4.5 1t1.5 4zM367 -87q2 0 3.5 -1.5t1.5 -3.5v-18q0 -2 -1.5 -3.5t-3.5 -1.5h-22v28h22zM368 -110v18q0 1 -1 1h-17
l-1 -1v-18h1h17h1zM369 41q17 0 17 -15v-20h-16v17q0 4 -1 5t-4 1h-10q-3 0 -4 -1t-1 -5v-76q0 -3 1 -4t4 -1h10q3 0 4 1t1 4v17h16v-19q0 -16 -17 -16h-19q-16 0 -16 16v81q0 15 16 15h19zM248 -10q0 -13 -12 -15l18 -46h-18l-17 45h-8v-45h-16v112h36q17 0 17 -15v-36z
M232 -7v30q0 3 -1 4t-5 1h-15v-41h15q4 0 5 1t1 5zM451 -58v-13h-49v112h48v-13h-32v-34h26v-13h-26v-39h33zM305 -110v23h4v-23q0 -2 -1.5 -3.5t-3.5 -1.5h-18q-2 0 -3 1.5t-1 3.5v23h4v-23v0h18h1zM413 -115h-4v28h4v-28zM278 41h24l21 -112h-16l-5 26h-23l-5 -26h-16z
M281 -32h19l-10 59zM180 -87q2 0 3 -1.5t1 -3.5v-2h-4v2v1h-18l-0.5 -0.5l-0.5 -0.5v-6l1 -1h18q2 0 3.5 -1.5t1.5 -3.5v-6q0 -2 -1.5 -3.5t-3.5 -1.5h-18q-2 0 -3.5 1.5t-1.5 3.5v2h4v-2h1h18v0v6v1h-18q-2 0 -3.5 1.5t-1.5 3.5v6q0 2 1.5 3.5t3.5 1.5h18zM165 -71h-16v99
h-18v13h53v-13h-19v-99zM219 -91v4h28v-4h-12v-24h-4v24h-12zM490 723q-14 0 -14 14v82h14v-80q0 -3 0.5 -3.5t3.5 -0.5h9q3 0 3.5 0.5t0.5 3.5v80h14v-82q0 -14 -14 -14h-17zM549 767q-14 0 -14 13v26q0 13 14 13h15q14 0 14 -13v-14h-14v12q0 2 -1 3t-3 1h-7q-3 0 -3.5 -1
t-0.5 -3v-22q0 -2 0.5 -3t3.5 -1h11q14 0 14 -14v-27q0 -14 -14 -14h-15q-14 0 -14 14v14h14v-12q0 -3 1 -3.5t3 -0.5h7q3 0 3.5 0.5t0.5 3.5v23q0 3 -0.5 4t-3.5 1h-11zM634 735v-12h-42v96h40v-11h-26v-30h22v-11h-22v-32h28zM445 735v-12h-37v96h14v-84h23zM14 760v-37
h-14v96h31q15 0 15 -13v-32q0 -14 -15 -14h-17zM14 808v-37h13q3 0 4 1t1 4v28q0 2 -1 3t-4 1h-13zM132 762h-8v-39h-14v96h32q14 0 14 -13v-30q0 -12 -10 -14l15 -39h-15zM124 808v-35h14q2 0 3 1t1 4v26q0 2 -1 3t-3 1h-14zM360 746l-3 -23h-14l17 96h20l18 -96h-14l-4 23
h-20zM370 807l-8 -50h16zM183 767q-14 0 -14 13v26q0 13 14 13h15q14 0 14 -13v-14h-14v12q0 2 -1 3t-3 1h-7q-2 0 -3 -1t-1 -3v-22q0 -2 1 -3t3 -1h11q14 0 14 -14v-27q0 -14 -14 -14h-15q-14 0 -14 14v14h14v-12q0 -3 1 -3.5t4 -0.5h6q3 0 3.5 0.5t0.5 3.5v23q0 3 -0.5 4
t-3.5 1h-11zM99 735v-12h-41v96h40v-11h-26v-30h22v-11h-22v-32h27zM299 793v-70h-13v96h15l19 -67v67h13v-96h-14zM240 723q-15 0 -15 14v69q0 13 15 13h17q14 0 14 -13v-69q0 -14 -14 -14h-17zM239 804v-65q0 -3 1 -3.5t4 -0.5h9q2 0 3 0.5t1 3.5v65q0 2 -1 3t-3 1h-9
q-3 0 -4 -1t-1 -3z" />
    <glyph glyph-name="eight" unicode="8" horiz-adv-x="714" 
d="M216 387v-136q-42 44 -52 104.5t16 116.5h179q27 0 48 -15.5t30 -37t5 -47t-23 -44.5t-44.5 -23t-47.5 5t-37 29.5t-15 47.5h-59zM20 666q0 16 11.5 27t26.5 11h557q16 0 27.5 -11t11.5 -27v-557q0 -16 -11.5 -27t-27.5 -11h-557q-15 0 -26.5 11t-11.5 27v557zM146 531
q-51 -74 -42.5 -166.5t74.5 -158.5q74 -74 179 -75.5t184 75.5l-42 42q-44 -44 -105.5 -55t-118.5 15v63q38 -27 84 -27q59 0 101 42t42 101.5t-42 101.5t-101 42h-136q58 55 138.5 54t137.5 -58l42 42q-75 75 -182 75q-65 0 -121.5 -30.5t-91.5 -82.5zM471 -58v-13h-49v112
h48v-13h-32v-34h26v-13h-26v-39h33zM433 -115h-4v28h4v-28zM57 41q17 0 16 -15v-38q0 -15 -16 -15h-21v-44h-16v112h37zM57 -9v32q0 3 -1 4t-4 1h-16v-43h16q3 0 4 1.5t1 4.5zM389 41q17 0 17 -15v-20h-16v17q0 4 -1 5t-4 1h-10q-3 0 -4 -1t-1 -5v-76q0 -3 1 -4t4 -1h10
q3 0 4 1t1 4v17h16v-19q0 -16 -17 -16h-19q-16 0 -16 16v81q0 15 16 15h19zM298 41h24l21 -112h-16l-5 26h-23l-5 -26h-16zM301 -32h19l-10 59zM491 -87q3 0 4 -1.5t1 -3.5v-18q0 -2 -1.5 -3.5t-3.5 -1.5h-17q-2 0 -3.5 1.5t-1.5 3.5v18q0 2 1.5 3.5t3.5 1.5h17zM492 -110
v18q0 1 -1 1h-17l-1 -1v-18h1h17h1zM575 41q17 0 17 -15v-81q0 -16 -17 -16h-20q-17 0 -17 16v81q0 15 17 15h20zM576 -53v76q0 3 -1.5 4t-4.5 1h-10q-3 0 -4 -1t-1 -4v-76q0 -3 1 -4t4 -1h10q3 0 4.5 1t1.5 4zM475 28v13h54v-13h-19v-99h-16v99h-19zM626 41v-99h28v-13h-44
v112h16zM387 -87q2 0 3.5 -1.5t1.5 -3.5v-18q0 -2 -1.5 -3.5t-3.5 -1.5h-22v28h22zM388 -110v18q0 1 -1 1h-17l-1 -1v-18h1h17h1zM239 -91v4h28v-4h-12v-24h-4v24h-12zM268 -10q0 -13 -12 -15l18 -46h-18l-17 45h-8v-45h-16v112h36q17 0 17 -15v-36zM252 -7v30q0 3 -1 4
t-5 1h-15v-41h15q4 0 5 1t1 5zM325 -110v23h4v-23q0 -2 -1.5 -3.5t-3.5 -1.5h-18q-2 0 -3.5 1.5t-1.5 3.5v23h5v-23v0h18h1zM185 -71h-16v99h-18v13h53v-13h-19v-99zM200 -87q2 0 3.5 -1.5t1.5 -3.5v-2h-5v2v1h-18l-0.5 -0.5l-0.5 -0.5v-6l1 -1h18q2 0 3.5 -1.5t1.5 -3.5v-6
q0 -2 -1.5 -3.5t-3.5 -1.5h-18q-2 0 -3.5 1.5t-1.5 3.5v2h4v-2h1h18v0v6v1h-18q-2 0 -3.5 1.5t-1.5 3.5v6q0 2 1.5 3.5t3.5 1.5h18zM125 -53v94h16v-96q0 -16 -17 -16h-20q-17 0 -17 16v96h17v-94q0 -3 1 -4t4 -1h10q4 0 5 1t1 4zM465 735v-12h-37v96h14v-84h23zM510 723
q-14 0 -14 14v82h13v-80q0 -3 1 -3.5t4 -0.5h9q3 0 3.5 0.5t0.5 3.5v80h14v-82q0 -14 -14 -14h-17zM626 735h28v-12h-42v96h41v-11h-27v-30h22v-11h-22v-32zM569 767q-14 0 -14 13v26q0 13 14 13h15q14 0 14 -13v-14h-14v12q0 2 -1 3t-3 1h-7q-3 0 -3.5 -1t-0.5 -3v-22
q0 -2 0.5 -3t3.5 -1h11q14 0 14 -14v-27q0 -14 -14 -14h-15q-14 0 -14 14v14h14v-12q0 -3 1 -3.5t3 -0.5h7q3 0 3.5 0.5t0.5 3.5v23q0 3 -0.5 4t-3.5 1h-11zM34 760v-37h-14v96h31q15 0 15 -13v-32q0 -14 -15 -14h-17zM34 808v-37h13q3 0 4 1t1 4v28q0 2 -1 3t-4 1h-13z
M152 762h-8v-39h-14v96h32q14 0 14 -13v-30q0 -12 -10 -14l15 -39h-15zM144 808v-35h14q2 0 3 1t1 4v26q0 2 -1 3t-3 1h-14zM203 767q-14 0 -14 13v26q0 13 14 13h15q14 0 14 -13v-14h-14v12q0 2 -1 3t-3 1h-7q-2 0 -3 -1t-1 -3v-22q0 -2 0.5 -3t3.5 -1h11q14 0 14 -14v-27
q0 -14 -14 -14h-15q-14 0 -14 14v14h14v-12q0 -3 1 -3.5t4 -0.5h6q3 0 3.5 0.5t0.5 3.5v23q0 3 -0.5 4t-3.5 1h-11zM119 735v-12h-41v96h40v-11h-26v-30h22v-11h-22v-32h27zM319 793v-70h-13v96h15l19 -67v67h13v-96h-14zM260 723q-15 0 -15 14v69q0 13 15 13h17
q14 0 14 -13v-69q0 -14 -14 -14h-17zM259 804v-65q0 -3 1 -3.5t4 -0.5h9q2 0 3 0.5t1 3.5v65q0 2 -1 3t-3 1h-9q-3 0 -4 -1t-1 -3zM380 746l-3 -23h-14l17 96h20l18 -96h-14l-4 23h-20zM390 807l-8 -50h16z" />
    <glyph glyph-name="nine" unicode="9" horiz-adv-x="684" 
d="M196 251q-42 44 -52 104.5t16 116.5h179q27 0 48 -15.5t30 -37t5 -47t-23.5 -44.5t-45 -23t-47 5t-36.5 29.5t-15 47.5h-59v-136zM38 704h557q8 0 15 -3t12 -8t8 -12t3 -15v-557q0 -16 -11 -27t-27 -11h-557q-15 0 -26.5 11t-11.5 27v557q0 16 11.5 27t26.5 11zM339 531
h-136q58 55 138.5 54t137.5 -58l42 42q-76 75 -182 75q-65 0 -121.5 -30.5t-91.5 -82.5q-51 -74 -42.5 -166.5t73.5 -158.5q75 -74 180 -75.5t184 75.5q-4 3 -8.5 8t-8.5 9t-8.5 8t-8.5 8.5t-8 8.5q-44 -44 -105.5 -55t-118.5 15v63q38 -27 84 -27q39 0 72 19.5t52 52
t19 71.5q0 24 -7 45.5t-20.5 39.5t-31 31t-39.5 20.5t-45 7.5zM455 28v13h54v-13h-19v-99h-16v99h-19zM369 41q17 0 17 -15v-20h-16v17q0 4 -1 5t-5 1h-9q-3 0 -4 -1t-1 -5v-76q0 -3 1 -4t4 -1h9q4 0 5 1t1 4v17h16v-19q0 -16 -17 -16h-19q-16 0 -16 16v81q0 15 16 15h19z
M555 41q17 0 17 -15v-81q0 -16 -17 -16h-20q-17 0 -17 16v81q0 15 17 15h20zM556 -53v76q0 3 -1.5 4t-4.5 1h-10q-3 0 -4 -1t-1 -4v-76q0 -3 1 -4t4 -1h10q3 0 4.5 1t1.5 4zM471 -87q2 0 3.5 -1.5t1.5 -3.5v-18q0 -2 -1.5 -3.5t-3.5 -1.5h-17q-2 0 -3.5 1.5t-1.5 3.5v18
q0 2 1.5 3.5t3.5 1.5h17zM472 -110v18q0 1 -1 1h-17l-1 -1v-18h1h17h1zM37 41q16 0 16 -15v-38q0 -15 -16 -15h-21v-44h-16v112h37zM37 -9v32q0 3 -1 4t-4 1h-16v-43h16q3 0 4 1.5t1 4.5zM606 -58h28v-13h-44v112h16v-99zM105 -53v94h16v-96q0 -16 -17 -16h-20q-17 0 -17 16
v96h17v-94q0 -3 1 -4t4 -1h10q4 0 5 1t1 4zM278 41h24l21 -112h-16l-5 26h-23l-5 -26h-16zM281 -32h19l-10 59zM305 -110v23h4v-23q0 -2 -1.5 -3.5t-3.5 -1.5h-18q-2 0 -3.5 1.5t-1.5 3.5v23h5v-23v0h18h1zM413 -115h-4v28h4v-28zM367 -87q2 0 3.5 -1.5t1.5 -3.5v-18
q0 -2 -1.5 -3.5t-3.5 -1.5h-22v28h22zM368 -110v18q0 1 -1 1h-17l-1 -1v-18h1h17h1zM451 -58v-13h-49v112h48v-13h-32v-34h26v-13h-26v-39h33zM219 -87h28v-4h-12v-24h-4v24h-12v4zM180 -87q2 0 3 -1.5t1 -3.5v-2h-4v2v1h-18l-0.5 -0.5l-0.5 -0.5v-6l1 -1h18q2 0 3.5 -1.5
t1.5 -3.5v-6q0 -2 -1.5 -3.5t-3.5 -1.5h-18q-2 0 -3.5 1.5t-1.5 3.5v2h4v-2h1h18v0v6v1h-18q-2 0 -3.5 1.5t-1.5 3.5v6q0 2 1.5 3.5t3.5 1.5h18zM248 -10q0 -13 -12 -15l18 -46h-18l-17 45h-8v-45h-16v112h36q17 0 17 -15v-36zM232 -7v30q0 3 -1 4t-5 1h-15v-41h15q4 0 5 1
t1 5zM165 -71h-16v99h-18v13h53v-13h-19v-99zM445 735v-12h-37v96h14v-84h23zM549 767q-14 0 -14 13v26q0 13 14 13h15q14 0 14 -13v-14h-14v12q0 2 -1 3t-3 1h-7q-3 0 -3.5 -1t-0.5 -3v-22q0 -2 0.5 -3t3.5 -1h11q14 0 14 -14v-27q0 -14 -14 -14h-15q-14 0 -14 14v14h14
v-12q0 -3 1 -3.5t3 -0.5h7q3 0 3.5 0.5t0.5 3.5v23q0 3 -0.5 4t-3.5 1h-11zM490 723q-14 0 -15 14v82h14v-80q0 -3 1 -3.5t4 -0.5h9q3 0 3.5 0.5t0.5 3.5v80h14v-82q0 -14 -14 -14h-17zM634 735v-12h-42v96h40v-11h-26v-30h22v-11h-22v-32h28zM124 762v-39h-14v96h32
q14 0 14 -13v-30q0 -12 -10 -14l15 -39h-15l-15 39h-7zM124 808v-35h13q3 0 4 1t1 4v26q0 2 -1 3t-4 1h-13zM99 735v-12h-41v96h40v-11h-26v-30h22v-11h-22v-32h27zM31 760h-17v-37h-14v96h31q15 0 15 -13v-32q0 -14 -15 -14zM14 808v-37h13q3 0 4 1t1 4v28q0 2 -1 3t-4 1
h-13zM240 723q-15 0 -15 14v69q0 13 15 13h17q14 0 14 -13v-69q0 -14 -14 -14h-17zM239 804v-65q0 -3 1 -3.5t4 -0.5h9q2 0 3 0.5t1 3.5v65q0 2 -1 3t-3 1h-9q-3 0 -4 -1t-1 -3zM299 793v-70h-13v96h15l19 -67v67h13v-96h-14zM183 767q-14 0 -14 13v26q0 13 14 13h15
q14 0 14 -13v-14h-14v12q0 2 -1 3t-3 1h-7q-2 0 -3 -1t-1 -3v-22q0 -2 0.5 -3t3.5 -1h11q14 0 14 -14v-27q0 -14 -14 -14h-15q-14 0 -14 14v14h14v-12q0 -3 1 -3.5t4 -0.5h6q3 0 3.5 0.5t0.5 3.5v23q0 3 -0.5 4t-3.5 1h-11zM360 746l-3 -23h-14l17 96h20l18 -96h-14l-4 23
h-20zM370 807l-8 -50h16z" />
    <glyph glyph-name="colon" unicode=":" horiz-adv-x="219" 
d="M140 397q36 -11 28 -49q-8 -34 -41 -50q-23 -11 -46 -4q-36 12 -28 50q8 35 41 50q23 11 46 3zM69 107q36 -12 27 -49q-7 -35 -40 -51q-23 -11 -46 -3q-36 11 -28 49q8 34 41 50q23 11 46 4z" />
    <glyph glyph-name="semicolon" unicode=";" horiz-adv-x="240" 
d="M69 107q26 -8 33 -36t-4.5 -58t-33.5 -46q-37 -25 -66 -14q-24 10 -9 38q19 -21 46 -6q16 9 9 14q-2 2 -7 2h-13q-3 0 -14 3q-36 11 -28 49q8 34 41 50q23 11 46 4zM160 397q37 -11 28 -49q-8 -34 -41 -50q-22 -11 -45 -4q-37 12 -28 50q8 35 41 50q23 10 45 3z" />
    <glyph glyph-name="less" unicode="&#x3c;" horiz-adv-x="704" 
d="M30 666q0 16 11.5 27t26.5 11h557q16 0 27.5 -11t11.5 -27v-557q0 -16 -11.5 -27t-27.5 -11h-557q-15 0 -26.5 11t-11.5 27v557zM156 531q-51 -74 -42.5 -166.5t73.5 -158.5q75 -74 180 -75.5t184 75.5l-42 42q-44 -44 -105.5 -55t-118.5 15v63q38 -27 84 -27
q59 0 101 42t42 101.5t-42 101.5t-101 42h-136q58 55 138.5 54t137.5 -58l42 42q-76 75 -182 75q-65 0 -121.5 -30.5t-91.5 -82.5zM226 387v-67.5v-68.5q-42 44 -52 104.5t16 116.5h179q27 0 48 -15.5t30 -37t5 -47t-23.5 -44.5t-45 -23t-47 5t-36.5 29.5t-15 47.5h-59z
M210 -87q2 0 3 -1.5t1 -3.5v-2h-4v2v1h-18l-0.5 -0.5l-0.5 -0.5v-6l1 -1h18q2 0 3.5 -1.5t1.5 -3.5v-6q0 -2 -1.5 -3.5t-3.5 -1.5h-18q-2 0 -3.5 1.5t-1.5 3.5v2h4v-2h1h18v0v6v1h-18q-2 0 -3.5 1.5t-1.5 3.5v6q0 2 1.5 3.5t3.5 1.5h18zM135 -53v94h16v-96q0 -16 -17 -16
h-20q-17 0 -17 16v96h17v-94q0 -3 1 -4t4 -1h10q4 0 5 1t1 4zM249 -91v4h28v-4h-12v-24h-4v24h-12zM195 -71h-16v99h-18v13h53v-13h-19v-99zM67 41q16 0 16 -15v-38q0 -15 -16 -15h-21v-44h-16v112h37zM67 -9v32q0 3 -1 4t-4 1h-16v-43h16q3 0 4 1.5t1 4.5zM501 -87
q3 0 4 -1.5t1 -3.5v-18q0 -2 -1.5 -3.5t-3.5 -1.5h-17q-2 0 -3.5 1.5t-1.5 3.5v18q0 2 1.5 3.5t3.5 1.5h17zM502 -110v18q0 1 -1 1h-17l-1 -1v-18h1h17h1zM485 28v13h54v-13h-19v-99h-16v99h-19zM443 -115h-4v28h4v-28zM636 41v-99h28v-13h-44v112h16zM278 -10
q0 -13 -12 -15l18 -46h-18l-17 45h-8v-45h-17v112h37q17 0 17 -15v-36zM262 -7v30q0 3 -1 4t-5 1h-15v-41h15q4 0 5 1t1 5zM481 -58v-13h-49v112h48v-13h-32v-34h26v-13h-26v-39h33zM585 41q17 0 17 -15v-81q0 -16 -17 -16h-20q-17 0 -17 16v81q0 15 17 15h20zM586 -53v76
q0 3 -1.5 4t-4.5 1h-10q-3 0 -4 -1t-1 -4v-76q0 -3 1 -4t4 -1h10q3 0 4.5 1t1.5 4zM399 41q17 0 17 -15v-20h-16v17q0 4 -1 5t-5 1h-9q-3 0 -4 -1t-1 -5v-76q0 -3 1 -4t4 -1h9q4 0 5 1t1 4v17h16v-19q0 -16 -17 -16h-19q-16 0 -16 16v81q0 15 16 15h19zM335 -110v23h4v-23
q0 -2 -1.5 -3.5t-3.5 -1.5h-18q-2 0 -3.5 1.5t-1.5 3.5v23h5v-23v0h18h1zM308 41h24l21 -112h-16l-5 26h-23l-5 -26h-16zM311 -32h19l-10 59zM397 -87q2 0 3.5 -1.5t1.5 -3.5v-18q0 -2 -1.5 -3.5t-3.5 -1.5h-22v28h22zM398 -110v18q0 1 -1 1h-17l-1 -1v-18h1h17h1zM579 767
q-14 0 -14 13v26q0 13 14 13h15q14 0 14 -13v-14h-14v12q0 2 -1 3t-3 1h-7q-3 0 -3.5 -1t-0.5 -3v-22q0 -2 0.5 -3t3.5 -1h11q14 0 14 -14v-27q0 -14 -14 -14h-15q-14 0 -14 14v14h14v-12q0 -3 1 -3.5t3 -0.5h7q3 0 3.5 0.5t0.5 3.5v23q0 3 -0.5 4t-3.5 1h-11zM520 723
q-14 0 -14 14v82h13v-80q0 -3 1 -3.5t4 -0.5h9q3 0 3.5 0.5t0.5 3.5v80h14v-82q0 -14 -14 -14h-17zM390 746l-3 -23h-14l17 96h20l18 -96h-14l-4 23h-20zM400 807l-8 -50h16zM475 735v-12h-37v96h14v-84h23zM129 735v-12h-41v96h40v-11h-26v-30h22v-11h-22v-32h27zM44 760
v-37h-14v96h31q15 0 15 -13v-32q0 -14 -15 -14h-17zM44 808v-37h13q3 0 4 1t1 4v28q0 2 -1 3t-4 1h-13zM636 735h28v-12h-42v96h40v-11h-26v-30h22v-11h-22v-32zM270 723q-15 0 -15 14v69q0 13 15 13h17q14 0 14 -13v-69q0 -14 -14 -14h-17zM269 804v-65q0 -3 1 -3.5t4 -0.5
h9q2 0 3 0.5t1 3.5v65q0 2 -1 3t-3 1h-9q-3 0 -4 -1t-1 -3zM162 762h-8v-39h-14v96h32q14 0 14 -13v-30q0 -12 -10 -14l15 -39h-15zM154 808v-35h14q2 0 3 1t1 4v26q0 2 -1 3t-3 1h-14zM329 793v-70h-13v96h15l19 -67v67h13v-96h-14zM213 767q-14 0 -14 13v26q0 13 14 13h15
q14 0 14 -13v-14h-14v12q0 2 -1 3t-3 1h-7q-2 0 -3 -1t-1 -3v-22q0 -2 0.5 -3t3.5 -1h11q14 0 14 -14v-27q0 -14 -14 -14h-15q-14 0 -14 14v14h14v-12q0 -3 1 -3.5t4 -0.5h6q3 0 3.5 0.5t0.5 3.5v23q0 3 -0.5 4t-3.5 1h-11z" />
    <glyph glyph-name="equal" unicode="=" horiz-adv-x="414" 
d="M115 287q-45 0 -75 30t-16 76q5 -3 30 -5t62.5 -2.5t68.5 -0.5t66 0.5t38 0.5q45 0 74.5 -30.5t15.5 -76.5q-5 3 -29.5 5t-62 2.5t-68.5 0.5h-66h-38zM289 251q45 0 74.5 -30t15.5 -76q-5 3 -29.5 5t-62 2.5t-68.5 0.5t-66 -0.5t-38 -0.5q-45 0 -75 30t-16 77
q4 -3 24 -4.5t45 -2.5t58 -1.5t58 0t50.5 0.5h29.5z" />
    <glyph glyph-name="greater" unicode="&#x3e;" horiz-adv-x="705" 
d="M39 704h557q8 0 15 -3t12 -8t8 -12t3 -15v-557q0 -16 -11 -27t-27 -11h-557q-15 0 -26.5 11t-11.5 27v557q0 16 11.5 27t26.5 11zM340 531h-136q58 55 138.5 54t137.5 -58l42 42q-76 75 -182 75q-65 0 -121.5 -30.5t-91.5 -82.5q-51 -74 -42.5 -166.5t73.5 -158.5
q75 -74 180 -75.5t184 75.5l-42 42q-44 -44 -105.5 -55t-118.5 15v63q38 -27 84 -27q59 0 101 42t42 101q0 24 -7 45.5t-20.5 39.5t-31 31t-39.5 20.5t-45 7.5zM197 251q-42 44 -52 104.5t16 116.5h179q22 0 40 -10t28.5 -26t14.5 -34.5t-2 -38.5t-21 -35q-20 -19 -45.5 -23
t-47 5t-36.5 29.5t-15 47.5h-59v-136zM181 -87q2 0 3.5 -1.5t1.5 -3.5v-2h-5v2v1h-18l-0.5 -0.5l-0.5 -0.5v-6l1 -1h18q2 0 3.5 -1.5t1.5 -3.5v-6q0 -2 -1.5 -3.5t-3.5 -1.5h-18q-2 0 -3.5 1.5t-1.5 3.5v2h4v-2h1h18v0v6v1h-18q-2 0 -3.5 1.5t-1.5 3.5v6q0 2 1.5 3.5
t3.5 1.5h18zM105 -53v94h17v-96q0 -16 -17 -16h-20q-17 0 -17 16v96h17v-94q0 -3 1 -4t4 -1h10q4 0 4.5 1t0.5 4zM38 41q16 0 16 -15v-38q0 -15 -16 -15h-21v-44h-16v112h37zM38 -9v32q0 3 -1 4t-4 1h-16v-43h16q3 0 4 1.5t1 4.5zM166 -71h-16v99h-19v13h54v-13h-19v-99z
M220 -87h28v-4h-12v-24h-4v24h-12v4zM456 28v13h54v-13h-19v-99h-16v99h-19zM452 -58v-13h-49v112h48v-13h-32v-34h26v-13h-26v-39h33zM414 -115h-4v28h4v-28zM472 -87q2 0 3.5 -1.5t1.5 -3.5v-18q0 -2 -1.5 -3.5t-3.5 -1.5h-17q-2 0 -3.5 1.5t-1.5 3.5v18q0 2 1.5 3.5
t3.5 1.5h17zM473 -110v18q0 1 -1 1h-17l-1 -1v-18h1h17h1zM249 -10q0 -13 -12 -15l18 -46h-18l-17 45h-8v-45h-16v112h36q17 0 17 -15v-36zM233 -7v30q0 3 -1 4t-5 1h-15v-41h15q4 0 5 1t1 5zM556 41q17 0 17 -15v-81q0 -16 -17 -16h-20q-17 0 -17 16v81q0 15 17 15h20z
M557 -53v76q0 3 -1.5 4t-4.5 1h-10q-3 0 -4 -1t-1 -4v-76q0 -3 1 -4t4 -1h10q3 0 4.5 1t1.5 4zM607 -58h28v-13h-44v112h16v-99zM368 -87q2 0 3.5 -1.5t1.5 -3.5v-18q0 -2 -1.5 -3.5t-3.5 -1.5h-22v28h22zM369 -110v18q0 1 -1 1h-17l-1 -1v-18h1h17h1zM279 41h24l21 -112
h-16l-5 26h-23l-5 -26h-16zM282 -32h19l-10 59zM306 -110v23h4v-23q0 -2 -1.5 -3.5t-3.5 -1.5h-18q-2 0 -3 1.5t-1 3.5v23h4v-23v0h18h1zM370 41q17 0 17 -15v-20h-16v17q0 4 -1 5t-5 1h-9q-3 0 -4 -1t-1 -5v-76q0 -3 1 -4t4 -1h9q4 0 5 1t1 4v17h16v-19q0 -16 -17 -16h-19
q-16 0 -16 16v81q0 15 16 15h19zM446 735v-12h-37v96h14v-84h23zM550 767q-14 0 -14 13v26q0 13 14 13h15q14 0 14 -13v-14h-14v12q0 2 -1 3t-4 1h-6q-3 0 -4 -1t-1 -3v-22q0 -2 1 -3t4 -1h11q14 0 14 -14v-27q0 -14 -14 -14h-15q-14 0 -14 14v14h14v-12q0 -3 1 -3.5t3 -0.5
h7q3 0 3.5 0.5t0.5 3.5v23q0 3 -0.5 4t-3.5 1h-11zM635 735v-12h-42v96h40v-11h-26v-30h22v-11h-22v-32h28zM491 723q-14 0 -15 14v82h14v-80q0 -3 1 -3.5t4 -0.5h9q3 0 3.5 0.5t0.5 3.5v80h14v-82q0 -14 -14 -14h-17zM361 746l-3 -23h-14l17 96h20l18 -96h-14l-4 23h-20z
M371 807l-8 -50h16zM125 762v-39h-14v96h32q14 0 14 -13v-30q0 -12 -10 -14l15 -39h-15l-14 39h-8zM125 808v-35h14q2 0 3 1t1 4v26q0 2 -1 3t-3 1h-14zM32 760h-17v-37h-14v96h31q15 0 15 -13v-32q0 -14 -15 -14zM15 808v-37h13q3 0 4 1t1 4v28q0 2 -1 3t-4 1h-13zM100 735
v-12h-41v96h40v-11h-26v-30h22v-11h-22v-32h27zM300 793v-70h-13v96h15l19 -67v67h13v-96h-14zM184 767q-14 0 -14 13v26q0 13 14 13h15q14 0 14 -13v-14h-14v12q0 2 -1 3t-3 1h-7q-2 0 -3 -1t-1 -3v-22q0 -2 1 -3t3 -1h11q14 0 14 -14v-27q0 -14 -14 -14h-15q-14 0 -14 14
v14h14v-12q0 -3 1 -3.5t4 -0.5h6q3 0 3.5 0.5t0.5 3.5v23q0 3 -0.5 4t-3.5 1h-11zM241 723q-15 0 -15 14v69q0 13 15 13h17q14 0 14 -13v-69q0 -14 -14 -14h-17zM240 804v-65q0 -3 1 -3.5t4 -0.5h9q2 0 3 0.5t1 3.5v65q0 2 -1 3t-3 1h-9q-3 0 -4 -1t-1 -3z" />
    <glyph glyph-name="question" unicode="?" horiz-adv-x="635" 
d="M39 704h557q8 0 15 -3t12 -8t8 -12t3 -15v-557q0 -16 -11 -27t-27 -11h-557q-15 0 -26.5 11t-11.5 27v557q0 16 11.5 27t26.5 11zM340 531h-136q58 55 138.5 54t137.5 -58l42 42q-76 75 -182 75q-65 0 -121.5 -30.5t-91.5 -82.5q-51 -74 -42.5 -166.5t73.5 -158.5
q75 -74 180 -75.5t184 75.5l-42 42q-44 -44 -105.5 -55t-118.5 15v63q38 -27 84 -27q39 0 72 19.5t52 52t19 71.5q0 60 -42 102t-101 42zM197 251q-42 44 -52 104.5t16 116.5h179q22 0 40 -10t28.5 -26t14.5 -34.5t-2 -38.5t-21 -35q-20 -19 -45.5 -23t-47 5t-36.5 29.5
t-15 47.5h-59v-136zM106 -53v94h16v-96q0 -16 -17 -16h-20q-17 0 -17 16v96h17v-94q0 -3 1 -4t4 -1h10q4 0 5 1t1 4zM456 28v13h54v-13h-19v-99h-16v99h-19zM472 -87q3 0 4 -1.5t1 -3.5v-18q0 -2 -1.5 -3.5t-3.5 -1.5h-17q-2 0 -3.5 1.5t-1.5 3.5v18q0 2 1.5 3.5t3.5 1.5h17
zM473 -110v18q0 1 -1 1h-17l-1 -1v-18h1h17h1zM38 41q16 0 16 -15v-38q0 -15 -16 -15h-21v-44h-16v112h37zM38 -9v32q0 3 -1 4t-4 1h-16v-43h16q3 0 4 1.5t1 4.5zM607 -58h28v-13h-44v112h16v-99zM556 41q17 0 17 -15v-81q0 -16 -17 -16h-20q-17 0 -17 16v81q0 15 17 15h20z
M557 -53v76q0 3 -1.5 4t-4.5 1h-10q-3 0 -4 -1t-1 -4v-76q0 -3 1 -4t4 -1h10q3 0 4.5 1t1.5 4zM279 41h24l21 -112h-16l-5 26h-23l-5 -26h-16zM282 -32h19l-10 59zM370 41q17 0 17 -15v-20h-16v17q0 4 -1 5t-4 1h-10q-3 0 -4 -1t-1 -5v-76q0 -3 1 -4t4 -1h10q3 0 4 1t1 4v17
h16v-19q0 -16 -17 -16h-19q-16 0 -16 16v81q0 15 16 15h19zM414 -115h-4v28h4v-28zM167 -71h-17v99h-18v13h53v-13h-18v-99zM452 -58v-13h-49v112h48v-13h-32v-34h26v-13h-26v-39h33zM306 -110v23h4v-23q0 -2 -1.5 -3.5t-3.5 -1.5h-18q-2 0 -3 1.5t-1 3.5v23h4v-23v0h18h1z
M368 -87q2 0 3.5 -1.5t1.5 -3.5v-18q0 -2 -1.5 -3.5t-3.5 -1.5h-22v28h22zM369 -110v18q0 1 -1 1h-17l-1 -1v-18h1h17h1zM181 -87q2 0 3.5 -1.5t1.5 -3.5v-2h-5v2v1h-18l-0.5 -0.5l-0.5 -0.5v-6l1 -1h18q2 0 3.5 -1.5t1.5 -3.5v-6q0 -2 -1.5 -3.5t-3.5 -1.5h-18
q-2 0 -3.5 1.5t-1.5 3.5v2h4v-2h1h18v0v6v1h-18q-2 0 -3.5 1.5t-1.5 3.5v6q0 2 1.5 3.5t3.5 1.5h18zM220 -87h28v-4h-12v-24h-4v24h-12v4zM249 -10q0 -13 -12 -15l18 -46h-18l-17 45h-8v-45h-16v112h36q17 0 17 -15v-36zM233 -7v30q0 3 -1 4t-5 1h-15v-41h15q4 0 5 1t1 5z
M550 767q-14 0 -14 13v26q0 13 14 13h15q14 0 14 -13v-14h-14v12q0 2 -1 3t-3 1h-7q-3 0 -3.5 -1t-0.5 -3v-22q0 -2 0.5 -3t3.5 -1h11q14 0 14 -14v-27q0 -14 -14 -14h-15q-14 0 -14 14v14h14v-12q0 -3 1 -3.5t3 -0.5h7q3 0 3.5 0.5t0.5 3.5v23q0 3 -0.5 4t-3.5 1h-11z
M491 723q-14 0 -15 14v82h14v-80q0 -3 1 -3.5t4 -0.5h9q3 0 3.5 0.5t0.5 3.5v80h14v-82q0 -14 -14 -14h-17zM446 735v-12h-37v96h14v-84h23zM635 735v-12h-42v96h41v-11h-27v-30h22v-11h-22v-32h28zM184 767q-14 0 -14 13v26q0 13 14 13h15q14 0 14 -13v-14h-14v12q0 2 -1 3
t-3 1h-7q-2 0 -3 -1t-1 -3v-22q0 -2 1 -3t3 -1h11q15 0 15 -14v-27q0 -14 -15 -14h-15q-14 0 -14 14v14h14v-12q0 -3 1 -3.5t4 -0.5h6q3 0 3.5 0.5t0.5 3.5v23q0 3 -0.5 4t-3.5 1h-11zM100 735v-12h-41v96h40v-11h-26v-30h22v-11h-22v-32h27zM361 746l-3 -23h-14l17 96h20
l18 -96h-14l-4 23h-20zM371 807l-8 -50h16zM32 760h-17v-37h-14v96h31q15 0 15 -13v-32q0 -14 -15 -14zM15 808v-37h13q3 0 4 1t1 4v28q0 2 -1 3t-4 1h-13zM125 762v-39h-14v96h32q14 0 14 -13v-30q0 -12 -10 -14l15 -39h-15l-14 39h-8zM125 808v-35h14q2 0 3 1t1 4v26
q0 2 -1 3t-3 1h-14zM300 793v-70h-13v96h15l19 -67v67h13v-96h-14zM241 723q-15 0 -15 14v69q0 13 15 13h17q14 0 14 -13v-69q0 -14 -14 -14h-17zM240 804v-65q0 -3 1 -3.5t4 -0.5h9q2 0 3 0.5t1 3.5v65q0 2 -1 3t-3 1h-9q-3 0 -4 -1t-1 -3z" />
    <glyph glyph-name="at" unicode="@" horiz-adv-x="673" 
d="M58 704h557q8 0 15 -3t12 -8t8 -12t3 -15v-557q0 -16 -11 -27t-27 -11h-557q-15 0 -26.5 11t-11.5 27v557q0 16 11.5 27t26.5 11zM359 531h-136q58 55 138.5 54t137.5 -58l42 42q-76 75 -182 75q-65 0 -121.5 -30.5t-91.5 -82.5q-51 -74 -42.5 -166.5t73.5 -158.5
q75 -74 180 -75.5t184 75.5l-42 42q-44 -44 -105.5 -55t-118.5 15v63q38 -27 84 -27q39 0 72 19.5t52 52t19 71.5q0 60 -42 102t-101 42zM216 251q-42 44 -52 104.5t16 116.5h179q22 0 40 -10t28.5 -26t14.5 -34.5t-2 -38.5t-21 -35q-20 -19 -45.5 -23t-47 5t-36.5 29.5
t-15 47.5h-59v-136zM185 -71h-16v99h-18v13h53v-13h-19v-99zM200 -87q2 0 3.5 -1.5t1.5 -3.5v-2h-5v2v1h-18l-0.5 -0.5l-0.5 -0.5v-6l1 -1h18q2 0 3.5 -1.5t1.5 -3.5v-6q0 -2 -1.5 -3.5t-3.5 -1.5h-18q-2 0 -3.5 1.5t-1.5 3.5v2h4v-2h1h18v0v6v1h-18q-2 0 -3.5 1.5t-1.5 3.5
v6q0 2 1.5 3.5t3.5 1.5h18zM125 -53v94h16v-96q0 -16 -17 -16h-20q-17 0 -17 16v96h17v-94q0 -3 1 -4t4 -1h10q4 0 5 1t1 4zM57 41q16 0 16 -15v-38q0 -15 -16 -15h-21v-44h-16v112h37zM57 -9v32q0 3 -1 4t-4 1h-16v-43h16q3 0 4 1.5t1 4.5zM433 -115h-4v28h4v-28zM491 -87
q2 0 3.5 -1.5t1.5 -3.5v-18q0 -2 -1.5 -3.5t-3.5 -1.5h-17q-2 0 -3.5 1.5t-1.5 3.5v18q0 2 1.5 3.5t3.5 1.5h17zM492 -110v18q0 1 -1 1h-17l-1 -1v-18h1h17h1zM389 41q17 0 17 -15v-20h-16v17q0 4 -1 5t-5 1h-9q-3 0 -4 -1t-1 -5v-76q0 -3 1 -4t4 -1h9q4 0 5 1t1 4v17h16
v-19q0 -16 -17 -16h-19q-16 0 -16 16v81q0 15 16 15h19zM471 -58v-13h-49v112h48v-13h-32v-34h26v-13h-26v-39h33zM239 -87h28v-4h-12v-24h-4v24h-12v4zM575 41q17 0 17 -15v-81q0 -16 -17 -16h-20q-17 0 -17 16v81q0 15 17 15h20zM576 -53v76q0 3 -1.5 4t-4.5 1h-10
q-3 0 -4 -1t-1 -4v-76q0 -3 1 -4t4 -1h10q3 0 4.5 1t1.5 4zM475 28v13h54v-13h-19v-99h-16v99h-19zM298 41h24l21 -112h-16l-5 26h-23l-5 -26h-16zM301 -32h19l-10 59zM387 -87q2 0 3.5 -1.5t1.5 -3.5v-18q0 -2 -1.5 -3.5t-3.5 -1.5h-22v28h22zM388 -110v18q0 1 -1 1h-17
l-1 -1v-18h1h17h1zM325 -110v23h4v-23q0 -2 -1.5 -3.5t-3.5 -1.5h-18q-2 0 -3 1.5t-1 3.5v23h4v-23v0h18h1zM268 -10q0 -13 -12 -15l18 -46h-18l-17 45h-8v-45h-16v112h36q17 0 17 -15v-36zM252 -7v30q0 3 -1 4t-5 1h-15v-41h15q4 0 5 1t1 5zM626 -58h28v-13h-44v112h16v-99
zM569 767q-14 0 -14 13v26q0 13 14 13h15q14 0 14 -13v-14h-14v12q0 2 -1 3t-4 1h-6q-3 0 -4 -1t-1 -3v-22q0 -2 1 -3t4 -1h11q14 0 14 -14v-27q0 -14 -14 -14h-15q-14 0 -14 14v14h14v-12q0 -3 1 -3.5t3 -0.5h7q3 0 3.5 0.5t0.5 3.5v23q0 3 -0.5 4t-3.5 1h-11zM510 723
q-14 0 -15 14v82h14v-80q0 -3 1 -3.5t4 -0.5h9q3 0 3.5 0.5t0.5 3.5v80h14v-82q0 -14 -14 -14h-17zM465 735v-12h-37v96h14v-84h23zM654 735v-12h-42v96h40v-11h-26v-30h22v-11h-22v-32h28zM144 762v-39h-14v96h32q14 0 14 -13v-30q0 -12 -10 -14l15 -39h-15l-14 39h-8z
M144 808v-35h14q2 0 3 1t1 4v26q0 2 -1 3t-3 1h-14zM119 735v-12h-41v96h40v-11h-26v-30h22v-11h-22v-32h27zM51 760h-17v-37h-14v96h31q15 0 15 -13v-32q0 -14 -15 -14zM34 808v-37h13q3 0 4 1t1 4v28q0 2 -1 3t-4 1h-13zM380 746l-3 -23h-14l17 96h20l18 -96h-14l-4 23
h-20zM390 807l-8 -50h16zM203 767q-14 0 -14 13v26q0 13 14 13h15q14 0 14 -13v-14h-14v12q0 2 -1 3t-3 1h-7q-2 0 -3 -1t-1 -3v-22q0 -2 1 -3t3 -1h11q15 0 15 -14v-27q0 -14 -15 -14h-15q-14 0 -14 14v14h14v-12q0 -3 1 -3.5t4 -0.5h6q3 0 3.5 0.5t0.5 3.5v23q0 3 -0.5 4
t-3.5 1h-11zM260 723q-15 0 -15 14v69q0 13 15 13h17q14 0 14 -13v-69q0 -14 -14 -14h-17zM259 804v-65q0 -3 1 -3.5t4 -0.5h9q2 0 3 0.5t1 3.5v65q0 2 -1 3t-3 1h-9q-3 0 -4 -1t-1 -3zM319 793v-70h-13v96h15l19 -67v67h13v-96h-14z" />
    <glyph glyph-name="A" unicode="A" horiz-adv-x="793" 
d="M446 551q0 -25 16.5 -36.5t39.5 1.5q-16 -30 -46 -46.5t-64 -14.5q-45 5 -78.5 37.5t-32.5 74.5q0 54 37.5 90t88.5 41q39 4 84 -2t80 -17t66 -26q31 28 68.5 44.5t65.5 11.5q27 -3 42.5 -19t18.5 -38q3 -27 -19 -47.5t-48 -18.5q6 36 -24 51t-64 -8q117 -87 81 -179
q-54 -157 -58.5 -283.5t42.5 -169.5q-18 -16 -53.5 -26.5t-63.5 -8.5q-35 13 -51.5 58.5t-16 100t14.5 110.5q-29 60 -58 91q-19 -59 -39 -104.5t-51 -91t-67.5 -73.5t-88.5 -42t-114 -7q-82 8 -136 77t-54 157q0 100 70.5 171.5t170.5 71.5q92 0 140 -56q40 -46 16 -91
q-21 -39 -82 -55q11 20 1.5 32.5t-27.5 11.5q-29 0 -38 -33q-10 -37 15 -61q18 -17 49 -16q29 0 55.5 12.5t48.5 37t35.5 43.5t30.5 49q-26 2 -55 -23q-6 49 23.5 79t69.5 15q65 127 103 177q-20 5 -41.5 6.5t-45.5 -1.5t-39.5 -17.5t-17.5 -39.5zM597 320q3 10 21 58t28 80
t10 69.5t-19 53.5q-26 -35 -48.5 -77t-31.5 -66q-4 -9 -10 -24.5t-9 -24.5q25 -23 59 -69z" />
    <glyph glyph-name="B" unicode="B" horiz-adv-x="838" 
d="M677 629l-1 -1q44 -23 69 -54.5t29 -63.5t-6.5 -64t-32.5 -57t-53.5 -41.5t-65.5 -17.5q58 -17 98 -62t38 -120q-3 -70 -61.5 -126.5t-136.5 -58.5q-50 -1 -97 24.5t-84 79.5q-90 -79 -219 -63q-83 8 -136.5 76.5t-53.5 157.5q0 100 70.5 171.5t170.5 71.5q91 0 139 -55
q41 -46 17 -91q-20 -40 -84 -56q11 20 2.5 32.5t-27.5 11.5q-29 0 -38 -33q-10 -37 16 -61q18 -17 49 -16q29 0 55 12.5t47.5 37t35 44t31.5 48.5q24 46 38 71q60 122 104 177q-20 5 -41.5 6.5t-45.5 -1.5t-39.5 -17.5t-17.5 -39.5q0 -25 16.5 -36.5t39.5 1.5
q-11 -20 -28 -34.5t-38.5 -21t-43.5 -5.5q-45 5 -78.5 37.5t-32.5 74.5q0 54 37.5 90t88.5 41q58 6 119.5 -8t110.5 -37q31 28 68 44.5t66 11.5q27 -3 42.5 -19t18.5 -38q3 -27 -19.5 -47.5t-48.5 -18.5q6 36 -23.5 51t-63.5 -8zM426 129q70 -10 113 48q35 46 24 88
q-11 39 -57 36q-39 -113 -80 -172zM538 389l-4 -8q27 2 57.5 25.5t49.5 54.5t22 65t-25 58l-3 -3q-25 -35 -47 -77.5t-31 -65.5q-4 -9 -10 -25z" />
    <glyph glyph-name="C" unicode="C" horiz-adv-x="488" 
d="M247 539q58 29 81 36q27 8 35 0q2 0 3 -2q12 -14 -5 -63q0 -3 2 -5q9 -5 23.5 15t20.5 44t-3 41l-4 5q-8 10 -29 10q-59 0 -124 -81zM376 408q-35 -7 -59.5 8.5t-25.5 49.5q-56 -26 -115 -45q-3 -5 -3 -6q-23 -52 -32 -94.5t-6 -69.5t13.5 -44.5t26 -24t32.5 -2.5
q23 4 43.5 25.5t24.5 45t-13 39.5q57 28 104 -14q45 -39 40 -104q-6 -68 -73 -119q-45 -34 -104.5 -48t-119.5 0.5t-95 60.5q-94 126 -11 312q-35 -10 -73 1t-66 44.5t-30 80.5q-3 55 35.5 99.5t94.5 46.5q55 1 81.5 -26.5t3.5 -62.5q-1 11 -23 10q-32 0 -38 -31
q-2 -6 -2 -12q0 -23 17.5 -40t56.5 -10q49 74 118 131q49 37 100 55t92.5 17t74 -11.5t54.5 -28.5q31 -26 29 -62.5t-23 -71.5t-57 -62.5t-72 -36.5z" />
    <glyph glyph-name="D" unicode="D" horiz-adv-x="823" 
d="M499 6q-85 -17 -133 56q-87 -72 -210 -58q-84 8 -138 76.5t-54 157.5q0 100 70.5 171.5t170.5 71.5q93 0 141 -56q40 -46 16 -91q-22 -39 -83 -55q11 20 1.5 32.5t-27.5 11.5q-29 0 -38 -33q-10 -37 15 -61q18 -17 49 -16q29 0 55.5 12.5t48.5 37t35.5 44t30.5 48.5
q24 46 38 71q60 121 103 177q-20 5 -41.5 6.5t-45 -1.5t-39 -17.5t-17.5 -39.5q0 -25 16.5 -37t38.5 2q-15 -30 -45.5 -47t-63.5 -14q-44 5 -78 37.5t-34 74.5q1 37 19.5 66t46.5 45.5t61 19.5q39 4 83.5 -2t80.5 -17t66 -26q30 28 67.5 44.5t65.5 11.5q28 -3 43.5 -19
t17.5 -38q3 -27 -19 -47.5t-48 -18.5q6 36 -24 51t-64 -8v-1q62 -48 88.5 -113.5t19.5 -131t-34.5 -131.5t-69.5 -117.5t-90.5 -87t-91.5 -42.5v1zM470 207q62 1 112.5 49.5t73.5 110.5t20 124.5t-38 90.5l-1 -1q-43 -60 -80 -143q-3 -7 -6.5 -15.5t-7 -17.5t-5.5 -16
q-5 -13 -13.5 -37t-11.5 -30q-19 -63 -43 -115z" />
    <glyph glyph-name="E" unicode="E" horiz-adv-x="512" 
d="M332 562q36 18 67 38l16 -25q30 -32 44 15q-26 35 -68 26t-59 -54zM226 466q-48 -24 -102 -22q-19 1 -37.5 6.5t-35 16.5t-29 26t-20.5 35.5t-9 44.5q-2 57 36 100.5t95 45.5q55 2 81 -26t4 -64q-2 9 -17 11.5t-30.5 -8t-15.5 -34.5t16.5 -41t54.5 -10q3 26 13 48.5
t27.5 41.5t44.5 31.5t61 16.5q41 5 76 -4.5t58.5 -29t37.5 -44.5t16 -51q2 -39 -17 -71.5t-60 -35.5q-51 -4 -71 17q-13 11 -42 45q-23 -12 -34 -18q3 -23 17 -55q38 -11 52 -32q-11 -39 -45 -52q-50 26 -93 19t-75 -34t-50.5 -59.5t-19.5 -57.5q-2 -56 45 -79q40 -19 70 4
q18 13 21 38q4 32 -7 49.5t-38 -10.5q1 52 39.5 79.5t83.5 16.5q64 -17 81 -83q18 -71 -29 -140q-63 -91 -195 -99q-8 -1 -16 -1q-113 -1 -170 83q-51 76 -27 171q26 106 131 160q57 30 130 38q-1 2 -1.5 4t-1.5 4t-1.5 4t-1.5 5zM464 822l23 8q-4 -2 -11.5 -4.5t-11.5 -3.5
z" />
    <glyph glyph-name="F" unicode="F" horiz-adv-x="836" 
d="M463 383q-25 -3 -38.5 -18.5t-15.5 -48.5q-28 25 -33.5 57t14.5 56t59 25q24 0 48 -5q50 98 93 154q-15 3 -32 5.5t-37 1t-35.5 -6.5t-27 -18.5t-12.5 -33.5q0 -25 16.5 -36.5t39.5 1.5q-16 -30 -46 -46.5t-64 -14.5q-45 5 -78.5 37.5t-32.5 74.5q0 54 37.5 90t88.5 41
q58 6 119.5 -7.5t110.5 -37.5q22 -10 54 -16q100 -7 189 81q26 -12 39.5 -29.5t15 -36t-6.5 -37t-24.5 -34.5t-40.5 -29t-52 -19q-11 -3 -22.5 -3t-24.5 2.5t-24 5t-26.5 8t-26 9.5t-28 10.5t-26.5 10.5q-50 -70 -76 -138q33 -8 46 -11t37.5 -7t38 -3t21.5 7
q4 -28 -2.5 -44.5t-16.5 -23t-32.5 -5.5t-37.5 4.5t-45 11.5q-22 6 -33 8l-21 -53q-18 -59 -38 -104.5t-50.5 -91t-67 -73.5t-88.5 -42t-114 -7q-83 8 -136.5 76.5t-53.5 157.5q0 100 70.5 171.5t170.5 71.5q91 0 139 -55q41 -46 17 -91q-20 -40 -84 -56q11 20 2.5 32.5
t-27.5 11.5q-29 0 -38 -33q-10 -37 16 -61q18 -17 49 -16q29 0 55 12.5t47.5 37t35 44t31.5 48.5z" />
    <glyph glyph-name="G" unicode="G" horiz-adv-x="510" 
d="M437 444q37 -2 44 -33q-13 -76 -35 -139.5t-50 -108t-60.5 -78t-68.5 -53t-71 -28.5t-70 -9q-41 0 -78 15t-62.5 39t-39 54.5t-11 60.5t26 58.5t67.5 47.5q27 -41 79 -54.5t102.5 -3t93 34.5t54.5 52q-19 -24 -57.5 -43t-80 -25.5t-79 9t-52.5 56.5q-43 -17 -84 -17
q-44 2 -77.5 32t-35.5 80q-2 48 31 85.5t82 39.5q47 1 69.5 -22.5t2.5 -54.5q-1 10 -20 10q-28 -2 -32 -30q-1 -4 -1 -8q0 -18 12.5 -33t42.5 -11q17 125 139 225q97 78 194 92q88 13 108 -42q5 -14 4 -32q-1 -29 -35 -68t-73 -67.5t-80 -56.5t-45 -31l-79 -45
q13 -15 31 -19t39 4.5t39 18.5t41.5 30t35.5 31t30 29q6 6 9 8zM414 605q-6 4 -28.5 -3.5t-51.5 -26t-57 -42.5t-48.5 -58t-22.5 -69q44 27 97.5 72t86.5 82.5t24 44.5z" />
    <glyph glyph-name="H" unicode="H" horiz-adv-x="868" 
d="M590 601v2h1q-20 5 -41.5 6.5t-45.5 -1.5t-39.5 -17.5t-16.5 -39.5q0 -25 16 -37t38 2q-15 -30 -45.5 -47t-63.5 -14q-29 4 -54.5 19t-41.5 40t-16 53q1 55 38.5 90.5t88.5 40.5q57 6 119.5 -8t110.5 -37v-1q46 24 79 -9q25 -25 17 -52q-10 -35 -69 -16q-12 4 -26 10
q-2 -3 -2 -4q-43 -60 -80 -143q-8 -21 -13 -32q41 -38 74 -89q26 52 59 102q5 6 14 21q15 24 24 37.5t26 37.5t28.5 37t28 31t30.5 25t29.5 12.5t30.5 1t29 -17.5q6 -5 11.5 -12t8 -15t-2 -14t-16.5 -7q-26 -1 -56 -30.5t-55 -74t-40.5 -77.5t-25.5 -59l-2 1
q-18 -46 -26 -78q-4 -15 -6 -36t0 -44.5t15.5 -34.5t37.5 -1q4 1 7 5t4.5 7.5t2.5 7t1.5 5.5t1.5 1q10 -29 3 -59.5t-29 -54.5q-33 -32 -79 -32t-79 32q-20 21 -26 44q-18 65 18 163q-33 67 -65 98l-6 -17q-19 -59 -39 -105t-50.5 -91t-67 -73t-88.5 -42t-113 -7
q-84 8 -138 76.5t-54 157.5q0 100 70.5 171.5t170.5 71.5q93 0 141 -56q40 -46 16 -91q-22 -39 -83 -55q11 20 1.5 32.5t-27.5 11.5q-29 0 -38 -33q-10 -37 16 -61q18 -17 49 -16q29 0 55 12.5t48 37t35 44t31 48.5l7 14q-27 -2 -52 -23q-6 47 22.5 77t67.5 18
q52 104 96 160z" />
    <glyph glyph-name="I" unicode="I" horiz-adv-x="645" 
d="M647 648q49 26 76 -4q21 -23 7 -50q-20 -39 -88 -24q-6 2 -12 3q-44 -64 -73 -135q-4 -9 -10 -24.5t-9 -24.5q-4 -9 -12.5 -32t-13.5 -35q-18 -59 -38 -104.5t-50.5 -91t-67 -73.5t-88.5 -42t-114 -7q-82 8 -136 77t-54 157q0 100 70.5 171.5t170.5 71.5q91 0 139 -55
q41 -46 17 -91q-20 -40 -84 -56q11 20 2.5 32.5t-27.5 11.5q-29 0 -38 -33q-10 -37 16 -61q18 -17 49 -16q23 0 45.5 9.5t38.5 22.5t33.5 34.5t27.5 37t24 38.5q24 48 38 71q53 104 86 152q-68 -9 -100 -36q-25 -23 -20 -46t29 -24q4 0 9 4t7.5 7t3.5 2q-2 -23 -16 -42
t-36 -28q-22 -8 -43 -5t-38.5 16.5t-26.5 33.5q-18 45 17 84t98 59q59 20 146 12q28 25 45 33z" />
    <glyph glyph-name="J" unicode="J" horiz-adv-x="885" 
d="M819 647q23 19 49 28.5t47 9t38.5 -5t27 -13t9.5 -16.5q0 -10 -3 -18.5t-7.5 -14.5t-12 -11t-14 -8t-17.5 -5.5t-17.5 -3.5t-18.5 -2t-17.5 -1.5t-17 -0.5h-13.5h-2v-1q-33 -27 -63 -61.5t-56.5 -79.5t-46.5 -82.5t-44 -95t-37 -92t-36 -96.5q-17 -56 -39.5 -103.5
t-55.5 -91.5t-72.5 -73t-93.5 -43t-116 -7q-83 9 -136.5 77.5t-53.5 158.5q0 100 70.5 170.5t170.5 70.5q91 0 139 -55q41 -46 17 -91q-20 -40 -84 -56q11 20 2.5 33t-27.5 11q-29 0 -38 -33q-10 -37 16 -61q19 -17 49 -16q29 0 55 12.5t47.5 37t35.5 44.5t31 49
q6 12 18.5 35.5t19.5 34.5q98 205 242 397q-76 -5 -108 -8t-89.5 -12.5t-91.5 -22.5q-39 -17 -42 -59q0 -29 19.5 -42.5t46.5 1.5q-19 -36 -54.5 -55.5t-75.5 -15.5q-52 5 -91.5 43t-38.5 88q0 64 44 106t104 49q228 23 432 -3z" />
    <glyph glyph-name="K" unicode="K" horiz-adv-x="862" 
d="M538 389l-16 -41q35 15 71.5 35.5t74.5 48.5t66 57.5t41.5 63.5t4.5 65q53 29 94 4q22 -22 26.5 -47t-6.5 -49t-31 -49t-49.5 -48.5t-60 -44.5t-64 -40t-59.5 -32.5t-49 -23.5q32 -85 98.5 -151t136.5 -65q26 -61 -15 -108q-39 -43 -101 -33q-87 15 -145 131
q-41 81 -59 203h-3q-23 -63 -51 -110t-67.5 -86t-95.5 -56t-125 -9q-83 8 -136.5 77t-53.5 157q0 100 70.5 171.5t170.5 71.5q91 0 139 -55q41 -46 17 -91q-20 -40 -84 -56q11 20 2.5 32.5t-26.5 11.5q-29 0 -38 -33q-10 -37 15 -61q18 -17 49 -16q29 0 55 12.5t47.5 37
t35 44t31.5 48.5q24 48 39 71q58 118 101 175v2h2q-20 5 -41.5 6.5t-45 -1.5t-39.5 -17.5t-18 -39.5q0 -25 16.5 -36.5t39.5 1.5q-16 -30 -46 -46.5t-64 -14.5q-44 5 -78 37.5t-33 74.5q0 54 37.5 90t88.5 41q58 6 119.5 -8t110.5 -37l1 -1q46 24 79 -9q25 -25 17 -52
q-10 -35 -69 -16q-12 4 -26 10h-1q0 -1 -3 -4q-25 -35 -47 -77.5t-31 -65.5q-4 -9 -10 -24.5t-9 -24.5z" />
    <glyph glyph-name="L" unicode="L" horiz-adv-x="571" 
d="M357 604h-4q-15 3 -31.5 5t-35.5 0.5t-33.5 -7.5t-25.5 -19t-12 -32q0 -25 16.5 -36.5t39.5 1.5q-17 -30 -47 -46.5t-64 -14.5q-43 5 -76.5 37.5t-33.5 74.5q0 55 37.5 90.5t87.5 40.5q33 3 63 0.5t61.5 -9.5t57 -16t47.5 -20q46 23 78 -11q25 -27 16 -53
q-11 -30 -62 -15q-67 -42 -150 -259l-1 1q-38 -92 -51 -144q29 -12 133 -69q73 -41 90 -28q11 9 8 39q27 -9 38.5 -40.5t6.5 -63t-19 -44.5q-31 -32 -71 -35.5t-78.5 13.5t-79 43t-77.5 50.5t-70 39.5t-61 7t-46 -45q-11 39 -6 66.5t26 46.5t43.5 28.5t46.5 13.5
q28 102 104.5 221.5t148.5 183.5q-1 0 -6 2t-8 3z" />
    <glyph glyph-name="M" unicode="M" horiz-adv-x="990" 
d="M279 213q24 0 46.5 9.5t39 22.5t33.5 34.5t27 37t24 38.5q24 47 38 71q56 111 92 163q-21 16 -51 20t-54.5 -10.5t-27.5 -47.5q0 -25 16.5 -36.5t39.5 1.5q-16 -30 -46 -46.5t-64 -14.5q-44 5 -77.5 37.5t-33.5 74.5q0 55 37.5 90.5t89.5 40.5q57 6 117 -14t92 -47
q87 78 154 72q27 -3 42.5 -19t18.5 -38q3 -27 -19 -47.5t-48 -18.5q3 23 -9 38.5t-33 17.5q-36 3 -72 -41q45 -64 11 -151q-58 -172 -63 -273l253 400q9 13 24.5 38.5t24.5 37.5q59 -13 82.5 -48.5t15.5 -83.5t-30 -104.5t-49.5 -114t-47.5 -108t-19.5 -92t30.5 -60.5
q-8 -16 -29.5 -28t-44.5 -15.5t-43 1.5q-38 13 -48.5 49.5t1.5 82.5t34 101.5t46 104t41.5 92t16.5 62.5q-8 -14 -44 -68.5t-67 -105t-63 -109.5t-45.5 -104.5t-0.5 -66.5q-41 -41 -89 -36q-21 8 -34 22t-18 36.5t-7 43.5t4 53.5t11 56t17.5 61.5t19.5 59t21 59q7 19 10 28
q7 20 16.5 52.5t11.5 38.5q4 10 4 20q-35 -61 -47 -94q-4 -9 -10 -24.5t-9 -24.5q-5 -13 -13.5 -36.5t-10.5 -30.5q-19 -59 -39 -105t-51 -91t-67.5 -73t-88.5 -42t-114 -7q-82 8 -136 77t-54 157q0 100 70.5 171.5t170.5 71.5q92 0 140 -56q40 -46 16 -91q-21 -39 -82 -55
q10 20 1 32.5t-27 11.5q-29 0 -38 -33q-10 -37 15 -61q18 -17 49 -16z" />
    <glyph glyph-name="N" unicode="N" horiz-adv-x="823" 
d="M604 530q-9 -15 -32 -58q-3 -6 -6 -13.5t-5.5 -12.5t-3.5 -8q-4 -9 -10 -24.5t-9 -24.5q-5 -13 -13.5 -36.5t-10.5 -30.5q-19 -59 -39 -105t-50.5 -91t-67 -73t-88.5 -42t-113 -7q-84 8 -138 76.5t-54 157.5q0 100 70.5 171.5t170.5 71.5q93 0 141 -56q40 -46 16 -91
q-22 -39 -83 -55q11 20 1.5 32.5t-27.5 11.5q-29 0 -38 -33q-10 -37 15 -61q18 -17 49 -16q29 0 55.5 12.5t48.5 37t35 44t31 48.5q25 48 38 71q56 111 92 163q-21 16 -50.5 20t-54.5 -10.5t-27 -47.5q0 -25 16.5 -36.5t38.5 1.5q-15 -30 -45.5 -46.5t-64.5 -14.5
q-44 5 -77.5 37.5t-33.5 74.5q1 55 38.5 90.5t88.5 40.5q57 6 117 -14t94 -47q84 78 152 72q10 -1 18 -4t14.5 -7t11.5 -9t8.5 -11t5.5 -12.5t3 -13.5q2 -18 -8 -34t-26 -24.5t-33 -7.5q4 23 -8 38.5t-33 17.5q-39 3 -73 -41v-1q45 -64 11 -150q-63 -190 -63 -294
q27 64 45 104t51.5 108.5t62 116t67 98.5t76.5 84q36 30 74 35.5t64 -11t42 -43t11 -60.5t-33 -63q-48 89 -166 -39q-102 -109 -195 -300q-41 -85 -61 -149q-43 -41 -89 -36q-20 8 -33.5 22t-18 36t-6.5 43t4 53.5t11 56t17 61.5t19 58.5t21 58.5l3 10.5t3 9t4 10.5
q6 16 11 33t9.5 33.5t7.5 24.5q4 10 4 19z" />
    <glyph glyph-name="O" unicode="O" 
d="M425 539q134 167 255 159q75 -5 115 -73q38 -68 12 -138q-12 -33 -37 -57q3 -15 -12.5 -76t-25.5 -89q-26 -76 -64 -132t-79.5 -85.5t-84 -40t-81.5 -2.5q-85 17 -124 81.5t-29 150t60 173.5q1 1 3 4t3 5q-32 7 -56 0.5t-42 -21.5t-26.5 -36.5t-9 -43t11 -43t32.5 -34.5
q-63 -18 -109.5 -9.5t-77 37.5t-45 63.5t-14.5 67.5q2 68 47 119.5t127 56.5q105 15 249 -37h2zM468 122q30 0 63.5 41.5t59 106.5t35.5 131q-21 -2 -63 8t-49 11q-52 -101 -67 -197t21 -101zM732 530q32 22 26 56q-6 30 -37 34q-61 6 -146 -104q-4 -6 -9 -12q32 -8 62 -8
q0 4 -1.5 11.5t-2.5 11.5q24 31 54 35t54 -24z" />
    <glyph glyph-name="P" unicode="P" horiz-adv-x="763" 
d="M568 608v1q-19 4 -40 3t-38.5 -5.5t-29.5 -19t-14 -36.5q0 -25 16.5 -36.5t39.5 1.5q-16 -30 -46 -46.5t-64 -14.5q-44 5 -77.5 37.5t-33.5 74.5q0 41 22.5 72t57.5 46q1 0 10 5h2q17 6 34 8q7 1 21 1q29 1 65.5 -4t76.5 -15.5t69 -24.5q72 59 132 54q27 -3 42.5 -19
t18.5 -38q3 -27 -19 -47.5t-48 -18.5q4 23 -8.5 38.5t-33.5 17.5q-24 2 -44 -13q54 -42 78 -97t17 -103q-6 -83 -58.5 -132.5t-130.5 -58.5q-46 -4 -94 19q-23 -61 -51 -106.5t-68 -83.5t-95 -54.5t-123 -8.5q-82 8 -136 77t-54 157q0 100 70.5 171.5t170.5 71.5
q92 0 140 -56q40 -46 16 -91q-21 -39 -82 -55q10 20 1 32.5t-27 11.5q-29 0 -38 -33q-10 -37 15 -61q18 -17 49 -16q29 0 55.5 12.5t48.5 37t35 44t31 48.5q25 48 38 71q57 111 87 155q1 1 4.5 6.5l7 11t4.5 6.5h-3q-12 3 -19 3zM538 389l-2 -5q31 -5 60 6.5t48.5 34.5
t29 51t1.5 58.5t-35 52.5q-3 -4 -5 -6q-13 -19 -26.5 -41.5t-23.5 -42t-17.5 -35t-10.5 -24.5q-4 -9 -10 -24.5t-9 -24.5z" />
    <glyph glyph-name="Q" unicode="Q" horiz-adv-x="648" 
d="M434 587q-80 -22 -145 -141q-52 -95 -55 -167q-2 -46 22 -42q20 2 52 37q-3 -31 -28 -54.5t-52.5 -34t-48.5 -10.5q-89 1 -106 85q-17 86 44 201q65 124 174 185q102 57 210 35q54 -11 91 -49t49.5 -93.5t3.5 -119t-47.5 -132.5t-101.5 -126q-134 -101 -251 -124h-1
q-2 0 -4.5 -1t-3.5 -1q11 -14 34.5 -46t37 -49t34.5 -38t41.5 -30.5t42.5 -8.5q28 1 57.5 17t40 40t-22.5 53q-24 20 17 22q4 0 12 1h9q57 3 93.5 -20.5t46 -59.5t-2.5 -78t-45 -75q-71 -73 -178 -66q-41 2 -77.5 19.5t-62 41t-52 61.5t-43 68t-40 75.5t-37.5 69.5
q-83 -5 -124 44q-30 36 -10 68q17 28 65 27q65 -7 111 -61q148 50 269 283q61 127 36 179q-16 31 -54 15z" />
    <glyph glyph-name="R" unicode="R" horiz-adv-x="763" 
d="M729 -52q-6 -41 -61 -69q-69 -35 -131 -8q-92 39 -88 198q2 60 19 134q-24 -50 -52 -87t-65.5 -66t-87 -41t-109.5 -5q-82 8 -136 77t-54 157q0 100 70.5 171.5t170.5 71.5q91 0 139 -55q41 -46 17 -91q-20 -40 -84 -56q11 20 2.5 32.5t-27.5 11.5q-29 0 -38 -33
q-10 -37 16 -61q18 -17 49 -16q29 0 55 12.5t47.5 37t35 44t31.5 48.5q24 48 38 71q53 104 88 155q1 1 8 12t8 12h-3q-12 3 -19 3v1q-19 4 -40 3t-38.5 -5.5t-29.5 -19t-14 -36.5q0 -25 16.5 -36.5t39.5 1.5q-16 -30 -46 -46.5t-64 -14.5q-45 5 -78.5 37.5t-32.5 74.5
q0 41 22.5 72t57.5 46q3 3 10 5h2q17 6 34 8q8 1 20 1h1q29 1 65.5 -4t76 -15.5t68.5 -24.5q72 59 133 54q27 -3 42.5 -19t18.5 -38q3 -27 -19 -47.5t-48 -18.5q3 23 -9 38.5t-33 17.5q-20 2 -42 -12q47 -33 72 -77t26.5 -86t-15 -82.5t-46 -69.5t-72.5 -44t-91 -9
q13 -2 20 -24.5t9.5 -55t11 -71t21.5 -72t41.5 -59t70.5 -32.5zM538 389l-9 -22q26 -3 52 6.5t46.5 27.5t34 42.5t17 49t-6 50t-33.5 44.5l-2 -5l-2 -1q-25 -35 -47 -77.5t-31 -65.5q-2 -6 -5 -12.5t-5 -12t-4.5 -12t-4.5 -12.5z" />
    <glyph glyph-name="S" unicode="S" horiz-adv-x="712" 
d="M214 46q-117 -71 -211 -33q-63 25 -81 84q-19 69 40 124q13 13 28 22q32 -67 116 -57q-25 77 -8 144.5t67 113.5q48 45 114 56.5t124.5 -12t85.5 -76.5q12 10 79 66q3 29 10 73q6 38 18.5 66t27 43.5t31.5 23t33 6.5t29 -9q31 -23 34 -56.5t-15 -65t-40.5 -56.5
t-44.5 -39q0 -9 1 -28q0 -24 -0.5 -49.5t-1 -51.5t-4.5 -52.5t-8.5 -51.5t-14 -49.5t-22 -46.5t-30.5 -42t-40 -36.5t-52 -30t-65 -21.5q-112 -17 -200 41zM547 344q-85 -92 -160 -158q26 -5 45.5 -5t36 10.5t28.5 24t21.5 35t16.5 43.5t12 50zM657 556q5 5 24 20
q24 16 21 34q-3 14 -15 9q-18 -7 -28 -48q0 -5 -2 -15zM287 264q58 35 137 96q-83 23 -119 -10t-18 -86z" />
    <glyph glyph-name="T" unicode="T" horiz-adv-x="572" 
d="M643 590h-1q-1 -1 -3.5 -4t-3.5 -5q-14 -31 -56.5 -130t-74 -167t-77.5 -141t-85 -99q-79 -53 -188 -40q-82 8 -136 77t-54 157q0 100 70.5 171.5t170.5 71.5q91 0 139 -55q41 -46 17 -91q-20 -40 -84 -56q11 20 2.5 32.5t-26.5 11.5q-29 0 -38 -33q-10 -37 15 -61
q18 -17 49 -16q29 0 55 12.5t48 37t35 43.5t31 49q10 20 32 62t35.5 67.5t34 59t40.5 59.5q-20 5 -41.5 6.5t-45 -1.5t-39.5 -17.5t-18 -39.5q0 -25 16.5 -36.5t39.5 1.5q-16 -30 -46 -46.5t-64 -14.5q-44 5 -77.5 37.5t-33.5 74.5q0 54 37.5 90t88.5 41q88 10 193 -29h1
l4 -2h1l4 -1l1 -1h4l5 -3h3l2 -1h3l1 -1l4 -2h1l4 -1h1l4 -1h1l10 -3l4 -1l1 -1l4 -1h1l4 -2h4l3 -1h1l4 -1h1l4 -1h4l2 -2h4l1 -1h4l1 -1h5l4 -2h1l5 -1h8l3 -1h16l1 -1h17l2 1h8h5q1 0 2 0.5t2 0.5h1h5l1 1h4l3 2h6l5 2h3l2 2h3l3 1l3 1h2l3 1l11 5l3 2l5 2q1 0 2.5 0.5
l1.5 0.5l2 2q1 0 3 1t3 1q2 3 5 4l2 1q1 0 2.5 1l1.5 1l1 1l4 3l3 2l3 2l3 2l2 1l3 3l4 3l2 1l3 2l4 3l5 5l4 3l2 2q3 3 4 3l3 2l3 4l2 3q2 1 6 5q38 -19 49.5 -47.5t-1 -55.5t-44 -50t-74.5 -33l-1 -0.5l-1 -0.5h-7l-1 -1h-26l-2 1h-6l-4 1h-4l-2 2h-4l-3 1h-3l-2 1h-3
l-3 1h-3l-1 2h-4l-2 1h-1l-3 1h-1l-3 1l-4 2h-1l-2 1l-8 2l-3 2h-1l-2 1h-2l-2 1l-8 3l-7 3h-3l-1 2h-3l-1 1h-1l-3 1l-1 1h-3l-1 2l-2 1h-2l-2 1h-1l-3 1l-4 2l-7 2v2l-8 2l-3 1h-1q-2 1 -5 2t-5 2l-1 1h-3l-1 2h-3l-1 1h-2q-3 1 -11 4z" />
    <glyph glyph-name="U" unicode="U" horiz-adv-x="476" 
d="M81 558q19 -30 21 -64.5t-12 -62.5t-43 -46t-65 -17q-56 1 -86.5 36.5t-29.5 85.5q1 35 15 69t39.5 63t66.5 46.5t91 16.5q77 -2 123.5 -36.5t56.5 -87t-6 -114t-56 -119.5q-32 -42 -66 -92q-17 -24 -24.5 -42t-5 -26t11.5 -9t26 9.5t36 29.5q60 56 133 180t135 265h133
q-150 -270 -217.5 -419t-47.5 -191q14 -28 35 -17q23 12 21 54q38 -17 55 -48.5t10.5 -65t-25.5 -63.5t-53 -48t-71 -15q-64 5 -93.5 54t-18.5 133t63 190q-94 -176 -198 -201q-68 -17 -109 34q-39 47 -21 106q10 34 40 59q23 20 47.5 44.5t51.5 55.5t47.5 63t36.5 66.5
t18.5 66t-6.5 61.5q-8 21 -26 32.5t-36 12t-32.5 -9t-17.5 -26.5q-3 -20 13 -27t40 14z" />
    <glyph glyph-name="V" unicode="V" horiz-adv-x="400" 
d="M231 633q36 81 103 105q62 22 103 -20q56 -56 19 -185q-12 -41 -33 -87q-19 -39 -40.5 -81t-59.5 -106t-75.5 -114t-84 -91t-87.5 -50q-33 -11 -61.5 2.5t-44 43.5t-20.5 71.5t8 86.5q14 49 59.5 118.5t55.5 89.5q42 85 21 146q-8 21 -26 32.5t-36.5 12t-33.5 -9
t-17 -26.5q-2 -20 14 -26.5t38 13.5q20 -30 22 -64.5t-12 -62.5t-42.5 -46t-66.5 -17q-54 1 -84.5 36.5t-29.5 85.5q1 35 15 69t39.5 63t66.5 46.5t91 16.5q63 -2 105.5 -26t60.5 -62.5t17.5 -85.5t-19.5 -96q-1 -4 -39 -86q-54 -117 -9 -122h6h2q23 9 54 53.5t55 104
t36.5 118t-4.5 101.5t-66 49z" />
    <glyph glyph-name="W" unicode="W" horiz-adv-x="684" 
d="M516 633q36 81 102 105q62 22 103 -20q56 -56 20 -185q-12 -41 -33 -86q-16 -35 -35.5 -72t-51 -93t-66 -103.5t-72.5 -90.5t-79 -66.5t-77 -20.5q-27 10 -41.5 30t-16 48.5t4 59t18.5 69.5q-143 -217 -248 -207q-45 4 -70 43.5t-24 99.5t31 118q6 14 18.5 35t23.5 40
t24 43t22 46.5t15 46t5.5 46.5t-7.5 43q-8 21 -26 32.5t-36 12t-32.5 -9t-17.5 -26.5q-3 -20 13 -27t38 14q21 -30 22.5 -64.5t-12 -62.5t-42.5 -46t-67 -17q-54 1 -84.5 36.5t-29.5 85.5q1 34 15 68.5t39.5 63.5t66.5 46.5t91 16.5q63 -2 106 -26t60.5 -62.5t17 -85.5
t-19.5 -96q-3 -10 -14.5 -36t-21 -50.5t-17 -51t-3.5 -45.5t21 -25q28 -10 79 53.5t86 145.5q21 44 30.5 80.5t4.5 63.5t-28 32q11 27 39.5 33t50.5 -10q1 0 1.5 -0.5l0.5 -0.5q78 -58 28 -199q0 -1 -5 -16t-10 -30.5t-11 -37.5t-8.5 -40.5t-3 -36t5 -28t17.5 -11.5
q30 -2 81 80q65 106 80 209q17 127 -71 139z" />
    <glyph glyph-name="X" unicode="X" horiz-adv-x="672" 
d="M87 490q1 34 15 68.5t39.5 63.5t66.5 46.5t91 16.5q41 -1 72.5 -11.5t52 -28t34.5 -43t21 -52.5t10 -62q24 26 76 82.5t68 74.5q98 7 148 12q-30 -21 -81 -72t-92.5 -96.5t-115.5 -128.5q-1 -8 -1 -26q-1 -45 -2.5 -87.5t5 -81.5t18.5 -69t38 -51t65 -27
q-39 -46 -80 -68.5t-76 -20t-63 23.5t-44 64.5t-16 101.5q2 22 12 85q-87 -92 -148 -144t-97 -56q-72 -9 -95 45q-20 45 7 92q32 55 98 47h4q-32 -21 -29 -40q2 -20 40 -5q68 27 181 149q19 19 61 64l1 3q3 20 4 37t2.5 49.5t-2.5 57.5t-11.5 50t-25 39t-42.5 14
q-12 0 -22 -4t-16.5 -12t-8.5 -19q-3 -20 13 -27t38 14q21 -30 22.5 -64.5t-12 -62.5t-43 -46t-66.5 -17q-54 1 -84.5 36.5t-29.5 85.5zM370 356h1h-1z" />
    <glyph glyph-name="Y" unicode="Y" horiz-adv-x="438" 
d="M372 653h141q-18 -40 -64 -146.5t-81.5 -184.5t-66.5 -141q-99 -199 -253 -179q-55 7 -90 38.5t-38 84.5q-2 36 12.5 63.5t37.5 41t52.5 11t57.5 -22.5q-28 -7 -33 -31q-5 -22 16 -26q10 -2 24 1q37 8 82 55q-45 -15 -77.5 19.5t-30.5 79.5q1 27 14.5 60t25 56.5t16.5 60
t-10 69.5q-8 21 -26 32.5t-36 12t-33 -9t-17 -26.5q-2 -20 14 -27t38 14q20 -30 22 -64.5t-12 -62.5t-42.5 -46t-66.5 -17q-36 0 -63 18t-39.5 45t-11.5 59q1 34 14.5 68.5t39 63.5t67 46.5t91.5 16.5q168 -5 179 -134q5 -63 -24 -145q-2 -6 -9.5 -23t-12.5 -31t-5 -21
q0 -16 13 -18q13 -3 34 12t39 47q14 28 28 61t26.5 65t22 59t20 55t15.5 41z" />
    <glyph glyph-name="Z" unicode="Z" horiz-adv-x="700" 
d="M634 652q21 16 43 24.5t40 8.5t32.5 -4.5t22.5 -11.5t8 -14q0 -10 -2.5 -17.5t-8.5 -13t-11.5 -9.5t-15 -6.5t-16.5 -4t-18 -2.5t-16.5 -1t-16.5 -0.5t-13 -0.5q-42 -23 -79 -55t-62.5 -61.5t-52.5 -71.5t-42 -71t-39 -75.5t-37 -70.5q-7 -16 -15 -33q118 -57 147 -10
q16 25 -2 57q-5 8 -11 13q94 4 129 -58q28 -50 1 -101q-30 -59 -103 -61q-36 -4 -68.5 4t-59 26t-42 32t-32.5 33q-79 -102 -190 -96q-43 2 -77 18.5t-52.5 40.5t-28 53t-2.5 58.5t23 55t48.5 44t75.5 23.5q17 2 36 -2t33 -10t31.5 -16.5t27 -17.5t24 -18t17.5 -13l12 21
q29 48 46 76.5t51.5 79t61.5 83.5t63 66t69 49q-158 -10 -220 -34q-33 -15 -35 -51q0 -24 16.5 -36t37.5 2q-15 -30 -44.5 -47t-64.5 -14q-44 4 -77.5 36.5t-33.5 75.5q1 55 38 90.5t89 40.5q186 20 365 -3zM137 202q7 -12 26 -15t36 0t32 8q-23 26 -44 35.5t-33 6.5
t-17 -13q-6 -11 0 -22z" />
    <glyph glyph-name="bracketleft" unicode="[" horiz-adv-x="493" 
d="M166 387v-136q-42 44 -52 104.5t16 116.5h179q27 0 48 -15.5t30 -37t5 -47t-23.5 -44.5t-45 -23t-47 5t-36.5 29.5t-15 47.5h-59zM-30 666q0 16 11.5 27t26.5 11h557q16 0 27.5 -11t11.5 -27v-557q0 -16 -11.5 -27t-27.5 -11h-557q-10 0 -19 5t-14 14t-5 19v557zM96 531
q-51 -74 -42.5 -166.5t73.5 -158.5q75 -74 180 -75.5t184 75.5l-42 42q-44 -44 -105.5 -55t-118.5 15v63q38 -27 84 -27q59 0 101 42t42 101q0 24 -7 45.5t-20.5 39.5t-31 31t-39.5 20.5t-45 7.5h-136q58 55 138.5 54t137.5 -58l42 42q-75 75 -182 75q-65 0 -121.5 -30.5
t-91.5 -82.5zM150 -87q2 0 3 -1.5t1 -3.5v-2h-4v2v1h-18l-0.5 -0.5l-0.5 -0.5v-6l1 -1h18q2 0 3 -1.5t1 -3.5v-6q0 -2 -1 -3.5t-3 -1.5h-18q-2 0 -3.5 1.5t-1.5 3.5v2h4v-2h1h18v0v6v1h-18q-2 0 -3.5 1.5t-1.5 3.5v6q0 2 1.5 3.5t3.5 1.5h18zM136 -71h-17v99h-18v13h53v-13
h-18v-99zM75 -53v94h16v-96q0 -16 -17 -16h-20q-17 0 -17 16v96h17v-94q0 -3 1 -4t4 -1h10q4 0 5 1t1 4zM7 41q16 0 16 -15v-38q0 -15 -16 -15h-21v-44h-16v112h37zM7 -9v32q0 3 -1 4t-4 1h-16v-43h16q3 0 4 1.5t1 4.5zM189 -91v4h28v-4h-12v-24h-4v24h-12zM425 28v13h54
v-13h-19v-99h-16v99h-19zM441 -87q3 0 4 -1.5t1 -3.5v-18q0 -2 -1.5 -3.5t-3.5 -1.5h-17q-2 0 -3.5 1.5t-1.5 3.5v18q0 2 1.5 3.5t3.5 1.5h17zM442 -110v18q0 1 -1 1h-17l-1 -1v-18h1h17h1zM383 -115h-4v28h4v-28zM576 41v-99h28v-13h-44v112h16zM525 41q17 0 17 -15v-81
q0 -16 -17 -16h-20q-17 0 -17 16v81q0 15 17 15h20zM526 -53v76q0 3 -1.5 4t-4.5 1h-10q-3 0 -4 -1t-1 -4v-76q0 -3 1 -4t4 -1h10q3 0 4.5 1t1.5 4zM248 41h24l21 -112h-16l-5 26h-23l-5 -26h-16zM251 -32h19l-10 59zM421 -58v-13h-49v112h48v-13h-32v-34h26v-13h-26v-39h33
zM218 -10q0 -13 -12 -15l18 -46h-18l-17 45h-8v-45h-16v112h36q17 0 17 -15v-36zM202 -7v30q0 3 -1 4t-5 1h-15v-41h15q4 0 5 1t1 5zM275 -110v23h4v-23q0 -2 -1.5 -3.5t-3.5 -1.5h-18q-2 0 -3 1.5t-1 3.5v23h4v-23v0h18h1zM339 41q17 0 17 -15v-20h-16v17q0 4 -1 5t-5 1h-9
q-3 0 -4 -1t-1 -5v-76q0 -3 1 -4t4 -1h9q4 0 5 1t1 4v17h16v-19q0 -16 -17 -16h-19q-16 0 -16 16v81q0 15 16 15h19zM337 -87q2 0 3.5 -1.5t1.5 -3.5v-18q0 -2 -1.5 -3.5t-3.5 -1.5h-22v28h22zM338 -110v18q0 1 -1 1h-17l-1 -1v-18h1h17h1zM519 767q-14 0 -14 13v26
q0 13 14 13h15q14 0 14 -13v-14h-14v12q0 2 -1 3t-3 1h-7q-3 0 -4 -1t-1 -3v-22q0 -2 1 -3t4 -1h11q14 0 14 -14v-27q0 -14 -14 -14h-15q-14 0 -14 14v14h14v-12q0 -3 1 -3.5t3 -0.5h7q3 0 3.5 0.5t0.5 3.5v23q0 3 -0.5 4t-3.5 1h-11zM415 735v-12h-37v96h14v-84h23z
M460 723q-14 0 -14 14v82h13v-80q0 -3 1 -3.5t4 -0.5h9q3 0 3.5 0.5t0.5 3.5v80h14v-82q0 -14 -14 -14h-17zM330 746l-3 -23h-14l17 96h20l18 -96h-14l-4 23h-20zM340 807l-8 -50h16zM69 735v-12h-41v96h40v-11h-26v-30h22v-11h-22v-32h27zM-16 760v-37h-14v96h31
q15 0 15 -13v-32q0 -14 -15 -14h-17zM-16 808v-37h13q3 0 4 1t1 4v28q0 2 -1 3t-4 1h-13zM576 735h28v-12h-42v96h40v-11h-26v-30h22v-11h-22v-32zM102 762h-8v-39h-14v96h32q14 0 14 -13v-30q0 -12 -10 -14l15 -39h-15zM94 808v-35h14q2 0 3 1t1 4v26q0 2 -1 3t-3 1h-14z
M210 723q-15 0 -15 14v69q0 13 15 13h17q14 0 14 -13v-69q0 -14 -14 -14h-17zM209 804v-65q0 -3 1 -3.5t4 -0.5h9q2 0 3 0.5t1 3.5v65q0 2 -1 3t-3 1h-9q-3 0 -4 -1t-1 -3zM153 767q-14 0 -14 13v26q0 13 14 13h15q14 0 14 -13v-14h-14v12q0 2 -1 3t-3 1h-7q-3 0 -3.5 -1
t-0.5 -3v-22q0 -2 0.5 -3t3.5 -1h11q14 0 14 -14v-27q0 -14 -14 -14h-15q-14 0 -14 14v14h14v-12q0 -3 1 -3.5t4 -0.5h6q3 0 3.5 0.5t0.5 3.5v23q0 3 -0.5 4t-3.5 1h-11zM269 793v-70h-13v96h15l19 -67v67h13v-96h-14z" />
    <glyph glyph-name="backslash" unicode="\" horiz-adv-x="356" 
d="M-37 701q35 -8 74 -76.5t73.5 -163.5t67.5 -191t64.5 -172t53.5 -92q-32 -24 -65 -17q-34 7 -73 75.5t-74 163.5t-67.5 191.5t-63.5 172t-53 91.5q29 24 63 18z" />
    <glyph glyph-name="bracketright" unicode="]" horiz-adv-x="488" 
d="M-65 666q0 16 11.5 27t26.5 11h557q16 0 27.5 -11t11.5 -27v-557q0 -16 -11.5 -27t-27.5 -11h-557q-15 0 -26.5 11t-11.5 27v557zM61 531q-51 -74 -42.5 -166.5t73.5 -158.5q75 -74 180 -75.5t184 75.5l-42 42q-44 -44 -105.5 -55t-118.5 15v63q38 -27 84 -27
q39 0 72 19.5t52 52.5t19 71q0 60 -42 102t-101 42h-136q58 55 138.5 54t137.5 -58l42 42q-76 75 -182 75q-65 0 -121.5 -30.5t-91.5 -82.5zM131 387v-67.5v-68.5q-42 44 -52 104.5t16 116.5h179q27 0 48 -15.5t30 -37t5 -47t-23.5 -44.5t-45 -23t-47 5t-36.5 29.5t-15 47.5
h-59zM115 -87q2 0 3.5 -1.5t1.5 -3.5v-2h-5v2v1h-18l-0.5 -0.5l-0.5 -0.5v-6l1 -1h18q2 0 3.5 -1.5t1.5 -3.5v-6q0 -2 -1.5 -3.5t-3.5 -1.5h-18q-2 0 -3.5 1.5t-1.5 3.5v2h4v-2h1h18v0v6v1h-18q-2 0 -3.5 1.5t-1.5 3.5v6q0 2 1.5 3.5t3.5 1.5h18zM101 -71h-17v99h-18v13h53
v-13h-18v-99zM-28 41q16 0 16 -15v-38q0 -15 -16 -15h-21v-44h-16v112h37zM-28 -9v32q0 3 -1 4t-4 1h-16v-43h16q3 0 4 1.5t1 4.5zM40 -53l-1 94h17v-96q0 -16 -17 -16h-20q-17 0 -17 16v96h17v-94q0 -3 1 -4t4 -1h10q4 0 5 1t1 4zM348 -115h-4v28h4v-28zM406 -87
q3 0 4 -1.5t1 -3.5v-18q0 -2 -1.5 -3.5t-3.5 -1.5h-17q-2 0 -3.5 1.5t-1.5 3.5v18q0 2 1.5 3.5t3.5 1.5h17zM407 -110v18q0 1 -1 1h-17l-1 -1v-18h1h17h1zM154 -91v4h28v-4h-12v-24h-4v24h-12zM390 28v13h54v-13h-19v-99h-16v99h-19zM490 41q17 0 17 -15v-81q0 -16 -17 -16
h-20q-17 0 -17 16v81q0 15 17 15h20zM491 -53v76q0 3 -1.5 4t-4.5 1h-10q-3 0 -4 -1t-1 -4v-76q0 -3 1 -4t4 -1h10q3 0 4.5 1t1.5 4zM541 41v-99h28v-13h-44v112h16zM386 -58v-13h-49v112h48v-13h-32v-34h26v-13h-26v-39h33zM183 -10q0 -13 -12 -15l18 -46h-18l-17 45h-8
v-45h-16v112h36q17 0 17 -15v-36zM167 -7v30q0 3 -1 4t-5 1h-15v-41h15q4 0 5 1t1 5zM240 -110v23h4v-23q0 -2 -1.5 -3.5t-3.5 -1.5h-18q-2 0 -3.5 1.5t-1.5 3.5v23h5v-23v0h18h1zM304 41q17 0 17 -15v-20h-16v17q0 4 -1 5t-5 1h-9q-3 0 -4 -1t-1 -5v-76q0 -3 1 -4t4 -1h9
q4 0 5 1t1 4v17h16v-19q0 -16 -17 -16h-19q-16 0 -16 16v81q0 15 16 15h19zM302 -87q2 0 3.5 -1.5t1.5 -3.5v-18q0 -2 -1.5 -3.5t-3.5 -1.5h-22v28h22zM303 -110v18q0 1 -1 1h-17l-1 -1v-18h1h17h1zM213 41h24l21 -112h-16l-5 26h-23l-5 -26h-16zM216 -32h19l-10 59z
M484 767q-14 0 -14 13v26q0 13 14 13h15q14 0 14 -13v-14h-14v12q0 2 -1 3t-3 1h-7q-3 0 -4 -1t-1 -3v-22q0 -2 1 -3t4 -1h11q14 0 14 -14v-27q0 -14 -14 -14h-15q-14 0 -14 14v14h14v-12q0 -3 1 -3.5t3 -0.5h7q3 0 3.5 0.5t0.5 3.5v23q0 3 -0.5 4t-3.5 1h-11zM380 735v-12
h-37v96h14v-84h23zM425 723q-14 0 -15 14v82h14v-80q0 -3 1 -3.5t4 -0.5h9q3 0 3.5 0.5t0.5 3.5v80h14v-82q0 -14 -14 -14h-17zM-51 760v-37h-14v96h31q15 0 15 -13v-32q0 -14 -15 -14h-17zM-51 808v-37h13q3 0 4 1t1 4v28q0 2 -1 3t-4 1h-13zM34 735v-12h-41v96h40v-11h-26
v-30h22v-11h-22v-32h27zM541 735h28v-12h-42v96h40v-11h-26v-30h22v-11h-22v-32zM59 762v-39h-14v96h32q14 0 14 -13v-30q0 -12 -10 -14l15 -39h-15l-14 39h-8zM59 808v-35h14q2 0 3 1t1 4v26q0 2 -1 3t-3 1h-14zM234 793v-70h-13v96h15l19 -67v67h13v-96h-14zM295 746
l-3 -23h-14l17 96h20l18 -96h-14l-4 23h-20zM305 807l-8 -50h16zM118 767q-14 0 -14 13v26q0 13 14 13h15q14 0 14 -13v-14h-14v12q0 2 -1 3t-3 1h-7q-2 0 -3 -1t-1 -3v-22q0 -2 0.5 -3t3.5 -1h11q14 0 14 -14v-27q0 -14 -14 -14h-15q-14 0 -14 14v14h14v-12q0 -3 1 -3.5
t4 -0.5h6q3 0 3.5 0.5t0.5 3.5v23q0 3 -0.5 4t-3.5 1h-11zM175 723q-15 0 -15 14v69q0 13 15 13h17q14 0 14 -13v-69q0 -14 -14 -14h-17zM174 804v-65q0 -3 1 -3.5t4 -0.5h9q2 0 3 0.5t1 3.5v65q0 2 -1 3t-3 1h-9q-3 0 -4 -1t-1 -3z" />
    <glyph glyph-name="asciicircum" unicode="^" horiz-adv-x="249" 
d="M219 594q55 -104 9 -132q-25 -15 -54 1q-4 2 -7 4q22 13 15 47.5t-25.5 69t-32.5 47.5q-14 -13 -32 -47.5t-25.5 -69t15.5 -47.5q-21 -17 -51 -9q-45 13 -26 80q8 26 24 56q21 41 55 75q25 25 40 25t40 -25q32 -31 55 -75z" />
    <glyph glyph-name="underscore" unicode="_" horiz-adv-x="444" 
d="M269 19q45 0 74.5 -30t15.5 -77q-5 4 -29.5 6t-62 2.5t-68.5 0.5t-66 -0.5t-38 -0.5q-45 0 -75 30t-16 77q5 -4 30 -5.5t62.5 -2t68.5 -1t66 0t38 0.5z" />
    <glyph glyph-name="a" unicode="a" horiz-adv-x="449" 
d="M308 401h97q-69 -74 -96 -176q-19 -75 4 -89q28 -17 97 82q1 1 2 3q3 5 9 7t11.5 0.5t10.5 -4.5t7 -8t0 -11q-55 -100 -122 -159q-114 -101 -164 38q-18 -27 -37.5 -46t-42.5 -29.5t-49 -5t-51 29.5q-58 53 -29 160q27 94 99 158q84 75 162 42q33 -13 60 -47q16 37 32 55
zM195 238q16 44 13.5 75t-22.5 31q-19 0 -43.5 -31t-40.5 -75q-15 -43 -12.5 -74.5t21.5 -31.5t43.5 31.5t40.5 74.5z" />
    <glyph glyph-name="b" unicode="b" horiz-adv-x="420" 
d="M386 224q6 8 15.5 8.5t17 -7t4.5 -16.5q-39 -72 -72 -118.5t-57 -65.5t-45.5 -20t-36 10t-28.5 33q-30 -24 -73.5 -36.5t-80.5 -5.5q-33 4 -52.5 23.5t-23 52.5t-2 68t17 85t28 87t36 90.5t35.5 80t33 69.5q5 12 7.5 17.5t6.5 13.5t6.5 14t4.5 10q47 -2 141 -5
q-60 -133 -91 -204l3 1q42 6 85 -34q28 -25 35 -65t-3.5 -83t-34.5 -86q12 -9 25 -7q30 5 68 49q15 18 31 41zM106 135q11 0 26 12q-14 21 -26 20q-16 0 -19 -16q5 -16 19 -16zM203 242q11 26 10 65.5t-19 39.5q-17 0 -45.5 -39t-38.5 -66l-5 -15l1 2l1 4q38 8 81 -26
q9 17 15 35z" />
    <glyph glyph-name="c" unicode="c" horiz-adv-x="321" 
d="M-16 33q-26 23 -34.5 60t0.5 76t28 80.5t48.5 73.5t63 54.5t70.5 24.5t71 -16q46 -23 36 -72q-9 -46 -56 -70q-39 -20 -85 -11q30 17 61 59q36 50 0 52q-20 0 -44.5 -30.5t-40.5 -75.5q-14 -40 -12 -69q1 -31 16 -45t36.5 -11.5t45 13t42.5 27.5q4 5 11.5 14t11.5 13l5 6
q5 6 14 18t13 17q7 13 24.5 6t11.5 -22q-26 -47 -66.5 -100t-81.5 -80q-36 -27 -96 -25t-93 33z" />
    <glyph glyph-name="d" unicode="d" horiz-adv-x="471" 
d="M265 358l109 256q49 -3 141 -5l-110 -249l-4 -7l-8 -18l-68 -154q-13 -46 0 -49q38 -14 110 89q8 13 25.5 6t11.5 -22q-14 -26 -35 -56t-48 -63t-58 -56t-57 -25q-20 -2 -37 0q-2 0 -4.5 0.5t-3.5 0.5q-13 2 -30 10q-37 19 -35 68q-24 -38 -51 -59.5t-61.5 -22
t-67.5 30.5q-58 53 -29 159q27 95 100 160q85 74 162 41q26 -12 48 -35zM195 238q16 44 13.5 75t-21.5 31q-13 0 -28.5 -14t-30.5 -38.5t-25 -53.5q-16 -43 -14 -74.5t21 -31.5q20 0 44.5 31t40.5 75z" />
    <glyph glyph-name="e" unicode="e" horiz-adv-x="319" 
d="M321 205q-26 -47 -66.5 -100t-81.5 -80q-35 -27 -95.5 -25t-93.5 33q-26 23 -34.5 60t0.5 76t28 80.5t48.5 73.5t63 54.5t70.5 24.5t71 -16q26 -13 34 -36t-1 -47t-29 -42q-19 -21 -46.5 -41t-47 -31t-51.5 -28q3 -28 18.5 -39.5t36.5 -8.5t43.5 13.5t41.5 26.5
q37 42 55 68q7 13 24.5 6t11.5 -22zM102 238q-1 -4 -3 -10.5t-2 -9.5q39 17 83 65q48 53 16 60q-4 1 -9 1q-13 0 -28.5 -14t-31 -38.5t-25.5 -53.5z" />
    <glyph glyph-name="f" unicode="f" horiz-adv-x="487" 
d="M317 573q28 20 64.5 28t69.5 3.5t55 -28.5t21 -64q-15 -42 -42.5 -54.5t-78.5 6.5q30 18 26 38q-2 17 -24 9q-27 -9 -58 -56q-5 -8 -34 -54q-15 -36 -46 -109q51 -9 69 1q4 -29 -2 -45.5t-20.5 -22t-31.5 -5t-41 6.5q-78 -196 -126 -292q-98 -199 -252 -180
q-56 7 -91.5 38.5t-38.5 85.5q-2 35 12.5 63t37 41.5t52.5 11.5t58 -23q-28 -7 -33 -31q-5 -22 17 -26q10 -2 24 1q51 12 105 89q10 14 18.5 28.5t18.5 34.5t16 32.5t17 39t15 35t17 41t15 38.5q-36 3 -56.5 -12t-22.5 -57q-28 25 -33.5 58t14.5 56.5t59 25.5q13 0 64 -8
q38 93 77 157.5t89 98.5z" />
    <glyph glyph-name="g" unicode="g" horiz-adv-x="424" 
d="M299 401v1h99l-1 -1h8q-16 -35 -70.5 -160t-84.5 -190q-4 -12 -10 -25h-2q-6 -14 -43 -91q-98 -199 -252 -180q-56 7 -91.5 38.5t-38.5 85.5q-2 35 12.5 63t37 41.5t52.5 11.5t58 -23q-28 -7 -33 -31q-5 -22 17 -26q10 -2 24 1q53 12 110 97q-55 -28 -108 20
q-37 34 -37.5 94t29 116.5t75 103.5t99.5 54t103 -31q6 18 12 31h35zM195 238q16 44 13.5 75t-22 31t-44 -31t-39.5 -75q-16 -43 -13.5 -74.5t21.5 -31.5t44 31.5t40 74.5z" />
    <glyph glyph-name="h" unicode="h" horiz-adv-x="392" 
d="M12 0h-142q44 102 131.5 307t131.5 307q96 -3 142 -5q-42 -95 -118 -279q30 28 61.5 46t57 23.5t45 -0.5t26.5 -24q7 -15 3 -36.5t-16 -42t-26.5 -43t-29.5 -41.5t-25.5 -36.5t-13 -28t6.5 -15.5q38 -14 110 89q8 13 25.5 6t11.5 -22q-9 -16 -21 -35t-28.5 -42.5
t-34.5 -44.5t-37 -39t-39 -29.5t-38 -13.5q-60 -7 -78 44q-8 27 -2.5 57.5t18 61t25.5 54.5t20 39t2 14q-37 -5 -93 -110q-27 -66 -70 -161h-1v-2q-3 0 -4 2z" />
    <glyph glyph-name="i" unicode="i" horiz-adv-x="222" 
d="M156 575q28 0 48.5 -21t20.5 -49q0 -19 -9 -35.5t-25.5 -26t-34.5 -9.5q-30 0 -50.5 20.5t-20.5 50.5q0 14 5.5 27t15 22t22.5 15t28 6zM26 6q-61 -7 -86 28.5t-6 99.5q33 129 130 269l131 -1q-104 -192 -118 -238q-9 -28 0 -31q38 -14 109 89q6 8 16.5 8.5t18 -6.5
t3.5 -16q-14 -26 -35 -57t-48 -64t-58 -56t-57 -25z" />
    <glyph glyph-name="j" unicode="j" horiz-adv-x="196" 
d="M109 568q30 0 50.5 -20.5t20.5 -48.5q0 -30 -20.5 -50t-50.5 -20q-28 0 -49 20t-21 50q0 28 21 48.5t49 20.5zM31 397h70.5h71.5q-21 -46 -65 -147t-79.5 -179t-66.5 -141q-99 -199 -252 -179q-37 5 -65 19.5t-45.5 41t-19.5 62.5q-1 36 13.5 63.5t37.5 41t53 11.5
t57 -23q-28 -7 -33 -30q-5 -22 16 -27q10 -2 24 1q21 5 42 20t41 41t37.5 51.5t36 64t32 66.5t30 71t25 65t22.5 60.5t17 46.5z" />
    <glyph glyph-name="k" unicode="k" horiz-adv-x="389" 
d="M16 0h-73.5h-74.5q38 89 126.5 296t136.5 318q94 -3 142 -5q-102 -230 -123 -275q59 67 126 64q51 -2 67 -42q22 -57 -51 -131q-39 -40 -102 -78q16 -22 37 -29t41.5 -3t47.5 17q-30 -81 -100.5 -118t-101.5 7t14 181q51 19 67 61q12 31 -3 40q-20 13 -52 -37
q-8 -12 -17 -29q-37 -83 -107 -237z" />
    <glyph glyph-name="l" unicode="l" horiz-adv-x="230" 
d="M150 335l-68 -154q-14 -46 0 -49q39 -14 109 89q4 5 9.5 7t11.5 0.5t11 -4.5t6.5 -8t0.5 -11q-15 -26 -35.5 -56t-48 -63t-58.5 -56t-56 -25q-23 -2 -41 0t-34 11q-13 6 -21.5 15.5t-11.5 21.5t-4 23.5t2.5 27.5t6.5 28.5t10 30t11.5 28.5t12 28t10.5 24
q27 62 79.5 185.5t79.5 185.5q48 -3 141 -5l-112 -249h1l-4 -7z" />
    <glyph glyph-name="m" unicode="m" horiz-adv-x="596" 
d="M19 -2q-40 0 -74 16.5t-47 47.5q115 271 146 343q25 -1 72.5 -3t70.5 -3q-2 -5 -9 -21t-11 -23q31 19 61 31t58.5 17.5t45.5 -8t14 -46.5q90 58 146 55q59 -3 35 -90q-19 -43 -40.5 -99t-33.5 -85q39 -6 105 91q3 5 9 7t11.5 0.5t10.5 -4.5t7 -8t0 -11
q-15 -26 -35.5 -56.5t-47.5 -64.5t-57.5 -57.5t-56.5 -25.5h-6q-36 -4 -57.5 12t-26 43.5t-1.5 56.5t13 57l67 155q-39 -15 -75 -73q-60 -154 -105 -254q-42 0 -77 18t-41 51l110 258q-38 -14 -77 -77q-6 -13 -24 -60t-35.5 -88t-44.5 -102z" />
    <glyph glyph-name="n" unicode="n" horiz-adv-x="402" 
d="M16 -2q-40 0 -74 16.5t-47 47.5q71 166 146 343q24 -1 71.5 -3t71.5 -2q-3 -8 -9 -21t-8 -20q21 12 42 22t44 17t40 6.5t30 -8.5t14.5 -28.5t-5.5 -52.5q-15 -35 -28 -67t-24.5 -61.5t-22.5 -55.5q38 -7 106 90q8 13 25.5 6t11.5 -22q-15 -26 -35 -56.5t-47.5 -64.5
t-58 -57.5t-56.5 -25.5h-6q-36 -4 -57.5 12t-26 43.5t-1.5 56.5t13 57l67 155q-32 -13 -65 -57q-7 -19 -26.5 -68.5t-37.5 -92.5t-47 -109z" />
    <glyph glyph-name="o" unicode="o" horiz-adv-x="382" 
d="M343 221q6 7 16 7.5t17.5 -7t3.5 -16.5q-13 -24 -22 -38.5t-27 -40t-33.5 -40.5t-37 -26t-43.5 -10q-47 -49 -101 -49q-32 -1 -60.5 13.5t-49.5 39t-32.5 58.5t-11.5 71t15.5 77.5t46.5 76.5q37 43 98 62q53 17 57 -10q1 -8 -4 -20q57 60 96 10q36 -45 32 -133
q-3 -56 -24 -98q29 22 64 73zM117 130q-29 16 -25 82t38 122q-50 -53 -64 -124q-13 -69 26 -79q11 -3 25 -1zM183 161z" />
    <glyph glyph-name="p" unicode="p" horiz-adv-x="350" 
d="M130 308q115 126 171 84q41 -30 30 -129q-12 -111 -76 -193q-67 -88 -158 -83q-51 2 -80 64q-49 -134 -105 -283h-164q49 103 149.5 314.5t151.5 318.5h130q-8 -16 -16 -31t-17 -31.5t-16 -30.5zM159 182q36 74 22 106q-11 24 -38 -2q-21 -21 -42 -67q-35 -80 -17 -104
q13 -19 42 15q17 20 33 52z" />
    <glyph glyph-name="q" unicode="q" horiz-adv-x="449" 
d="M288 370l15 31h131q-23 -42 -44.5 -85t-44 -94l-37.5 -85t-39 -96t-33.5 -87t-37 -97t-33.5 -90h-164l132 277q-76 -78 -150 -11q-58 53 -27 160q26 94 99 158q84 75 162 42q32 -13 60 -47q0 3 11 24zM195.5 238.5q15.5 43.5 12.5 74.5t-22 31t-43.5 -31t-39.5 -75
q-17 -43 -14 -74.5t23 -31.5q19 0 43.5 31.5t40 75z" />
    <glyph glyph-name="r" unicode="r" horiz-adv-x="311" 
d="M277 224q6 8 16 8.5t17.5 -7t3.5 -16.5q-14 -26 -34.5 -56.5t-48 -63.5t-58 -56t-56.5 -25q-61 -7 -86 28t-7 100q23 86 70 171q-16 2 -30 5q-11 -18 -33 -55.5t-36 -61t-35.5 -54t-40.5 -50.5q-16 -13 -31 -7.5t-18.5 19.5t5.5 27q5 2 26 20q16 14 35.5 38t31.5 41
t34 50.5t27 41.5q-47 18 -45 54q2 30 19.5 47t42.5 21q44 6 57.5 -20.5t-8.5 -60.5q10 -1 29 -2t32 -2t27 -3.5t23.5 -7t12.5 -12.5q6 -13 -2 -30q-33 -66 -48.5 -115.5t-1.5 -54.5q18 -6 46 15.5t64 73.5zM62 369q4 6 4.5 12.5t-2.5 10t-9 0.5q-8 -3 -7.5 -11t14.5 -12z
" />
    <glyph glyph-name="s" unicode="s" horiz-adv-x="347" 
d="M101 297q60 50 100 92q-3 30 12.5 56.5t37.5 28.5q12 1 22 -5.5t15 -16.5t5.5 -20.5t-7.5 -19t-22 -10.5q18 -47 27 -95t7 -98t-18 -91t-52 -72.5t-90 -43.5q-77 -14 -134 36t-54 118q1 44 21 81.5t55.5 55.5t74.5 4zM193 202q29 68 16 132q-8 -9 -30.5 -32.5
t-30.5 -31.5q19 -18 20 -44q-54 12 -66 -20q-10 -25 10 -49q24 -27 52 0q16 14 29 45z" />
    <glyph glyph-name="t" unicode="t" horiz-adv-x="229" 
d="M-82 597q75 -39 191 -36q25 57 43 82q62 -2 104 -23q-10 -17 -23 -45q9 1 25 3q27 4 40 5.5t35.5 4t34.5 2t29 -1.5t26 -5t19.5 -10.5t16.5 -17t9 -24.5q5 -22 -12.5 -44.5t-52.5 -38.5q-26 -6 -44 5q26 37 -42 42q-45 3 -121 -8q-53 -128 -90.5 -239.5t-24.5 -115.5
q38 -14 110 89q8 13 25.5 6t11.5 -22q-15 -26 -35.5 -56t-48 -63.5t-58 -56t-56.5 -24.5q-61 -8 -85.5 27t-7.5 101q12 42 51 143.5t81 199.5l-23 -3q-44 2 -73 13t-40.5 28t-15.5 38.5t1 44.5z" />
    <glyph glyph-name="u" unicode="u" horiz-adv-x="430" 
d="M-4 1q-25 2 -40.5 13.5t-19.5 32.5t-3.5 44.5t9.5 54.5t18 57.5t23.5 58.5t24 52t22 44.5t14.5 29.5q2 3 4 7t4 7l128 -1q-107 -222 -97 -263q5 -24 45 31q60 82 119 233l139 -1q-5 -15 -36 -84t-53 -125t-11 -60q38 -14 110 89q8 13 25 6t12 -22q-13 -23 -38 -55.5
t-55.5 -64.5t-65 -55t-60.5 -25q-24 -2 -40.5 -1.5t-25.5 8t-13 15t-4.5 19t0.5 20t3 18.5t2 13q-59 -102 -140 -96z" />
    <glyph glyph-name="v" unicode="v" horiz-adv-x="410" 
d="M43 5h-3q-49 6 -71.5 43t-19 86t19.5 103.5t36.5 97.5t37.5 66h107q-12 -21 -23 -49.5t-19.5 -57.5t-15 -57.5t-9 -50.5t-0.5 -37t8 -17q21 -8 45.5 7.5t45.5 46t38 68t25.5 77.5t5.5 70h128q4 -57 -26 -128.5t-77.5 -132t-111 -100.5t-121.5 -36v1z" />
    <glyph glyph-name="w" unicode="w" horiz-adv-x="578" 
d="M350 399q0 -23 -6.5 -56t-17.5 -66t-21 -60.5t-19.5 -52t-11.5 -28.5q3 -3 4 -3q24 -11 62 39t65 119.5t24 109.5h128q-6 -59 -40.5 -130t-83 -130t-108 -98.5t-109.5 -38.5h-10q-33 3 -47 33.5t-8 53.5q-55 -93 -143 -86q-151 10 25 383q4 8 6 14l126 -3
q-96 -199 -84 -255q6 -30 40 6q44 44 87 147q32 80 31 104z" />
    <glyph glyph-name="x" unicode="x" horiz-adv-x="376" 
d="M291 401h45h45q-30 -26 -88 -73.5t-74 -61.5q-5 -63 2.5 -105.5t26.5 -50.5q6 -1 13 4.5t10.5 11t11.5 18.5q-4 -55 -44.5 -98t-85.5 -42q-29 0 -42.5 21.5t-13.5 54.5t2 75q-45 -49 -71 -106q-39 -87 39 -84h4q-20 -72 -69 -85q-42 -10 -69 28q-38 52 1 137
q42 95 170 191q0 19 -0.5 29t-6.5 27.5t-18 27.5l-10 -6l-31 -50q-59 -104 -124 -173q-15 -13 -29.5 -7.5t-16.5 20t7 28.5q12 2 26 16q21 18 54 60l12 15q4 8 9 13l58 87l6 9q29 47 73 65q40 15 70.5 -3.5t36.5 -73.5q49 40 71 81z" />
    <glyph glyph-name="y" unicode="y" horiz-adv-x="391" 
d="M-76 118q19 55 40.5 102t46.5 97t40 83h125q-11 -26 -33 -73t-39.5 -86t-30.5 -74q-14 -39 2 -36q21 4 53 51q16 23 25 46q18 42 43.5 93t38.5 80h141q-20 -44 -92 -214t-113 -252q-98 -199 -252 -180q-56 7 -91.5 38.5t-38.5 85.5q-2 35 12.5 63t37 41.5t52.5 11.5
t58 -23q-28 -7 -33 -31q-4 -22 18 -26q9 -2 23 1q41 10 84.5 60.5t78.5 133.5q-54 -97 -123 -109q-49 -8 -71 32q-20 34 -2 85z" />
    <glyph glyph-name="z" unicode="z" horiz-adv-x="328" 
d="M289 221q8 13 25.5 6t11.5 -22q-33 -62 -93 -99q14 -34 -6 -90.5t-58 -109.5t-91.5 -95t-100.5 -50q-52 -8 -96 2t-68 36q-18 22 -20.5 48t7.5 49.5t28.5 47.5t36.5 41t36 30q99 76 223 107q3 1 9 1q-4 8 -11.5 13t-12.5 6.5t-17.5 2t-15.5 1.5q-17 2 -22 11.5t10 25.5
q11 9 30 25q16 12 23 18t18 16t14 14.5t8.5 11.5t4 10l-4 8t-10 7.5t-18 5.5t-25.5 5t-34 4h-2q-12 -18 -40 -62.5t-50 -76t-45 -58.5q-16 -17 -29 0q-15 19 0 37q1 2 3 4q14 13 36.5 41t53 70.5t38.5 53.5h-1q-48 20 -44 55q1 29 19 46.5t42 20.5q44 6 58 -20.5t-9 -59.5
q55 -6 89 -17t44.5 -25.5t9.5 -31.5t-12 -34t-23 -34t-22 -30.5t-9.5 -24.5t14.5 -16q2 -1 4.5 -3t3.5 -2q50 22 90 80zM67 365q7 11 4.5 19t-11.5 5q-8 -4 -7.5 -11.5t14.5 -12.5zM124 61z" />
    <glyph glyph-name="braceleft" unicode="{" horiz-adv-x="554" 
d="M30 666q0 16 11.5 27t26.5 11h557q16 0 27.5 -11t11.5 -27v-557q0 -16 -11.5 -27t-27.5 -11h-557q-15 0 -26.5 11t-11.5 27v557zM156 531q-51 -74 -42.5 -166.5t73.5 -158.5q75 -74 180 -75.5t184 75.5q-5 4 -13.5 13t-15.5 15.5t-13 13.5q-44 -44 -105.5 -55t-118.5 15
v63q38 -27 84 -27q59 0 101 42t42 101q0 24 -7 45.5t-20.5 39.5t-31 31t-39.5 20.5t-45 7.5h-136q58 55 138.5 54t137.5 -58l42 42q-76 75 -182 75q-65 0 -121.5 -30.5t-91.5 -82.5zM226 387v-136q-42 44 -52 104.5t16 116.5h179q27 0 48 -15.5t30 -37t5 -47t-23.5 -44.5
t-45 -23t-47 5t-36.5 29.5t-15 47.5h-59zM135 -53v94h16v-96q0 -16 -17 -16h-20q-17 0 -17 16v96h17v-94q0 -3 1 -4t4 -1h10q4 0 5 1t1 4zM195 -71h-16v99h-18v13h53v-13h-19v-99zM210 -87q2 0 3 -1.5t1 -3.5v-2h-4v2v1h-18l-0.5 -0.5l-0.5 -0.5v-6l1 -1h18q2 0 3 -1.5
t1 -3.5v-6q0 -2 -1 -3.5t-3 -1.5h-18q-2 0 -3.5 1.5t-1.5 3.5v2h4v-2h1h18v0v6v1h-18q-2 0 -3.5 1.5t-1.5 3.5v6q0 2 1.5 3.5t3.5 1.5h18zM67 41q16 0 16 -15v-38q0 -15 -16 -15h-21v-44h-16v112h37zM67 -9v32q0 3 -1 4t-4 1h-16v-43h16q3 0 4 1.5t1 4.5zM399 41
q17 0 17 -15v-20h-16v17q0 4 -1 5t-5 1h-9q-3 0 -4 -1t-1 -5v-76q0 -3 1 -4t4 -1h9q4 0 5 1t1 4v17h16v-19q0 -16 -17 -16h-19q-16 0 -16 16v81q0 15 16 15h19zM485 28v13h54v-13h-19v-99h-16v99h-19zM501 -87q3 0 4 -1.5t1 -3.5v-18q0 -2 -1.5 -3.5t-3.5 -1.5h-17
q-2 0 -3.5 1.5t-1.5 3.5v18q0 2 1.5 3.5t3.5 1.5h17zM502 -110v18q0 1 -1 1h-17l-1 -1v-18h1h17h1zM481 -58v-13h-49v112h48v-13h-32v-34h26v-13h-26v-39h33zM443 -115h-4v28h4v-28zM585 41q17 0 17 -15v-81q0 -16 -17 -16h-20q-17 0 -17 16v81q0 15 17 15h20zM586 -53v76
q0 3 -1.5 4t-4.5 1h-10q-3 0 -4 -1t-1 -4v-76q0 -3 1 -4t4 -1h10q3 0 4.5 1t1.5 4zM636 41v-99h28v-13h-44v112h16zM249 -91v4h28v-4h-12v-24h-4v24h-12zM308 41h24l21 -112h-16l-5 26h-23l-5 -26h-16zM311 -32h19l-10 59zM397 -87q2 0 3.5 -1.5t1.5 -3.5v-18
q0 -2 -1.5 -3.5t-3.5 -1.5h-22v28h22zM398 -110v18q0 1 -1 1h-17l-1 -1v-18h1h17h1zM278 -10q0 -13 -12 -15l18 -46h-18l-17 45h-8v-45h-16v112h36q17 0 17 -15v-36zM262 -7v30q0 3 -1 4t-5 1h-15v-41h15q4 0 5 1t1 5zM335 -110v23h4v-23q0 -2 -1.5 -3.5t-3.5 -1.5h-18
q-2 0 -3 1.5t-1 3.5v23h4v-23v0h18h1zM129 735v-12h-41v96h40v-11h-26v-30h22v-11h-22v-32h27zM162 762h-8v-39h-14v96h32q14 0 14 -13v-30q0 -12 -10 -14l15 -39h-15zM154 808v-35h14q2 0 3 1t1 4v26q0 2 -1 3t-3 1h-14zM636 735h28v-12h-42v96h41v-11h-27v-30h22v-11h-22
v-32zM579 767q-14 0 -14 13v26q0 13 14 13h15q14 0 14 -13v-14h-14v12q0 2 -1 3t-3 1h-7q-3 0 -4 -1t-1 -3v-22q0 -2 1 -3t4 -1h11q14 0 14 -14v-27q0 -14 -14 -14h-15q-14 0 -14 14v14h14v-12q0 -3 1 -3.5t3 -0.5h7q3 0 3.5 0.5t0.5 3.5v23q0 3 -0.5 4t-3.5 1h-11zM520 723
q-14 0 -15 14v82h14v-80q0 -3 1 -3.5t4 -0.5h9q3 0 3.5 0.5t0.5 3.5v80h14v-82q0 -14 -14 -14h-17zM44 760v-37h-14v96h31q15 0 15 -13v-32q0 -14 -15 -14h-17zM44 808v-37h13q3 0 4 1t1 4v28q0 2 -1 3t-4 1h-13zM475 735v-12h-37v96h14v-84h23zM329 793v-70h-13v96h15
l19 -67v67h13v-96h-14zM213 767q-14 0 -14 13v26q0 13 14 13h15q14 0 14 -13v-14h-14v12q0 2 -1 3t-3 1h-7q-3 0 -3.5 -1t-0.5 -3v-22q0 -2 0.5 -3t3.5 -1h11q14 0 14 -14v-27q0 -14 -14 -14h-15q-14 0 -14 14v14h14v-12q0 -3 1 -3.5t4 -0.5h6q3 0 3.5 0.5t0.5 3.5v23
q0 3 -0.5 4t-3.5 1h-11zM270 723q-15 0 -15 14v69q0 13 15 13h17q14 0 14 -13v-69q0 -14 -14 -14h-17zM269 804v-65q0 -3 1 -3.5t4 -0.5h9q2 0 3 0.5t1 3.5v65q0 2 -1 3t-3 1h-9q-3 0 -4 -1t-1 -3zM390 746l-3 -23h-14l17 96h20l18 -96h-14l-4 23h-20zM400 807l-8 -50h16z
" />
    <glyph glyph-name="verticalbar" unicode="|" horiz-adv-x="272" 
d="M206 718q32 13 66 -6q-17 -17 -32 -77t-26.5 -137.5t-27 -166t-31 -164t-39 -130.5t-50.5 -66q-31 -13 -66 6q16 17 31.5 77t27 137.5t26.5 166t30.5 163.5t39 130.5t51.5 66.5z" />
    <glyph glyph-name="braceright" unicode="}" horiz-adv-x="599" 
d="M131 251q-42 44 -52 104.5t16 116.5h179q27 0 48 -15.5t30 -37t5 -47t-23.5 -44.5t-45 -23t-47 5t-36.5 29.5t-15 47.5h-59v-136zM-27 704h557q16 0 27 -11t11 -27v-557q0 -16 -11 -27t-27 -11h-557q-15 0 -26.5 11t-11.5 27v557q0 16 11.5 27t26.5 11zM274 531h-136
q58 55 138.5 54t137.5 -58q3 4 8 8.5t9 8.5l8 8l8.5 8.5l8.5 8.5q-76 75 -182 75q-65 0 -121.5 -30.5t-91.5 -82.5q-51 -74 -42.5 -166.5t73.5 -158.5q75 -74 180 -75.5t184 75.5l-42 42q-44 -44 -105.5 -55t-118.5 15v63q38 -27 84 -27q39 0 72 19.5t52 52t19 71.5
q0 24 -7 45.5t-20.5 39.5t-31 31t-39.5 20.5t-45 7.5zM100 -71h-16v99h-19v13h54v-13h-19v-99zM-28 41q16 0 16 -15v-38q0 -15 -16 -15h-21v-44h-16v112h37zM-28 -9v32q0 3 -1 4t-4 1h-16v-43h16q3 0 4 1.5t1 4.5zM115 -87q2 0 3.5 -1.5t1.5 -3.5v-2h-5v2v1h-18l-0.5 -0.5
l-0.5 -0.5v-6l1 -1h18q2 0 3.5 -1.5t1.5 -3.5v-6q0 -2 -1.5 -3.5t-3.5 -1.5h-18q-2 0 -3.5 1.5t-1.5 3.5v2h4v-2h1h18v0v6v1h-18q-2 0 -3.5 1.5t-1.5 3.5v6q0 2 1.5 3.5t3.5 1.5h18zM39 -53v94h17v-96q0 -16 -17 -16h-20q-17 0 -17 16v96h17v-94q0 -3 1 -4t4 -1h10
q4 0 4.5 1t0.5 4zM406 -87q2 0 3.5 -1.5t1.5 -3.5v-18q0 -2 -1.5 -3.5t-3.5 -1.5h-17q-2 0 -3.5 1.5t-1.5 3.5v18q0 2 1.5 3.5t3.5 1.5h17zM407 -110v18q0 1 -1 1h-17l-1 -1v-18h1h17h1zM348 -115h-4v28h4v-28zM386 -58v-13h-49v112h48v-13h-32v-34h26v-13h-26v-39h33z
M154 -91v4h28v-4h-12v-24h-4v24h-12zM304 41q17 0 17 -15v-20h-16v17q0 4 -1 5t-5 1h-9q-3 0 -4 -1t-1 -5v-76q0 -3 1 -4t4 -1h9q4 0 5 1t1 4v17h16v-19q0 -16 -17 -16h-19q-16 0 -16 16v81q0 15 16 15h19zM541 -58h28v-13h-44v112h16v-99zM490 41q17 0 17 -15v-81
q0 -16 -17 -16h-20q-17 0 -17 16v81q0 15 17 15h20zM491 -53v76q0 3 -1.5 4t-4.5 1h-10q-3 0 -4 -1t-1 -4v-76q0 -3 1 -4t4 -1h10q3 0 4.5 1t1.5 4zM390 28v13h54v-13h-19v-99h-16v99h-19zM183 -10q0 -13 -12 -15l18 -46h-18l-17 45h-8v-45h-16v112h36q17 0 17 -15v-36z
M167 -7v30q0 3 -1 4t-5 1h-15v-41h15q4 0 5 1t1 5zM302 -87q2 0 3.5 -1.5t1.5 -3.5v-18q0 -2 -1.5 -3.5t-3.5 -1.5h-22v28h22zM303 -110v18q0 1 -1 1h-17l-1 -1v-18h1h17h1zM240 -110v23h4v-23q0 -2 -1.5 -3.5t-3.5 -1.5h-18q-2 0 -3.5 1.5t-1.5 3.5v23h5v-23v0h18h1z
M213 41h24l21 -112h-16l-5 26h-23l-5 -26h-16zM216 -32h19l-10 59zM569 735v-12h-42v96h40v-11h-26v-30h22v-11h-22v-32h28zM425 723q-14 0 -15 14v82h14v-80q0 -3 1 -3.5t4 -0.5h9q3 0 3.5 0.5t0.5 3.5v80h14v-82q0 -14 -14 -14h-17zM484 767q-14 0 -14 13v26q0 13 14 13
h15q14 0 14 -13v-14h-14v12q0 2 -1 3t-3 1h-7q-3 0 -3.5 -1t-0.5 -3v-22q0 -2 0.5 -3t3.5 -1h11q14 0 14 -14v-27q0 -14 -14 -14h-15q-14 0 -14 14v14h14v-12q0 -3 1 -3.5t3 -0.5h7q3 0 3.5 0.5t0.5 3.5v23q0 3 -0.5 4t-3.5 1h-11zM380 735v-12h-37v96h14v-84h23zM34 735
v-12h-41v96h40v-11h-26v-30h22v-11h-22v-32h27zM59 762v-39h-14v96h32q14 0 14 -13v-30q0 -12 -10 -14l15 -39h-15l-14 39h-8zM59 808v-35h14q2 0 3 1t1 4v26q0 2 -1 3t-3 1h-14zM-51 760v-37h-14v96h31q15 0 15 -13v-32q0 -14 -15 -14h-17zM-51 808v-37h13q3 0 4 1t1 4v28
q0 2 -1 3t-4 1h-13zM118 767q-14 0 -14 13v26q0 13 14 13h15q14 0 14 -13v-14h-14v12q0 2 -1 3t-3 1h-7q-3 0 -3.5 -1t-0.5 -3v-22q0 -2 0.5 -3t3.5 -1h11q14 0 14 -14v-27q0 -14 -14 -14h-15q-14 0 -14 14v14h14v-12q0 -3 1 -3.5t3 -0.5h7q3 0 3.5 0.5t0.5 3.5v23
q0 3 -0.5 4t-3.5 1h-11zM295 746l-4 -23h-13l17 96h20l18 -96h-14l-4 23h-20zM305 807l-8 -50h16zM234 793v-70h-13v96h15l19 -67v67h13v-96h-14zM175 723q-15 0 -15 14v69q0 13 15 13h17q14 0 14 -13v-69q0 -14 -14 -14h-17zM174 804v-65q0 -3 1 -3.5t4 -0.5h8q3 0 4 0.5
t1 3.5v65q0 2 -1 3t-4 1h-8q-3 0 -4 -1t-1 -3z" />
    <glyph glyph-name="asciitilde" unicode="~" horiz-adv-x="321" 
d="M257 611q41 3 63 -15.5t21 -43.5q-1 -24 -18 -38t-35.5 -13t-24.5 16q15 -1 16 8q0 12 -24 11h-8q-27 -3 -69.5 -15t-72.5 -14q-42 -3 -63.5 15t-20.5 43q1 24 18 38t35 13t24 -16q-14 1 -14 -8q-1 -12 23 -11h8q26 3 68.5 15.5t73.5 14.5z" />
    <glyph glyph-name="nonbreakingspace" unicode="&#xa0;" horiz-adv-x="463" 
 />
    <glyph glyph-name="exclamdown" unicode="&#xa1;" horiz-adv-x="374" 
d="M344 695q37 -11 28 -49q-8 -34 -41 -50q-23 -10 -45 -4q-37 12 -28 49q8 35 41 51q22 10 45 3zM214 482q11 27 29.5 45t43.5 21.5t52 -17.5q-10 -7 -38 -81l-146 -388q-10 -26 -37 -43t-58 -18t-60 19q14 10 103 206t111 256z" />
    <glyph glyph-name="cent" unicode="&#xa2;" horiz-adv-x="619" 
d="M487 412q-36 -8 -57 12q-18 -55 -37 -110q51 20 91 -20t28 -99q-11 -51 -62 -90q-58 -44 -152 -47h-3q-34 -63 -64 -72q-33 -9 -65 17q31 13 62 72q-31 16 -52 42q-29 38 -37.5 85.5t0 93.5t29.5 95q-3 0 -11 0.5t-13 0.5q-35 5 -62.5 17t-44.5 34.5t-17 51.5q0 67 63 90
q48 17 87 -2q37 -19 14 -54q0 8 -4 13q-9 9 -24 -7q-20 -23 -2 -43l9 -7q16 -11 51 -13q45 65 103 113q62 46 127 58q22 49 40 60q27 13 65 -16q-16 -10 -33 -42q48 -6 78 -33q26 -23 24 -54t-20 -61t-49 -54t-62 -31zM478 555q12 -13 -4 -55q0 -4 3 -4q7 -4 19.5 13t18 38
t-2.5 35l-3 4q-8 8 -18 8q-5 -12 -15 -37l1 -1zM288 211q10 26 81 232q-28 -12 -55 -19q0 -1 -2 -7q-59 -151 -24 -206zM352 194q34 14 48 46t-8 67q-13 -40 -40 -113zM402 537q2 9 8 24q-16 -14 -33 -36q7 4 25 12z" />
    <glyph glyph-name="sterling" unicode="&#xa3;" horiz-adv-x="493" 
d="M299 410q40 11 62 48.5t17.5 64t-11.5 30.5q-25 -1 -45 -35t-70 -151l73 2q-5 -13 -9.5 -21.5t-9.5 -15t-9 -9.5t-10 -5t-12.5 -1.5t-15.5 0t-20 -0.5l-7 -1q-29 -69 -42 -93q45 -4 86.5 -19.5t73 -42t35.5 -63.5t-25 -83q-66 128 -208 141q-57 -86 -120 -65
q-38 12 -31 51q6 42 54 66q29 15 65 16q9 17 14 27.5t12 31t11 30.5l-102 -2q7 15 14.5 25.5t14.5 15.5t16 7.5t15.5 2.5t17.5 0.5t19 1.5l21 1q50 147 79 202q18 35 46.5 59.5t58.5 32t57.5 1.5t48.5 -32t27 -69q6 -32 -1.5 -62t-29.5 -54.5t-61.5 -33t-98.5 1.5zM78 154z
" />
    <glyph glyph-name="yen" unicode="&#xa5;" horiz-adv-x="600" 
d="M461 308q31 -3 46 -15t10 -37q-13 4 -79 4l-5 -10q30 -4 44 -16t10 -36q-12 4 -75 4q-1 -2 -17 -33q-87 -175 -223 -159q-49 6 -80.5 34t-33.5 75q-2 32 11 56.5t33 36.5t46.5 10t51.5 -20q-26 -7 -30 -28q-4 -20 17 -23l19 1q31 7 69 51q-26 2 -37.5 9.5t-12 18.5
t2.5 24q4 -1 82 -4q5 8 7 9q-32 2 -46.5 9.5t-15.5 18.5t2 25q4 -1 88 -3l6.5 13t7.5 13q-24 -3 -54 5q-29 10 -44.5 40t-14.5 66q28 111 -25 135q-32 14 -63 -7q-13 -10 -15 -22q-2 -17 12.5 -22.5t34.5 12.5q31 -84 4 -128t-102 -41q-65 3 -85.5 64.5t16.5 127.5
q46 79 140 88q12 1 24 1q67 2 107 -20t53 -69.5t-1 -118.5q-1 -20 17 -19q29 1 58 49q9 25 20.5 54.5t20 53t13.5 36.5h125q-134 -302 -139 -313z" />
    <glyph glyph-name="section" unicode="&#xa7;" horiz-adv-x="348" 
d="M287 646q37 -18 52 -49.5t6.5 -62.5t-34.5 -49q-58 -38 -82 21q10 2 21.5 11.5t19 23t10.5 27t-3 24.5t-21 15q-18 4 -37 -7.5t-28 -32.5q-11 -20 -6.5 -40t18 -34t31.5 -32.5t34.5 -36.5t27 -46t8.5 -59q-4 -55 -47 -91q10 -29 9 -60q-3 -53 -42 -86.5t-93 -37.5
q-61 -3 -98 33t-33 97q5 77 63 94q42 13 76 -14q37 -30 11 -74q-57 12 -64 -23q-9 -34 9 -51.5t44 -6.5q30 12 42 33.5t7.5 45.5t-17.5 47.5t-33 43.5q-24 25 -38 44t-23.5 43.5t-4.5 50t25 52.5q12 16 28 27q-35 63 10 124q29 41 83 47q33 4 69 -11zM219 286q14 33 1 68.5
t-44 66.5q-8 8 -12 13q-7 -7 -11 -18q-7 -13 -7.5 -26t3 -22.5t12 -21t16.5 -19t21 -20.5z" />
    <glyph glyph-name="copyright" unicode="&#xa9;" horiz-adv-x="599" 
d="M455 383q4 7 12.5 7.5t14.5 -5.5t3 -13q-20 -39 -54 -83t-68 -67q-29 -22 -78.5 -20t-77.5 26q-21 20 -27.5 50.5t0.5 62.5t23 66t40 60.5t52 45t58 20t59 -13.5q39 -19 28 -62q-10 -40 -52 -58q-29 -12 -63 -6q27 16 52 52q25 39 -2 40q-17 0 -37.5 -26t-32.5 -62
q-10 -29 -10 -56q1 -25 13 -37t30 -9.5t37 11.5t35 23q6 6 19 21q3 3 4 5q6 8 22 28zM549 646q41 -34 48 -100t-15.5 -140.5t-68 -152t-102.5 -136.5t-125.5 -91t-130.5 -20q-65 13 -103.5 54.5t-47.5 98t5.5 123t51.5 130.5q51 88 109.5 149t111.5 89t104.5 36t91.5 -3.5
t71 -36.5zM442 227q103 113 117 241q11 105 -43 153q-66 58 -184 -9q-16 -9 -33 -21q-105 -72 -153 -216q-41 -125 -14 -216q25 -85 99 -78q86 9 211 146z" />
    <glyph glyph-name="guillemotleft" unicode="&#xab;" horiz-adv-x="546" 
d="M304 503q9 -14 11 -27.5t-1.5 -25.5t-12.5 -25t-20.5 -24t-26.5 -22.5t-29.5 -20.5t-30.5 -19t-29 -17t-25.5 -14.5t-19.5 -11.5q2 -2 17 -19.5t23.5 -28t24.5 -31.5t25 -36t20 -35t13.5 -35.5t2 -31.5t-10.5 -28t-28 -19q-9 31 -31 66.5t-41.5 59t-46.5 53.5t-34 38
q0 1 -2 3q-7 9 -10.5 15t-8 18.5t-3.5 22.5t10 22.5t27 23.5q1 1 40 26.5t58.5 40t51 44t49.5 58.5q26 -2 38 -20zM495 503q11 -17 11.5 -34t-7.5 -32t-22.5 -30.5t-31.5 -28t-37.5 -25.5t-38 -22.5t-34 -19.5t-24.5 -15q3 -4 11 -14q14 -16 22.5 -26.5l25.5 -31.5
t26.5 -36.5t21.5 -36.5t15 -37t3 -32.5t-10 -29t-29 -20.5q-11 40 -38.5 81t-69 87t-43.5 49l-9 12t-9 14.5t-6.5 18.5t1 18.5t11 21t25.5 20.5q4 3 39.5 26.5t57 39.5t52 45t49.5 58q25 -2 38 -20z" />
    <glyph glyph-name="softhyphen" unicode="&#xad;" horiz-adv-x="0" 
 />
    <glyph glyph-name="registered" unicode="&#xae;" horiz-adv-x="250" 
d="M311 873q23 -19 27 -56.5t-8.5 -80t-38 -86t-58 -77t-71 -51.5t-73.5 -11q-49 10 -71 47t-16.5 85.5t33.5 97.5q36 62 77.5 100t78 48.5t67.5 6t53 -22.5zM71 665q-5 -39 4 -67t28.5 -40t55.5 4.5t82 63.5q-17 -1 -32.5 16t-23.5 56q-13 -23 -19 -30q-6 -8 -11 -12v-1h-2
q-15 -12 -35 -12q-30 0 -47 22zM264 662q1 -3 1 -9q58 75 52 149q-5 59 -49 69q-40 10 -98 -30q-42 -27 -69 -78q10 2 17 2q14 0 24 -5q19 -8 16.5 -24.5t-23.5 -21.5q5 8 -2 12t-12 -3q-4 -5 -1.5 -14.5t9.5 -11.5q16 -6 33 12q11 12 27.5 44t25.5 44q-15 2 -22 -1
q-11 -4 -12.5 -12.5t5.5 -10.5q3 -1 6 1h2q-7 -15 -26 -15q-11 0 -19.5 8t-8.5 20q0 22 31 28.5t56 -5.5q15 10 25 10q11 1 16.5 -3.5t2.5 -14.5q-2 -8 -9 -5q-8 21 -25 6q15 -10 18 -24t-3.5 -27t-18.5 -24t-26 -17q9 -21 24.5 -35t32.5 -14zM199 736q16 2 29 23.5t0 32.5
q-13 -16 -21 -38q-3 -5 -8 -18z" />
    <glyph glyph-name="degree" unicode="&#xb0;" horiz-adv-x="224" 
d="M158 751q40 -10 57 -51t-1 -97q-16 -57 -59 -91t-82 -26q-27 7 -38 27.5t-9 45t14 51.5q-14 37 2.5 73.5t50 56t65.5 11.5zM163 626q10 57 -23 75q-26 14 -49 -10q-10 -11 -14 -26q15 17 33 16.5t30 -22.5q-19 -9 -36 -42.5t-13 -51.5q0 -21 24 -6q32 19 45 55z" />
    <glyph glyph-name="plusminus" unicode="&#xb1;" horiz-adv-x="431" 
d="M269 178q45 0 74.5 -31t15.5 -77q-14 9 -264 9q-45 0 -75 30t-16 76q5 -3 30 -5t62.5 -2.5t68.5 -0.5t66 0.5t38 0.5zM398 367q20 -30 8 -67q-4 2 -15.5 4t-31 2.5t-33 1t-36.5 0t-26 -0.5q-1 -3 -5.5 -15l-6 -16t-5.5 -15t-7 -15.5t-8.5 -13t-10.5 -13t-11.5 -10.5
t-14 -9.5t-16.5 -5.5q-35 -6 -65 15q11 9 43 99q-72 0 -99 41q-18 27 -7 66q13 -8 143 -8q1 4 6.5 20t8 21t8 18.5t10.5 19t13 14t17.5 13.5t20.5 7q35 9 66 -15q-14 -10 -43 -98q70 0 97 -40z" />
    <glyph glyph-name="twosuperior" unicode="&#xb2;" horiz-adv-x="230" 
d="M125 547q9 -25 1 -38t-31 -13q-18 1 -25 16.5t0 33.5q10 26 38 33t52 -5q22 -11 26.5 -28.5t-5.5 -36.5t-26.5 -38t-36 -33.5t-35.5 -21.5q38 -24 63 -10q19 13 1 33q26 3 37 -13.5t2 -34.5t-34 -20q-9 -1 -21 2.5t-22.5 8.5t-24 11t-22.5 9q-13 -4 -22 -3
q-11 2 -16.5 11.5t0.5 17.5q12 16 37 2q35 22 61 55t18 63q-3 12 -15.5 12.5t-14.5 -9.5q0 -6 4.5 -7.5t10.5 3.5z" />
    <glyph glyph-name="threesuperior" unicode="&#xb3;" horiz-adv-x="205" 
d="M79 395q22 -1 31 18.5t-2 35.5q-19 -2 -23 12q-4 16 18 22q9 2 20 2q11 8 17 25t0 38q-3 12 -15.5 12.5t-14.5 -9.5q-1 -6 3.5 -7.5t11.5 3.5q9 -25 0.5 -38t-30.5 -13q-18 1 -25 16.5t0 33.5q9 26 37.5 33t52.5 -5q29 -16 24.5 -48.5t-34.5 -53.5q11 -12 11.5 -29
t-7 -33t-27.5 -27t-48 -11q-12 1 -24 4.5t-21.5 11.5t-11.5 20q-7 32 22 48q26 14 43 -5q9 -9 10 -26q-25 2 -28 -16q-1 -13 10 -14z" />
    <glyph glyph-name="periodcentered" unicode="&#xb7;" horiz-adv-x="238" 
d="M129 273q36 -11 27 -50q-8 -34 -40 -49q-23 -10 -46 -3q-37 12 -28 50q9 34 41 49q23 11 46 3z" />
    <glyph glyph-name="onesuperior" unicode="&#xb9;" horiz-adv-x="144" 
d="M77 373q-10 0 -29 -0.5t-28 -0.5q10 10 17.5 30.5t22.5 60.5t23 60q1 7 -3 7q-9 -1 -18 -18q-5 -9 0.5 -9t-3.5 -3q-22 -7 -28 7q-9 24 29 53q35 28 54 17q15 -8 7 -39q-10 -39 -44 -165z" />
    <glyph glyph-name="guillemotright" unicode="&#xbb;" horiz-adv-x="546" 
d="M260 306q7 -8 10 -12t9 -14.5t6.5 -19t-1 -19t-11 -21t-25.5 -20.5q-8 -5 -31.5 -20t-42.5 -28.5t-43 -32.5t-45.5 -41.5t-36.5 -45.5q-25 2 -37 20q-11 16 -11.5 33t7 32t22 30.5t31.5 28t37.5 26t37.5 23t34.5 19t25.5 15.5q-3 3 -10 11q-14 16 -22.5 26t-25.5 31
t-26.5 36.5t-22 37t-16 38t-3.5 33.5t10 30t29 21q9 -32 30.5 -67.5t41.5 -59t46 -52.5t33 -38zM451 306l9 -12t9 -14.5t6.5 -19t-1 -19t-11 -21t-25.5 -20.5q-5 -3 -40 -26t-57 -39t-52.5 -45.5t-49.5 -57.5q-25 2 -37 20q-11 16 -11.5 33t7 32t22.5 30.5t32 28t37.5 26
t37.5 23l34 19t25 15.5q-3 3 -9 11q-14 16 -22.5 26t-25.5 31t-27 36.5t-22.5 37t-16 38t-3.5 33.5t10.5 30t29.5 21q11 -41 38.5 -82t68.5 -86.5t44 -48.5z" />
    <glyph glyph-name="questiondown" unicode="&#xbf;" horiz-adv-x="473" 
d="M367 548q28 7 43.5 -10.5t14 -42.5t-10.5 -49q-15 -34 -50.5 -63.5t-70.5 -47.5t-72 -43t-54 -51q-14 -22 -10.5 -42t19 -28t33 -10t30.5 11q29 46 -25 74q5 24 20.5 36.5t36.5 13.5t44 -7t44 -23q62 -45 43 -122q-18 -68 -85 -110q-91 -56 -194 -12q-14 7 -28 15
q-39 22 -64 59.5t-31 80.5t19 89t80 81q46 28 131.5 67.5t105.5 53.5q4 5 10.5 14.5t13.5 28t7 37.5zM451 658q35 -20 15 -56q-17 -33 -54 -39q-22 -3 -41 8q-35 20 -15 56q18 33 54 39q22 3 41 -8z" />
    <glyph glyph-name="Agrave" unicode="&#xc0;" horiz-adv-x="810" 
d="M625 732q-10 39 -30.5 70.5t-37 53t-19.5 37.5q-7 34 37 61q3 -3 17 -18t19 -21t17 -20.5t16.5 -22t12.5 -22t8.5 -24t1.5 -23t-4 -24t-14 -23t-24 -24.5zM836 650q3 -27 -19.5 -48t-48.5 -18q6 36 -24 50t-64 -8q118 -84 82 -178q-54 -158 -58.5 -284t42.5 -169
q-18 -17 -54 -28t-63 -8q-35 14 -51.5 59t-15.5 100t14 110q-30 61 -60 90q-18 -58 -38 -103.5t-51 -90.5t-67.5 -73.5t-88 -43t-113.5 -7.5q-83 9 -136.5 78t-53.5 158q0 100 70.5 170.5t170.5 70.5q92 0 140 -56q39 -46 15 -91q-20 -39 -83 -55q11 21 2.5 34t-27.5 12
q-29 -1 -38 -33q-11 -38 16 -63q18 -17 49 -16q29 0 55 13t47.5 37t35.5 44t31 50q-29 0 -55 -23q-7 49 23 78.5t70 15.5q4 8 15.5 30.5t17 32.5t16 29t18 31t17.5 26.5t20 26.5q-20 5 -41.5 6.5t-45.5 -1.5t-39.5 -18t-17.5 -40q0 -24 16.5 -35.5t38.5 2.5
q-15 -31 -45 -47.5t-64 -13.5q-44 4 -78 36.5t-34 75.5q1 54 38 89.5t89 40.5q57 6 119 -8t111 -37q30 28 67.5 44t66.5 13q27 -4 42.5 -19.5t18.5 -37.5zM600 317q3 11 21 59t27.5 79.5t10 69t-19.5 54.5q-42 -60 -80 -144q-12 -32 -17 -48q37 -39 58 -70z" />
    <glyph glyph-name="Aacute" unicode="&#xc1;" horiz-adv-x="807" 
d="M836 650q4 -27 -18.5 -48t-48.5 -18q6 36 -24 50t-64 -8q119 -84 81 -178q-54 -157 -58 -284t43 -169q-18 -17 -54 -28t-64 -8q-34 14 -50.5 59t-16 100t13.5 110q-27 59 -58 90q-19 -58 -39 -103.5t-50.5 -90.5t-67 -73.5t-88.5 -43t-113 -7.5q-84 9 -138 78t-54 158
q0 100 70.5 170.5t170.5 70.5q93 0 141 -56q40 -46 16 -91q-21 -39 -83 -55q11 21 1.5 34t-27.5 12q-29 -1 -38 -33q-10 -38 16 -63q19 -17 49 -16q24 0 46 9.5t38.5 22.5t33.5 34.5t27.5 37.5t23.5 40q-28 0 -55 -23q-6 49 23.5 78.5t69.5 15.5q4 8 16 30.5t17.5 32.5
t16 29t18 31t17 26.5t19.5 26.5q-20 5 -41.5 6.5t-45.5 -1.5t-40 -18t-18 -40q0 -24 16.5 -35.5t39.5 2.5q-16 -31 -46 -47.5t-64 -13.5q-44 4 -77.5 36.5t-33.5 75.5q0 27 11 51t28.5 40.5t40 26.5t46.5 12q57 6 119.5 -8t111.5 -37q29 27 67 43.5t67 13.5
q27 -4 42.5 -19.5t17.5 -37.5zM601 317q3 11 21 59t28 79.5t10 69t-19 54.5q-43 -60 -80 -144q-14 -35 -19 -48q36 -36 59 -70zM618 732q-14 12 -23.5 24.5t-14.5 23t-4 24t1.5 23t8.5 24t12.5 22t16.5 22t17 20.5t19 21t18 18q43 -27 36 -61q-3 -16 -19.5 -37.5t-37 -53
t-30.5 -70.5z" />
    <glyph glyph-name="Acircumflex" unicode="&#xc2;" horiz-adv-x="806" 
d="M552 804q-22 -17 -51 -9q-45 12 -26 79q7 25 23 56q22 41 56 75q25 25 40 25t39 -25q32 -30 56 -75q55 -104 9 -131q-26 -14 -54 1q-4 2 -7 4q22 14 14.5 48.5t-26 69t-31.5 46.5q-14 -12 -32 -46.5t-25.5 -69t15.5 -48.5zM836 650q4 -27 -18.5 -48t-48.5 -18
q6 36 -24 50t-64 -8q118 -84 81 -178q-54 -157 -58 -284t43 -169q-18 -17 -54 -28t-64 -8q-34 14 -50.5 59t-15.5 100t14 110q-30 61 -59 90q-19 -58 -39 -103.5t-50.5 -90.5t-67 -73.5t-88.5 -43t-113 -7.5q-84 9 -138 78t-54 158q0 100 71 170.5t170 70.5q93 0 141 -56
q40 -46 16 -91q-21 -39 -83 -55q10 21 1 34t-27 12q-29 -1 -38 -33q-11 -38 16 -63q19 -17 49 -16q29 0 55 13t47.5 37t35.5 44t31 50q-29 0 -55 -23q-6 49 23.5 78.5t69.5 15.5q4 9 12 23.5t12.5 23.5t12 22.5t13 23.5t12.5 22t13.5 21.5t14 20t14.5 19.5q-20 5 -41.5 6.5
t-45.5 -1.5t-40 -18t-18 -40q0 -24 16.5 -35.5t39.5 2.5q-16 -31 -46 -47.5t-64 -13.5q-44 4 -77.5 36.5t-33.5 75.5q1 54 38.5 89.5t88.5 40.5q57 6 119 -8t111 -37q31 28 68 44t66 13q27 -4 42.5 -19.5t17.5 -37.5zM601 317q3 11 21 59t28 79.5t10 69t-19 54.5
q-43 -60 -80 -144q-14 -35 -19 -48q35 -36 59 -70z" />
    <glyph glyph-name="Atilde" unicode="&#xc3;" horiz-adv-x="806" 
d="M558 763q-28 -2 -47.5 6.5t-28 22.5t-6.5 30q0 24 16.5 38.5t35 12.5t24.5 -17q-14 2 -15 -7q0 -12 23 -12h8q27 3 69.5 16t72.5 15q42 3 63.5 -16t20.5 -44q-1 -24 -17.5 -38t-35 -12.5t-24.5 16.5q15 -2 15 7q0 12 -22 12h-10q-25 -3 -67.5 -15.5t-74.5 -14.5zM836 650
q3 -27 -19 -48t-48 -18q6 36 -24 50.5t-64 -8.5q118 -85 81 -178q-54 -158 -58.5 -284.5t42.5 -168.5q-18 -17 -54 -28t-63 -8q-35 14 -51.5 59t-16 100t14.5 110q-32 64 -58 90q-19 -58 -39 -103.5t-51 -90.5t-67.5 -73.5t-88.5 -43t-114 -7.5q-83 9 -136.5 78t-53.5 158
q0 100 70.5 170.5t170.5 70.5q92 0 140 -56q40 -46 16 -91q-20 -39 -82 -55q10 21 1 34t-27 12q-30 -1 -38 -35q-10 -38 17 -62q19 -15 47 -15q29 0 55 12.5t48 37.5t35 43.5t32 50.5q-30 0 -56 -23q-6 49 24 78.5t70 15.5l10 20l11 22t10.5 20t11.5 21.5t10.5 19t12 20.5
t11.5 17.5t13 19t13 16.5q-20 5 -41.5 6.5t-45.5 -1.5t-39.5 -18t-17.5 -40q0 -23 16.5 -35t38.5 2q-15 -31 -45 -47.5t-64 -13.5q-44 4 -78 36.5t-33 75.5q0 54 37.5 89.5t88.5 40.5q39 5 84 -1.5t80 -18t66 -25.5q30 28 67.5 44t66.5 13q27 -4 42.5 -19.5t18.5 -37.5z
M601 317q3 10 21 58.5t27.5 80t9.5 69t-20 54.5q-50 -71 -78 -144q-14 -34 -19 -48q29 -29 59 -70z" />
    <glyph glyph-name="Adieresis" unicode="&#xc4;" horiz-adv-x="806" 
d="M836 650q3 -27 -19.5 -48t-48.5 -18q6 36 -23.5 50.5t-63.5 -8.5q117 -84 82 -178q-55 -158 -59.5 -284t42.5 -169q-18 -17 -54 -28t-63 -8q-35 14 -51.5 59t-15.5 100t14 110q-30 61 -60 90q-18 -58 -38 -103.5t-50.5 -91t-67 -73.5t-88.5 -42.5t-114 -7.5
q-83 9 -136.5 78t-53.5 158q0 100 70.5 170.5t170.5 70.5q91 0 139 -54q41 -46 18 -92q-21 -40 -84 -56q10 21 1.5 34t-27.5 12q-29 -1 -38 -33q-10 -38 16 -63q18 -17 49 -16q29 0 55 13t47.5 37t35.5 44t31 50q-29 0 -55 -23q-7 49 23 78.5t70 15.5q4 9 13.5 26.5
t14.5 27.5t13.5 25.5t15 26.5t14.5 24t16.5 24.5t16.5 21.5q-15 4 -32 6t-37 1t-35.5 -6.5t-27 -19t-12.5 -34.5q0 -23 16.5 -35t38.5 2q-15 -31 -45 -47.5t-64 -13.5q-29 3 -54.5 18t-41.5 40t-16 54q0 27 11 51t28.5 40.5t40 26.5t47.5 12q57 6 119 -8t111 -37
q30 28 67.5 44t66.5 13q27 -4 42.5 -19.5t18.5 -37.5zM600 317q4 11 17 45.5t22 61t16.5 59.5t3.5 57.5t-20 38.5q-25 -36 -47 -78t-31 -66q-13 -32 -19 -48q37 -39 58 -70zM628 764q-37 11 -28 49q8 34 41 50q23 10 45 4q37 -12 28 -49q-8 -35 -41 -51q-22 -10 -45 -3z
M499 764q-38 11 -29 49q8 34 40 50q23 11 46 4q37 -12 28 -49q-8 -34 -40 -51q-23 -11 -45 -3z" />
    <glyph glyph-name="Aring" unicode="&#xc5;" horiz-adv-x="806" 
d="M572 747q-46 14 -38 61q8 42 47 66q33 21 69 9q45 -14 37 -60q-7 -43 -46 -67q-34 -20 -69 -9zM633 854q-33 11 -56 -21q-20 -28 -4 -47q6 -6 16 -9q32 -11 55 20q21 28 4 48q-5 6 -15 9zM836 650q3 -27 -19 -48t-48 -18q5 36 -24.5 50t-63.5 -8q118 -85 81 -178
q-54 -158 -58.5 -284t42.5 -169q-18 -17 -54 -28t-63 -8q-35 14 -51.5 59t-16 100t14.5 110q-31 61 -60 90q-18 -58 -38 -103.5t-50.5 -91t-67 -73.5t-88.5 -42.5t-114 -7.5q-83 9 -136.5 78t-53.5 158q0 100 70.5 170.5t170.5 70.5q91 0 139 -54q41 -46 17 -92
q-20 -40 -84 -56q11 21 2.5 34t-26.5 12q-30 -1 -38 -35q-10 -38 17 -62q19 -15 47 -15q29 0 55 13t47.5 37t35.5 44t31 50q-29 0 -55 -23q-7 49 23.5 78.5t70.5 15.5l10 20l11 22t10.5 20t11.5 21.5t10.5 19t12 20.5t11.5 17.5t13 19t13 16.5q-20 5 -41.5 6.5t-45.5 -1.5
t-39.5 -18t-17.5 -40q0 -23 16.5 -35t38.5 2q-15 -31 -45 -47.5t-64 -13.5q-44 4 -78 36.5t-34 75.5q1 54 38.5 89.5t88.5 40.5q57 6 119 -8t111 -37q31 28 68 44t66 13q27 -4 42.5 -19.5t18.5 -37.5zM600 317q4 11 17.5 45.5t22 61.5t16 59.5t4 57t-20.5 38.5
q-25 -36 -47 -78t-31 -66q-14 -35 -19 -48q31 -32 58 -70z" />
    <glyph glyph-name="AE" unicode="&#xc6;" horiz-adv-x="1129" 
d="M979 683q79 10 131.5 -31.5t56.5 -98.5q3 -38 -16.5 -71t-60.5 -37q-48 -3 -71 18q-5 4 -10 9t-14.5 16.5t-16.5 19.5q-7 -3 -19 -9l-16 -8q6 -31 19 -56q38 -11 50 -32q-9 -38 -45 -52q-67 36 -119.5 13.5t-84.5 -66t-34 -79.5q-2 -56 45 -78q39 -20 70 3q18 13 21 37
q4 34 -6 51t-38 -11q1 52 39 80t84 16q63 -16 80 -81q19 -71 -28 -140q-62 -91 -192 -100q-10 -1 -20 -1q-15 0 -41 2q3 0 3 -2q-18 -17 -54 -28t-63 -8q-35 14 -51.5 59t-16 100t14.5 110q-32 64 -58 90q-19 -58 -39 -103.5t-50.5 -90.5t-67 -73.5t-88.5 -43t-113 -7.5
q-84 9 -138 78t-54 158q0 100 70.5 170.5t170.5 70.5q92 0 140 -56q40 -46 16 -91q-20 -39 -82 -55q10 21 1 34t-27 12q-30 -1 -38 -35q-10 -38 17 -62q18 -16 47 -15q24 0 46.5 9.5t39 22.5t33.5 34.5t27.5 37.5t23.5 40q-28 0 -55 -23q-4 32 8 57.5t35.5 35.5t49.5 1
q65 127 103 176q-20 5 -41.5 6.5t-45.5 -1.5t-39.5 -18t-17.5 -40q0 -24 16.5 -35.5t39.5 2.5q-11 -21 -28 -35.5t-38.5 -21t-43.5 -4.5q-29 2 -54.5 17.5t-41 40.5t-15.5 54q0 27 11 51t28.5 40.5t40 26.5t46.5 12q104 12 222 -41q12 17 28 31t36.5 22.5t42.5 9.5
q43 1 69.5 -16.5t25.5 -44.5q1 -3 1 -6q3 -27 -19 -48t-48 -18q3 15 -4 29q-3 -10 -3 -19q0 -22 17 -39t54 -11q7 54 43.5 92.5t102.5 46.5zM601 317q3 11 21 59t28 79.5t10 69t-19 54.5q-26 -36 -49 -78.5t-31 -65.5q-14 -35 -19 -48q29 -29 59 -70zM755 424q45 16 94 21
q-6 14 -7 18q-36 -18 -82 -21l-2 -6t-2 -6.5t-1 -5.5zM1031 572q30 -30 44 15q-26 35 -68 26t-59 -53q34 15 68 38z" />
    <glyph glyph-name="Ccedilla" unicode="&#xc7;" horiz-adv-x="490" 
d="M178 419q-3 -5 -3 -7q-22 -51 -31.5 -93.5t-6.5 -69.5t13.5 -45t26 -24.5t32.5 -3.5q23 5 43.5 27t24.5 45t-13 40q57 27 104 -14q45 -40 40 -104q-6 -69 -73 -119q-10 -9 -18 -13q11 -43 5 -71q-27 -114 -299 -53q-11 1 -17 11t-4 20q2 12 12 18t20 3q87 -10 133 -7.5
t58.5 7.5t16.5 16q3 6 0 24q-42 -10 -82.5 -10t-79.5 17t-64 50q-33 44 -43.5 97.5t-1.5 106t34 109.5q-26 -9 -55 -3t-54 20.5t-42 43t-18 64.5q-3 56 35 100t95 46q36 1 61.5 -11.5t31.5 -33t-8 -45.5q-2 8 -17 11t-30.5 -7.5t-15.5 -35.5q0 -23 17 -40t56 -11
q53 78 119 132q49 37 100 55t92.5 17.5t74.5 -11.5t54 -30q31 -26 29 -62.5t-23 -71t-57 -62t-72 -35.5q-35 -8 -60 7.5t-25 49.5q-63 -27 -115 -44zM373 618q-61 -2 -124 -81q58 29 80 35q25 8 36 0l2 -1q14 -14 -5 -63q2 -5 3 -6q9 -4 23 16t20.5 44t-2.5 41l-4 5
q-8 10 -29 10z" />
    <glyph glyph-name="Egrave" unicode="&#xc8;" horiz-adv-x="512" 
d="M551 553q3 -38 -16 -71t-60 -37q-49 -3 -72 18q-5 4 -41 45l-17 -8.5l-17 -8.5q3 -23 18 -56q37 -11 52 -32q-12 -39 -47 -52q-49 27 -92 20t-75 -34t-51 -59.5t-20 -58.5q-1 -56 45 -78q40 -19 70 2q19 13 22 38q4 33 -7 51t-38 -11q1 52 39 80t84 16q63 -16 81 -81
q19 -71 -28 -140q-61 -91 -192 -100q-10 -1 -20 -1q-113 -2 -170 83q-51 76 -27 171q27 105 131 159q57 29 130 37q-2 3 -3 6l-2 6l-2 6q-48 -23 -101 -21q-51 2 -90 36.5t-41 92.5q-1 27 8.5 53t27 46t42.5 33t53 14q54 2 80.5 -26t2.5 -64q0 10 -21 10q-32 1 -38 -29
l-1 -14q0 -23 16 -39.5t55 -10.5q4 35 19.5 63t48 49t77.5 27q79 10 131.5 -31.5t55.5 -98.5zM417 572q28 -30 43 16q-26 34 -68.5 25t-58.5 -53q36 15 67 38zM253 954q3 -3 17 -18t19 -21t17.5 -20.5t16.5 -22.5t12 -22t9 -23.5t2 -23t-4 -24t-14 -23t-23 -24.5
q-11 39 -31.5 70.5t-37.5 53t-20 37.5q-5 36 37 61z" />
    <glyph glyph-name="Eacute" unicode="&#xc9;" horiz-adv-x="513" 
d="M364 683q40 5 75.5 -4.5t59 -29t37.5 -44.5t16 -52q2 -38 -17.5 -71t-60.5 -37q-47 -3 -71 18l-9 9t-15 16.5t-16 19.5q-6 -3 -18 -8.5t-18 -8.5q7 -31 19 -56q38 -11 52 -32q-11 -38 -47 -52q-66 36 -118.5 13.5t-85 -66t-33.5 -79.5q-2 -56 45 -78q39 -19 70 2
q19 13 22 38q2 34 -8 51t-38 -11q1 52 39.5 80t83.5 16q64 -16 81 -81q18 -71 -29 -140q-61 -91 -191 -100q-10 -1 -21 -1q-113 -2 -169 83q-51 76 -27 171q27 105 131 159q57 29 130 37q-5 14 -6 18q-49 -23 -102 -21q-50 2 -89.5 36.5t-40.5 92.5q-3 55 35 99.5t94 46.5
q55 2 82 -26t3 -64q-1 8 -16.5 10.5t-30.5 -8t-15 -35.5q0 -22 16.5 -39t55.5 -11q5 54 41.5 92.5t103.5 46.5zM417 572q29 -30 42 15q-25 35 -67.5 26t-59.5 -53q39 17 69 38zM293 732q-18 15 -28 31.5t-13 30.5t2 31.5t10.5 29.5t19 29.5t21.5 27t24 26.5q10 11 15 16
q42 -25 38 -61q-3 -16 -20 -37.5t-37.5 -53t-31.5 -70.5z" />
    <glyph glyph-name="Ecircumflex" unicode="&#xca;" horiz-adv-x="513" 
d="M249 804q-22 -17 -51 -9q-45 12 -25 81q7 25 23 54q23 44 56 75q25 25 39 25t39 -25q32 -30 56 -75q55 -104 8 -131q-26 -15 -55 2l-6 3q16 8 16 32t-11 51t-24.5 49.5t-22.5 31.5q-14 -12 -32 -46.5t-25.5 -69t15.5 -48.5zM551 553q3 -38 -16 -71t-60 -37q-49 -3 -72 18
q-5 4 -41 45l-17 -8.5l-17 -8.5q3 -23 17 -56q38 -11 53 -32q-12 -39 -47 -52q-50 27 -92.5 20t-74.5 -34t-51 -59.5t-20 -58.5q-1 -56 45 -78q39 -19 70 2q19 13 22 38q4 33 -7 51t-38 -11q1 52 39 80t84 16q63 -16 81 -81q19 -71 -28 -140q-61 -91 -192 -100
q-10 -1 -20 -1q-113 -2 -170 83q-51 76 -27 171q27 105 131 159q57 29 130 37q-2 3 -3 6l-2 6l-2 6q-48 -23 -101 -21q-16 0 -31.5 4t-30 11.5t-26.5 18.5t-21.5 25t-15 32t-6.5 38q-2 36 14.5 69t48 54.5t68.5 22.5q54 2 80.5 -26t2.5 -64q0 11 -22 10q-32 0 -39 -31
q-1 -6 -1 -12q2 -23 18 -39.5t55 -10.5q4 35 19.5 63t48 49t78.5 27q27 3 51.5 -0.5t45 -12t36.5 -21.5t27.5 -28.5t18 -32.5t7.5 -35zM417 572q28 -30 43 16q-26 34 -68.5 25t-59.5 -53q36 15 68 38z" />
    <glyph glyph-name="Edieresis" unicode="&#xcb;" horiz-adv-x="512" 
d="M413 764q-37 11 -28 49q8 34 41 50q22 11 45 4q37 -12 28 -49q-8 -35 -41 -51q-22 -10 -45 -3zM283 764q-36 11 -28 49q8 34 41 50q23 11 46 4q36 -12 28 -49q-8 -35 -41 -51q-23 -10 -46 -3zM551 553q3 -38 -16 -71t-60 -37q-49 -3 -72 18q-5 4 -41 45q-5 -3 -11 -6
l-12 -6t-11 -5q3 -23 18 -56q37 -11 52 -32q-12 -39 -47 -52q-49 27 -92 20t-75 -34t-51 -59.5t-20 -58.5q-1 -56 45 -78q39 -19 70 2q19 13 22 38q4 33 -7 51t-38 -11q1 52 39 80t84 16q63 -16 81 -81q19 -71 -28 -140q-61 -91 -192 -100q-10 -1 -20 -1q-113 -2 -170 83
q-51 76 -27 171q27 105 131 159q57 29 130 37q-2 4 -4 9.5t-3 8.5q-48 -23 -101 -21q-51 2 -90 36.5t-41 92.5q-3 55 35.5 99.5t95.5 46.5q54 2 80.5 -26t2.5 -64q0 10 -21 10q-32 1 -38 -29l-1 -14q0 -23 16 -39.5t55 -10.5q3 26 12.5 48.5t27 41.5t44.5 31.5t61 17.5
q41 5 76 -4.5t58.5 -29t37.5 -44.5t15 -52zM417 572q28 -30 43 16q-26 34 -68.5 25t-58.5 -53q36 15 67 38z" />
    <glyph glyph-name="Igrave" unicode="&#xcc;" horiz-adv-x="646" 
d="M602 732q-10 39 -30.5 70.5t-37.5 53t-20 37.5q-6 34 37 61q3 -3 17.5 -18t19 -21t17 -20.5t17 -22t12 -22t8.5 -24t2 -23t-4.5 -24t-14.5 -23t-23 -24.5zM649 646q49 24 76 -5q21 -24 6 -51q-20 -39 -88 -23l-12 3q-44 -64 -73 -135q-14 -35 -19 -48q-4 -11 -12.5 -34
t-11.5 -34q-19 -59 -39 -104.5t-50.5 -90.5t-67 -73.5t-88.5 -43t-113 -7.5q-84 9 -138 78t-54 158q0 100 70.5 170.5t170.5 70.5q93 0 141 -56q40 -46 16 -91q-21 -39 -83 -55q10 21 1 34t-27 12q-29 -1 -38 -33q-11 -38 16 -63q19 -17 49 -16q24 0 46 9.5t38.5 23
t33.5 34.5t27.5 37.5t23.5 39.5q6 12 19 35.5t19 35.5q46 94 85 151q-67 -7 -99 -36q-25 -24 -20 -47t27 -23q6 0 11 4.5t7 7.5t3 1q-2 -23 -15.5 -41.5t-35.5 -28.5q-22 -7 -43.5 -4.5t-39 16t-25.5 34.5q-12 30 1.5 59t43 50t69.5 33q36 12 76.5 14t71.5 -1q19 19 44 33z
" />
    <glyph glyph-name="Iacute" unicode="&#xcd;" horiz-adv-x="646" 
d="M542 732q-14 12 -23 24.5t-14 23t-4.5 24t1.5 23t9 24t12 22t16.5 22t17.5 20.5t19 21t17 18q44 -27 37 -61q-3 -16 -20 -37.5t-37 -53t-31 -70.5zM649 646q49 24 76 -5q21 -24 6 -51q-20 -39 -88 -23q-6 1 -12 3q-44 -64 -73 -135q-14 -34 -19 -48q-4 -9 -8 -21.5
t-8.5 -25t-7.5 -21.5q-19 -59 -39 -104.5t-50.5 -90.5t-67 -73.5t-88.5 -43t-113 -7.5q-84 9 -138 78t-54 158q0 66 32.5 121.5t88 87.5t120.5 32q92 0 140 -56q40 -46 16 -91q-20 -39 -82 -55q10 21 1 34t-27 12q-30 -1 -38 -35q-10 -38 17 -62q18 -15 47 -15t55.5 13
t48 37t35.5 44t31 50q6 12 19 35.5t19 35.5q46 93 85 151q-67 -7 -99 -36q-25 -24 -20.5 -47t27.5 -23q6 0 10.5 4.5t7 7.5t3.5 1q-2 -23 -15.5 -41.5t-35.5 -28.5q-22 -7 -43.5 -4.5t-39 16t-25.5 34.5q-12 30 1.5 59t43 50t69.5 33q54 18 146 13q20 18 45 33h1z" />
    <glyph glyph-name="Icircumflex" unicode="&#xce;" horiz-adv-x="646" 
d="M545 804q-21 -17 -51 -9q-44 12 -25 79q7 25 24 56q23 44 55 75q25 25 40 25t40 -25q34 -34 55 -75q55 -104 8 -131q-25 -14 -54 1q-4 2 -7 4q23 14 15.5 48.5t-25.5 69t-32 46.5q-14 -12 -32.5 -46.5t-25.5 -69t15 -48.5zM648 646q49 24 76 -5q21 -23 7 -50
q-19 -39 -86 -25l-14 4q-44 -64 -73 -135q-14 -35 -19 -48q-5 -11 -13 -34t-13 -34q-18 -59 -38 -104.5t-50.5 -91t-67 -73.5t-88.5 -42.5t-114 -7.5q-83 9 -136.5 78t-53.5 158q0 100 70.5 170.5t170.5 70.5q91 0 139 -54q41 -46 17 -92q-21 -39 -84 -56q11 21 2.5 34
t-27.5 12q-29 -1 -38 -33q-10 -38 16 -63q18 -17 49 -16q29 0 55 13t47.5 37t35.5 44t31 50q6 12 18.5 35.5t19.5 35.5q50 99 86 151q-67 -7 -100 -36q-25 -24 -20 -47t29 -23q4 0 9 4.5t7.5 7.5t3.5 1q-6 -51 -52 -70q-22 -7 -43 -4.5t-38.5 16t-26.5 34.5q-9 24 -3.5 45.5
t22.5 40t42 33t54 23.5q53 18 146 13q24 21 45 33z" />
    <glyph glyph-name="Idieresis" unicode="&#xcf;" horiz-adv-x="646" 
d="M587 764q-37 11 -28 49q8 34 41 50q22 11 45 4q37 -12 28 -49q-8 -35 -41 -51q-22 -10 -45 -3zM648 646q49 24 76 -5q21 -23 7 -51q-19 -38 -86 -24l-14 4q-44 -64 -73 -135q-14 -34 -19 -48q-4 -9 -8.5 -21.5l-9 -25t-8.5 -21.5q-18 -59 -37.5 -104.5t-50.5 -90.5
t-67.5 -73.5t-88.5 -43t-114 -7.5q-83 9 -136.5 78t-53.5 158q0 66 32.5 121.5t88 87.5t120.5 32q91 0 139 -54q41 -46 17 -92q-21 -39 -84 -56q11 21 2.5 34t-26.5 12q-30 -1 -38 -35q-10 -38 17 -62q18 -15 47 -15t55 13t47.5 37t35.5 44t31 50q21 37 39 71q46 94 85 151
q-67 -7 -100 -36q-25 -24 -20 -47t29 -23q4 0 9 4.5t7.5 7.5t3.5 1q-2 -23 -16 -41.5t-36 -28.5q-22 -7 -43 -4.5t-38.5 16t-26.5 34.5q-18 44 17.5 83.5t97.5 58.5q53 18 146 13q20 18 45 33zM456 764q-36 11 -28 49q8 34 41 50q23 11 46 4q36 -12 27 -49q-7 -35 -40 -51
q-23 -10 -46 -3z" />
    <glyph glyph-name="Eth" unicode="&#xd0;" horiz-adv-x="824" 
d="M833 650q4 -27 -18.5 -48t-48.5 -18q6 36 -24 50t-64 -8q62 -48 88.5 -114t19.5 -131t-34.5 -131t-69.5 -118t-90 -87t-91 -42v1q-85 -20 -134 54q-83 -71 -210 -58q-84 9 -138 78t-54 158q0 100 70.5 170.5t170.5 70.5q93 0 141 -56q40 -46 16 -91q-21 -39 -83 -55
q10 21 1 34t-27 12q-29 -1 -38 -33q-11 -38 16 -63q19 -17 49 -16q24 0 46 9.5t38.5 23t33.5 34.5t27.5 37.5t23.5 39.5l2 6q-17 3 -26 8q-31 16 -24 66q69 6 92 5q55 107 98 162q-20 5 -41.5 6.5t-45.5 -1.5t-39.5 -18t-16.5 -40q0 -23 16 -35t38 2q-15 -31 -44.5 -47.5
t-64.5 -13.5q-44 4 -78 36.5t-34 75.5q1 27 11.5 51t28.5 40.5t40.5 26.5t46.5 12q57 6 119 -8t111 -37q31 28 68 44t66 13q27 -4 42.5 -19.5t17.5 -37.5zM471 204q62 2 112.5 49.5t73.5 109.5t20 125t-38 92l-1 -1q-43 -60 -80 -144l-4 -9q51 -22 53 -91q-38 16 -80 20
l-13 -37q-22 -70 -43 -114z" />
    <glyph glyph-name="Ntilde" unicode="&#xd1;" horiz-adv-x="824" 
d="M902 664q69 57 133 27q48 -22 57 -74q8 -52 -32 -94q-48 89 -166 -39q-102 -109 -195 -301q-42 -84 -61 -149q-41 -40 -89 -35q-20 7 -33.5 21t-18.5 35.5t-7 42t4 52.5t10.5 54.5t16.5 60.5t19 58.5t20 58.5q3 8 4.5 12.5t4 11t4.5 11.5q7 20 16.5 52.5t11.5 39.5
q4 9 4 19q-3 -4 -32 -59q-4 -8 -9 -19.5t-6 -14.5q-14 -35 -19 -48q-4 -11 -12.5 -34t-11.5 -35q-19 -58 -39 -103.5t-50.5 -90.5t-67 -73.5t-88.5 -43t-113 -7.5q-84 9 -138 78t-54 158q0 100 70.5 170.5t170.5 70.5q92 0 140 -56q40 -46 16 -91q-20 -39 -82 -55
q10 21 1 34t-27 12q-30 -1 -38 -35q-10 -38 17 -62q19 -15 47 -15q24 0 46.5 9.5t39 22.5t33.5 34.5t27.5 37.5t23.5 40q5 10 12 22.5t14 25.5t12 23q56 111 92 162q-15 12 -37 17.5t-42.5 2.5t-36 -18t-17.5 -41q0 -24 16.5 -35.5t39.5 2.5q-10 -21 -27.5 -35.5t-39 -21
t-43.5 -4.5q-44 4 -77.5 36.5t-33.5 75.5q1 36 19.5 65.5t46.5 45.5t61 19q57 6 117 -14t94 -48q81 78 152 74q27 -4 42.5 -19.5t18.5 -37.5q3 -28 -19 -48.5t-48 -17.5q4 22 -8 37.5t-33 17.5q-40 4 -73 -41q45 -65 11 -150q-63 -189 -65 -295q30 69 46.5 105t51.5 107.5
t62.5 117t66.5 97t77 84.5zM723 763q-41 -3 -62.5 15.5t-20.5 43.5t18 39t35 12t25 -17q-15 2 -16 -7q0 -11 21 -12h10q26 3 69 16t74 15q28 2 48 -7.5t27.5 -23t7.5 -29.5q-1 -24 -18 -38t-35 -12.5t-25 16.5q15 -2 15 7q1 12 -20 12q-5 1 -10 0q-23 -3 -47 -9.5t-47.5 -13
t-48.5 -7.5z" />
    <glyph glyph-name="Ograve" unicode="&#xd2;" 
d="M640 732q-11 39 -32 70.5t-37 53t-19 37.5q-7 35 37 61q4 -4 19 -20.5t21 -23.5t18.5 -22.5t17 -25t11.5 -25t6 -27t-4 -25.5t-13 -27t-25 -26zM424 537q134 167 255 159q76 -5 116 -74q38 -67 12 -138q-11 -32 -37 -56q2 -9 -2.5 -32.5t-11 -49.5t-13.5 -49t-11 -34
q-26 -76 -64 -132.5t-79.5 -85.5t-84 -40t-81.5 -3q-85 18 -124 82.5t-29 149.5t60 172q3 5 5 10q-32 8 -56 1t-42 -21.5t-26 -36.5t-8.5 -43.5t11 -43t32.5 -35.5q-63 -17 -109.5 -8t-77 38t-45 63t-14.5 67q1 43 19.5 80.5t59 65t95.5 31.5q105 14 249 -37h1zM468 119
q30 1 63.5 42t59 105.5t35.5 130.5q-21 -1 -64 9.5t-48 10.5q-52 -101 -67.5 -196t21.5 -102zM732 528q32 22 26 56q-6 30 -37 33q-61 6 -146 -105q-4 -6 -9 -12q43 -8 62 -8q-2 13 -4 23q24 32 54 36.5t54 -23.5z" />
    <glyph glyph-name="Oacute" unicode="&#xd3;" 
d="M595 732q-14 12 -23 24.5t-14 23t-4.5 24t1.5 23t9 24t12 22t16.5 22t17.5 20.5t19 21t17 18q44 -27 37 -61q-3 -16 -20 -37.5t-37.5 -53t-30.5 -70.5zM425 537q134 167 255 159q75 -5 115 -74q38 -67 12 -138q-11 -32 -37 -56q3 -16 -12 -76.5t-26 -88.5
q-21 -62 -50 -110.5t-60 -78.5t-66 -50t-68 -23t-65 1q-85 18 -124 82.5t-29 149.5t60 172q1 2 3 5t3 5q-35 9 -65 -1.5t-45.5 -32.5t-21 -48.5t5.5 -53t36 -43.5q-63 -17 -109.5 -8t-77 38t-45 63t-14.5 67q1 43 19.5 80.5t59 65t95.5 31.5q104 14 250 -37h1zM468 119
q30 1 63.5 42t60 105.5t35.5 130.5q-22 -1 -65 9.5t-48 10.5q-52 -101 -67 -196.5t21 -101.5zM733 528q33 22 25 57q-7 31 -39 32q-66 2 -153 -117q43 -8 62 -8q0 4 -4 23q24 32 54 36.5t55 -23.5z" />
    <glyph glyph-name="Ocircumflex" unicode="&#xd4;" 
d="M425 537q134 167 255 159q75 -5 115 -74q38 -67 12 -138q-12 -33 -37 -56q2 -9 -2.5 -32.5t-11 -49.5t-13.5 -49t-11 -34q-26 -76 -64 -132.5t-79.5 -85.5t-84 -40t-81.5 -3q-85 18 -124 82.5t-29 149.5t60 172q1 2 3 5t3 5q-32 8 -56 1t-42 -21.5t-26.5 -36.5t-9 -43.5
t11 -43t32.5 -35.5q-63 -17 -109.5 -8t-77 38t-45 63t-14.5 67q1 43 19.5 80.5t59 65t95.5 31.5q104 14 250 -37h1zM468 119q30 1 63.5 42t59 105.5t35.5 130.5q-21 -1 -64 9.5t-48 10.5q-52 -101 -67 -196.5t21 -101.5zM732 528q32 22 26 56q-6 30 -37 33q-61 6 -146 -105
q-4 -6 -9 -12q43 -8 62 -8q-2 13 -4 23q24 32 54 36.5t54 -23.5zM577 804q-21 -17 -50 -9q-45 12 -25 81q7 24 23 54q24 44 56 75q24 25 39 25t40 -25q34 -34 56 -75q55 -104 7 -131q-25 -14 -54 1q-4 2 -7 4q17 8 17 32t-11 51t-24.5 49.5t-22.5 31.5q-10 -8 -24 -31
t-25 -50t-11 -51t16 -32z" />
    <glyph glyph-name="Otilde" unicode="&#xd5;" 
d="M478 763q-27 -2 -46.5 7t-28 22.5t-7.5 29.5q1 25 17.5 39t35 12t24.5 -17q-15 2 -15 -7q0 -11 22 -12h10q25 3 67.5 16t74.5 15q41 3 63 -16t21 -44q-2 -24 -19 -38t-35 -12.5t-24 16.5q15 -2 15 7q1 12 -22 12q-4 1 -9 0q-27 -3 -69.5 -15.5t-74.5 -14.5zM424 537
q133 167 254 159q77 -5 116 -74q39 -67 14 -137q-12 -33 -38 -57q2 -17 -13 -78t-25 -87q-26 -76 -64 -132.5t-79.5 -85.5t-84 -40t-81.5 -3q-65 13 -103.5 54t-47.5 97.5t6 122.5t52 130l2.5 5l2.5 5q-36 9 -65.5 -1.5t-45 -32.5t-20.5 -48.5t6 -53t36 -43.5
q-63 -17 -109.5 -8t-77 38t-45 63t-14.5 67q1 67 46.5 119t127.5 58q105 14 249 -37h1zM468 119q22 1 47 25.5t47 63.5t39.5 89.5t24.5 99.5q-10 -1 -23 1t-25.5 4.5t-24 5.5t-22.5 6t-17 3q-52 -101 -67.5 -196t21.5 -102zM732 528q32 22 26 56q-6 30 -37 33
q-61 6 -146 -105q-4 -6 -9 -12q43 -8 62 -8q-2 13 -4 23q24 32 53.5 36.5t54.5 -23.5z" />
    <glyph glyph-name="Odieresis" unicode="&#xd6;" 
d="M581 764q-36 11 -28 49q8 34 41 50q23 11 46 4q36 -12 27 -49q-7 -35 -40 -51q-23 -10 -46 -3zM451 764q-37 11 -28 49q8 34 41 50q22 10 45 4q36 -12 28 -49q-8 -35 -41 -51q-23 -10 -45 -3zM424 537q134 167 255 159q76 -5 116 -74q38 -67 12 -138q-12 -33 -37 -56
q2 -9 -2.5 -32.5t-11 -49.5t-13.5 -49t-11 -34q-26 -76 -64 -132.5t-79.5 -85.5t-84 -40t-81.5 -3q-65 13 -103.5 54t-47.5 97.5t6 122.5t52 130l2.5 5l2.5 5q-32 8 -56 1t-42 -21.5t-26 -36.5t-8.5 -43.5t11 -43t32.5 -35.5q-63 -17 -109.5 -8t-77 38t-45 63t-14.5 67
q1 43 19.5 81t59 65t95.5 31q105 14 249 -37h1zM468 119q29 1 62.5 42t59.5 105.5t36 130.5q-21 -1 -64 9.5t-48 10.5q-52 -101 -67.5 -196t21.5 -102zM732 528q32 22 26 56q-6 30 -37 33q-61 6 -146 -105q-4 -6 -9 -12q43 -8 62 -8q-2 13 -4 23q24 32 53.5 36.5t54.5 -23.5
z" />
    <glyph glyph-name="multiply" unicode="&#xd7;" horiz-adv-x="407" 
d="M293 270q3 -4 10 -13.5t11 -15.5t10.5 -15t11 -14.5t10 -11.5t10 -9t7.5 -4q-29 -34 -72 -41q-37 -3 -60.5 13.5t-45.5 47.5q-34 -31 -63.5 -47.5t-64.5 -13.5q-20 3 -34 12.5t-23 28.5q16 4 102 83l23 22l-18 27q-3 4 -10 13.5t-11 15.5t-10.5 14.5t-11 14.5t-10 11.5
t-10 9t-7.5 4.5q31 37 72 41q38 4 61.5 -13.5t46.5 -51.5q24 22 40 34.5t41.5 22.5t50.5 8q40 -5 57 -41q-15 -4 -101 -83l-28 -26z" />
    <glyph glyph-name="Oslash" unicode="&#xd8;" 
d="M709 690q52 -15 82 -62.5t25.5 -104t-46.5 -95.5q2 -17 -13 -78t-25 -87q-43 -127 -114 -193t-147 -71q-100 -244 -182 -263l-21 24q60 33 141 246q-79 21 -114 85t-24.5 147.5t59.5 167.5l2.5 5l2.5 5q-36 9 -65.5 -1.5t-45 -32.5t-21 -48.5t5.5 -53t36 -43.5
q-63 -17 -109.5 -8t-76.5 38t-44.5 63t-14.5 67q1 43 19 81t58.5 65t96.5 31q103 14 249 -37h1q117 146 227 158q71 165 127 183l23 -18q-38 -28 -92 -170zM586 525q-14 -16 -20 -25q2 0 6 -1q3 -1 5 -1q1 3 2.5 8.5t3.5 10t3 8.5zM453 128q14 40 29.5 87.5t34.5 105
t30 89.5q-25 6 -33 7q-45 -87 -63.5 -174t2.5 -115zM531 162q33 41 59 105t36 130h-16q-50 -154 -79 -235zM732 528q15 10 22 25t4.5 28.5t-12 24t-27 11t-40.5 -9.5q-9 -26 -21 -62q41 21 74 -17z" />
    <glyph glyph-name="Ugrave" unicode="&#xd9;" horiz-adv-x="472" 
d="M335 732q-10 39 -31 70.5t-37.5 53t-19.5 37.5q-7 34 36 61q5 -4 14 -14q14 -15 21.5 -23.5t20 -24t18 -26t13 -25.5t7 -27.5t-3 -26.5t-12.5 -28t-26 -27zM362 67q38 -17 55 -48t10.5 -64.5t-25.5 -63.5t-53.5 -48.5t-71.5 -15.5q-64 6 -93 54.5t-18 132.5t63 189
q-96 -178 -202 -201q-67 -14 -107 37q-37 47 -19 105q11 34 40 59q37 31 74 71.5t72 90t49.5 101.5t-0.5 92q-8 22 -26 33.5t-36 12t-32.5 -8.5t-17.5 -26q-3 -21 13 -28t38 14q21 -31 22.5 -65t-12 -62t-43 -45.5t-66.5 -17.5q-54 1 -84.5 36.5t-29.5 85.5q1 35 15 69
t39.5 63t66.5 46.5t91 17.5q77 -3 123.5 -37.5t56.5 -86.5t-6 -113.5t-56 -119.5q-6 -8 -66 -93q-21 -29 -27 -49t1.5 -25.5t26.5 4t43 32.5q60 56 132.5 179.5t135.5 266.5h133q-150 -270 -217.5 -419.5t-47.5 -191.5q15 -28 36 -16q21 14 20 53z" />
    <glyph glyph-name="Uacute" unicode="&#xda;" horiz-adv-x="471" 
d="M362 67q38 -17 54.5 -48t10 -64.5t-25.5 -63.5t-53 -48.5t-71 -15.5q-64 6 -93.5 54.5t-18.5 132.5t63 189q-93 -173 -196 -200q-68 -17 -110 33q-39 46 -22 105q11 36 41 62q20 17 40 37t43.5 45.5t42.5 52t36.5 56t27 57t12 56t-7.5 51.5q-8 22 -26 33.5t-36 12
t-32.5 -9t-17.5 -25.5q-2 -21 13.5 -28t38.5 14q20 -31 22 -65t-12 -62t-42.5 -45.5t-66.5 -17.5q-55 1 -85.5 36.5t-28.5 85.5q1 35 14.5 69t39 63t67 46.5t91.5 17.5q62 -2 104 -25t60 -60t19 -82.5t-16.5 -94.5t-49.5 -95q-60 -84 -66 -93q-21 -29 -27 -49t1.5 -25.5
t26.5 4t44 32.5q60 57 133 181t134 265h133q-99 -178 -157.5 -292.5t-90 -202t-17.5 -116.5q14 -28 36 -16q22 13 21 53zM322 732q-19 15 -29 31.5t-13 31t2 32t10.5 29.5t19.5 30t22.5 27.5t24.5 26.5l3.5 3.5l3.5 3.5t3.5 4t2.5 3q44 -27 37 -61q-3 -16 -19.5 -37.5
t-37 -53t-30.5 -70.5z" />
    <glyph glyph-name="Ucircumflex" unicode="&#xdb;" horiz-adv-x="472" 
d="M225 804q-21 -17 -51 -9q-44 12 -25 79q7 25 24 56q23 44 55 75q25 25 39.5 25t39.5 -25q35 -34 56 -75q55 -104 8 -131q-25 -14 -54 1q-4 2 -7 4q23 14 15.5 48.5t-25.5 69t-32 46.5q-14 -12 -32.5 -46.5t-25.5 -69t15 -48.5zM362 67q38 -17 55 -48t10.5 -64.5
t-25.5 -63.5t-53 -48.5t-71 -15.5q-64 6 -93.5 54.5t-18.5 132.5t63 189q-96 -178 -201 -201q-67 -14 -107 37q-38 47 -20 105q11 34 40 59q37 31 74 71.5t72 90t49.5 101.5t-0.5 92q-8 22 -26 33.5t-36 12t-32.5 -8.5t-17.5 -26q-3 -21 13 -28t40 14q19 -31 21 -65t-12 -62
t-43 -45.5t-65 -17.5q-56 1 -86.5 36.5t-29.5 85.5q1 35 15 69t39.5 63t66.5 46.5t91 17.5q62 -2 104.5 -25t60.5 -60t19 -82.5t-16.5 -94.5t-49.5 -95q-11 -15 -33 -46t-33 -47q-21 -29 -27 -49t1.5 -25.5t26.5 4t43 32.5q60 57 133.5 181t134.5 265h133
q-150 -270 -217.5 -419.5t-47.5 -191.5q14 -27 35 -16q23 12 21 53z" />
    <glyph glyph-name="Udieresis" unicode="&#xdc;" horiz-adv-x="472" 
d="M347 764q-37 11 -28 49q8 34 41 50q22 11 45 4q37 -12 28 -49q-8 -35 -41 -51q-22 -10 -45 -3zM362 67q38 -17 55 -48t10.5 -64.5t-25.5 -63.5t-53.5 -48.5t-71.5 -15.5q-64 6 -93 54.5t-18 132.5t63 189q-96 -178 -202 -201q-67 -14 -107 37q-38 47 -19 105q10 34 40 59
q37 31 74 71.5t71.5 90t49.5 101.5t0 92q-8 22 -26 33.5t-36.5 12t-33 -8.5t-17.5 -26q-2 -21 14 -28t38 14q21 -31 22.5 -65t-12 -62t-43 -45.5t-66.5 -17.5q-54 1 -84.5 36.5t-29.5 85.5q1 35 15 69t39.5 63t66.5 46.5t91 17.5q77 -3 123 -37.5t56.5 -86.5t-6 -113.5
t-56.5 -119.5q-9 -13 -21 -29.5t-23.5 -33.5t-20.5 -30q-21 -29 -27 -49t1.5 -25.5t26.5 4t43 32.5q60 56 132.5 179t135.5 267h133q-151 -272 -218.5 -420.5t-47.5 -190.5q14 -28 36 -16q22 13 21 53zM216 764q-36 11 -27 49q8 34 40 50q23 11 45 4q38 -12 29 -49
q-8 -35 -42 -51q-22 -10 -45 -3z" />
    <glyph glyph-name="Yacute" unicode="&#xdd;" horiz-adv-x="432" 
d="M271 732q-14 12 -23 24.5t-14 23t-4 24t2 23t8.5 23.5t12 22t17 22.5t17.5 20.5t19 21t17 18q44 -27 37 -61q-3 -16 -20 -37.5t-37.5 -53t-31.5 -70.5zM366 651h141q-16 -37 -40 -91.5t-43.5 -100t-42 -95.5t-44.5 -98t-42 -87q-98 -199 -253 -180q-55 7 -90 38.5
t-38 85.5q-2 35 12.5 62.5t37.5 41t53 11t57 -23.5q-28 -6 -33 -30q-5 -21 18 -26q9 -2 23 1q12 3 27 11.5t29.5 20t25.5 23.5q-45 -14 -78 20.5t-31 78.5q1 28 14.5 61t25 56t17 59t-9.5 69q-8 22 -26 33.5t-36.5 12t-33.5 -8.5t-17 -26q-2 -21 14 -28t38 14
q21 -31 22.5 -65t-12 -62t-43 -45.5t-66.5 -17.5q-54 1 -84.5 36.5t-29.5 85.5q1 35 15 69t39.5 63t66.5 46.5t91 17.5q168 -5 179 -135q5 -62 -24 -145q-2 -6 -9.5 -23t-12.5 -31t-5 -22q0 -14 13 -16q13 -3 34 11.5t39 45.5q22 46 43 98.5t43.5 114.5t25.5 70z" />
    <glyph glyph-name="Thorn" unicode="&#xde;" horiz-adv-x="473" 
d="M372 566q70 -70 70 -167.5t-70 -167.5t-167.5 -70t-167.5 70q-3 2 -7 7.5t-7 7.5v-141q0 -11 -8.5 -19.5t-20.5 -8.5t-20 8.5t-8 19.5v622q0 8 4 15t10 10.5t14 3.5q12 0 20.5 -8.5t8.5 -20.5v-178q11 13 14 17q71 68 167.5 68t167.5 -68zM205 219q52 -1 89 35t46 88.5
t1 105.5t-44.5 90.5t-91.5 38.5q-73 0 -127 -52q-52 -54 -52 -127q0 -75 52 -127t127 -52z" />
    <glyph glyph-name="germandbls" unicode="&#xdf;" horiz-adv-x="625" 
d="M449 316q69 -30 79 -97q10 -72 -56 -132q-80 -72 -230 -78l16 60q81 17 104 112q23 99 -49 113l12 46q82 18 106 113q15 60 -24 91q-32 25 -65 5q-22 -13 -31 -44q-11 -43 -56.5 -221t-69.5 -275h-185l13 46l130 496q13 42 59 67.5t101.5 32t107 3.5t80.5 -14
q34 -13 57.5 -37t31.5 -57.5t0 -70.5t-41.5 -79t-89.5 -80z" />
    <glyph glyph-name="agrave" unicode="&#xe0;" horiz-adv-x="453" 
d="M413 221q7 8 17 8t17.5 -7t3.5 -16q-13 -26 -32.5 -54.5t-46 -62t-55 -54t-56.5 -29.5t-53.5 10.5t-42.5 67.5q-24 -37 -50.5 -59t-61.5 -22.5t-69 30.5q-58 54 -27 160q26 94 99 158q84 75 162 42q32 -14 60 -48q19 44 31 56h98q-69 -74 -96 -176q-19 -75 4 -89
q28 -17 98 85zM196 237q17 44 14 75.5t-22 31.5q-20 0 -44.5 -31.5t-39.5 -75t-12.5 -74.5t21.5 -31t43.5 31t39.5 74zM236 467q-11 38 -32 70t-37 53.5t-19 37.5q-7 35 37 61q4 -5 21 -23.5t24 -26.5t20 -26t17.5 -29t8.5 -28t0.5 -30t-13.5 -29t-27 -30z" />
    <glyph glyph-name="aacute" unicode="&#xe1;" horiz-adv-x="452" 
d="M228 467q-18 14 -27.5 30t-13.5 29t0.5 30t8.5 28t17.5 29t20.5 26t23.5 26.5t21.5 23.5q43 -27 37 -61q-3 -16 -19.5 -37.5t-37 -53.5t-31.5 -70zM415 221q7 13 24.5 6t11.5 -21q-53 -98 -119 -158q-116 -105 -166 36q-24 -37 -51 -59t-61.5 -22.5t-67.5 30.5
q-59 54 -28 160q26 95 99 159q84 74 162 40q32 -14 58 -47q18 40 32 56h98q-70 -74 -96 -176q-20 -76 5 -89q28 -15 97 83zM197 237q16 44 13.5 75.5t-21.5 31.5q-20 0 -44.5 -31t-40.5 -76q-16 -43 -13.5 -74t21.5 -31q20 0 44.5 30.5t40.5 74.5z" />
    <glyph glyph-name="acircumflex" unicode="&#xe2;" horiz-adv-x="452" 
d="M170 538q-22 -17 -51 -9q-46 13 -24 83q7 24 23 53q23 44 54 75q25 25 40 25t40 -25q34 -34 56 -75q55 -105 7 -132q-26 -14 -54 1q-4 2 -6 4q16 8 16 32.5t-11 51t-24.5 49.5t-22.5 32q-14 -12 -32.5 -47t-26 -69.5t15.5 -48.5zM413 221q8 13 25.5 6t11.5 -21
q-14 -26 -33 -54.5t-45.5 -62t-54.5 -54t-56 -29.5t-53.5 10.5t-42.5 67.5q-24 -37 -51 -59t-61.5 -22.5t-67.5 30.5q-59 54 -28 160q26 94 99 159q85 75 163 40q32 -14 59 -47q3 9 14 29.5t16 26.5h99q-70 -74 -97 -176q-20 -76 5 -89q29 -16 98 85zM196 237
q16 44 13.5 75.5t-21.5 31.5t-44 -31.5t-41 -75.5q-16 -43 -13.5 -74t21.5 -31q20 0 44.5 30.5t40.5 74.5z" />
    <glyph glyph-name="atilde" unicode="&#xe3;" horiz-adv-x="452" 
d="M150 487q-41 -2 -62.5 16.5t-20.5 43.5q1 24 17.5 38t35 12.5t24.5 -16.5q-15 2 -15 -7q0 -11 22 -12h10q23 3 46.5 10t47 13t48.5 8q21 1 38 -3.5t27 -13.5t14.5 -20t4.5 -23q-2 -24 -19 -38t-35 -12.5t-24 16.5q15 -1 15 8q1 11 -23 11h-8q-27 -3 -70 -16t-73 -15z
M413 221q8 13 25.5 6t11.5 -21q-14 -26 -33 -54.5t-45.5 -62t-54.5 -54t-56 -29.5t-53.5 10.5t-42.5 67.5q-24 -37 -51 -59t-61.5 -22.5t-67.5 30.5q-59 54 -28 160q26 94 99 159q85 75 163 40q32 -14 59 -47q3 9 14 29.5t16 26.5h99q-70 -74 -97 -176q-20 -76 5 -89
q29 -16 98 85zM196 237q16 44 13.5 75.5t-21.5 31.5t-44 -31.5t-41 -75.5q-16 -43 -13.5 -74t21.5 -31q20 0 44.5 30.5t40.5 74.5z" />
    <glyph glyph-name="adieresis" unicode="&#xe4;" horiz-adv-x="452" 
d="M250 499q-37 11 -28 49q8 34 41 50q22 11 45 4q37 -12 28 -50q-8 -34 -41 -50q-22 -11 -45 -3zM120 499q-36 11 -28 49q8 34 41 50q23 11 46 4q36 -12 28 -50q-8 -34 -41 -50q-23 -10 -46 -3zM413 221q8 13 25.5 6t11.5 -21q-14 -26 -33 -54.5t-45.5 -62t-54.5 -54
t-56 -29.5t-53.5 10.5t-42.5 67.5q-24 -37 -51 -59t-61.5 -22.5t-67.5 30.5q-59 54 -28 160q26 94 99 159q85 75 163 40q32 -14 59 -47q3 9 14 29.5t16 26.5h99q-70 -74 -97 -176q-20 -76 5 -89q29 -16 98 85zM196 237q16 44 13.5 75.5t-21.5 31.5t-44 -31.5t-41 -75.5
q-16 -43 -13.5 -74t21.5 -31q20 0 44.5 30.5t40.5 74.5z" />
    <glyph glyph-name="aring" unicode="&#xe5;" horiz-adv-x="452" 
d="M413 221q7 8 17 8t17 -7t3 -16q-49 -94 -115 -155q-113 -105 -166 21l-4 12q-24 -37 -50.5 -59t-61.5 -22.5t-69 30.5q-58 54 -27 160q26 94 99 158q84 75 162 42q32 -14 60 -48q19 44 31 56h98q-69 -74 -96 -176q-19 -75 4 -89q28 -17 98 85zM196 237q17 44 14 75.5
t-22 31.5q-20 0 -44.5 -31.5t-39.5 -75t-12.5 -74.5t21.5 -31t43.5 31t39.5 74zM175 482q-45 14 -37 61q7 41 46 65q33 21 68 10q46 -14 38 -61q-7 -42 -47 -66q-33 -20 -68 -9zM236 589q-33 10 -56 -21q-21 -28 -4 -47q6 -7 15 -10q33 -10 56 21q21 28 4 47q-5 7 -15 10z
" />
    <glyph glyph-name="ae" unicode="&#xe6;" horiz-adv-x="635" 
d="M596 221q7 8 17 8t17 -7t3 -16q-11 -20 -26 -43.5t-34.5 -49.5t-43 -50t-45.5 -39q-33 -25 -89 -24.5t-91 27.5q-94 -65 -139 57q-24 -37 -50.5 -59t-61.5 -22.5t-69 30.5q-58 54 -27 160q26 94 99 158q84 75 162 42q32 -14 60 -48q19 44 31 56h98q-18 -19 -37 -47
q41 36 84.5 45.5t88.5 -13.5q26 -13 34 -36t-0.5 -46.5t-28.5 -42.5q-45 -47 -145 -100q3 -27 18 -39t36 -9.5t43.5 13.5t42.5 28q31 35 53 67zM415 237q-5 -12 -7 -19q40 18 84 65q48 53 16 60q-4 1 -10 1q-19 0 -43.5 -31.5t-39.5 -75.5zM196 237q16 44 13.5 75.5
t-22 31.5t-44 -31.5t-39.5 -75t-12.5 -74.5t21.5 -31t43.5 31t39.5 74z" />
    <glyph glyph-name="ccedilla" unicode="&#xe7;" horiz-adv-x="322" 
d="M284 221q8 13 26 6t12 -21q-21 -39 -56 -86t-71 -78q0 -54 -4 -71q-17 -73 -194 -34q-7 2 -11 8t-2 13t8 11t13 2q56 -6 85.5 -4.5t38 4.5t11.5 10q0 2 3 28q-37 -14 -85 -7.5t-75 31.5q-25 24 -33.5 60.5t0.5 76t28.5 80.5t48.5 73t62.5 54.5t70.5 24.5t72 -16
q46 -23 35 -72q-9 -46 -56 -70q-39 -20 -85 -10q30 15 61 57q34 50 -1 53q-19 0 -43.5 -31.5t-40.5 -75.5q-13 -38 -11 -68q0 -31 15 -45t36.5 -11.5t45 13.5t43.5 28q11 11 22 26l5 5q8 10 26 36z" />
    <glyph glyph-name="egrave" unicode="&#xe8;" horiz-adv-x="318" 
d="M148 467q-11 39 -32 70.5t-37.5 53t-19.5 37.5q-5 36 38 61q4 -4 21 -23.5t23.5 -27t20 -26t17.5 -29t8.5 -27.5t0.5 -30t-13.5 -29t-26.5 -30zM281 221q7 8 16.5 8t17.5 -7t4 -16q-26 -48 -67 -101t-83 -81q-35 -27 -95 -24t-94 33q-25 24 -33.5 60.5t0.5 76t28.5 80.5
t48.5 73t62.5 54.5t70.5 24.5t72 -16q19 -10 28.5 -26t8.5 -33t-10 -34.5t-23 -31.5q-46 -47 -145 -100q2 -22 12.5 -34t26 -14t33.5 3t35.5 15t32.5 23q31 35 53 67zM99 237q-1 -3 -3 -9.5t-3 -9.5q40 18 84 65q48 53 15 60q-4 1 -9 1q-19 0 -43.5 -31.5t-40.5 -75.5z" />
    <glyph glyph-name="eacute" unicode="&#xe9;" horiz-adv-x="321" 
d="M156 467q-16 13 -26 26t-13 27t-4 25.5t6 26.5t11 24.5t17 25.5t19 23t21 23.5t19 20.5q44 -27 37 -61q-3 -16 -19.5 -37.5t-37 -53t-30.5 -70.5zM282 221q8 13 25.5 6t11.5 -21q-26 -47 -66.5 -100.5t-81.5 -81.5q-36 -27 -96 -24t-93 33q-26 24 -34.5 60.5t0.5 76
t28 80.5t48.5 73t63 54.5t70.5 24.5t71 -16q26 -13 34 -36t-1 -46.5t-29 -42.5q-20 -21 -47 -41t-46.5 -31t-51.5 -28q3 -27 18.5 -39t36.5 -9.5t43.5 13.5t41.5 28q29 32 54 67zM100 237q-3 -6 -5 -19q39 18 82 65q49 53 17 60q-4 1 -9 1q-20 0 -44.5 -31t-40.5 -76z" />
    <glyph glyph-name="ecircumflex" unicode="&#xea;" horiz-adv-x="320" 
d="M103 538q-23 -17 -53 -8q-46 14 -21 89q7 21 20 46q24 44 56 75q24 25 39 25t40 -25q34 -34 56 -75q55 -105 7 -132q-26 -14 -55 1l-6 4q23 14 15.5 49t-25.5 69t-32 47q-13 -13 -31 -47t-25.5 -69t15.5 -49zM282 221q7 13 24.5 6t11.5 -21q-26 -47 -66.5 -100.5
t-81.5 -81.5q-36 -27 -96 -24t-93 33q-26 24 -34.5 60.5t0.5 76t28 80.5t48.5 73t63 54.5t70.5 24.5t71 -16q26 -13 34 -36t-1 -46.5t-29 -42.5q-45 -47 -145 -100q3 -27 18.5 -39t36.5 -9.5t43.5 13.5t41.5 28q29 32 55 67zM99 237q-2 -3 -3.5 -9.5t-3.5 -9.5q40 18 84 65
q48 53 16 60q-4 1 -9 1q-19 0 -43.5 -31t-40.5 -76z" />
    <glyph glyph-name="edieresis" unicode="&#xeb;" horiz-adv-x="317" 
d="M281 221q7 8 16.5 8t17.5 -7t4 -16q-26 -48 -67 -101t-83 -81q-35 -27 -95.5 -24t-93.5 33q-25 24 -33.5 60.5t0.5 76t28.5 80.5t48.5 73t62.5 54.5t70.5 24.5t72 -16q26 -13 33.5 -36t-1 -46.5t-28.5 -42.5q-46 -47 -145 -100q3 -27 18 -39t36.5 -9.5t44 13.5t41.5 28
q31 35 53 67zM99 237q-5 -12 -6 -19q40 18 84 65q48 53 15 60q-4 1 -9 1q-19 0 -43.5 -31.5t-40.5 -75.5zM191 499q-37 11 -29 49q8 34 41 50q23 10 45 4q37 -12 28 -50q-7 -34 -40 -50q-23 -10 -45 -3zM60 499q-37 11 -28 49q8 34 41 50q22 11 45 4q37 -12 28 -50
q-8 -34 -41 -50q-22 -11 -45 -3z" />
    <glyph glyph-name="igrave" unicode="&#xec;" horiz-adv-x="224" 
d="M145 467q-11 38 -32 70t-37 53.5t-19 37.5q-7 35 37 61q4 -5 21 -23.5t24 -26.5t20 -26t17 -29t8.5 -28t1 -30t-13.5 -29t-27 -30zM188 222q7 13 24.5 6t12.5 -21q-12 -20 -27 -43.5t-36.5 -51t-43 -50t-46 -38.5t-44.5 -18q-61 -7 -86 28t-8 100q36 129 131 270l132 -3
q-27 -48 -45 -80.5t-42.5 -81t-33 -76t0.5 -31.5q39 -11 111 90z" />
    <glyph glyph-name="iacute" unicode="&#xed;" horiz-adv-x="225" 
d="M188 222q7 13 24.5 6t12.5 -21q-15 -26 -35.5 -56.5t-48 -63.5t-58 -55.5t-55.5 -25.5q-61 -7 -86 28t-8 100q34 123 131 270l132 -3q-106 -192 -120 -239q-8 -27 0 -30q18 -5 46.5 16.5t64.5 73.5zM156 467q-15 13 -25 26t-12.5 27t-4 25.5t5.5 26.5t11.5 24.5
t17.5 25.5t19 23t21 23t19 21q42 -25 37 -61q-3 -16 -20 -37.5t-37.5 -53t-31.5 -70.5z" />
    <glyph glyph-name="icircumflex" unicode="&#xee;" horiz-adv-x="224" 
d="M188 222q7 13 24.5 6t12.5 -21q-15 -26 -35.5 -56.5t-48 -63.5t-58 -55.5t-55.5 -25.5q-61 -7 -86 28t-8 100q34 123 131 270l132 -3q-106 -192 -120 -239q-8 -27 0 -30q39 -11 111 90zM246 665q55 -105 7 -132q-26 -14 -54 1q-4 2 -6 4q22 14 14.5 49t-25.5 69t-31 47
q-13 -13 -31 -47t-26 -69t15 -49q-23 -17 -52 -8q-47 14 -22 89q8 21 21 46q23 44 56 75q24 25 38.5 25t39.5 -25q34 -34 56 -75z" />
    <glyph glyph-name="idieresis" unicode="&#xef;" horiz-adv-x="221" 
d="M188 222q7 13 24.5 6t12.5 -21q-15 -26 -35.5 -56.5t-48 -63.5t-58.5 -55.5t-56 -25.5q-61 -7 -85.5 28t-7.5 100q36 129 131 270l130 -3q-115 -209 -122 -252q-2 -15 4 -17q39 -11 111 90zM42 499q-37 11 -28 49q8 34 41 50q22 11 45 4q37 -12 28 -50q-8 -34 -41 -50
q-22 -11 -45 -3zM230 602q37 -12 28 -50q-8 -34 -40 -50q-23 -11 -45 -3q-38 11 -29 49q8 34 41 50q22 11 45 4z" />
    <glyph glyph-name="eth" unicode="&#xf0;" horiz-adv-x="336" 
d="M333 619q5 -10 1.5 -21t-14.5 -17l-76 -37l-16 -9q24 -48 42.5 -103.5t28 -122t2 -122.5t-42.5 -103.5t-98 -68.5q-94 -35 -151 45q-47 67 -40 166q7 102 70 144q36 25 84 21l58 -7q-17 61 -41 108l-113 -55q-10 -5 -21 -1.5t-17 13.5q-5 11 -1 21.5t14 15.5l109 55
q-24 34 -56 54q-11 7 -32 18q-27 15 -27 21q0 4 6 8l13 9.5t18.5 13t21 10t25.5 6t26.5 -3.5t30.5 -14t31.5 -30.5t33.5 -47.5l93 47q10 5 21 1.5t17 -14.5zM143 138q29 10 46 44t13.5 76.5t-28.5 73.5l-2 4q-26 25 -60 12q-47 -19 -51.5 -75.5t23 -100.5t59.5 -34z" />
    <glyph glyph-name="ntilde" unicode="&#xf1;" horiz-adv-x="401" 
d="M159 487q-41 -2 -62.5 16.5t-20.5 43.5q1 24 18 38t35 12.5t25 -16.5q-15 2 -15 -7q-1 -11 22 -12h9q15 2 30 5.5t27.5 7t25 7.5t28 7t31.5 4q42 2 63.5 -16t20.5 -44q-2 -24 -19 -38t-35 -12.5t-25 16.5q15 -1 16 8q1 11 -23 11h-8q-27 -3 -69.5 -16t-73.5 -15zM364 221
q8 13 25.5 6t11.5 -21q-14 -26 -34.5 -57t-48 -65t-58 -57.5t-56.5 -25.5l-5 -1q-36 -3 -57.5 13t-26 43.5t-1.5 56t13 56.5l66 156q-33 -13 -63 -57q-12 -27 -28.5 -70.5t-35.5 -88.5t-48 -110q-40 0 -74.5 16.5t-47.5 46.5q8 20 147 343q47 -3 142 -5q-16 -38 -17 -42
q21 13 42.5 23t44.5 17t40 6.5t30 -8.5t14.5 -28.5t-6.5 -52.5q-12 -28 -22.5 -54.5t-17.5 -44t-16.5 -42t-17.5 -45.5q39 -4 105 92z" />
    <glyph glyph-name="ograve" unicode="&#xf2;" horiz-adv-x="380" 
d="M143 467q-11 39 -32 70.5t-37.5 53t-19.5 37.5q-5 36 38 61q4 -4 21 -23.5t23.5 -27t20 -26t17.5 -29t8.5 -27.5t0.5 -30t-13.5 -29t-26.5 -30zM342 221q7 13 24.5 6t12.5 -21q-13 -23 -22 -39t-27 -41t-34 -40t-37.5 -26t-42.5 -9q-47 -49 -101 -51q-38 0 -71.5 20
t-54 55.5t-27.5 78t8 92t52 92.5q37 42 98 61q53 17 57 -9q1 -9 -4 -21q58 61 98 9q35 -46 31 -134q-3 -55 -24 -97q33 28 64 74zM116 131q-29 15 -25 81t38 122q-51 -52 -64 -124q-14 -68 25 -79q11 -3 26 0zM182 161z" />
    <glyph glyph-name="oacute" unicode="&#xf3;" horiz-adv-x="378" 
d="M167 467q-18 14 -27.5 30t-13.5 29t1 30t8.5 27.5t17 29t20 26t24 27t20.5 23.5q43 -25 39 -61q-3 -16 -20 -37.5t-37.5 -53t-31.5 -70.5zM341 221q6 8 16 8t17.5 -7t4.5 -16q-15 -27 -22.5 -39.5t-27 -39.5t-34.5 -41t-37 -25.5t-43 -9.5q-47 -49 -100 -51
q-38 0 -71.5 20t-54 55.5t-27.5 78t8 92t52 92.5q37 42 98 61q53 17 57 -9q1 -9 -4 -21q58 61 97 9q36 -46 31 -135q-3 -55 -23 -96q30 25 63 74zM115 131q-29 16 -24.5 81.5t38.5 121.5q-51 -52 -65 -124q-14 -69 26 -79q10 -3 25 0zM182 161z" />
    <glyph glyph-name="ocircumflex" unicode="&#xf4;" horiz-adv-x="378" 
d="M144 538q-21 -17 -50 -9q-47 13 -26 83q7 24 23 53q22 41 56 75q25 25 39.5 25t38.5 -25q32 -31 56 -75q55 -105 8 -132q-26 -14 -56 2q-3 1 -5 3q17 8 17 32.5t-11.5 51t-25 49.5t-22.5 32q-13 -13 -31 -47t-25.5 -69t14.5 -49zM341 221q6 8 16 8t17.5 -7t3.5 -16
q-13 -24 -22 -39t-27 -40.5t-33.5 -40.5t-37 -26t-43.5 -9q-47 -49 -101 -51q-38 0 -71.5 20t-53.5 55.5t-27 78t8 91.5t52 93q37 42 98 61q53 17 57 -10q1 -8 -4 -20q58 61 97 9q35 -46 31 -134q-3 -55 -24 -97q33 28 64 74zM115 131q-29 16 -25 81.5t38 121.5
q-50 -52 -64 -124q-13 -69 26 -79q11 -3 25 0zM181 161z" />
    <glyph glyph-name="otilde" unicode="&#xf5;" horiz-adv-x="379" 
d="M80 487q-40 -2 -61.5 16.5t-20.5 43.5q1 24 17.5 38t35 12.5t24.5 -16.5q-14 2 -15 -7q0 -11 21 -12h10q26 3 68.5 16t74.5 15q28 1 47.5 -7.5t28 -22.5t8.5 -30q-2 -24 -19 -38t-35.5 -12.5t-24.5 16.5q15 -1 16 8q1 11 -23 11h-8q-28 -3 -70.5 -16t-73.5 -15zM341 221
q6 8 16 8t17.5 -7t2.5 -16q-13 -24 -21.5 -39t-26.5 -40.5t-33.5 -40.5t-37.5 -26t-43 -9q-47 -49 -102 -51q-37 0 -70.5 20t-53.5 55.5t-27 78t8 92t52 92.5q36 42 97 61q54 17 58 -10q1 -8 -4 -20q57 61 97 9q35 -46 30 -134q-3 -55 -23 -97q32 28 64 74zM115 131
q-29 16 -25 81.5t37 121.5q-49 -52 -63 -124q-14 -69 26 -79q10 -3 25 0zM181 161z" />
    <glyph glyph-name="odieresis" unicode="&#xf6;" horiz-adv-x="378" 
d="M245 499q-36 11 -27 49q7 34 40 50q23 11 46 4q36 -12 28 -50q-8 -34 -41 -50q-23 -11 -46 -3zM115 499q-37 11 -28 49q8 34 41 50q23 10 45 4q37 -12 28 -50q-8 -34 -41 -50q-23 -10 -45 -3zM341 221q6 8 16 8t17.5 -7t4.5 -16q-15 -27 -22.5 -39.5t-27 -39.5t-34.5 -41
t-37 -25.5t-43 -9.5q-47 -49 -100 -51q-38 0 -71.5 20t-54 55.5t-27.5 78t8 92t52 92.5q37 42 98 61q53 17 57 -9q1 -9 -4 -21q58 61 98 9q35 -46 31 -134q-3 -55 -24 -97q30 25 63 74zM115 131q-29 16 -25 81.5t39 121.5q-51 -52 -65 -124q-14 -69 26 -79q10 -3 25 0z
M182 161z" />
    <glyph glyph-name="divide" unicode="&#xf7;" horiz-adv-x="394" 
d="M188 368q-37 11 -28 49q8 35 41 50q22 11 45 4q37 -11 28 -49q-8 -35 -41 -51q-22 -10 -45 -3zM269 313q45 0 74.5 -30.5t15.5 -76.5q-14 8 -264 8q-45 0 -75 30.5t-16 76.5q5 -3 30 -5t62.5 -2.5t68.5 -0.5h66h38zM175 183q37 -12 28 -49q-8 -35 -41 -51q-22 -10 -45 -3
q-37 11 -28 49q8 34 41 50q22 11 45 4z" />
    <glyph glyph-name="oslash" unicode="&#xf8;" horiz-adv-x="380" 
d="M342 221q8 13 25.5 6t11.5 -21q-13 -24 -21.5 -39t-26.5 -40.5t-33.5 -40.5t-37.5 -26t-43 -9q-22 -24 -48.5 -37t-53.5 -14q-3 0 -9.5 0.5t-9.5 0.5q-75 -187 -134 -202l-32 14q46 24 113 209q-32 20 -53 55t-27.5 77.5t8.5 91.5t52 92q30 33 80.5 54t67.5 8
q17 45 31.5 78t30 62t30.5 46t30 22l33 -8q-35 -27 -94 -199q32 -1 52 -44.5t19 -103.5t-24 -106q32 28 63 74zM94 170q-7 34 2.5 80t32.5 84q-45 -47 -61.5 -112.5t14.5 -86.5zM183 161q54 171 31 167q-3 -1 -7 -6q-3 -6 -38 -118q0 -29 14 -43z" />
    <glyph glyph-name="ugrave" unicode="&#xf9;" horiz-adv-x="429" 
d="M139 689q4 -5 19 -21t21 -23t19 -23t17 -25.5t11 -24.5t6 -26.5t-3.5 -25.5t-12.5 -27t-25 -26q-11 39 -31.5 70.5t-37.5 53t-20 37.5q-5 36 37 61zM393 221q6 8 16 8t17.5 -7t4.5 -16q-19 -34 -55 -77.5t-83.5 -82t-81.5 -41.5q-24 -2 -40.5 -1.5t-25.5 8t-13 15
t-4.5 18.5t1 20t3 18.5t0.5 14.5q-57 -102 -139 -98q-142 10 34 358q13 25 15 30q2 3 3.5 7t3.5 7l128 -1q-107 -221 -97 -263q6 -24 46 32q59 82 118 232l140 -1q-5 -15 -36.5 -84.5t-53 -125.5t-10.5 -60q10 -4 25.5 3t37 29t46.5 58z" />
    <glyph glyph-name="uacute" unicode="&#xfa;" horiz-adv-x="430" 
d="M207 467q-16 13 -26 26t-12.5 27t-3.5 25.5t6 26.5t11 24.5t17 25.5t18.5 23t21 23.5t19.5 20.5q43 -27 37 -61q-3 -16 -20 -37.5t-37.5 -53t-30.5 -70.5zM394 221q8 13 25.5 6t12.5 -21q-31 -57 -100.5 -127t-118.5 -74q-24 -2 -40.5 -1.5t-25.5 8t-13.5 14.5t-4.5 19
t1 20.5t3 18.5t2 14q-60 -102 -141 -98q-142 10 34 358q13 25 15 30q2 3 3.5 7t3.5 7l128 -1q-107 -221 -97 -263q6 -24 46 32q59 82 118 232l140 -1q-5 -15 -36.5 -84.5t-53 -125.5t-10.5 -60q37 -14 109 90z" />
    <glyph glyph-name="ucircumflex" unicode="&#xfb;" horiz-adv-x="429" 
d="M193 538q-22 -17 -52 -8q-47 14 -21 89q7 21 20 46q24 44 56 75q24 25 39 25t40 -25q34 -34 55 -75q56 -105 8 -132q-26 -14 -55 1l-6 4q23 14 15.5 49t-25.5 69t-32 47q-13 -13 -31.5 -47t-26 -69t15.5 -49zM393 221q6 8 16 8t17.5 -7t4.5 -16q-32 -57 -101 -127
t-119 -74q-24 -2 -40.5 -1.5t-25.5 8t-13 14.5t-4 19t1 20.5t3 18.5t2 14q-60 -102 -141 -98q-25 2 -40.5 14t-19.5 32.5t-3.5 44.5t10 55t18.5 57.5t23.5 58.5t24.5 52.5t22 44.5t14 29q1 3 2.5 5t2.5 4.5t2 4.5l128 -1q-107 -221 -97 -263q6 -24 46 32q59 82 118 232
l140 -1q-5 -15 -36.5 -84.5t-53 -125.5t-10.5 -60q37 -14 109 90z" />
    <glyph glyph-name="udieresis" unicode="&#xfc;" horiz-adv-x="428" 
d="M254 499q-36 11 -27 49q7 34 40 50q23 11 46 4q36 -12 28 -50q-8 -34 -41 -50q-23 -11 -46 -3zM125 499q-37 11 -28 49q8 34 41 50q23 10 45 4q37 -12 28 -50q-8 -34 -41 -50q-23 -10 -45 -3zM393 221q6 8 16 8t17.5 -7t2.5 -16q-29 -56 -98.5 -126.5t-119.5 -74.5
q-24 -2 -40.5 -1.5t-25.5 8t-13 15t-4.5 18.5t1 20t3 18.5t0.5 14.5q-57 -102 -139 -98q-142 10 34 358q13 25 15 30q2 3 3.5 7t3.5 7l128 -1q-107 -221 -97 -263q6 -24 46 32q59 82 118 232l140 -1q-5 -15 -36.5 -84.5t-53 -125.5t-10.5 -60q10 -4 25.5 3t37 29t46.5 58z
" />
    <glyph glyph-name="yacute" unicode="&#xfd;" horiz-adv-x="389" 
d="M213 467q-15 13 -25 26t-12.5 27t-3.5 25.5t6 26.5t11 24.5t17 25.5t19 23t21 23t19 21q44 -27 37 -61q-2 -13 -13.5 -30t-24 -32t-27.5 -42t-24 -57zM232 401h141q-13 -29 -87.5 -206.5t-115.5 -260.5q-98 -197 -254 -179q-55 7 -90.5 38.5t-37.5 84.5q-2 36 12.5 63.5
t37 41t52.5 11.5t58 -23q-28 -7 -33 -30q-5 -22 17 -27q10 -2 24 1q41 11 84.5 62t78.5 133q-55 -98 -124 -109q-50 -7 -72 34q-18 34 -2 83q20 55 41 101t47.5 98.5t40.5 81.5h125q-12 -27 -33.5 -73.5t-39 -85t-30.5 -72.5q-15 -39 2 -36q20 3 53 49q16 23 25 46
q14 33 26 58.5t27 56.5t27 59z" />
    <glyph glyph-name="thorn" unicode="&#xfe;" horiz-adv-x="305" 
d="M179 282q35 -38 35 -85q0 -49 -35 -87q-34 -34 -85 -34t-85 34q-1 2 -4 5l-4 4v-212q0 -5 -4 -9.5t-11 -4.5q-6 0 -10 4.5t-4 9.5v589q0 5 2 8.5t5 5t7 1.5q7 0 11 -4t4 -11v-223q3 4 8 9q34 34 85 34t85 -34zM94 105q26 0 44.5 18t23.5 45t1 53.5t-22.5 45.5t-46.5 20
q-38 0 -65 -27t-27 -63q0 -38 27 -65t65 -27z" />
    <glyph glyph-name="ydieresis" unicode="&#xff;" horiz-adv-x="389" 
d="M112 499q-37 11 -28 49q8 34 41 50q22 11 45 4q37 -12 28 -50q-8 -34 -41 -50q-22 -11 -45 -3zM243 499q-38 11 -29 49q8 34 41 50q22 11 45 4q37 -12 28 -50q-8 -34 -40 -50q-23 -11 -45 -3zM232 401h141q-13 -29 -87.5 -206.5t-115.5 -260.5q-98 -197 -254 -179
q-36 5 -63.5 19.5t-45.5 41.5t-19 62q-2 36 12.5 63.5t37 41t52.5 11.5t58 -23q-28 -7 -33 -30q-5 -22 16 -27q10 -2 23 1q43 11 86.5 62t78.5 133q-55 -98 -124 -109q-50 -7 -72 34q-18 34 -2 83q20 55 41 101t47.5 98.5t40.5 81.5h125q-12 -27 -33.5 -73.5t-39 -85
t-30.5 -72.5q-15 -39 2 -36q20 3 53 49q16 23 25 46q14 33 26 58.5t27 56.5t27 59z" />
    <glyph glyph-name="OE" unicode="&#x152;" horiz-adv-x="1174" 
d="M1025 683q79 10 131.5 -31.5t56.5 -98.5q2 -39 -17 -71.5t-60 -36.5q-50 -3 -71 18q-7 5 -42 44q-6 -2 -17.5 -7.5t-16.5 -8.5q3 -23 17 -56q38 -10 52 -32q-11 -39 -45 -52q-50 27 -93 20t-75 -34t-50.5 -59.5t-19.5 -58.5q-2 -56 45 -78q39 -20 70 3q18 13 21 37
q4 33 -7 51t-39 -11q1 52 40 80t84 16q63 -16 81 -81q19 -71 -28 -140q-62 -91 -192 -100l-20 -1q-65 -1 -112.5 28t-70.5 78q-50 -62 -109.5 -86.5t-114.5 -12.5q-85 17 -124 81.5t-29 150t60 172.5q1 2 3 5t3 5q-36 8 -66 -2t-45.5 -32t-20.5 -48.5t6 -53t36 -43.5
q-63 -17 -109.5 -8t-77 38t-45 63t-14.5 67q1 43 19.5 80.5t59 65t95.5 30.5q104 15 250 -36h1q54 68 108.5 107t97.5 47.5t79.5 -2t60.5 -36t36 -59.5h1v-1q5 -14 7 -25q15 -32 64 -24q7 54 43 92.5t103 46.5zM468 119q30 1 63.5 42t60 105.5t35.5 130.5q-16 -1 -38.5 3.5
t-44.5 10.5t-30 6q-52 -101 -67 -196.5t21 -101.5zM733 528q33 22 25 57q-7 31 -39 32q-66 2 -153 -117q43 -8 62 -8q-2 13 -4 23q24 32 54 36.5t55 -23.5zM770 411q57 27 123 34q0 3 -1 6l-2 6l-2 6q-48 -23 -102 -21h-3q-8 -11 -13 -14q1 -2 1 -3.5v-3.5t-0.5 -5t-0.5 -5z
M1077 572q30 -31 44 15q-26 35 -68 26t-59 -53q35 15 67 38z" />
    <glyph glyph-name="oe" unicode="&#x153;" horiz-adv-x="638" 
d="M601 221q8 13 26 6t12 -21q-26 -48 -67 -101t-83 -81q-35 -27 -95 -24t-94 33q-15 15 -25 36q-31 -20 -59 -18q-49 -49 -101 -51q-38 0 -71.5 20t-54 55.5t-27.5 78t8 91.5t52 93q37 42 98 61q53 17 57 -9q1 -9 -4 -21q28 29 52.5 31t40.5 -17t25.5 -51t9.5 -69
q45 80 115 120t133 3q26 -13 33.5 -36t-1 -46.5t-29.5 -42.5q-45 -47 -144 -100q3 -27 18 -39t36.5 -9.5t44 13.5t40.5 28q32 35 54 67zM419 237q-1 -3 -3 -9.5t-3 -9.5q40 18 84 65q48 53 15 60q-4 1 -9 1q-19 0 -44 -31.5t-40 -75.5zM115 131q-29 16 -24.5 81.5
t38.5 121.5q-51 -52 -65 -124q-14 -69 26 -79q11 -3 25 0zM182 161z" />
    <glyph glyph-name="Scaron" unicode="&#x160;" horiz-adv-x="711" 
d="M417 745q-33 30 -56 75q-55 104 -8 131q25 14 55 -2l6 -4q-16 -8 -16 -32t11 -50.5t24.5 -49.5t22.5 -31q9 8 22.5 31t24.5 49.5t11 50.5t-16 32q21 18 50 10q45 -12 26 -79q-7 -26 -23 -56q-24 -45 -56 -75q-25 -26 -39 -25.5t-39 25.5zM716 678q30 -24 33 -57.5
t-15 -64.5t-40.5 -55.5t-43.5 -38.5v-33q0 -47 -0.5 -72.5t-5 -71.5t-13 -74.5t-26 -66t-42.5 -61.5t-63.5 -46.5t-87.5 -34.5q-109 -18 -201 40q-116 -70 -210 -32q-64 26 -81 85q-19 69 40 124q13 12 29 22q33 -69 114 -57q-23 75 -6.5 143t66.5 115q47 44 113.5 56
t125.5 -12t86 -76q16 13 42.5 36t34.5 30q2 10 5 34.5t5 37.5q7 38 19.5 66.5t27 44t31.5 22.5t33 5.5t30 -8.5zM285 261q52 32 138 97q-35 9 -63 8.5t-44 -10t-26.5 -24.5t-10 -33.5t5.5 -37.5zM386 184q21 -7 39 -6t32.5 6t26.5 17t21 25.5t17 33t13.5 39t10.5 42.5
q-75 -82 -160 -157zM678 574q25 16 22 34q-3 13 -15 8q-17 -9 -27 -48q-3 -10 -3 -15q4 4 12 11t11 10z" />
    <glyph glyph-name="scaron" unicode="&#x161;" horiz-adv-x="344" 
d="M139 553q-35 36 -56 74q-54 104 -8 131q26 16 55 0q4 -2 7 -4q-17 -8 -17 -32t11 -50.5t24.5 -49.5t22.5 -32q10 9 24 32t25 49.5t11 50.5t-16 32q21 17 50 9q44 -13 25 -80q-7 -25 -23 -56q-22 -42 -56 -74q-24 -26 -39 -26t-40 26zM251 475q19 1 32.5 -16t9 -35.5
t-28.5 -21.5q18 -47 27 -95.5t7 -98t-18 -90.5t-52 -72.5t-90 -44.5q-78 -13 -134.5 36.5t-53.5 118.5q1 44 21 81.5t55.5 55.5t74.5 4q59 50 100 93q-3 29 12.5 56t37.5 29zM192 202q31 66 17 132q-7 -8 -30 -31.5t-31 -32.5q19 -18 20 -44q-54 12 -66 -20q-10 -26 10 -49
q24 -27 52 0q16 14 28 45z" />
    <glyph glyph-name="Ydieresis" unicode="&#x178;" horiz-adv-x="434" 
d="M281 764q-37 11 -28 49q8 34 41 50q22 11 45 4q37 -12 28 -49q-8 -35 -41 -51q-22 -10 -45 -3zM150 764q-36 11 -28 49q8 34 41 50q23 10 46 4q36 -12 28 -49q-8 -35 -41 -51q-23 -10 -46 -3zM367 651h141q-12 -27 -91.5 -208.5t-120.5 -263.5q-98 -199 -252 -180
q-56 7 -91.5 38.5t-36.5 85.5q-2 35 12 62.5t37 41t53 11t57 -23.5q-28 -6 -33 -30q-5 -21 17 -26q9 -2 23 1q17 4 41 20.5t41 34.5q-45 -14 -77.5 20.5t-30.5 78.5q2 28 14.5 61t24.5 56t17 59t-10 69q-8 22 -25.5 33.5t-35.5 12t-33 -8.5t-17 -26q-4 -21 12 -28t40 14
q19 -31 21 -65t-11.5 -62t-42.5 -45.5t-66 -17.5q-29 1 -51.5 11t-36.5 27t-21 38.5t-7 45.5q1 35 15 69t39.5 63t67 46.5t91.5 17.5q166 -5 179 -135q6 -62 -24 -145q-2 -4 -6 -13t-7.5 -17t-7 -17t-5.5 -16.5t-2 -12.5q2 -14 14 -16q14 -3 34.5 12t37.5 45
q18 36 36.5 80.5t30.5 76t26.5 72.5t19.5 54z" />
    <glyph glyph-name="Zcaron" unicode="&#x17d;" horiz-adv-x="699" 
d="M634 650q21 16 42.5 23.5t39.5 7.5t32.5 -4t22.5 -11t8 -14q0 -8 -2.5 -15t-6.5 -12t-10 -9.5t-12 -7t-14.5 -4.5t-15 -3t-16 -2t-15 -1h-14h-11.5q-42 -23 -79 -55t-62.5 -61.5t-52.5 -71.5t-42.5 -71.5t-39 -75t-37.5 -70.5q-7 -16 -15 -33q116 -58 146 -12
q17 25 -1 58q-5 8 -11 13q88 5 125 -49.5t6.5 -111.5t-104.5 -59q-36 -4 -68.5 4t-59 26.5t-42 32.5t-32.5 33q-79 -102 -190 -96q-50 2 -87.5 23.5t-55 51.5t-19 66t13.5 67t50.5 55t84.5 30q10 1 21.5 0t21 -3.5t20.5 -7t19.5 -8t19 -10t16.5 -10.5t15.5 -11.5t13.5 -10.5
t12 -10t10 -8q3 6 10 18q28 48 45.5 76.5t52 80.5t62 85t64 67t69.5 50q-162 -13 -220 -36q-33 -12 -35 -50q0 -24 16.5 -35.5t37.5 0.5q-15 -30 -44.5 -46t-64.5 -13q-44 4 -77.5 36t-33.5 74q1 55 38 90.5t89 41.5q195 20 366 -2zM136 199q5 -9 17.5 -13t26.5 -3t26.5 3.5
t23.5 6.5q-23 25 -44 34.5t-33 6.5t-17 -13q-7 -11 0 -22zM394 745q-32 30 -55 75q-56 104 -9 131q25 14 54 -1q4 -2 7 -5q-17 -8 -17 -32t11.5 -50.5t25 -49.5t23.5 -31q9 8 22.5 31t24.5 49.5t11 50.5t-16 32q21 18 50 10q45 -12 26 -79q-7 -26 -23 -56q-22 -41 -56 -75
q-25 -26 -39.5 -25.5t-39.5 25.5z" />
    <glyph glyph-name="zcaron" unicode="&#x17e;" horiz-adv-x="326" 
d="M112 553q-34 32 -56 74q-55 104 -9 131q26 16 55 0q4 -2 7 -4q-16 -8 -16 -32t11 -50.5t24.5 -49.5t22.5 -32q9 9 22.5 32t24.5 49.5t11 50.5t-16 32q21 17 50 9q46 -13 27 -80q-8 -25 -24 -56q-20 -38 -56 -74q-25 -26 -39.5 -26t-38.5 26zM288 221q8 13 25.5 6
t11.5 -21q-33 -63 -93 -99q14 -35 -6 -91.5t-58 -109.5t-91.5 -95t-100.5 -50q-51 -8 -95.5 2t-68.5 37q-18 21 -20.5 46.5t8 49.5t28.5 48t36 41t36 30q105 78 223 106v1q1 0 4.5 0.5t4.5 0.5q-4 9 -11.5 13.5t-12.5 6t-17.5 2.5t-15.5 1q-17 1 -22.5 10.5t10.5 25.5
q11 9 31 26q15 12 22 18t18 16t14.5 14.5t8.5 11.5t3.5 10.5t-4 8.5t-10 7t-18 5.5t-25.5 5.5t-34 3h-2q-12 -18 -40 -62t-50 -76t-45 -58q-16 -18 -29 0q-14 18 0 35l3 4q9 8 22 23.5t27 34.5t27.5 37.5t28.5 39t23 31.5h-1q-48 18 -44 55q1 29 19 46.5t42 20.5
q44 7 58 -19.5t-9 -60.5q55 -6 89 -17t44.5 -25.5t9.5 -31.5t-12 -34t-23 -34t-22 -31t-9.5 -25t14.5 -16q6 -3 9 -4q49 22 89 80zM66 365q4 7 4.5 13.5t-2.5 9.5t-10 0t-6.5 -10.5t14.5 -12.5zM123 61z" />
    <glyph glyph-name="endash" unicode="&#x2013;" horiz-adv-x="364" 
d="M268 272q45 0 75.5 -30.5t16.5 -76.5q-5 3 -30 5t-62.5 2.5t-68.5 0.5h-66.5h-38.5q-44 0 -74 30t-16 76q5 -3 30 -5t62 -2.5t68 -0.5t66 0.5t38 0.5z" />
    <glyph glyph-name="emdash" unicode="&#x2014;" horiz-adv-x="784" 
d="M688 272q45 0 75 -30t16 -77q-4 2 -41.5 4t-97 2.5t-127 1t-141 0.5h-129.5h-101h-47q-45 0 -75 30t-16 76q3 -2 33.5 -3.5t76.5 -2.5t106 -1.5t120 -0.5h122h107t80.5 0.5t38.5 0.5z" />
    <glyph glyph-name="quoteleft" unicode="&#x2018;" horiz-adv-x="214" 
d="M184 671q37 -11 28 -49q-8 -34 -41 -50q-22 -11 -45 -3q-27 8 -34 36t4.5 57.5t34.5 45.5q36 26 65 14q23 -11 9 -38q-18 22 -46 6q-16 -8 -9 -14q2 -2 6 -2h13q5 0 15 -3z" />
    <glyph glyph-name="quotedblleft" unicode="&#x201c;" horiz-adv-x="356" 
d="M184 671q37 -11 28 -49q-8 -34 -41 -50q-22 -11 -45 -3q-27 8 -34 36t4.5 57.5t34.5 45.5q36 26 65 14q23 -11 9 -38q-18 22 -47 6q-16 -8 -9 -14q3 -2 7 -2h13q5 0 15 -3zM326 671q37 -11 28 -49q-8 -34 -41 -50q-22 -10 -45 -3q-26 8 -33 36t4.5 57.5t33.5 45.5
q37 25 65 14q25 -10 10 -38q-19 21 -46 7q-17 -9 -10 -15q2 -2 6 -2h14q4 0 14 -3z" />
    <glyph glyph-name="quotedblbase" unicode="&#x201e;" horiz-adv-x="320" 
d="M-10 4q-36 11 -28 49q8 34 41 50q23 11 46 4q26 -8 33 -36t-4.5 -58t-33.5 -46q-37 -25 -66 -14q-24 10 -9 38q19 -21 46 -6q16 9 9 14q-2 2 -7 2h-13q-4 0 -14 3zM146 4q-36 11 -27 49q7 34 40 50q23 11 46 4q26 -8 33 -36t-4.5 -58t-33.5 -46q-37 -25 -66 -14
q-24 10 -9 38q19 -21 46 -6q16 9 9 14q-2 2 -7 2h-13q-4 0 -14 3z" />
    <glyph glyph-name="dagger" unicode="&#x2020;" horiz-adv-x="530" 
d="M467 539q26 0 44 -18t18 -44q0 -19 -11 -35t-28 -23l-1 -1h-2q-12 -3 -20 -3q-17 0 -30 8q-37 2 -140 2q-3 -8 -8 -26q-13 -37 -19 -56.5t-18 -55.5t-19.5 -56.5t-19.5 -51.5t-20.5 -50t-19.5 -43t-21 -38.5t-20.5 -29t-21.5 -22t-21 -10.5q-34 -7 -64 17q11 8 23.5 31
t24.5 52.5t27 73t28 83t30.5 92t30.5 90.5h-70q-4 0 -10.5 0.5t-9.5 0.5q-17 -11 -37 -11q-26 0 -44 18t-18 44t18.5 44t43.5 18q20 0 37 -12q10 -1 126 -4q22 59 44 98q-9 15 -9 30q0 26 18.5 44t44 18t44 -18t18.5 -44q0 -34 -27 -51q-20 -51 -28 -76h98q19 15 39 15z" />
    <glyph glyph-name="ellipsis" unicode="&#x2026;" horiz-adv-x="574" 
d="M88 107q36 -12 27 -49q-7 -35 -40 -51q-23 -11 -46 -3q-36 11 -28 49q8 34 41 50q23 11 46 4zM316 107q37 -12 28 -49q-8 -35 -41 -51q-23 -10 -45 -3q-37 11 -28 49q8 34 41 50q23 10 45 4zM544 107q37 -12 28 -49q-8 -35 -41 -51q-22 -11 -45 -3q-36 11 -28 49
q8 34 41 50q22 11 45 4z" />
    </font>
</defs>
</svg>
